<svg xmlns="http://www.w3.org/2000/svg" xmlns:xlink="http://www.w3.org/1999/xlink" width="500" zoomAndPan="magnify" viewBox="0 0 375 374.999991" height="500" preserveAspectRatio="xMidYMid meet" version="1.0"><defs><clipPath id="da25695a82"><path d="M 19.425781 203 L 355.464844 203 L 355.464844 375 L 19.425781 375 Z M 19.425781 203 " clip-rule="nonzero"/></clipPath></defs><path fill="currentColor" d="M 292.800781 105.375 C 292.800781 163.566406 245.632812 210.738281 187.4375 210.738281 C 129.257812 210.738281 82.074219 163.566406 82.074219 105.375 C 82.074219 47.179688 129.257812 0.0117188 187.4375 0.0117188 C 245.632812 0.0117188 292.800781 47.179688 292.800781 105.375 " fill-opacity="1" fill-rule="nonzero"/><g clip-path="url(#da25695a82)"><path fill="currentColor" d="M 187.4375 375.050781 C 253.039062 375.050781 312.425781 363.3125 355.464844 320.378906 C 355.464844 266.316406 304.679688 224.878906 255.632812 203.898438 C 238.066406 221.148438 214.007812 231.792969 187.4375 231.792969 C 160.882812 231.792969 136.8125 221.148438 119.253906 203.898438 C 70.199219 224.878906 19.425781 263.96875 19.425781 320.378906 C 62.453125 363.3125 121.847656 375.050781 187.4375 375.050781 " fill-opacity="1" fill-rule="nonzero"/></g></svg>