<svg xmlns="http://www.w3.org/2000/svg" xmlns:xlink="http://www.w3.org/1999/xlink" width="500" zoomAndPan="magnify" viewBox="0 0 375 374.999991" height="500" preserveAspectRatio="xMidYMid meet" version="1.0"><defs><clipPath id="5db5413924"><path d="M 53.671875 281 L 309 281 L 309 375 L 53.671875 375 Z M 53.671875 281 " clip-rule="nonzero"/></clipPath><clipPath id="f942d805dc"><path d="M 190 0 L 321.421875 0 L 321.421875 132 L 190 132 Z M 190 0 " clip-rule="nonzero"/></clipPath></defs><g clip-path="url(#5db5413924)"><path fill="currentColor" d="M 180.851562 281.179688 C 110.726562 281.179688 53.671875 320.203125 53.671875 368.167969 C 53.671875 368.605469 53.714844 369.042969 53.800781 369.472656 C 53.886719 369.902344 54.011719 370.324219 54.179688 370.730469 C 54.347656 371.132812 54.554688 371.519531 54.800781 371.886719 C 55.042969 372.25 55.320312 372.589844 55.632812 372.898438 C 55.941406 373.210938 56.28125 373.488281 56.648438 373.730469 C 57.011719 373.976562 57.398438 374.183594 57.804688 374.351562 C 58.210938 374.519531 58.628906 374.644531 59.058594 374.730469 C 59.492188 374.816406 59.925781 374.859375 60.367188 374.859375 L 301.339844 374.859375 C 301.78125 374.859375 302.214844 374.816406 302.644531 374.730469 C 303.078125 374.644531 303.496094 374.519531 303.902344 374.351562 C 304.308594 374.183594 304.695312 373.976562 305.058594 373.730469 C 305.425781 373.488281 305.761719 373.210938 306.074219 372.898438 C 306.382812 372.589844 306.660156 372.25 306.90625 371.886719 C 307.152344 371.519531 307.355469 371.132812 307.523438 370.730469 C 307.691406 370.324219 307.820312 369.902344 307.90625 369.472656 C 307.992188 369.042969 308.035156 368.605469 308.035156 368.167969 C 308.035156 320.203125 250.980469 281.179688 180.851562 281.179688 Z M 180.851562 281.179688 " fill-opacity="1" fill-rule="nonzero"/></g><g clip-path="url(#f942d805dc)"><path fill="currentColor" d="M 314.769531 0.140625 C 311.824219 0.0234375 245.6875 0.132812 210.597656 35.226562 C 185.515625 60.296875 183.566406 93.371094 205.863281 115.660156 C 207.253906 117.039062 208.707031 118.347656 210.230469 119.582031 C 220.726562 96.003906 235.746094 76.378906 257.285156 66.441406 C 257.6875 66.257812 258.097656 66.113281 258.527344 66.011719 C 258.953125 65.90625 259.386719 65.847656 259.828125 65.832031 C 260.265625 65.8125 260.703125 65.839844 261.136719 65.90625 C 261.570312 65.976562 261.996094 66.085938 262.40625 66.238281 C 262.820312 66.390625 263.214844 66.582031 263.589844 66.808594 C 263.964844 67.039062 264.3125 67.304688 264.632812 67.601562 C 264.957031 67.898438 265.25 68.226562 265.507812 68.582031 C 265.765625 68.9375 265.988281 69.316406 266.171875 69.714844 C 266.355469 70.113281 266.5 70.527344 266.601562 70.953125 C 266.703125 71.382812 266.765625 71.8125 266.78125 72.253906 C 266.796875 72.691406 266.773438 73.128906 266.703125 73.5625 C 266.636719 73.996094 266.523438 74.421875 266.375 74.832031 C 266.222656 75.246094 266.03125 75.636719 265.800781 76.011719 C 265.570312 76.386719 265.308594 76.738281 265.007812 77.058594 C 264.710938 77.382812 264.382812 77.671875 264.027344 77.929688 C 263.671875 78.1875 263.292969 78.410156 262.894531 78.59375 C 244.128906 87.25 230.929688 105.027344 221.632812 126.664062 C 228.117188 129.640625 234.921875 131.132812 242.058594 131.140625 C 246.230469 130.996094 250.351562 130.449219 254.414062 129.492188 C 258.480469 128.535156 262.410156 127.1875 266.210938 125.453125 C 270.007812 123.71875 273.601562 121.628906 276.984375 119.183594 C 280.371094 116.742188 283.484375 113.988281 286.324219 110.925781 C 321.441406 75.832031 321.441406 9.597656 321.421875 6.792969 C 321.417969 6.355469 321.375 5.925781 321.289062 5.496094 C 321.203125 5.070312 321.074219 4.65625 320.90625 4.253906 C 320.738281 3.851562 320.53125 3.46875 320.289062 3.105469 C 320.046875 2.742188 319.769531 2.40625 319.460938 2.097656 C 319.152344 1.789062 318.820312 1.515625 318.457031 1.273438 C 318.09375 1.03125 317.710938 0.824219 317.308594 0.65625 C 316.90625 0.488281 316.492188 0.359375 316.0625 0.273438 C 315.636719 0.1875 315.203125 0.144531 314.769531 0.140625 Z M 314.769531 0.140625 " fill-opacity="1" fill-rule="nonzero"/></g><path fill="currentColor" d="M 95.554688 156.996094 C 95.207031 156.738281 94.890625 156.445312 94.601562 156.125 C 94.3125 155.800781 94.058594 155.457031 93.835938 155.085938 C 93.617188 154.714844 93.433594 154.324219 93.285156 153.917969 C 93.140625 153.511719 93.035156 153.097656 92.96875 152.667969 C 92.902344 152.242188 92.878906 151.8125 92.898438 151.378906 C 92.914062 150.949219 92.972656 150.523438 93.074219 150.101562 C 93.175781 149.683594 93.3125 149.277344 93.492188 148.882812 C 93.671875 148.488281 93.886719 148.117188 94.136719 147.765625 C 94.390625 147.414062 94.671875 147.089844 94.984375 146.792969 C 95.300781 146.496094 95.640625 146.230469 96.003906 146 C 96.371094 145.769531 96.753906 145.574219 97.15625 145.417969 C 97.558594 145.261719 97.972656 145.144531 98.398438 145.070312 C 98.824219 144.992188 99.253906 144.957031 99.683594 144.964844 C 100.117188 144.96875 100.542969 145.019531 100.96875 145.109375 C 101.390625 145.195312 101.800781 145.324219 102.199219 145.496094 C 102.597656 145.664062 102.972656 145.867188 103.332031 146.109375 C 109.507812 151.035156 115.117188 156.535156 120.171875 162.605469 C 125.222656 168.675781 129.605469 175.195312 133.328125 182.160156 C 135.015625 180.964844 136.59375 179.636719 138.058594 178.175781 C 139.886719 176.476562 141.484375 174.578125 142.84375 172.484375 C 144.207031 170.390625 145.292969 168.164062 146.105469 165.800781 C 146.917969 163.441406 147.429688 161.015625 147.644531 158.527344 C 147.859375 156.039062 147.769531 153.5625 147.371094 151.097656 C 146.394531 146.304688 144.703125 141.777344 142.304688 137.511719 C 139.90625 133.25 136.914062 129.453125 133.324219 126.128906 C 131.101562 124.035156 128.785156 122.050781 126.371094 120.183594 C 123.957031 118.3125 121.457031 116.5625 118.875 114.9375 C 116.289062 113.3125 113.632812 111.816406 110.902344 110.449219 C 108.171875 109.082031 105.378906 107.851562 102.527344 106.753906 C 99.679688 105.660156 96.78125 104.707031 93.835938 103.894531 C 90.894531 103.082031 87.917969 102.414062 84.910156 101.890625 C 81.902344 101.367188 78.875 100.992188 75.828125 100.765625 C 72.78125 100.539062 69.734375 100.457031 66.679688 100.527344 C 66.273438 100.550781 65.871094 100.609375 65.476562 100.707031 C 65.078125 100.800781 64.695312 100.933594 64.324219 101.097656 C 63.953125 101.265625 63.597656 101.464844 63.261719 101.695312 C 62.925781 101.925781 62.613281 102.1875 62.324219 102.472656 C 62.039062 102.761719 61.777344 103.074219 61.546875 103.410156 C 61.316406 103.746094 61.117188 104.097656 60.949219 104.472656 C 60.785156 104.84375 60.652344 105.226562 60.558594 105.621094 C 60.460938 106.019531 60.402344 106.421875 60.378906 106.828125 C 60.308594 109.878906 60.386719 112.925781 60.617188 115.972656 C 60.84375 119.015625 61.21875 122.042969 61.742188 125.050781 C 62.265625 128.058594 62.933594 131.03125 63.746094 133.976562 C 64.558594 136.917969 65.511719 139.8125 66.609375 142.664062 C 67.703125 145.511719 68.9375 148.300781 70.304688 151.03125 C 71.671875 153.761719 73.167969 156.417969 74.792969 159 C 76.421875 161.585938 78.171875 164.082031 80.039062 166.496094 C 81.910156 168.910156 83.894531 171.226562 85.988281 173.445312 C 89.316406 177.035156 93.113281 180.027344 97.378906 182.425781 C 101.644531 184.824219 106.175781 186.507812 110.96875 187.488281 C 112.617188 187.753906 114.277344 187.886719 115.945312 187.886719 C 117.539062 187.855469 119.117188 187.691406 120.683594 187.402344 C 117.535156 181.558594 113.84375 176.078125 109.617188 170.960938 C 105.386719 165.84375 100.699219 161.191406 95.554688 156.996094 Z M 95.554688 156.996094 " fill-opacity="1" fill-rule="nonzero"/><path fill="currentColor" d="M 180.847656 294.5625 C 180.09375 294.5625 179.359375 294.4375 178.648438 294.1875 C 177.9375 293.941406 177.285156 293.582031 176.695312 293.117188 C 176.105469 292.648438 175.609375 292.097656 175.203125 291.460938 C 174.800781 290.828125 174.511719 290.144531 174.335938 289.410156 C 174.074219 288.292969 147.59375 177.714844 103.332031 146.105469 C 102.984375 145.847656 102.667969 145.558594 102.378906 145.234375 C 102.085938 144.914062 101.832031 144.566406 101.609375 144.195312 C 101.386719 143.824219 101.199219 143.4375 101.054688 143.027344 C 100.90625 142.621094 100.800781 142.203125 100.734375 141.777344 C 100.667969 141.347656 100.644531 140.917969 100.660156 140.488281 C 100.675781 140.054688 100.734375 139.628906 100.835938 139.207031 C 100.9375 138.785156 101.074219 138.378906 101.253906 137.984375 C 101.433594 137.589844 101.648438 137.214844 101.902344 136.863281 C 102.152344 136.511719 102.4375 136.1875 102.75 135.890625 C 103.066406 135.59375 103.40625 135.328125 103.773438 135.097656 C 104.136719 134.867188 104.523438 134.671875 104.925781 134.515625 C 105.332031 134.359375 105.746094 134.242188 106.171875 134.167969 C 106.597656 134.089844 107.027344 134.054688 107.460938 134.0625 C 107.894531 134.070312 108.320312 134.121094 108.746094 134.210938 C 109.167969 134.300781 109.578125 134.429688 109.976562 134.601562 C 110.375 134.769531 110.753906 134.976562 111.113281 135.21875 C 139.914062 155.785156 161.058594 203.78125 173.699219 240.238281 C 175.839844 180.460938 189.242188 83.101562 251.679688 54.289062 C 252.078125 54.105469 252.492188 53.964844 252.917969 53.859375 C 253.347656 53.757812 253.78125 53.699219 254.21875 53.683594 C 254.65625 53.664062 255.09375 53.691406 255.527344 53.757812 C 255.960938 53.828125 256.386719 53.9375 256.796875 54.089844 C 257.210938 54.242188 257.601562 54.433594 257.976562 54.664062 C 258.351562 54.894531 258.699219 55.15625 259.023438 55.457031 C 259.34375 55.753906 259.636719 56.078125 259.894531 56.433594 C 260.152344 56.789062 260.375 57.167969 260.558594 57.566406 C 260.742188 57.964844 260.886719 58.378906 260.988281 58.804688 C 261.089844 59.230469 261.152344 59.664062 261.167969 60.105469 C 261.183594 60.542969 261.160156 60.980469 261.089844 61.414062 C 261.023438 61.847656 260.914062 62.269531 260.761719 62.679688 C 260.609375 63.09375 260.417969 63.488281 260.191406 63.863281 C 259.960938 64.234375 259.695312 64.585938 259.398438 64.90625 C 259.101562 65.230469 258.773438 65.519531 258.417969 65.78125 C 258.0625 66.039062 257.6875 66.257812 257.289062 66.445312 C 175.480469 104.1875 187.40625 285.574219 187.527344 287.398438 C 187.558594 287.855469 187.542969 288.3125 187.480469 288.765625 C 187.417969 289.222656 187.3125 289.664062 187.15625 290.097656 C 187.003906 290.53125 186.808594 290.945312 186.570312 291.335938 C 186.332031 291.730469 186.054688 292.09375 185.742188 292.429688 C 185.429688 292.765625 185.085938 293.066406 184.710938 293.332031 C 184.335938 293.597656 183.9375 293.820312 183.515625 294.003906 C 183.09375 294.1875 182.660156 294.328125 182.210938 294.421875 C 181.761719 294.515625 181.304688 294.5625 180.847656 294.5625 Z M 180.847656 294.5625 " fill-opacity="1" fill-rule="nonzero"/></svg>