<svg xmlns="http://www.w3.org/2000/svg" xmlns:xlink="http://www.w3.org/1999/xlink" width="500" zoomAndPan="magnify" viewBox="0 0 375 374.999991" height="500" preserveAspectRatio="xMidYMid meet" version="1.0"><defs><clipPath id="1c46da8d78"><path d="M 2 47.148438 L 345 47.148438 L 345 282 L 2 282 Z M 2 47.148438 " clip-rule="nonzero"/></clipPath></defs><path fill="currentColor" d="M 306.957031 215.765625 C 318.046875 214.503906 329.234375 218.203125 338.324219 224.414062 C 342.269531 227.109375 346.738281 231.859375 351.710938 232.425781 C 358.546875 233.207031 359.492188 234.390625 363.714844 240.582031 C 386.726562 274.335938 365.054688 318.453125 326.265625 325.359375 L 323.949219 325.777344 C 310.167969 327.816406 295.695312 323.296875 284.628906 315.113281 C 246.601562 286.988281 255.578125 222.070312 306.957031 215.765625 Z M 315.164062 258.472656 C 303.429688 262.101562 300.859375 276.402344 311.878906 281.824219 L 314.792969 282.921875 C 316.324219 283.40625 318.242188 283.234375 319.8125 283.058594 C 332.21875 279.136719 333.933594 262.808594 320.6875 258.863281 L 320.289062 258.738281 C 318.667969 258.261719 316.832031 258.25 315.164062 258.472656 Z M 315.164062 258.472656 " fill-opacity="1" fill-rule="nonzero"/><path fill="currentColor" d="M 72.625 180.144531 C 110.78125 177.3125 145.988281 208.203125 149.335938 246.09375 C 152.96875 287.199219 121.421875 322.65625 80.710938 326.113281 C 40.9375 326.902344 6.945312 298.992188 4.214844 258.351562 C 1.609375 219.554688 33.765625 182.582031 72.625 180.144531 Z M 74.09375 226.621094 C 59.902344 228.21875 49.074219 242.167969 50.804688 256.285156 C 52.621094 271.082031 65.648438 280.851562 80.273438 279.507812 C 93.953125 277.941406 105.175781 264.546875 103.480469 250.726562 L 102.839844 247.066406 C 100.089844 233.882812 87.191406 225.359375 74.09375 226.621094 Z M 74.09375 226.621094 " fill-opacity="1" fill-rule="nonzero"/><g clip-path="url(#1c46da8d78)"><path fill="currentColor" d="M 64.851562 47.511719 C 67.394531 47.394531 69.992188 47.542969 72.542969 47.542969 C 110.238281 47.554688 147.9375 47.542969 185.632812 47.542969 C 192.867188 47.542969 200.386719 47.140625 207.597656 47.632812 C 220.726562 48.53125 224.738281 71.796875 204.652344 74.085938 L 220.578125 167.566406 L 261.5 167.726562 C 261.492188 146.613281 261.492188 125.5 261.488281 104.382812 C 261.488281 95.089844 261.894531 94.253906 268.507812 87.660156 C 270.773438 85.398438 273.058594 83.152344 275.3125 80.878906 C 281.726562 74.410156 288.78125 65.226562 299.164062 72.515625 C 303.648438 75.664062 305.464844 82.269531 303.546875 87.386719 C 300.816406 94.671875 292.777344 97.992188 288.359375 103.976562 L 288.3125 167.59375 C 298.328125 167.910156 308.421875 167.667969 318.449219 167.671875 C 322.574219 167.671875 327.199219 167.304688 331.273438 167.847656 L 331.621094 167.898438 C 344.957031 169.550781 344.738281 182.503906 344.761719 192.269531 C 344.769531 195.5625 345.226562 215.988281 343.765625 218.28125 C 341.09375 218.882812 336.714844 215.867188 334.363281 214.808594 C 324.53125 210.394531 313.5 208.335938 302.808594 210.378906 L 299.628906 210.949219 C 285.21875 213.976562 271.632812 223.308594 263.546875 235.558594 C 254.695312 248.960938 253.734375 265.085938 256.875 280.492188 C 253.566406 280.796875 250.203125 280.695312 246.882812 280.695312 C 221.351562 280.707031 195.824219 280.695312 170.292969 280.699219 C 166.570312 280.699219 162.925781 280.546875 159.265625 281.347656 C 155.257812 278.824219 157.515625 274.824219 158.269531 271.132812 C 161.117188 257.1875 160.761719 241.648438 156.542969 228.046875 C 142.613281 183.117188 91.394531 157.492188 48.183594 177.195312 C 40.878906 180.527344 33.628906 184.90625 27.28125 189.867188 C 20.992188 194.78125 18.960938 197.527344 9.871094 192.570312 L 9.15625 192.179688 C 3.199219 188.878906 0.0898438 180.230469 3.652344 174.164062 C 5.445312 171.113281 8.820312 168.488281 11.523438 166.238281 C 24.65625 155.296875 39.5625 147.589844 56.160156 143.324219 C 60.199219 123.203125 63.351562 101.40625 66.390625 81.117188 C 66.75 78.722656 66.824219 76.292969 67.476562 73.957031 C 54.441406 73.796875 46.222656 61.136719 54.601562 51.890625 C 57.542969 48.640625 60.582031 47.738281 64.851562 47.511719 Z M 95.3125 74.167969 C 94.234375 77.511719 93.945312 81.371094 93.289062 84.84375 C 90.492188 99.621094 88.160156 114.523438 85.648438 129.355469 C 85.066406 132.789062 84.285156 136.28125 84.121094 139.761719 C 121.945312 143.53125 155.738281 165.25 174.199219 198.390625 C 175.980469 201.585938 177.765625 204.882812 179.035156 208.320312 L 182.421875 205.203125 L 196.539062 191.042969 L 177.261719 74.460938 C 173.726562 73.859375 169.9375 74.109375 166.355469 74.109375 C 142.683594 74.101562 118.972656 73.617188 95.3125 74.167969 Z M 95.3125 74.167969 " fill-opacity="1" fill-rule="nonzero"/></g></svg>