<svg xmlns="http://www.w3.org/2000/svg" xmlns:xlink="http://www.w3.org/1999/xlink" width="500" zoomAndPan="magnify" viewBox="0 0 375 374.999991" height="500" preserveAspectRatio="xMidYMid meet" version="1.0"><path fill="currentColor" d="M 204.523438 108.914062 C 236.851562 99.402344 306.332031 88.859375 333.296875 161.941406 C 340.652344 181.839844 342.726562 203.269531 340.707031 224.382812 C 337.875 254.167969 327.488281 299.527344 293.199219 339.367188 C 271.242188 364.890625 236.378906 374.929688 204.496094 364.089844 C 202.207031 363.316406 199.917969 362.472656 197.640625 361.554688 C 191.121094 358.9375 183.808594 358.980469 177.300781 361.585938 C 175.167969 362.429688 173.023438 363.230469 170.890625 363.960938 C 139.121094 374.859375 104.085938 365.132812 82.113281 339.726562 C 47.683594 299.929688 37.195312 254.539062 34.304688 224.671875 C 32.261719 203.457031 34.320312 181.941406 41.703125 161.941406 C 62.644531 105.179688 112.640625 92.089844 170.648438 108.957031 C 185.828125 113.375 206.441406 108.628906 204.523438 108.914062 " fill-opacity="1" fill-rule="nonzero"/><path fill="currentColor" d="M 259.667969 2.28125 C 198.042969 0.0664062 180.074219 43.136719 175.027344 63.59375 C 165.328125 52.492188 151.679688 42.523438 133.441406 36.214844 C 129.9375 35.011719 126.101562 36.871094 124.886719 40.390625 C 123.671875 43.898438 125.542969 47.730469 129.050781 48.945312 C 158.144531 59.003906 173.496094 79.53125 178.773438 96.910156 C 180.960938 97.210938 183.378906 97.382812 185.996094 97.382812 C 188.445312 97.382812 190.734375 97.253906 192.777344 97.070312 C 191.234375 90.574219 188.472656 83.59375 184.425781 76.667969 C 214.835938 81.347656 236.722656 65.882812 245.292969 55.871094 C 266.394531 31.195312 259.667969 2.28125 259.667969 2.28125 " fill-opacity="1" fill-rule="nonzero"/></svg>