<svg xmlns="http://www.w3.org/2000/svg" xmlns:xlink="http://www.w3.org/1999/xlink" width="500" zoomAndPan="magnify" viewBox="0 0 375 374.999991" height="500" preserveAspectRatio="xMidYMid meet" version="1.0"><path fill="currentColor" d="M 319.699219 -0.28125 C 305.125 -0.28125 290.527344 5.421875 279.140625 16.789062 L 277.195312 18.730469 L 358.402344 99.914062 L 360.257812 98.078125 C 383.03125 75.308594 383.03125 39.558594 360.257812 16.789062 C 348.875 5.421875 334.277344 -0.28125 319.699219 -0.28125 Z M 243.457031 52.496094 L 59.828125 236.101562 C 56.945312 238.984375 47.308594 254.257812 38.675781 273.140625 C 22.222656 309.371094 11.273438 341.453125 -0.113281 377.332031 C 30.175781 367.566406 68.964844 354.148438 103.90625 338.371094 C 122.765625 329.738281 138.238281 320.101562 141.121094 317.21875 L 324.703125 133.609375 L 243.457031 52.496094 " fill-opacity="1" fill-rule="nonzero"/></svg>