<svg xmlns="http://www.w3.org/2000/svg" xmlns:xlink="http://www.w3.org/1999/xlink" width="500" zoomAndPan="magnify" viewBox="0 0 375 374.999991" height="500" preserveAspectRatio="xMidYMid meet" version="1.0"><path fill="currentColor" d="M 343.75 131.25 C 343.75 132.683594 343.679688 134.113281 343.539062 135.539062 C 343.398438 136.964844 343.1875 138.378906 342.910156 139.785156 C 342.628906 141.191406 342.28125 142.578125 341.867188 143.949219 C 341.449219 145.320312 340.96875 146.667969 340.417969 147.992188 C 339.871094 149.316406 339.257812 150.609375 338.585938 151.875 C 337.910156 153.136719 337.171875 154.363281 336.375 155.554688 C 335.582031 156.746094 334.726562 157.898438 333.820312 159.003906 C 332.910156 160.113281 331.949219 161.171875 330.9375 162.1875 C 329.921875 163.199219 328.863281 164.160156 327.753906 165.070312 C 326.648438 165.976562 325.496094 166.832031 324.304688 167.625 C 323.113281 168.421875 321.886719 169.160156 320.625 169.835938 C 319.359375 170.507812 318.066406 171.121094 316.742188 171.667969 C 315.417969 172.21875 314.070312 172.699219 312.699219 173.117188 C 311.328125 173.53125 309.941406 173.878906 308.535156 174.160156 C 307.128906 174.4375 305.714844 174.648438 304.289062 174.789062 C 302.863281 174.929688 301.433594 175 300 175 C 298.566406 175 297.136719 174.929688 295.710938 174.789062 C 294.285156 174.648438 292.871094 174.4375 291.464844 174.160156 C 290.058594 173.878906 288.671875 173.53125 287.300781 173.117188 C 285.929688 172.699219 284.582031 172.21875 283.257812 171.667969 C 281.933594 171.121094 280.640625 170.507812 279.375 169.835938 C 278.113281 169.160156 276.886719 168.421875 275.695312 167.625 C 274.503906 166.832031 273.351562 165.976562 272.246094 165.070312 C 271.136719 164.160156 270.078125 163.199219 269.0625 162.1875 C 268.050781 161.171875 267.089844 160.113281 266.179688 159.003906 C 265.273438 157.898438 264.417969 156.746094 263.625 155.554688 C 262.828125 154.363281 262.089844 153.136719 261.414062 151.875 C 260.742188 150.609375 260.128906 149.316406 259.582031 147.992188 C 259.03125 146.667969 258.550781 145.320312 258.132812 143.949219 C 257.71875 142.578125 257.371094 141.191406 257.089844 139.785156 C 256.8125 138.378906 256.601562 136.964844 256.460938 135.539062 C 256.320312 134.113281 256.25 132.683594 256.25 131.25 C 256.25 129.816406 256.320312 128.386719 256.460938 126.960938 C 256.601562 125.535156 256.8125 124.121094 257.089844 122.714844 C 257.371094 121.308594 257.71875 119.921875 258.132812 118.550781 C 258.550781 117.179688 259.03125 115.832031 259.582031 114.507812 C 260.128906 113.183594 260.742188 111.890625 261.414062 110.625 C 262.089844 109.363281 262.828125 108.136719 263.625 106.945312 C 264.417969 105.753906 265.273438 104.601562 266.179688 103.496094 C 267.089844 102.386719 268.050781 101.328125 269.0625 100.3125 C 270.078125 99.300781 271.136719 98.339844 272.246094 97.429688 C 273.351562 96.523438 274.503906 95.667969 275.695312 94.875 C 276.886719 94.078125 278.113281 93.339844 279.375 92.664062 C 280.640625 91.992188 281.933594 91.378906 283.257812 90.832031 C 284.582031 90.28125 285.929688 89.800781 287.300781 89.382812 C 288.671875 88.96875 290.058594 88.621094 291.464844 88.339844 C 292.871094 88.0625 294.285156 87.851562 295.710938 87.710938 C 297.136719 87.570312 298.566406 87.5 300 87.5 C 301.433594 87.5 302.863281 87.570312 304.289062 87.710938 C 305.714844 87.851562 307.128906 88.0625 308.535156 88.339844 C 309.941406 88.621094 311.328125 88.96875 312.699219 89.382812 C 314.070312 89.800781 315.417969 90.28125 316.742188 90.832031 C 318.066406 91.378906 319.359375 91.992188 320.625 92.664062 C 321.886719 93.339844 323.113281 94.078125 324.304688 94.875 C 325.496094 95.667969 326.648438 96.523438 327.753906 97.429688 C 328.863281 98.339844 329.921875 99.300781 330.9375 100.3125 C 331.949219 101.328125 332.910156 102.386719 333.820312 103.496094 C 334.726562 104.601562 335.582031 105.753906 336.375 106.945312 C 337.171875 108.136719 337.910156 109.363281 338.585938 110.625 C 339.257812 111.890625 339.871094 113.183594 340.417969 114.507812 C 340.96875 115.832031 341.449219 117.179688 341.867188 118.550781 C 342.28125 119.921875 342.628906 121.308594 342.910156 122.714844 C 343.1875 124.121094 343.398438 125.535156 343.539062 126.960938 C 343.679688 128.386719 343.75 129.816406 343.75 131.25 Z M 343.75 131.25 " fill-opacity="1" fill-rule="nonzero"/><path fill="currentColor" d="M 357.375 169.125 C 355.949219 171.289062 354.410156 173.367188 352.75 175.355469 C 351.09375 177.347656 349.328125 179.238281 347.460938 181.03125 C 345.589844 182.824219 343.625 184.507812 341.566406 186.078125 C 339.507812 187.652344 337.367188 189.101562 335.144531 190.433594 C 332.921875 191.765625 330.632812 192.96875 328.277344 194.046875 C 325.921875 195.121094 323.511719 196.058594 321.046875 196.863281 C 318.585938 197.667969 316.085938 198.335938 313.550781 198.859375 C 311.011719 199.382812 308.453125 199.761719 305.875 200 C 310.257812 212.117188 312.46875 224.617188 312.5 237.5 L 312.5 275 L 337.5 275 C 338.726562 275 339.953125 274.941406 341.175781 274.820312 C 342.398438 274.699219 343.609375 274.519531 344.816406 274.28125 C 346.019531 274.039062 347.210938 273.742188 348.386719 273.386719 C 349.5625 273.027344 350.714844 272.617188 351.851562 272.144531 C 352.984375 271.675781 354.09375 271.152344 355.175781 270.570312 C 356.261719 269.992188 357.3125 269.363281 358.332031 268.679688 C 359.355469 267.996094 360.339844 267.265625 361.289062 266.488281 C 362.238281 265.707031 363.148438 264.886719 364.015625 264.015625 C 364.886719 263.148438 365.707031 262.238281 366.488281 261.289062 C 367.265625 260.339844 367.996094 259.355469 368.679688 258.332031 C 369.363281 257.3125 369.992188 256.261719 370.570312 255.175781 C 371.152344 254.09375 371.675781 252.984375 372.144531 251.851562 C 372.617188 250.714844 373.027344 249.5625 373.386719 248.386719 C 373.742188 247.210938 374.039062 246.019531 374.28125 244.816406 C 374.519531 243.609375 374.699219 242.398438 374.820312 241.175781 C 374.941406 239.953125 375 238.726562 375 237.5 L 375 212.5 C 374.992188 208.488281 374.601562 204.515625 373.828125 200.578125 C 373.054688 196.640625 371.914062 192.816406 370.402344 189.101562 C 368.890625 185.382812 367.042969 181.84375 364.851562 178.484375 C 362.660156 175.125 360.167969 172.003906 357.375 169.125 Z M 357.375 169.125 " fill-opacity="1" fill-rule="nonzero"/><path fill="currentColor" d="M 118.75 131.25 C 118.75 132.683594 118.679688 134.113281 118.539062 135.539062 C 118.398438 136.964844 118.1875 138.378906 117.910156 139.785156 C 117.628906 141.191406 117.28125 142.578125 116.867188 143.949219 C 116.449219 145.320312 115.96875 146.667969 115.417969 147.992188 C 114.871094 149.316406 114.257812 150.609375 113.585938 151.875 C 112.910156 153.136719 112.171875 154.363281 111.375 155.554688 C 110.582031 156.746094 109.726562 157.898438 108.820312 159.003906 C 107.910156 160.113281 106.949219 161.171875 105.9375 162.1875 C 104.921875 163.199219 103.863281 164.160156 102.753906 165.070312 C 101.648438 165.976562 100.496094 166.832031 99.304688 167.625 C 98.113281 168.421875 96.886719 169.160156 95.625 169.835938 C 94.359375 170.507812 93.066406 171.121094 91.742188 171.667969 C 90.417969 172.21875 89.070312 172.699219 87.699219 173.117188 C 86.328125 173.53125 84.941406 173.878906 83.535156 174.160156 C 82.128906 174.4375 80.714844 174.648438 79.289062 174.789062 C 77.863281 174.929688 76.433594 175 75 175 C 73.566406 175 72.136719 174.929688 70.710938 174.789062 C 69.285156 174.648438 67.871094 174.4375 66.464844 174.160156 C 65.058594 173.878906 63.671875 173.53125 62.300781 173.117188 C 60.929688 172.699219 59.582031 172.21875 58.257812 171.667969 C 56.933594 171.121094 55.640625 170.507812 54.375 169.835938 C 53.113281 169.160156 51.886719 168.421875 50.695312 167.625 C 49.503906 166.832031 48.351562 165.976562 47.246094 165.070312 C 46.136719 164.160156 45.078125 163.199219 44.0625 162.1875 C 43.050781 161.171875 42.089844 160.113281 41.179688 159.003906 C 40.273438 157.898438 39.417969 156.746094 38.625 155.554688 C 37.828125 154.363281 37.089844 153.136719 36.414062 151.875 C 35.742188 150.609375 35.128906 149.316406 34.582031 147.992188 C 34.03125 146.667969 33.550781 145.320312 33.132812 143.949219 C 32.71875 142.578125 32.371094 141.191406 32.089844 139.785156 C 31.8125 138.378906 31.601562 136.964844 31.460938 135.539062 C 31.320312 134.113281 31.25 132.683594 31.25 131.25 C 31.25 129.816406 31.320312 128.386719 31.460938 126.960938 C 31.601562 125.535156 31.8125 124.121094 32.089844 122.714844 C 32.371094 121.308594 32.71875 119.921875 33.132812 118.550781 C 33.550781 117.179688 34.03125 115.832031 34.582031 114.507812 C 35.128906 113.183594 35.742188 111.890625 36.414062 110.625 C 37.089844 109.363281 37.828125 108.136719 38.625 106.945312 C 39.417969 105.753906 40.273438 104.601562 41.179688 103.496094 C 42.089844 102.386719 43.050781 101.328125 44.0625 100.3125 C 45.078125 99.300781 46.136719 98.339844 47.246094 97.429688 C 48.351562 96.523438 49.503906 95.667969 50.695312 94.875 C 51.886719 94.078125 53.113281 93.339844 54.375 92.664062 C 55.640625 91.992188 56.933594 91.378906 58.257812 90.832031 C 59.582031 90.28125 60.929688 89.800781 62.300781 89.382812 C 63.671875 88.96875 65.058594 88.621094 66.464844 88.339844 C 67.871094 88.0625 69.285156 87.851562 70.710938 87.710938 C 72.136719 87.570312 73.566406 87.5 75 87.5 C 76.433594 87.5 77.863281 87.570312 79.289062 87.710938 C 80.714844 87.851562 82.128906 88.0625 83.535156 88.339844 C 84.941406 88.621094 86.328125 88.96875 87.699219 89.382812 C 89.070312 89.800781 90.417969 90.28125 91.742188 90.832031 C 93.066406 91.378906 94.359375 91.992188 95.625 92.664062 C 96.886719 93.339844 98.113281 94.078125 99.304688 94.875 C 100.496094 95.667969 101.648438 96.523438 102.753906 97.429688 C 103.863281 98.339844 104.921875 99.300781 105.9375 100.3125 C 106.949219 101.328125 107.910156 102.386719 108.820312 103.496094 C 109.726562 104.601562 110.582031 105.753906 111.375 106.945312 C 112.171875 108.136719 112.910156 109.363281 113.585938 110.625 C 114.257812 111.890625 114.871094 113.183594 115.417969 114.507812 C 115.96875 115.832031 116.449219 117.179688 116.867188 118.550781 C 117.28125 119.921875 117.628906 121.308594 117.910156 122.714844 C 118.1875 124.121094 118.398438 125.535156 118.539062 126.960938 C 118.679688 128.386719 118.75 129.816406 118.75 131.25 Z M 118.75 131.25 " fill-opacity="1" fill-rule="nonzero"/><path fill="currentColor" d="M 17.625 169.125 C 14.832031 172.003906 12.339844 175.125 10.148438 178.484375 C 7.957031 181.84375 6.109375 185.382812 4.597656 189.101562 C 3.085938 192.816406 1.945312 196.640625 1.171875 200.578125 C 0.398438 204.515625 0.0078125 208.488281 0 212.5 L 0 237.5 C 0 238.726562 0.0585938 239.953125 0.179688 241.175781 C 0.300781 242.398438 0.480469 243.609375 0.71875 244.816406 C 0.960938 246.019531 1.257812 247.210938 1.613281 248.386719 C 1.972656 249.5625 2.382812 250.714844 2.855469 251.851562 C 3.324219 252.984375 3.847656 254.09375 4.429688 255.175781 C 5.007812 256.261719 5.636719 257.3125 6.320312 258.332031 C 7.003906 259.355469 7.734375 260.339844 8.511719 261.289062 C 9.292969 262.238281 10.113281 263.148438 10.984375 264.015625 C 11.851562 264.886719 12.761719 265.707031 13.710938 266.488281 C 14.660156 267.265625 15.644531 267.996094 16.667969 268.679688 C 17.6875 269.363281 18.738281 269.992188 19.824219 270.570312 C 20.90625 271.152344 22.015625 271.675781 23.148438 272.144531 C 24.285156 272.617188 25.4375 273.027344 26.613281 273.386719 C 27.789062 273.742188 28.980469 274.039062 30.183594 274.28125 C 31.390625 274.519531 32.601562 274.699219 33.824219 274.820312 C 35.046875 274.941406 36.273438 275 37.5 275 L 62.5 275 L 62.5 237.5 C 62.53125 224.617188 64.738281 212.117188 69.125 200 C 66.546875 199.761719 63.988281 199.382812 61.449219 198.859375 C 58.914062 198.335938 56.414062 197.667969 53.953125 196.863281 C 51.488281 196.058594 49.078125 195.121094 46.722656 194.046875 C 44.367188 192.96875 42.078125 191.765625 39.855469 190.433594 C 37.632812 189.101562 35.492188 187.652344 33.433594 186.078125 C 31.375 184.507812 29.410156 182.824219 27.539062 181.03125 C 25.671875 179.238281 23.90625 177.347656 22.25 175.355469 C 20.589844 173.367188 19.050781 171.289062 17.625 169.125 Z M 17.625 169.125 " fill-opacity="1" fill-rule="nonzero"/><path fill="currentColor" d="M 254.25 169 C 253.226562 170.207031 252.171875 171.386719 251.085938 172.535156 C 250 173.683594 248.882812 174.804688 247.734375 175.894531 C 246.585938 176.984375 245.410156 178.039062 244.203125 179.066406 C 243 180.089844 241.769531 181.082031 240.507812 182.039062 C 239.25 183 237.964844 183.921875 236.65625 184.8125 C 235.347656 185.699219 234.015625 186.554688 232.660156 187.371094 C 231.304688 188.1875 229.929688 188.964844 228.53125 189.707031 C 227.136719 190.449219 225.71875 191.152344 224.28125 191.820312 C 222.847656 192.484375 221.394531 193.109375 219.925781 193.695312 C 218.457031 194.28125 216.972656 194.828125 215.472656 195.332031 C 213.972656 195.839844 212.460938 196.304688 210.9375 196.726562 C 209.414062 197.152344 207.878906 197.535156 206.332031 197.875 C 204.789062 198.214844 203.234375 198.511719 201.671875 198.769531 C 200.113281 199.027344 198.546875 199.238281 196.972656 199.410156 C 195.398438 199.582031 193.824219 199.710938 192.242188 199.796875 C 190.664062 199.882812 189.082031 199.925781 187.5 199.925781 C 185.917969 199.925781 184.335938 199.882812 182.757812 199.796875 C 181.175781 199.710938 179.601562 199.582031 178.027344 199.410156 C 176.453125 199.238281 174.886719 199.027344 173.328125 198.769531 C 171.765625 198.511719 170.210938 198.214844 168.667969 197.875 C 167.121094 197.535156 165.585938 197.152344 164.0625 196.726562 C 162.539062 196.304688 161.027344 195.839844 159.527344 195.332031 C 158.027344 194.828125 156.542969 194.28125 155.074219 193.695312 C 153.605469 193.109375 152.152344 192.484375 150.71875 191.820312 C 149.28125 191.152344 147.863281 190.449219 146.46875 189.707031 C 145.070312 188.964844 143.695312 188.1875 142.339844 187.371094 C 140.984375 186.554688 139.652344 185.699219 138.34375 184.8125 C 137.035156 183.921875 135.75 183 134.492188 182.039062 C 133.230469 181.082031 132 180.089844 130.796875 179.066406 C 129.589844 178.039062 128.414062 176.984375 127.265625 175.894531 C 126.117188 174.804688 125 173.683594 123.914062 172.535156 C 122.828125 171.386719 121.773438 170.207031 120.75 169 C 118.171875 171.039062 115.714844 173.210938 113.382812 175.527344 C 111.050781 177.839844 108.855469 180.277344 106.796875 182.839844 C 104.738281 185.402344 102.828125 188.070312 101.070312 190.84375 C 99.3125 193.621094 97.71875 196.488281 96.285156 199.445312 C 94.847656 202.398438 93.585938 205.425781 92.488281 208.523438 C 91.394531 211.625 90.480469 214.773438 89.742188 217.976562 C 89.003906 221.175781 88.445312 224.410156 88.070312 227.675781 C 87.695312 230.9375 87.503906 234.214844 87.5 237.5 L 87.5 287.5 C 87.5 288.726562 87.558594 289.953125 87.679688 291.175781 C 87.800781 292.398438 87.980469 293.609375 88.21875 294.816406 C 88.460938 296.019531 88.757812 297.210938 89.113281 298.386719 C 89.472656 299.5625 89.882812 300.714844 90.355469 301.851562 C 90.824219 302.984375 91.347656 304.09375 91.929688 305.175781 C 92.507812 306.261719 93.136719 307.3125 93.820312 308.332031 C 94.503906 309.355469 95.234375 310.339844 96.011719 311.289062 C 96.792969 312.238281 97.613281 313.148438 98.484375 314.015625 C 99.351562 314.886719 100.261719 315.707031 101.210938 316.488281 C 102.160156 317.265625 103.144531 317.996094 104.167969 318.679688 C 105.1875 319.363281 106.238281 319.992188 107.324219 320.570312 C 108.40625 321.152344 109.515625 321.675781 110.648438 322.144531 C 111.785156 322.617188 112.9375 323.027344 114.113281 323.386719 C 115.289062 323.742188 116.480469 324.039062 117.683594 324.28125 C 118.886719 324.519531 120.101562 324.699219 121.324219 324.820312 C 122.546875 324.941406 123.773438 325 125 325 L 250 325 C 251.226562 325 252.453125 324.941406 253.675781 324.820312 C 254.898438 324.699219 256.109375 324.519531 257.316406 324.28125 C 258.519531 324.039062 259.710938 323.742188 260.886719 323.386719 C 262.0625 323.027344 263.214844 322.617188 264.351562 322.144531 C 265.484375 321.675781 266.59375 321.152344 267.675781 320.570312 C 268.761719 319.992188 269.8125 319.363281 270.832031 318.679688 C 271.855469 317.996094 272.839844 317.265625 273.789062 316.488281 C 274.738281 315.707031 275.648438 314.886719 276.515625 314.015625 C 277.386719 313.148438 278.207031 312.238281 278.988281 311.289062 C 279.765625 310.339844 280.496094 309.355469 281.179688 308.332031 C 281.863281 307.3125 282.492188 306.261719 283.070312 305.175781 C 283.652344 304.09375 284.175781 302.984375 284.644531 301.851562 C 285.117188 300.714844 285.527344 299.5625 285.886719 298.386719 C 286.242188 297.210938 286.539062 296.019531 286.78125 294.816406 C 287.019531 293.609375 287.199219 292.398438 287.320312 291.175781 C 287.441406 289.953125 287.5 288.726562 287.5 287.5 L 287.5 237.5 C 287.496094 234.214844 287.304688 230.9375 286.929688 227.675781 C 286.554688 224.410156 285.996094 221.175781 285.257812 217.976562 C 284.519531 214.773438 283.605469 211.625 282.507812 208.523438 C 281.414062 205.425781 280.152344 202.398438 278.714844 199.445312 C 277.28125 196.488281 275.6875 193.621094 273.929688 190.84375 C 272.171875 188.070312 270.261719 185.402344 268.203125 182.839844 C 266.144531 180.277344 263.949219 177.839844 261.617188 175.527344 C 259.285156 173.210938 256.828125 171.039062 254.25 169 Z M 254.25 169 " fill-opacity="1" fill-rule="nonzero"/><path fill="currentColor" d="M 250 112.5 C 250 114.546875 249.898438 116.589844 249.699219 118.625 C 249.5 120.664062 249.199219 122.683594 248.800781 124.691406 C 248.398438 126.699219 247.902344 128.683594 247.308594 130.644531 C 246.714844 132.601562 246.027344 134.527344 245.242188 136.417969 C 244.460938 138.308594 243.585938 140.15625 242.621094 141.960938 C 241.65625 143.765625 240.605469 145.519531 239.46875 147.222656 C 238.328125 148.925781 237.113281 150.566406 235.8125 152.148438 C 234.515625 153.730469 233.140625 155.246094 231.695312 156.695312 C 230.246094 158.140625 228.730469 159.515625 227.148438 160.8125 C 225.566406 162.113281 223.925781 163.328125 222.222656 164.46875 C 220.519531 165.605469 218.765625 166.65625 216.960938 167.621094 C 215.15625 168.585938 213.308594 169.460938 211.417969 170.242188 C 209.527344 171.027344 207.601562 171.714844 205.644531 172.308594 C 203.683594 172.902344 201.699219 173.398438 199.691406 173.800781 C 197.683594 174.199219 195.664062 174.5 193.625 174.699219 C 191.589844 174.898438 189.546875 175 187.5 175 C 185.453125 175 183.410156 174.898438 181.375 174.699219 C 179.335938 174.5 177.316406 174.199219 175.308594 173.800781 C 173.300781 173.398438 171.316406 172.902344 169.355469 172.308594 C 167.398438 171.714844 165.472656 171.027344 163.582031 170.242188 C 161.691406 169.460938 159.84375 168.585938 158.039062 167.621094 C 156.234375 166.65625 154.480469 165.605469 152.777344 164.46875 C 151.074219 163.328125 149.433594 162.113281 147.851562 160.8125 C 146.269531 159.515625 144.753906 158.140625 143.304688 156.695312 C 141.859375 155.246094 140.484375 153.730469 139.1875 152.148438 C 137.886719 150.566406 136.671875 148.925781 135.53125 147.222656 C 134.394531 145.519531 133.34375 143.765625 132.378906 141.960938 C 131.414062 140.15625 130.539062 138.308594 129.757812 136.417969 C 128.972656 134.527344 128.285156 132.601562 127.691406 130.644531 C 127.097656 128.683594 126.601562 126.699219 126.199219 124.691406 C 125.800781 122.683594 125.5 120.664062 125.300781 118.625 C 125.101562 116.589844 125 114.546875 125 112.5 C 125 110.453125 125.101562 108.410156 125.300781 106.375 C 125.5 104.335938 125.800781 102.316406 126.199219 100.308594 C 126.601562 98.300781 127.097656 96.316406 127.691406 94.355469 C 128.285156 92.398438 128.972656 90.472656 129.757812 88.582031 C 130.539062 86.691406 131.414062 84.84375 132.378906 83.039062 C 133.34375 81.234375 134.394531 79.480469 135.53125 77.777344 C 136.671875 76.074219 137.886719 74.433594 139.1875 72.851562 C 140.484375 71.269531 141.859375 69.753906 143.304688 68.304688 C 144.753906 66.859375 146.269531 65.484375 147.851562 64.1875 C 149.433594 62.886719 151.074219 61.671875 152.777344 60.53125 C 154.480469 59.394531 156.234375 58.34375 158.039062 57.378906 C 159.84375 56.414062 161.691406 55.539062 163.582031 54.757812 C 165.472656 53.972656 167.398438 53.285156 169.355469 52.691406 C 171.316406 52.097656 173.300781 51.601562 175.308594 51.199219 C 177.316406 50.800781 179.335938 50.5 181.375 50.300781 C 183.410156 50.101562 185.453125 50 187.5 50 C 189.546875 50 191.589844 50.101562 193.625 50.300781 C 195.664062 50.5 197.683594 50.800781 199.691406 51.199219 C 201.699219 51.601562 203.683594 52.097656 205.644531 52.691406 C 207.601562 53.285156 209.527344 53.972656 211.417969 54.757812 C 213.308594 55.539062 215.15625 56.414062 216.960938 57.378906 C 218.765625 58.34375 220.519531 59.394531 222.222656 60.53125 C 223.925781 61.671875 225.566406 62.886719 227.148438 64.1875 C 228.730469 65.484375 230.246094 66.859375 231.695312 68.304688 C 233.140625 69.753906 234.515625 71.269531 235.8125 72.851562 C 237.113281 74.433594 238.328125 76.074219 239.46875 77.777344 C 240.605469 79.480469 241.65625 81.234375 242.621094 83.039062 C 243.585938 84.84375 244.460938 86.691406 245.242188 88.582031 C 246.027344 90.472656 246.714844 92.398438 247.308594 94.355469 C 247.902344 96.316406 248.398438 98.300781 248.800781 100.308594 C 249.199219 102.316406 249.5 104.335938 249.699219 106.375 C 249.898438 108.410156 250 110.453125 250 112.5 Z M 250 112.5 " fill-opacity="1" fill-rule="nonzero"/></svg>