<svg xmlns="http://www.w3.org/2000/svg" xmlns:xlink="http://www.w3.org/1999/xlink" width="500" zoomAndPan="magnify" viewBox="0 0 375 374.999991" height="500" preserveAspectRatio="xMidYMid meet" version="1.2"><defs><clipPath id="85139adad3"><path d="M 0 35.390625 L 375 35.390625 L 375 339 L 0 339 Z M 0 35.390625 "/></clipPath></defs><g id="d3ad679ad4"><g clip-rule="nonzero" clip-path="url(#85139adad3)"><path style=" stroke:none;fill-rule:nonzero;fill:currentColor;fill-opacity:1;" d="M 187.558594 111.371094 C 240.746094 111.371094 283.84375 154.492188 283.84375 207.660156 C 283.84375 260.851562 240.742188 303.953125 187.558594 303.953125 C 134.371094 303.953125 91.265625 260.851562 91.265625 207.660156 C 91.265625 154.492188 134.371094 111.371094 187.558594 111.371094 Z M 155.339844 35.921875 C 140.785156 35.921875 136.5 49.949219 129.089844 63.007812 L 124.554688 70.992188 L 40.308594 70.992188 C 18 70.992188 0.0859375 89.511719 0.0859375 112.480469 L 0.0859375 297.488281 C 0.0859375 320.464844 18.003906 338.953125 40.308594 338.953125 L 334.835938 338.953125 C 357.117188 338.953125 375.058594 320.464844 375.058594 297.488281 L 375.058594 112.480469 C 375.058594 89.503906 357.109375 70.992188 334.835938 70.992188 L 250.582031 70.992188 L 246.046875 63.007812 C 238.632812 49.949219 234.351562 35.921875 219.796875 35.921875 Z M 155.339844 35.921875 "/></g><path style=" stroke:none;fill-rule:nonzero;fill:currentColor;fill-opacity:1;" d="M 246.84375 207.664062 C 246.84375 209.605469 246.75 211.542969 246.558594 213.472656 C 246.367188 215.40625 246.082031 217.324219 245.703125 219.230469 C 245.324219 221.132812 244.855469 223.015625 244.289062 224.875 C 243.726562 226.730469 243.074219 228.558594 242.332031 230.351562 C 241.585938 232.144531 240.757812 233.898438 239.84375 235.609375 C 238.925781 237.324219 237.929688 238.988281 236.851562 240.601562 C 235.773438 242.214844 234.617188 243.773438 233.386719 245.273438 C 232.152344 246.773438 230.851562 248.210938 229.480469 249.585938 C 228.105469 250.957031 226.667969 252.261719 225.167969 253.492188 C 223.667969 254.722656 222.109375 255.878906 220.496094 256.957031 C 218.878906 258.035156 217.21875 259.035156 215.503906 259.949219 C 213.792969 260.863281 212.039062 261.695312 210.246094 262.4375 C 208.449219 263.179688 206.625 263.832031 204.765625 264.398438 C 202.910156 264.960938 201.027344 265.429688 199.125 265.808594 C 197.21875 266.1875 195.300781 266.472656 193.367188 266.664062 C 191.4375 266.855469 189.5 266.949219 187.558594 266.949219 C 185.617188 266.949219 183.679688 266.855469 181.746094 266.664062 C 179.8125 266.472656 177.894531 266.1875 175.992188 265.808594 C 174.085938 265.429688 172.207031 264.960938 170.347656 264.398438 C 168.488281 263.832031 166.664062 263.179688 164.871094 262.4375 C 163.074219 261.695312 161.320312 260.863281 159.609375 259.949219 C 157.898438 259.035156 156.234375 258.035156 154.621094 256.957031 C 153.003906 255.878906 151.449219 254.722656 149.945312 253.492188 C 148.445312 252.261719 147.007812 250.957031 145.636719 249.585938 C 144.261719 248.210938 142.960938 246.773438 141.726562 245.273438 C 140.496094 243.773438 139.339844 242.214844 138.261719 240.601562 C 137.183594 238.988281 136.1875 237.324219 135.269531 235.609375 C 134.355469 233.898438 133.527344 232.144531 132.785156 230.351562 C 132.039062 228.558594 131.386719 226.730469 130.824219 224.875 C 130.261719 223.015625 129.789062 221.132812 129.410156 219.230469 C 129.03125 217.324219 128.746094 215.40625 128.554688 213.472656 C 128.367188 211.542969 128.269531 209.605469 128.269531 207.664062 C 128.269531 205.722656 128.367188 203.785156 128.554688 201.851562 C 128.746094 199.921875 129.03125 198 129.410156 196.097656 C 129.789062 194.191406 130.261719 192.3125 130.824219 190.453125 C 131.386719 188.59375 132.039062 186.769531 132.785156 184.976562 C 133.527344 183.179688 134.355469 181.429688 135.269531 179.714844 C 136.1875 178.003906 137.183594 176.339844 138.261719 174.726562 C 139.339844 173.109375 140.496094 171.554688 141.726562 170.050781 C 142.960938 168.550781 144.261719 167.113281 145.636719 165.742188 C 147.007812 164.367188 148.445312 163.066406 149.945312 161.835938 C 151.449219 160.601562 153.003906 159.449219 154.621094 158.367188 C 156.234375 157.289062 157.898438 156.292969 159.609375 155.378906 C 161.320312 154.460938 163.074219 153.632812 164.871094 152.890625 C 166.664062 152.148438 168.488281 151.492188 170.347656 150.929688 C 172.207031 150.367188 174.085938 149.894531 175.992188 149.515625 C 177.894531 149.136719 179.8125 148.851562 181.746094 148.664062 C 183.679688 148.472656 185.617188 148.378906 187.558594 148.378906 C 189.5 148.378906 191.4375 148.472656 193.367188 148.664062 C 195.300781 148.851562 197.21875 149.136719 199.125 149.515625 C 201.027344 149.894531 202.910156 150.367188 204.765625 150.929688 C 206.625 151.492188 208.449219 152.148438 210.246094 152.890625 C 212.039062 153.632812 213.792969 154.460938 215.503906 155.378906 C 217.214844 156.292969 218.878906 157.289062 220.496094 158.367188 C 222.109375 159.449219 223.667969 160.601562 225.167969 161.835938 C 226.667969 163.066406 228.105469 164.367188 229.480469 165.742188 C 230.851562 167.113281 232.152344 168.550781 233.386719 170.050781 C 234.617188 171.554688 235.773438 173.109375 236.851562 174.726562 C 237.929688 176.339844 238.925781 178.003906 239.84375 179.714844 C 240.757812 181.429688 241.585938 183.179688 242.332031 184.976562 C 243.074219 186.769531 243.726562 188.59375 244.289062 190.453125 C 244.855469 192.3125 245.324219 194.191406 245.703125 196.097656 C 246.082031 198 246.367188 199.921875 246.558594 201.851562 C 246.75 203.785156 246.84375 205.722656 246.84375 207.664062 Z M 246.84375 207.664062 "/></g></svg>