<svg xmlns="http://www.w3.org/2000/svg" xmlns:xlink="http://www.w3.org/1999/xlink" width="500" zoomAndPan="magnify" viewBox="0 0 375 374.999991" height="500" preserveAspectRatio="xMidYMid meet" version="1.0"><defs><clipPath id="369674b28b"><path d="M 6.328125 87 L 219 87 L 219 375 L 6.328125 375 Z M 6.328125 87 " clip-rule="nonzero"/></clipPath><clipPath id="b0c5bdda30"><path d="M 243 125 L 368.578125 125 L 368.578125 292 L 243 292 Z M 243 125 " clip-rule="nonzero"/></clipPath></defs><g clip-path="url(#369674b28b)"><path fill="currentColor" d="M 112.53125 354.6875 C 65.21875 354.6875 26.726562 316.203125 26.726562 268.894531 C 26.726562 206.664062 90.878906 134.769531 112.503906 112.3125 C 134.105469 134.914062 198.324219 207.292969 198.324219 268.894531 C 198.324219 316.203125 159.839844 354.6875 112.53125 354.6875 Z M 119.550781 90.597656 C 115.644531 86.847656 109.476562 86.835938 105.550781 90.5625 C 101.507812 94.410156 6.464844 185.71875 6.464844 268.894531 C 6.464844 327.375 54.046875 374.945312 112.53125 374.945312 C 171.007812 374.945312 218.582031 327.375 218.582031 268.894531 C 218.582031 186.667969 123.59375 94.484375 119.550781 90.597656 " fill-opacity="1" fill-rule="nonzero"/></g><path fill="currentColor" d="M 228.082031 110.363281 C 211.972656 110.363281 198.863281 97.25 198.863281 81.140625 C 198.863281 62.261719 216.191406 38.878906 228.058594 25.667969 C 239.933594 38.957031 257.277344 62.425781 257.277344 81.140625 C 257.277344 97.25 244.175781 110.363281 228.082031 110.363281 Z M 277.53125 81.140625 C 277.53125 44.914062 236.832031 5.402344 235.097656 3.738281 C 231.195312 -0.0078125 225.03125 -0.0273438 221.105469 3.699219 C 219.367188 5.347656 178.605469 44.492188 178.605469 81.140625 C 178.605469 108.421875 200.800781 130.617188 228.082031 130.617188 C 255.351562 130.617188 277.53125 108.421875 277.53125 81.140625 " fill-opacity="1" fill-rule="nonzero"/><g clip-path="url(#b0c5bdda30)"><path fill="currentColor" d="M 306.070312 271.050781 C 282.773438 271.050781 263.828125 252.101562 263.828125 228.8125 C 263.828125 199.164062 292.496094 164.703125 306.074219 150.042969 C 322.15625 167.5 348.273438 201.582031 348.273438 228.8125 C 348.273438 252.101562 329.339844 271.050781 306.070312 271.050781 Z M 313.085938 128.207031 C 309.179688 124.460938 303.019531 124.441406 299.089844 128.167969 C 296.824219 130.320312 243.566406 181.453125 243.566406 228.8125 C 243.566406 263.273438 271.601562 291.3125 306.070312 291.3125 C 340.507812 291.3125 368.535156 263.273438 368.535156 228.8125 C 368.535156 182.003906 315.347656 130.382812 313.085938 128.207031 " fill-opacity="1" fill-rule="nonzero"/></g><path fill="currentColor" d="M 65.132812 281.882812 C 57.972656 257.378906 75.910156 229.53125 76.144531 229.167969 C 79.214844 224.5 77.929688 218.230469 73.269531 215.148438 C 68.609375 212.066406 62.320312 213.34375 59.230469 218.011719 C 58.273438 219.460938 35.855469 253.917969 45.691406 287.578125 C 50.855469 305.160156 71.566406 338.414062 112.964844 338.414062 C 118.558594 338.414062 123.097656 333.875 123.097656 328.285156 C 123.097656 322.6875 118.558594 318.152344 112.964844 318.152344 C 83.5625 318.152344 68.816406 294.414062 65.132812 281.882812 " fill-opacity="1" fill-rule="nonzero"/><path fill="currentColor" d="M 84.328125 206.316406 C 92.113281 206.316406 98.460938 200.035156 98.460938 192.199219 C 98.460938 184.378906 92.113281 178.082031 84.328125 178.082031 C 76.523438 178.082031 70.210938 184.378906 70.210938 192.199219 C 70.210938 200.035156 76.523438 206.316406 84.328125 206.316406 " fill-opacity="1" fill-rule="nonzero"/></svg>