<svg xmlns="http://www.w3.org/2000/svg" xmlns:xlink="http://www.w3.org/1999/xlink" width="500" zoomAndPan="magnify" viewBox="0 0 375 374.999991" height="500" preserveAspectRatio="xMidYMid meet" version="1.2"><defs><clipPath id="d38d0a5dc2"><path d="M 1.027344 2 L 373.773438 2 L 373.773438 374.996094 L 1.027344 374.996094 Z M 1.027344 2 "/></clipPath></defs><g id="37563499f1"><g clip-rule="nonzero" clip-path="url(#d38d0a5dc2)"><path style=" stroke:none;fill-rule:nonzero;fill:currentColor;fill-opacity:1;" d="M 63.15625 374.996094 C 28.902344 374.996094 1.035156 347.132812 1.035156 312.875 L 1.035156 271.460938 C 1.035156 260.027344 10.296875 250.753906 21.742188 250.753906 C 33.1875 250.753906 42.449219 260.027344 42.449219 271.460938 L 42.449219 312.875 C 42.449219 324.292969 51.730469 333.582031 63.15625 333.582031 L 311.644531 333.582031 C 323.070312 333.582031 332.351562 324.292969 332.351562 312.875 L 332.351562 271.460938 C 332.351562 260.027344 341.613281 250.753906 353.058594 250.753906 C 364.503906 250.753906 373.765625 260.027344 373.765625 271.460938 L 373.765625 312.875 C 373.765625 347.132812 345.898438 374.996094 311.644531 374.996094 Z M 305.578125 141.152344 C 309.621094 137.109375 311.644531 131.808594 311.644531 126.511719 C 311.644531 121.214844 309.621094 115.914062 305.578125 111.871094 L 202.039062 8.335938 C 193.953125 0.246094 180.847656 0.246094 172.761719 8.335938 L 69.222656 111.871094 C 61.136719 119.960938 61.136719 133.0625 69.222656 141.152344 C 77.3125 149.242188 90.417969 149.242188 98.503906 141.152344 L 166.691406 72.964844 L 166.691406 230.046875 C 166.691406 241.484375 175.953125 250.753906 187.402344 250.753906 C 198.847656 250.753906 208.109375 241.484375 208.109375 230.046875 L 208.109375 72.964844 L 276.296875 141.152344 C 284.382812 149.242188 297.488281 149.242188 305.578125 141.152344 Z M 305.578125 141.152344 "/></g></g></svg>