<svg xmlns="http://www.w3.org/2000/svg" xmlns:xlink="http://www.w3.org/1999/xlink" width="500" zoomAndPan="magnify" viewBox="0 0 375 374.999991" height="500" preserveAspectRatio="xMidYMid meet" version="1.2"><defs><clipPath id="6e44f139c9"><path d="M 0 18.410156 L 375 18.410156 L 375 356.660156 L 0 356.660156 Z M 0 18.410156 "/></clipPath></defs><g id="c570abe67b"><g clip-rule="nonzero" clip-path="url(#6e44f139c9)"><path style=" stroke:none;fill-rule:nonzero;fill:currentColor;fill-opacity:1;" d="M 308.277344 18.410156 L 66.722656 18.410156 C 30.125 18.410156 0.292969 48.242188 0.292969 84.835938 L 0.292969 290.160156 C 0.292969 326.757812 30.125 356.589844 66.722656 356.589844 L 308.277344 356.589844 C 344.875 356.589844 374.707031 326.757812 374.707031 290.160156 L 374.707031 84.835938 C 374.707031 48.242188 344.875 18.410156 308.277344 18.410156 Z M 338.472656 167.207031 L 286.78125 115.515625 C 279.894531 108.628906 268.785156 108.390625 261.65625 115.03125 L 172.523438 197.886719 L 127.351562 152.714844 C 120.46875 145.832031 109.355469 145.589844 102.230469 152.230469 L 36.527344 213.226562 L 36.527344 84.835938 C 36.527344 68.167969 50.054688 54.644531 66.722656 54.644531 L 308.277344 54.644531 C 324.945312 54.644531 338.472656 68.167969 338.472656 84.835938 Z M 338.472656 167.207031 "/></g></g></svg>