<svg xmlns="http://www.w3.org/2000/svg" xmlns:xlink="http://www.w3.org/1999/xlink" width="500" zoomAndPan="magnify" viewBox="0 0 375 374.999991" height="500" preserveAspectRatio="xMidYMid meet" version="1.2"><defs><clipPath id="2c383a85c7"><path d="M 0 0 L 183.65625 0 L 183.65625 183.65625 L 0 183.65625 Z M 0 0 "/></clipPath><clipPath id="e70f4cef32"><path d="M 37.5 0 L 146.15625 0 C 166.867188 0 183.65625 16.789062 183.65625 37.5 L 183.65625 146.15625 C 183.65625 166.867188 166.867188 183.65625 146.15625 183.65625 L 37.5 183.65625 C 16.789062 183.65625 0 166.867188 0 146.15625 L 0 37.5 C 0 16.789062 16.789062 0 37.5 0 Z M 37.5 0 "/></clipPath><clipPath id="b08e3b98cd"><path d="M 0 191.34375 L 183.65625 191.34375 L 183.65625 375 L 0 375 Z M 0 191.34375 "/></clipPath><clipPath id="4bb5eb4d1d"><path d="M 37.5 191.34375 L 146.15625 191.34375 C 166.867188 191.34375 183.65625 208.132812 183.65625 228.84375 L 183.65625 337.5 C 183.65625 358.210938 166.867188 375 146.15625 375 L 37.5 375 C 16.789062 375 0 358.210938 0 337.5 L 0 228.84375 C 0 208.132812 16.789062 191.34375 37.5 191.34375 Z M 37.5 191.34375 "/></clipPath><clipPath id="1c64ab936d"><path d="M 191.34375 191.335938 L 375 191.335938 L 375 374.988281 L 191.34375 374.988281 Z M 191.34375 191.335938 "/></clipPath><clipPath id="18106c31b8"><path d="M 191.34375 337.488281 L 191.34375 228.835938 C 191.34375 208.125 208.132812 191.335938 228.84375 191.335938 L 337.5 191.335938 C 358.210938 191.335938 375 208.125 375 228.835938 L 375 337.488281 C 375 358.199219 358.210938 374.988281 337.5 374.988281 L 228.84375 374.988281 C 208.132812 374.988281 191.34375 358.199219 191.34375 337.488281 Z M 191.34375 337.488281 "/></clipPath><clipPath id="76b55b4df2"><path d="M 191.347656 1 L 374 1 L 374 183.648438 L 191.347656 183.648438 Z M 191.347656 1 "/></clipPath><clipPath id="70461703aa"><path d="M 349.695312 183.648438 L 215.355469 183.648438 C 202.105469 183.648438 191.363281 172.910156 191.363281 159.660156 L 191.363281 25.972656 C 191.363281 4.625 217.148438 -6.089844 232.277344 8.964844 L 366.621094 142.65625 C 381.789062 157.753906 371.101562 183.648438 349.695312 183.648438 Z M 349.695312 183.648438 "/></clipPath></defs><g id="5830d76830"><g clip-rule="nonzero" clip-path="url(#2c383a85c7)"><g clip-rule="nonzero" clip-path="url(#e70f4cef32)"><path style=" stroke:none;fill-rule:nonzero;fill:currentColor;fill-opacity:1;" d="M 0 0 L 183.65625 0 L 183.65625 183.65625 L 0 183.65625 Z M 0 0 "/></g></g><g clip-rule="nonzero" clip-path="url(#b08e3b98cd)"><g clip-rule="nonzero" clip-path="url(#4bb5eb4d1d)"><path style=" stroke:none;fill-rule:nonzero;fill:currentColor;fill-opacity:1;" d="M 0 191.34375 L 183.65625 191.34375 L 183.65625 375 L 0 375 Z M 0 191.34375 "/></g></g><g clip-rule="nonzero" clip-path="url(#1c64ab936d)"><g clip-rule="nonzero" clip-path="url(#18106c31b8)"><path style=" stroke:none;fill-rule:nonzero;fill:currentColor;fill-opacity:1;" d="M 191.34375 374.988281 L 191.34375 191.335938 L 375 191.335938 L 375 374.988281 Z M 191.34375 374.988281 "/></g></g><g clip-rule="nonzero" clip-path="url(#76b55b4df2)"><g clip-rule="nonzero" clip-path="url(#70461703aa)"><path style=" stroke:none;fill-rule:nonzero;fill:currentColor;fill-opacity:1;" d="M 375 183.648438 L 191.363281 183.648438 L 191.363281 0 L 375 0 Z M 375 183.648438 "/></g></g></g></svg>