<svg xmlns="http://www.w3.org/2000/svg" xmlns:xlink="http://www.w3.org/1999/xlink" width="500" zoomAndPan="magnify" viewBox="0 0 375 374.999991" height="500" preserveAspectRatio="xMidYMid meet" version="1.2"><defs><clipPath id="fbbe1db40b"><path d="M 43.59375 0 L 330.960938 0 L 330.960938 375 L 43.59375 375 Z M 43.59375 0 "/></clipPath><clipPath id="feebcd37da"><path d="M 115.1875 106.769531 L 264.398438 106.769531 L 264.398438 276.507812 L 115.1875 276.507812 Z M 115.1875 106.769531 "/></clipPath></defs><g id="0a68cbb0f2"><g clip-rule="nonzero" clip-path="url(#fbbe1db40b)"><path style=" stroke:none;fill-rule:nonzero;fill:currentColor;fill-opacity:1;" d="M 176.875 220.507812 L 181.035156 220.507812 L 181.035156 245.472656 L 156.074219 245.472656 C 151.496094 245.472656 147.753906 249.214844 147.753906 253.792969 C 147.753906 258.371094 151.496094 262.113281 156.074219 262.113281 L 222.640625 262.113281 C 227.21875 262.113281 230.964844 258.371094 230.964844 253.792969 C 230.964844 249.214844 227.21875 245.472656 222.640625 245.472656 L 197.679688 245.472656 L 197.679688 191.386719 C 197.679688 190.136719 197.679688 188.472656 197.679688 187.222656 L 201.839844 187.222656 C 227.21875 187.222656 247.605469 166.835938 247.605469 141.457031 L 247.605469 120.65625 C 247.605469 116.078125 243.859375 112.335938 239.285156 112.335938 L 226.800781 112.335938 C 202.253906 112.335938 182.285156 131.890625 181.035156 156.019531 C 173.132812 149.78125 163.144531 145.617188 151.914062 145.617188 L 139.429688 145.617188 C 134.855469 145.617188 131.109375 149.363281 131.109375 153.941406 L 131.109375 174.742188 C 131.109375 200.121094 151.496094 220.507812 176.875 220.507812 Z M 197.679688 158.101562 C 197.679688 141.875 210.578125 128.976562 226.800781 128.976562 L 230.964844 128.976562 L 230.964844 141.457031 C 230.964844 157.683594 218.066406 170.582031 201.839844 170.582031 L 197.679688 170.582031 Z M 147.753906 162.261719 L 151.914062 162.261719 C 168.140625 162.261719 181.035156 175.160156 181.035156 191.386719 L 181.035156 203.867188 L 176.875 203.867188 C 160.648438 203.867188 147.753906 190.96875 147.753906 174.742188 Z M 330.816406 41.605469 L 330.816406 8.320312 C 330.816406 3.746094 327.070312 0 322.496094 0 L 52.058594 0 C 47.484375 0 43.738281 3.746094 43.738281 8.320312 L 43.738281 41.605469 C 43.738281 52.007812 48.730469 61.992188 57.050781 68.234375 C 48.316406 105.679688 43.738281 146.035156 43.738281 187.222656 C 43.738281 228.414062 48.316406 268.769531 57.050781 306.214844 C 48.730469 312.457031 43.738281 322.027344 43.738281 332.84375 L 43.738281 366.128906 C 43.738281 370.703125 47.484375 374.449219 52.058594 374.449219 L 322.496094 374.449219 C 327.070312 374.449219 330.816406 370.703125 330.816406 366.128906 L 330.816406 332.84375 C 330.816406 322.441406 325.824219 312.457031 317.503906 306.214844 C 326.238281 268.769531 330.816406 228.414062 330.816406 187.222656 C 330.816406 146.035156 326.238281 105.679688 317.503906 68.234375 C 325.824219 61.992188 330.816406 52.007812 330.816406 41.605469 Z M 314.175781 41.605469 C 314.175781 47.847656 310.429688 54.085938 304.605469 56.582031 C 302.523438 57.832031 300.027344 58.246094 297.53125 58.246094 L 264.246094 58.246094 C 259.671875 58.246094 255.925781 61.992188 255.925781 66.570312 C 255.925781 71.144531 259.671875 74.890625 264.246094 74.890625 L 297.53125 74.890625 C 299.195312 74.890625 300.445312 74.890625 302.109375 74.472656 C 310.011719 110.253906 314.175781 148.117188 314.175781 187.222656 C 314.175781 226.332031 310.011719 264.195312 302.109375 299.976562 C 300.445312 299.558594 299.195312 299.558594 297.53125 299.558594 L 264.246094 299.558594 C 259.671875 299.558594 255.925781 303.304688 255.925781 307.878906 C 255.925781 312.457031 259.671875 316.199219 264.246094 316.199219 L 297.53125 316.199219 C 300.027344 316.199219 302.523438 316.617188 304.605469 317.867188 C 310.429688 320.363281 314.175781 326.601562 314.175781 332.84375 L 314.175781 357.804688 L 60.382812 357.804688 L 60.382812 332.84375 C 60.382812 326.601562 64.125 320.363281 69.949219 317.867188 C 72.03125 317.035156 74.527344 316.199219 77.023438 316.199219 L 110.308594 316.199219 C 114.882812 316.199219 118.628906 312.457031 118.628906 307.878906 C 118.628906 303.304688 114.882812 299.558594 110.308594 299.558594 L 77.023438 299.558594 C 75.359375 299.558594 74.109375 299.558594 72.445312 299.976562 C 64.542969 264.195312 60.382812 226.332031 60.382812 187.222656 C 60.382812 148.117188 64.542969 110.253906 72.445312 74.472656 C 73.695312 74.472656 75.359375 74.890625 77.023438 74.890625 L 110.308594 74.890625 C 114.882812 74.890625 118.628906 71.144531 118.628906 66.570312 C 118.628906 61.992188 114.882812 58.246094 110.308594 58.246094 L 77.023438 58.246094 C 74.527344 58.246094 72.03125 57.832031 69.949219 56.582031 C 64.125 54.085938 60.382812 47.847656 60.382812 41.605469 L 60.382812 16.640625 L 314.175781 16.640625 Z M 314.175781 41.605469 "/></g><g clip-rule="nonzero" clip-path="url(#feebcd37da)"><path style=" stroke:none;fill-rule:nonzero;fill:#ffffff;fill-opacity:1;" d="M 115.1875 106.769531 L 264.398438 106.769531 L 264.398438 276.378906 L 115.1875 276.378906 Z M 115.1875 106.769531 "/></g><g style="fill:currentColor;fill-opacity:1;"><g transform="translate(118.786353, 213.624245)"><path style="stroke:none" d="M 47.234375 -18 C 46.816406 -12.1875 44.671875 -7.609375 40.796875 -4.265625 C 36.929688 -0.921875 31.832031 0.75 25.5 0.75 C 18.570312 0.75 13.117188 -1.582031 9.140625 -6.25 C 5.171875 -10.914062 3.1875 -17.316406 3.1875 -25.453125 L 3.1875 -28.765625 C 3.1875 -33.953125 4.101562 -38.523438 5.9375 -42.484375 C 7.769531 -46.441406 10.382812 -49.476562 13.78125 -51.59375 C 17.1875 -53.71875 21.140625 -54.78125 25.640625 -54.78125 C 31.878906 -54.78125 36.898438 -53.109375 40.703125 -49.765625 C 44.515625 -46.421875 46.71875 -41.734375 47.3125 -35.703125 L 36.1875 -35.703125 C 35.914062 -39.191406 34.941406 -41.71875 33.265625 -43.28125 C 31.597656 -44.851562 29.054688 -45.640625 25.640625 -45.640625 C 21.929688 -45.640625 19.15625 -44.3125 17.3125 -41.65625 C 15.46875 -39 14.519531 -34.875 14.46875 -29.28125 L 14.46875 -25.203125 C 14.46875 -19.359375 15.351562 -15.085938 17.125 -12.390625 C 18.894531 -9.691406 21.6875 -8.34375 25.5 -8.34375 C 28.9375 -8.34375 31.5 -9.128906 33.1875 -10.703125 C 34.882812 -12.273438 35.859375 -14.707031 36.109375 -18 Z M 47.234375 -18 "/></g><g transform="translate(168.511641, 213.624245)"><path style="stroke:none" d="M 35.328125 -11.140625 L 15.8125 -11.140625 L 12.09375 0 L 0.265625 0 L 20.375 -54.03125 L 30.6875 -54.03125 L 50.921875 0 L 39.078125 0 Z M 18.8125 -20.15625 L 32.328125 -20.15625 L 25.53125 -40.375 Z M 18.8125 -20.15625 "/></g><g transform="translate(219.647048, 213.624245)"><path style="stroke:none" d="M 15.953125 -8.9375 L 39.59375 -8.9375 L 39.59375 0 L 4.828125 0 L 4.828125 -54.03125 L 15.953125 -54.03125 Z M 15.953125 -8.9375 "/></g></g></g></svg>