<svg xmlns="http://www.w3.org/2000/svg" xmlns:xlink="http://www.w3.org/1999/xlink" width="500" zoomAndPan="magnify" viewBox="0 0 375 374.999991" height="500" preserveAspectRatio="xMidYMid meet" version="1.0"><path fill="currentColor" d="M 356.835938 28.195312 L 356.835938 63.597656 C 356.835938 65.625 356.785156 67.652344 356.683594 69.675781 C 356.585938 71.703125 356.4375 73.722656 356.238281 75.742188 C 356.039062 77.757812 355.789062 79.769531 355.492188 81.777344 C 355.195312 83.78125 354.847656 85.78125 354.453125 87.769531 C 354.058594 89.757812 353.613281 91.734375 353.121094 93.703125 C 352.628906 95.667969 352.085938 97.621094 351.5 99.5625 C 350.910156 101.503906 350.273438 103.429688 349.589844 105.335938 C 348.910156 107.246094 348.179688 109.136719 347.402344 111.011719 C 346.625 112.886719 345.804688 114.738281 344.9375 116.570312 C 344.070312 118.402344 343.160156 120.214844 342.203125 122.003906 C 341.25 123.792969 340.25 125.554688 339.207031 127.292969 C 338.164062 129.035156 337.078125 130.746094 335.953125 132.433594 C 334.828125 134.117188 333.660156 135.777344 332.453125 137.40625 C 331.242188 139.03125 329.996094 140.632812 328.710938 142.199219 C 327.421875 143.765625 326.097656 145.300781 324.738281 146.804688 C 323.375 148.304688 321.976562 149.773438 320.542969 151.207031 C 319.109375 152.640625 317.640625 154.039062 316.140625 155.402344 C 314.636719 156.761719 313.101562 158.085938 311.535156 159.375 C 309.96875 160.660156 308.371094 161.90625 306.742188 163.113281 C 305.113281 164.324219 303.453125 165.488281 301.769531 166.617188 C 300.082031 167.742188 298.371094 168.828125 296.632812 169.871094 C 294.890625 170.914062 293.128906 171.910156 291.339844 172.867188 C 289.550781 173.824219 287.742188 174.734375 285.90625 175.601562 C 284.074219 176.46875 282.222656 177.289062 280.347656 178.066406 C 278.472656 178.84375 276.582031 179.570312 274.675781 180.253906 C 272.765625 180.9375 270.839844 181.574219 268.898438 182.164062 C 266.960938 182.75 265.003906 183.292969 263.039062 183.785156 C 261.070312 184.277344 259.09375 184.722656 257.105469 185.117188 C 255.117188 185.511719 253.117188 185.859375 251.113281 186.15625 C 249.105469 186.453125 247.09375 186.703125 245.078125 186.902344 C 243.058594 187.101562 241.039062 187.25 239.011719 187.347656 C 236.988281 187.449219 234.960938 187.496094 232.933594 187.496094 L 215.234375 187.496094 L 215.234375 205.199219 L 303.734375 205.199219 L 303.734375 329.097656 C 303.734375 330.257812 303.675781 331.414062 303.5625 332.570312 C 303.449219 333.722656 303.28125 334.867188 303.054688 336.003906 C 302.828125 337.144531 302.546875 338.265625 302.210938 339.375 C 301.871094 340.484375 301.484375 341.574219 301.039062 342.644531 C 300.59375 343.71875 300.101562 344.765625 299.554688 345.785156 C 299.007812 346.808594 298.410156 347.800781 297.765625 348.765625 C 297.125 349.730469 296.433594 350.660156 295.699219 351.558594 C 294.960938 352.453125 294.183594 353.3125 293.363281 354.132812 C 292.546875 354.949219 291.6875 355.730469 290.789062 356.464844 C 289.894531 357.199219 288.964844 357.890625 288 358.535156 C 287.035156 359.179688 286.042969 359.773438 285.019531 360.320312 C 284 360.867188 282.953125 361.359375 281.878906 361.804688 C 280.808594 362.25 279.71875 362.640625 278.609375 362.976562 C 277.5 363.3125 276.375 363.59375 275.238281 363.820312 C 274.101562 364.046875 272.957031 364.214844 271.804688 364.328125 C 270.648438 364.441406 269.492188 364.5 268.332031 364.5 L 126.730469 364.5 C 125.570312 364.5 124.414062 364.441406 123.261719 364.328125 C 122.109375 364.214844 120.960938 364.046875 119.824219 363.820312 C 118.6875 363.59375 117.566406 363.3125 116.457031 362.976562 C 115.347656 362.640625 114.253906 362.25 113.183594 361.804688 C 112.113281 361.359375 111.066406 360.867188 110.042969 360.320312 C 109.023438 359.773438 108.027344 359.179688 107.0625 358.535156 C 106.101562 357.890625 105.171875 357.199219 104.273438 356.464844 C 103.378906 355.730469 102.519531 354.949219 101.699219 354.132812 C 100.878906 353.3125 100.101562 352.453125 99.367188 351.558594 C 98.632812 350.660156 97.941406 349.730469 97.296875 348.765625 C 96.652344 347.800781 96.058594 346.808594 95.511719 345.785156 C 94.964844 344.765625 94.46875 343.71875 94.027344 342.644531 C 93.582031 341.574219 93.191406 340.484375 92.855469 339.375 C 92.519531 338.265625 92.238281 337.144531 92.011719 336.003906 C 91.785156 334.867188 91.617188 333.722656 91.5 332.570312 C 91.386719 331.414062 91.332031 330.257812 91.332031 329.097656 L 91.332031 205.199219 L 179.832031 205.199219 L 179.832031 152.097656 C 179.832031 150.070312 179.882812 148.042969 179.980469 146.019531 C 180.082031 143.992188 180.230469 141.972656 180.429688 139.953125 C 180.628906 137.933594 180.875 135.921875 181.171875 133.917969 C 181.472656 131.910156 181.816406 129.914062 182.214844 127.925781 C 182.609375 125.9375 183.050781 123.957031 183.546875 121.992188 C 184.039062 120.023438 184.578125 118.070312 185.167969 116.128906 C 185.757812 114.191406 186.390625 112.265625 187.074219 110.355469 C 187.757812 108.445312 188.488281 106.554688 189.261719 104.683594 C 190.039062 102.808594 190.859375 100.957031 191.726562 99.121094 C 192.59375 97.289062 193.507812 95.480469 194.460938 93.691406 C 195.417969 91.902344 196.417969 90.136719 197.460938 88.398438 C 198.503906 86.660156 199.585938 84.949219 200.714844 83.261719 C 201.839844 81.574219 203.007812 79.917969 204.214844 78.289062 C 205.421875 76.660156 206.671875 75.0625 207.957031 73.496094 C 209.242188 71.925781 210.566406 70.394531 211.929688 68.890625 C 213.289062 67.386719 214.6875 65.917969 216.121094 64.484375 C 217.554688 63.050781 219.023438 61.652344 220.527344 60.292969 C 222.027344 58.929688 223.5625 57.605469 225.132812 56.320312 C 226.699219 55.035156 228.296875 53.785156 229.925781 52.578125 C 231.554688 51.371094 233.210938 50.203125 234.898438 49.078125 C 236.582031 47.949219 238.296875 46.867188 240.035156 45.824219 C 241.773438 44.78125 243.539062 43.78125 245.328125 42.824219 C 247.113281 41.871094 248.925781 40.957031 250.757812 40.09375 C 252.59375 39.226562 254.445312 38.402344 256.320312 37.628906 C 258.191406 36.851562 260.082031 36.121094 261.992188 35.4375 C 263.902344 34.753906 265.828125 34.121094 267.765625 33.53125 C 269.707031 32.941406 271.660156 32.402344 273.628906 31.910156 C 275.59375 31.417969 277.574219 30.972656 279.5625 30.578125 C 281.550781 30.179688 283.546875 29.835938 285.554688 29.535156 C 287.558594 29.238281 289.570312 28.992188 291.589844 28.792969 C 293.605469 28.59375 295.628906 28.445312 297.652344 28.34375 C 299.679688 28.246094 301.707031 28.195312 303.734375 28.195312 Z M 82.480469 10.496094 C 87.773438 10.492188 93.042969 10.804688 98.296875 11.429688 C 103.550781 12.058594 108.75 12.996094 113.890625 14.242188 C 119.03125 15.492188 124.082031 17.042969 129.035156 18.898438 C 133.992188 20.753906 138.820312 22.894531 143.519531 25.328125 C 148.21875 27.757812 152.753906 30.460938 157.128906 33.4375 C 161.503906 36.410156 165.6875 39.636719 169.675781 43.113281 C 173.664062 46.585938 177.433594 50.289062 180.980469 54.214844 C 184.527344 58.140625 187.824219 62.265625 190.878906 66.585938 C 186.234375 72.691406 182.117188 79.132812 178.527344 85.910156 C 174.9375 92.6875 171.917969 99.710938 169.476562 106.980469 C 167.03125 114.25 165.195312 121.667969 163.960938 129.238281 C 162.730469 136.808594 162.121094 144.429688 162.132812 152.097656 L 162.132812 169.796875 L 153.28125 169.796875 C 151.109375 169.796875 148.9375 169.746094 146.769531 169.636719 C 144.597656 169.53125 142.433594 169.371094 140.269531 169.160156 C 138.109375 168.945312 135.953125 168.679688 133.804688 168.359375 C 131.652344 168.042969 129.515625 167.671875 127.382812 167.246094 C 125.253906 166.824219 123.132812 166.347656 121.027344 165.820312 C 118.917969 165.292969 116.824219 164.710938 114.746094 164.082031 C 112.667969 163.449219 110.605469 162.769531 108.558594 162.039062 C 106.515625 161.304688 104.488281 160.523438 102.480469 159.691406 C 100.472656 158.859375 98.488281 157.980469 96.523438 157.050781 C 94.558594 156.125 92.621094 155.148438 90.703125 154.121094 C 88.789062 153.097656 86.898438 152.027344 85.035156 150.910156 C 83.171875 149.792969 81.335938 148.632812 79.527344 147.425781 C 77.722656 146.21875 75.945312 144.96875 74.203125 143.671875 C 72.457031 142.378906 70.746094 141.042969 69.066406 139.664062 C 67.386719 138.285156 65.742188 136.867188 64.132812 135.410156 C 62.523438 133.949219 60.949219 132.453125 59.414062 130.914062 C 57.875 129.378906 56.378906 127.804688 54.917969 126.195312 C 53.460938 124.585938 52.042969 122.941406 50.664062 121.261719 C 49.285156 119.582031 47.949219 117.871094 46.65625 116.125 C 45.359375 114.382812 44.109375 112.605469 42.902344 110.800781 C 41.695312 108.992188 40.535156 107.15625 39.417969 105.292969 C 38.300781 103.429688 37.230469 101.539062 36.207031 99.625 C 35.179688 97.707031 34.203125 95.769531 33.277344 93.804688 C 32.347656 91.839844 31.46875 89.855469 30.636719 87.847656 C 29.804688 85.839844 29.023438 83.8125 28.289062 81.769531 C 27.558594 79.722656 26.878906 77.660156 26.246094 75.582031 C 25.617188 73.503906 25.035156 71.410156 24.507812 69.300781 C 23.980469 67.195312 23.503906 65.074219 23.082031 62.945312 C 22.65625 60.8125 22.285156 58.675781 21.96875 56.523438 C 21.648438 54.375 21.382812 52.21875 21.167969 50.058594 C 20.957031 47.894531 20.796875 45.730469 20.691406 43.558594 C 20.582031 41.390625 20.53125 39.21875 20.53125 37.046875 L 20.53125 10.496094 Z M 82.480469 10.496094 " fill-opacity="1" fill-rule="nonzero"/></svg>