<svg xmlns="http://www.w3.org/2000/svg" xmlns:xlink="http://www.w3.org/1999/xlink" width="500" zoomAndPan="magnify" viewBox="0 0 375 374.999991" height="500" preserveAspectRatio="xMidYMid meet" version="1.2"><defs><clipPath id="f9b8cc3f90"><path d="M 99.796875 42 L 203 42 L 203 181.253906 L 99.796875 181.253906 Z M 99.796875 42 "/></clipPath><clipPath id="9b3f99cae0"><path d="M 113.554688 323 L 254 323 L 254 374.945312 L 113.554688 374.945312 Z M 113.554688 323 "/></clipPath><clipPath id="65f2ec7a6c"><path d="M 189 167.796875 L 261.851562 167.796875 L 261.851562 241 L 189 241 Z M 189 167.796875 "/></clipPath></defs><g id="a79a780a00"><g clip-rule="nonzero" clip-path="url(#f9b8cc3f90)"><path style=" stroke:none;fill-rule:nonzero;fill:currentColor;fill-opacity:1;" d="M 151.140625 171.433594 C 128.269531 171.433594 109.664062 152.835938 109.664062 129.96875 C 109.664062 99.890625 140.671875 65.140625 151.125 54.285156 C 161.566406 65.210938 192.605469 100.195312 192.605469 129.96875 C 192.605469 152.835938 174.003906 171.433594 151.140625 171.433594 Z M 154.53125 43.789062 C 152.644531 41.976562 149.664062 41.972656 147.765625 43.773438 C 145.8125 45.632812 99.875 89.765625 99.875 129.96875 C 99.875 158.234375 122.871094 181.226562 151.140625 181.226562 C 179.402344 181.226562 202.398438 158.234375 202.398438 129.96875 C 202.398438 90.226562 156.484375 45.667969 154.53125 43.789062 "/></g><path style=" stroke:none;fill-rule:nonzero;fill:currentColor;fill-opacity:1;" d="M 206.992188 53.34375 C 199.203125 53.34375 192.867188 47.007812 192.867188 39.21875 C 192.867188 30.09375 201.242188 18.792969 206.976562 12.40625 C 212.71875 18.828125 221.101562 30.171875 221.101562 39.21875 C 221.101562 47.007812 214.769531 53.34375 206.992188 53.34375 Z M 230.890625 39.21875 C 230.890625 21.707031 211.21875 2.613281 210.382812 1.808594 C 208.492188 -0.00390625 205.515625 -0.0117188 203.617188 1.789062 C 202.777344 2.585938 183.074219 21.503906 183.074219 39.21875 C 183.074219 52.40625 193.804688 63.132812 206.992188 63.132812 C 220.171875 63.132812 230.890625 52.40625 230.890625 39.21875 "/><path style=" stroke:none;fill-rule:nonzero;fill:currentColor;fill-opacity:1;" d="M 244.683594 131.011719 C 233.425781 131.011719 224.265625 121.851562 224.265625 110.59375 C 224.265625 96.265625 238.125 79.609375 244.6875 72.523438 C 252.460938 80.960938 265.082031 97.433594 265.082031 110.59375 C 265.082031 121.851562 255.929688 131.011719 244.683594 131.011719 Z M 248.074219 61.96875 C 246.1875 60.15625 243.210938 60.148438 241.3125 61.949219 C 240.214844 62.992188 214.472656 87.703125 214.472656 110.59375 C 214.472656 127.25 228.023438 140.804688 244.683594 140.804688 C 261.332031 140.804688 274.875 127.25 274.875 110.59375 C 274.875 87.972656 249.167969 63.019531 248.074219 61.96875 "/><path style=" stroke:none;fill-rule:nonzero;fill:currentColor;fill-opacity:1;" d="M 128.230469 136.246094 C 124.769531 124.402344 133.4375 110.941406 133.550781 110.765625 C 135.035156 108.511719 134.414062 105.480469 132.164062 103.988281 C 129.910156 102.5 126.871094 103.117188 125.378906 105.375 C 124.914062 106.074219 114.078125 122.730469 118.832031 139 C 121.328125 147.496094 131.339844 163.570312 151.347656 163.570312 C 154.050781 163.570312 156.246094 161.375 156.246094 158.671875 C 156.246094 155.96875 154.050781 153.777344 151.347656 153.777344 C 137.136719 153.777344 130.007812 142.304688 128.230469 136.246094 "/><path style=" stroke:none;fill-rule:nonzero;fill:currentColor;fill-opacity:1;" d="M 137.507812 99.722656 C 141.269531 99.722656 144.335938 96.683594 144.335938 92.898438 C 144.335938 89.117188 141.269531 86.074219 137.507812 86.074219 C 133.734375 86.074219 130.683594 89.117188 130.683594 92.898438 C 130.683594 96.683594 133.734375 99.722656 137.507812 99.722656 "/><g clip-rule="nonzero" clip-path="url(#9b3f99cae0)"><path style=" stroke:none;fill-rule:nonzero;fill:currentColor;fill-opacity:1;" d="M 183.773438 323.113281 C 145.054688 323.113281 113.554688 344.667969 113.554688 371.15625 C 113.554688 371.648438 113.648438 372.117188 113.835938 372.570312 C 114.023438 373.023438 114.289062 373.425781 114.636719 373.769531 C 114.984375 374.117188 115.382812 374.382812 115.835938 374.570312 C 116.289062 374.757812 116.761719 374.851562 117.25 374.851562 L 250.296875 374.851562 C 250.789062 374.851562 251.261719 374.757812 251.710938 374.570312 C 252.164062 374.382812 252.566406 374.117188 252.910156 373.769531 C 253.257812 373.425781 253.523438 373.023438 253.710938 372.570312 C 253.898438 372.117188 253.992188 371.648438 253.992188 371.15625 C 253.992188 344.667969 222.492188 323.113281 183.773438 323.113281 Z M 183.773438 323.113281 "/></g><g clip-rule="nonzero" clip-path="url(#65f2ec7a6c)"><path style=" stroke:none;fill-rule:nonzero;fill:currentColor;fill-opacity:1;" d="M 257.710938 167.890625 C 256.085938 167.824219 219.570312 167.886719 200.195312 187.269531 C 186.347656 201.117188 185.273438 219.382812 197.582031 231.691406 C 198.351562 232.457031 199.152344 233.175781 199.992188 233.859375 C 205.789062 220.835938 214.082031 209.996094 225.976562 204.507812 C 226.421875 204.304688 226.886719 204.191406 227.378906 204.171875 C 227.867188 204.152344 228.34375 204.226562 228.800781 204.398438 C 229.261719 204.566406 229.671875 204.816406 230.03125 205.148438 C 230.390625 205.484375 230.675781 205.871094 230.878906 206.316406 C 231.085938 206.761719 231.199219 207.230469 231.21875 207.71875 C 231.238281 208.207031 231.160156 208.683594 230.992188 209.144531 C 230.824219 209.601562 230.570312 210.011719 230.238281 210.375 C 229.90625 210.734375 229.515625 211.015625 229.070312 211.222656 C 218.710938 216 211.421875 225.820312 206.289062 237.773438 C 209.871094 239.414062 213.628906 240.238281 217.566406 240.242188 C 219.871094 240.164062 222.144531 239.859375 224.390625 239.332031 C 226.632812 238.804688 228.804688 238.058594 230.902344 237.101562 C 233 236.144531 234.980469 234.992188 236.851562 233.640625 C 238.71875 232.289062 240.4375 230.769531 242.007812 229.078125 C 261.394531 209.695312 261.394531 173.113281 261.386719 171.5625 C 261.382812 171.078125 261.289062 170.609375 261.101562 170.160156 C 260.914062 169.710938 260.648438 169.316406 260.304688 168.972656 C 259.960938 168.628906 259.5625 168.363281 259.113281 168.175781 C 258.664062 167.988281 258.199219 167.894531 257.710938 167.890625 Z M 257.710938 167.890625 "/></g><path style=" stroke:none;fill-rule:nonzero;fill:currentColor;fill-opacity:1;" d="M 136.679688 254.523438 C 136.292969 254.234375 135.976562 253.882812 135.730469 253.46875 C 135.484375 253.054688 135.324219 252.609375 135.25 252.132812 C 135.179688 251.65625 135.199219 251.183594 135.308594 250.714844 C 135.421875 250.246094 135.617188 249.816406 135.898438 249.425781 C 136.175781 249.035156 136.519531 248.707031 136.925781 248.449219 C 137.335938 248.195312 137.773438 248.023438 138.25 247.9375 C 138.722656 247.851562 139.195312 247.859375 139.667969 247.957031 C 140.140625 248.058594 140.574219 248.242188 140.972656 248.511719 C 147.863281 254.007812 153.382812 260.648438 157.535156 268.421875 C 158.464844 267.761719 159.335938 267.027344 160.148438 266.222656 C 161.15625 265.28125 162.039062 264.234375 162.789062 263.078125 C 163.542969 261.921875 164.140625 260.691406 164.589844 259.386719 C 165.039062 258.082031 165.320312 256.746094 165.441406 255.371094 C 165.558594 253.996094 165.507812 252.628906 165.289062 251.265625 C 164.75 248.621094 163.816406 246.117188 162.492188 243.761719 C 161.167969 241.40625 159.515625 239.3125 157.53125 237.476562 C 155.074219 235.15625 152.414062 233.09375 149.554688 231.292969 C 146.691406 229.492188 143.683594 227.988281 140.53125 226.773438 C 137.375 225.5625 134.132812 224.667969 130.800781 224.089844 C 127.472656 223.507812 124.117188 223.257812 120.738281 223.335938 C 120.285156 223.359375 119.851562 223.464844 119.4375 223.652344 C 119.023438 223.835938 118.652344 224.089844 118.332031 224.410156 C 118.011719 224.730469 117.757812 225.097656 117.574219 225.511719 C 117.386719 225.925781 117.28125 226.363281 117.257812 226.816406 C 117.179688 230.195312 117.433594 233.546875 118.011719 236.878906 C 118.589844 240.210938 119.484375 243.453125 120.699219 246.605469 C 121.910156 249.761719 123.417969 252.769531 125.21875 255.632812 C 127.019531 258.492188 129.078125 261.152344 131.398438 263.609375 C 133.234375 265.589844 135.332031 267.246094 137.6875 268.570312 C 140.042969 269.894531 142.542969 270.824219 145.191406 271.363281 C 146.101562 271.511719 147.015625 271.585938 147.9375 271.585938 C 148.816406 271.566406 149.6875 271.476562 150.554688 271.316406 C 147.042969 264.800781 142.417969 259.203125 136.679688 254.523438 Z M 136.679688 254.523438 "/><path style=" stroke:none;fill-rule:nonzero;fill:currentColor;fill-opacity:1;" d="M 183.769531 330.503906 C 183.355469 330.503906 182.949219 330.433594 182.558594 330.296875 C 182.164062 330.160156 181.804688 329.964844 181.480469 329.707031 C 181.152344 329.445312 180.878906 329.140625 180.65625 328.792969 C 180.433594 328.441406 180.273438 328.0625 180.175781 327.65625 C 180.03125 327.039062 165.410156 265.96875 140.972656 248.507812 C 140.585938 248.21875 140.269531 247.867188 140.023438 247.453125 C 139.773438 247.039062 139.613281 246.59375 139.539062 246.117188 C 139.464844 245.640625 139.484375 245.167969 139.59375 244.699219 C 139.707031 244.230469 139.902344 243.796875 140.183594 243.40625 C 140.464844 243.011719 140.808594 242.6875 141.214844 242.429688 C 141.625 242.171875 142.066406 242 142.542969 241.914062 C 143.015625 241.828125 143.488281 241.835938 143.960938 241.9375 C 144.433594 242.039062 144.871094 242.226562 145.269531 242.496094 C 161.171875 253.855469 172.847656 280.363281 179.824219 300.5 C 181.007812 267.484375 188.40625 213.710938 222.878906 197.796875 C 223.324219 197.59375 223.792969 197.480469 224.28125 197.460938 C 224.769531 197.441406 225.246094 197.519531 225.703125 197.6875 C 226.164062 197.859375 226.574219 198.109375 226.933594 198.441406 C 227.292969 198.773438 227.574219 199.164062 227.78125 199.605469 C 227.984375 200.050781 228.097656 200.519531 228.117188 201.007812 C 228.136719 201.496094 228.0625 201.972656 227.894531 202.433594 C 227.722656 202.890625 227.472656 203.300781 227.140625 203.660156 C 226.808594 204.023438 226.421875 204.304688 225.976562 204.511719 C 180.808594 225.355469 187.390625 325.539062 187.460938 326.546875 C 187.476562 326.800781 187.46875 327.050781 187.433594 327.304688 C 187.398438 327.554688 187.339844 327.800781 187.253906 328.039062 C 187.171875 328.277344 187.0625 328.503906 186.929688 328.722656 C 186.800781 328.9375 186.648438 329.140625 186.472656 329.324219 C 186.300781 329.511719 186.109375 329.675781 185.902344 329.824219 C 185.695312 329.96875 185.476562 330.09375 185.246094 330.195312 C 185.011719 330.296875 184.773438 330.375 184.523438 330.425781 C 184.273438 330.476562 184.023438 330.503906 183.769531 330.503906 Z M 183.769531 330.503906 "/></g></svg>