<svg xmlns="http://www.w3.org/2000/svg" xmlns:xlink="http://www.w3.org/1999/xlink" width="500" zoomAndPan="magnify" viewBox="0 0 375 374.999991" height="500" preserveAspectRatio="xMidYMid meet" version="1.2"><g id="3c143dd380"><path style=" stroke:none;fill-rule:nonzero;fill:currentColor;fill-opacity:1;" d="M 96.40625 96.332031 C 94.71875 -25.191406 285.480469 -25.191406 283.777344 96.339844 C 285.464844 217.851562 94.703125 217.855469 96.40625 96.332031 Z M 252.480469 221.246094 L 127.566406 221.246094 C 84.234375 219.449219 34.851562 268.367188 54.496094 311.546875 C 56.753906 313.695312 59.058594 315.785156 61.414062 317.820312 C 63.769531 319.859375 66.171875 321.839844 68.625 323.761719 C 71.074219 325.683594 73.566406 327.546875 76.105469 329.351562 C 78.644531 331.15625 81.222656 332.898438 83.84375 334.582031 C 86.464844 336.261719 89.125 337.882812 91.824219 339.4375 C 94.519531 340.992188 97.253906 342.484375 100.023438 343.910156 C 102.792969 345.335938 105.59375 346.695312 108.425781 347.988281 C 111.257812 349.28125 114.121094 350.507812 117.011719 351.664062 C 119.902344 352.820312 122.820312 353.910156 125.761719 354.929688 C 128.707031 355.949219 131.671875 356.894531 134.660156 357.773438 C 137.648438 358.652344 140.652344 359.460938 143.679688 360.195312 C 146.707031 360.929688 149.746094 361.59375 152.804688 362.183594 C 155.863281 362.777344 158.933594 363.292969 162.015625 363.738281 C 165.097656 364.1875 168.1875 364.558594 171.289062 364.855469 C 174.386719 365.15625 177.492188 365.378906 180.605469 365.53125 C 183.714844 365.683594 186.828125 365.761719 189.941406 365.765625 C 193.054688 365.769531 196.167969 365.699219 199.277344 365.554688 C 202.390625 365.410156 205.496094 365.195312 208.597656 364.902344 C 211.695312 364.613281 214.789062 364.246094 217.871094 363.808594 C 220.957031 363.371094 224.027344 362.859375 227.085938 362.277344 C 230.144531 361.691406 233.1875 361.039062 236.214844 360.308594 C 239.246094 359.582031 242.253906 358.78125 245.242188 357.910156 C 248.234375 357.039062 251.199219 356.097656 254.144531 355.085938 C 257.09375 354.074219 260.011719 352.996094 262.90625 351.84375 C 265.800781 350.695312 268.664062 349.476562 271.5 348.191406 C 274.335938 346.902344 277.140625 345.550781 279.914062 344.132812 C 282.6875 342.714844 285.421875 341.230469 288.125 339.679688 C 290.824219 338.132812 293.488281 336.519531 296.113281 334.84375 C 298.738281 333.167969 301.324219 331.429688 303.867188 329.632812 C 306.410156 327.835938 308.90625 325.976562 311.363281 324.0625 C 313.816406 322.144531 316.226562 320.171875 318.585938 318.140625 C 320.945312 316.109375 323.257812 314.023438 325.519531 311.882812 C 345.316406 268.738281 296.527344 219.609375 252.480469 221.246094 Z M 252.480469 221.246094 "/></g></svg>