<svg xmlns="http://www.w3.org/2000/svg" xmlns:xlink="http://www.w3.org/1999/xlink" width="500" zoomAndPan="magnify" viewBox="0 0 375 374.999991" height="500" preserveAspectRatio="xMidYMid meet" version="1.2"><defs><clipPath id="a33bd8df8d"><path d="M 43.59375 0 L 331.59375 0 L 331.59375 375 L 43.59375 375 Z M 43.59375 0 "/></clipPath></defs><g id="ba6a45b2e1"><g clip-rule="nonzero" clip-path="url(#a33bd8df8d)"><path style=" stroke:none;fill-rule:nonzero;fill:currentColor;fill-opacity:1;" d="M 177.082031 220.832031 L 181.25 220.832031 L 181.25 245.832031 L 156.25 245.832031 C 151.667969 245.832031 147.917969 249.582031 147.917969 254.167969 C 147.917969 258.75 151.667969 262.5 156.25 262.5 L 222.917969 262.5 C 227.5 262.5 231.25 258.75 231.25 254.167969 C 231.25 249.582031 227.5 245.832031 222.917969 245.832031 L 197.917969 245.832031 L 197.917969 191.667969 C 197.917969 190.417969 197.917969 188.75 197.917969 187.5 L 202.082031 187.5 C 227.5 187.5 247.917969 167.082031 247.917969 141.667969 L 247.917969 120.832031 C 247.917969 116.25 244.167969 112.5 239.582031 112.5 L 227.082031 112.5 C 202.5 112.5 182.5 132.082031 181.25 156.25 C 173.332031 150 163.332031 145.832031 152.082031 145.832031 L 139.582031 145.832031 C 135 145.832031 131.25 149.582031 131.25 154.167969 L 131.25 175 C 131.25 200.417969 151.667969 220.832031 177.082031 220.832031 Z M 197.917969 158.332031 C 197.917969 142.082031 210.832031 129.167969 227.082031 129.167969 L 231.25 129.167969 L 231.25 141.667969 C 231.25 157.917969 218.332031 170.832031 202.082031 170.832031 L 197.917969 170.832031 Z M 147.917969 162.5 L 152.082031 162.5 C 168.332031 162.5 181.25 175.417969 181.25 191.667969 L 181.25 204.167969 L 177.082031 204.167969 C 160.832031 204.167969 147.917969 191.25 147.917969 175 Z M 331.25 41.667969 L 331.25 8.332031 C 331.25 3.75 327.5 0 322.917969 0 L 52.082031 0 C 47.5 0 43.75 3.75 43.75 8.332031 L 43.75 41.667969 C 43.75 52.082031 48.75 62.082031 57.082031 68.332031 C 48.332031 105.832031 43.75 146.25 43.75 187.5 C 43.75 228.75 48.332031 269.167969 57.082031 306.667969 C 48.75 312.917969 43.75 322.5 43.75 333.332031 L 43.75 366.667969 C 43.75 371.25 47.5 375 52.082031 375 L 322.917969 375 C 327.5 375 331.25 371.25 331.25 366.667969 L 331.25 333.332031 C 331.25 322.917969 326.25 312.917969 317.917969 306.667969 C 326.667969 269.167969 331.25 228.75 331.25 187.5 C 331.25 146.25 326.667969 105.832031 317.917969 68.332031 C 326.25 62.082031 331.25 52.082031 331.25 41.667969 Z M 314.582031 41.667969 C 314.582031 47.917969 310.832031 54.167969 305 56.667969 C 302.917969 57.917969 300.417969 58.332031 297.917969 58.332031 L 264.582031 58.332031 C 260 58.332031 256.25 62.082031 256.25 66.667969 C 256.25 71.25 260 75 264.582031 75 L 297.917969 75 C 299.582031 75 300.832031 75 302.5 74.582031 C 310.417969 110.417969 314.582031 148.332031 314.582031 187.5 C 314.582031 226.667969 310.417969 264.582031 302.5 300.417969 C 300.832031 300 299.582031 300 297.917969 300 L 264.582031 300 C 260 300 256.25 303.75 256.25 308.332031 C 256.25 312.917969 260 316.667969 264.582031 316.667969 L 297.917969 316.667969 C 300.417969 316.667969 302.917969 317.082031 305 318.332031 C 310.832031 320.832031 314.582031 327.082031 314.582031 333.332031 L 314.582031 358.332031 L 60.417969 358.332031 L 60.417969 333.332031 C 60.417969 327.082031 64.167969 320.832031 70 318.332031 C 72.082031 317.5 74.582031 316.667969 77.082031 316.667969 L 110.417969 316.667969 C 115 316.667969 118.75 312.917969 118.75 308.332031 C 118.75 303.75 115 300 110.417969 300 L 77.082031 300 C 75.417969 300 74.167969 300 72.5 300.417969 C 64.582031 264.582031 60.417969 226.667969 60.417969 187.5 C 60.417969 148.332031 64.582031 110.417969 72.5 74.582031 C 73.75 74.582031 75.417969 75 77.082031 75 L 110.417969 75 C 115 75 118.75 71.25 118.75 66.667969 C 118.75 62.082031 115 58.332031 110.417969 58.332031 L 77.082031 58.332031 C 74.582031 58.332031 72.082031 57.917969 70 56.667969 C 64.167969 54.167969 60.417969 47.917969 60.417969 41.667969 L 60.417969 16.667969 L 314.582031 16.667969 Z M 314.582031 41.667969 "/></g></g></svg>