<svg xmlns="http://www.w3.org/2000/svg" xmlns:xlink="http://www.w3.org/1999/xlink" width="500" zoomAndPan="magnify" viewBox="0 0 375 374.999991" height="500" preserveAspectRatio="xMidYMid meet" version="1.2"><defs><clipPath id="843844af68"><path d="M 97.796875 43 L 203 43 L 203 185.390625 L 97.796875 185.390625 Z M 97.796875 43 "/></clipPath><clipPath id="bc945295cf"><path d="M 30.785156 257 L 138 257 L 138 373.804688 L 30.785156 373.804688 Z M 30.785156 257 "/></clipPath><clipPath id="702717b993"><path d="M 74 212 L 169 212 L 169 373.804688 L 74 373.804688 Z M 74 212 "/></clipPath><clipPath id="b840609251"><path d="M 206 220 L 269 220 L 269 373.804688 L 206 373.804688 Z M 206 220 "/></clipPath><clipPath id="3d04ea00f3"><path d="M 160.234375 186.757812 L 200 186.757812 L 200 373.804688 L 160.234375 373.804688 Z M 160.234375 186.757812 "/></clipPath><clipPath id="c94deee31c"><path d="M 190.492188 171.625 L 274.550781 171.625 L 274.550781 373.804688 L 190.492188 373.804688 Z M 190.492188 171.625 "/></clipPath><clipPath id="88aab98b7e"><path d="M 233 206 L 294.726562 206 L 294.726562 373.804688 L 233 373.804688 Z M 233 206 "/></clipPath><clipPath id="a5445c37ed"><path d="M 149 188 L 251 188 L 251 373.804688 L 149 373.804688 Z M 149 188 "/></clipPath><clipPath id="f4099349dd"><path d="M 246 234 L 342.539062 234 L 342.539062 373.804688 L 246 373.804688 Z M 246 234 "/></clipPath><clipPath id="007b0347c8"><path d="M 131 225 L 193.855469 225 L 193.855469 373.804688 L 131 373.804688 Z M 131 225 "/></clipPath></defs><g id="52aab1bf9c"><g clip-rule="nonzero" clip-path="url(#843844af68)"><path style=" stroke:none;fill-rule:nonzero;fill:currentColor;fill-opacity:1;" d="M 150.308594 175.347656 C 126.917969 175.347656 107.890625 156.320312 107.890625 132.933594 C 107.890625 102.167969 139.605469 66.625 150.292969 55.523438 C 160.976562 66.699219 192.722656 102.480469 192.722656 132.933594 C 192.722656 156.320312 173.695312 175.347656 150.308594 175.347656 Z M 153.78125 44.789062 C 151.847656 42.933594 148.800781 42.929688 146.859375 44.769531 C 144.859375 46.671875 97.875 91.8125 97.875 132.933594 C 97.875 161.84375 121.394531 185.363281 150.308594 185.363281 C 179.21875 185.363281 202.738281 161.84375 202.738281 132.933594 C 202.738281 92.285156 155.777344 46.710938 153.78125 44.789062 "/></g><path style=" stroke:none;fill-rule:nonzero;fill:currentColor;fill-opacity:1;" d="M 207.433594 54.558594 C 199.46875 54.558594 192.988281 48.078125 192.988281 40.113281 C 192.988281 30.78125 201.554688 19.21875 207.421875 12.691406 C 213.292969 19.257812 221.867188 30.863281 221.867188 40.113281 C 221.867188 48.078125 215.390625 54.558594 207.433594 54.558594 Z M 231.882812 40.113281 C 231.882812 22.203125 211.761719 2.671875 210.902344 1.847656 C 208.972656 -0.00390625 205.925781 -0.015625 203.984375 1.828125 C 203.125 2.644531 182.972656 21.996094 182.972656 40.113281 C 182.972656 53.601562 193.945312 64.574219 207.433594 64.574219 C 220.914062 64.574219 231.882812 53.601562 231.882812 40.113281 "/><path style=" stroke:none;fill-rule:nonzero;fill:currentColor;fill-opacity:1;" d="M 245.988281 134 C 234.472656 134 225.105469 124.632812 225.105469 113.117188 C 225.105469 98.460938 239.277344 81.425781 245.992188 74.175781 C 253.941406 82.808594 266.855469 99.65625 266.855469 113.117188 C 266.855469 124.632812 257.492188 134 245.988281 134 Z M 249.457031 63.382812 C 247.527344 61.53125 244.480469 61.519531 242.539062 63.363281 C 241.417969 64.425781 215.089844 89.707031 215.089844 113.117188 C 215.089844 130.15625 228.949219 144.015625 245.988281 144.015625 C 263.015625 144.015625 276.871094 130.15625 276.871094 113.117188 C 276.871094 89.976562 250.578125 64.457031 249.457031 63.382812 "/><path style=" stroke:none;fill-rule:nonzero;fill:currentColor;fill-opacity:1;" d="M 126.875 139.355469 C 123.335938 127.238281 132.203125 113.472656 132.320312 113.292969 C 133.839844 110.988281 133.203125 107.886719 130.898438 106.363281 C 128.59375 104.839844 125.484375 105.46875 123.960938 107.777344 C 123.484375 108.496094 112.402344 125.53125 117.265625 142.167969 C 119.820312 150.863281 130.058594 167.300781 150.523438 167.300781 C 153.289062 167.300781 155.53125 165.058594 155.53125 162.292969 C 155.53125 159.527344 153.289062 157.285156 150.523438 157.285156 C 135.988281 157.285156 128.695312 145.550781 126.875 139.355469 "/><path style=" stroke:none;fill-rule:nonzero;fill:currentColor;fill-opacity:1;" d="M 136.367188 101.996094 C 140.214844 101.996094 143.351562 98.890625 143.351562 95.019531 C 143.351562 91.152344 140.214844 88.039062 136.367188 88.039062 C 132.507812 88.039062 129.386719 91.152344 129.386719 95.019531 C 129.386719 98.890625 132.507812 101.996094 136.367188 101.996094 "/><g clip-rule="nonzero" clip-path="url(#bc945295cf)"><path style=" stroke:none;fill-rule:nonzero;fill:currentColor;fill-opacity:1;" d="M 30.785156 257.1875 C 81.289062 302.761719 97.898438 373.390625 102.851562 373.804688 L 137.410156 373.804688 C 79.167969 278.695312 30.785156 257.1875 30.785156 257.1875 "/></g><g clip-rule="nonzero" clip-path="url(#702717b993)"><path style=" stroke:none;fill-rule:nonzero;fill:currentColor;fill-opacity:1;" d="M 128.699219 373.804688 C 128.699219 373.804688 107.492188 254.988281 74.289062 212.597656 C 74.289062 212.597656 132.027344 249.742188 168.738281 373.804688 L 128.699219 373.804688 "/></g><g clip-rule="nonzero" clip-path="url(#b840609251)"><path style=" stroke:none;fill-rule:nonzero;fill:currentColor;fill-opacity:1;" d="M 228.652344 373.804688 C 228.652344 373.804688 232.515625 280.574219 206.273438 220.15625 C 206.273438 220.15625 231.984375 242.484375 268.691406 366.542969 L 228.652344 373.804688 "/></g><g clip-rule="nonzero" clip-path="url(#3d04ea00f3)"><path style=" stroke:none;fill-rule:nonzero;fill:currentColor;fill-opacity:1;" d="M 160.785156 373.804688 C 160.785156 373.804688 158.625 266.21875 197.277344 186.960938 C 197.277344 186.960938 190.183594 295.410156 199.707031 373.804688 L 160.785156 373.804688 "/></g><g clip-rule="nonzero" clip-path="url(#c94deee31c)"><path style=" stroke:none;fill-rule:nonzero;fill:currentColor;fill-opacity:1;" d="M 190.984375 373.804688 C 190.984375 373.804688 202.425781 251.335938 274.105469 171.621094 C 274.105469 171.621094 218.316406 307.4375 234.078125 373.804688 L 190.984375 373.804688 "/></g><g clip-rule="nonzero" clip-path="url(#88aab98b7e)"><path style=" stroke:none;fill-rule:nonzero;fill:currentColor;fill-opacity:1;" d="M 233.71875 373.804688 C 233.71875 373.804688 238.859375 279.582031 294.253906 206.753906 C 294.253906 206.753906 257.050781 332.898438 267.230469 373.804688 L 233.71875 373.804688 "/></g><g clip-rule="nonzero" clip-path="url(#a5445c37ed)"><path style=" stroke:none;fill-rule:nonzero;fill:currentColor;fill-opacity:1;" d="M 250.929688 373.804688 L 220.308594 373.804688 C 220.308594 373.804688 191.214844 272.359375 149.253906 188.242188 C 149.253906 188.242188 226.308594 269.121094 250.929688 373.804688 "/></g><g clip-rule="nonzero" clip-path="url(#f4099349dd)"><path style=" stroke:none;fill-rule:nonzero;fill:currentColor;fill-opacity:1;" d="M 246.386719 373.804688 L 277.289062 373.804688 C 277.289062 373.804688 270.683594 337.746094 342.539062 234.628906 C 342.539062 234.628906 255.367188 285.253906 246.386719 373.804688 "/></g><g clip-rule="nonzero" clip-path="url(#007b0347c8)"><path style=" stroke:none;fill-rule:nonzero;fill:currentColor;fill-opacity:1;" d="M 153.46875 373.804688 C 153.46875 373.804688 157.328125 285.703125 131.082031 225.304688 C 131.082031 225.304688 156.804688 249.761719 193.507812 373.804688 L 153.46875 373.804688 "/></g></g></svg>