<svg xmlns="http://www.w3.org/2000/svg" xmlns:xlink="http://www.w3.org/1999/xlink" width="500" zoomAndPan="magnify" viewBox="0 0 375 374.999991" height="500" preserveAspectRatio="xMidYMid meet" version="1.2"><defs><clipPath id="666652461b"><path d="M 102.851562 41 L 205 41 L 205 178.726562 L 102.851562 178.726562 Z M 102.851562 41 "/></clipPath><clipPath id="9382fdfa94"><path d="M 60 190 L 178 190 L 178 308 L 60 308 Z M 60 190 "/></clipPath><clipPath id="04119fee6f"><path d="M 37.507812 230.800781 L 243.597656 100.699219 L 365.027344 293.046875 L 158.9375 423.152344 Z M 37.507812 230.800781 "/></clipPath><clipPath id="c9b9767d31"><path d="M 37.507812 230.800781 L 243.597656 100.699219 L 365.027344 293.046875 L 158.9375 423.152344 Z M 37.507812 230.800781 "/></clipPath><clipPath id="a1d73ec3c7"><path d="M 105 222 L 120 222 L 120 237 L 105 237 Z M 105 222 "/></clipPath><clipPath id="a92b408fc6"><path d="M 37.507812 230.800781 L 243.597656 100.699219 L 365.027344 293.046875 L 158.9375 423.152344 Z M 37.507812 230.800781 "/></clipPath><clipPath id="9fda9bbb05"><path d="M 37.507812 230.800781 L 243.597656 100.699219 L 365.027344 293.046875 L 158.9375 423.152344 Z M 37.507812 230.800781 "/></clipPath><clipPath id="3fc2be1e4e"><path d="M 96 246 L 106 246 L 106 256 L 96 256 Z M 96 246 "/></clipPath><clipPath id="7c59be86da"><path d="M 37.507812 230.800781 L 243.597656 100.699219 L 365.027344 293.046875 L 158.9375 423.152344 Z M 37.507812 230.800781 "/></clipPath><clipPath id="38b1d8367c"><path d="M 37.507812 230.800781 L 243.597656 100.699219 L 365.027344 293.046875 L 158.9375 423.152344 Z M 37.507812 230.800781 "/></clipPath><clipPath id="d35f2848c0"><path d="M 106 259 L 123 259 L 123 276 L 106 276 Z M 106 259 "/></clipPath><clipPath id="c382236371"><path d="M 37.507812 230.800781 L 243.597656 100.699219 L 365.027344 293.046875 L 158.9375 423.152344 Z M 37.507812 230.800781 "/></clipPath><clipPath id="45cfbd4438"><path d="M 37.507812 230.800781 L 243.597656 100.699219 L 365.027344 293.046875 L 158.9375 423.152344 Z M 37.507812 230.800781 "/></clipPath><clipPath id="292614f813"><path d="M 125 238 L 143 238 L 143 255 L 125 255 Z M 125 238 "/></clipPath><clipPath id="c27535ad3b"><path d="M 37.507812 230.800781 L 243.597656 100.699219 L 365.027344 293.046875 L 158.9375 423.152344 Z M 37.507812 230.800781 "/></clipPath><clipPath id="2fdd3a97d9"><path d="M 37.507812 230.800781 L 243.597656 100.699219 L 365.027344 293.046875 L 158.9375 423.152344 Z M 37.507812 230.800781 "/></clipPath><clipPath id="3d12eb10c4"><path d="M 208 157 L 299 157 L 299 249 L 208 249 Z M 208 157 "/></clipPath><clipPath id="66ace18cba"><path d="M 37.507812 230.800781 L 243.597656 100.699219 L 365.027344 293.046875 L 158.9375 423.152344 Z M 37.507812 230.800781 "/></clipPath><clipPath id="20f9bfd56c"><path d="M 37.507812 230.800781 L 243.597656 100.699219 L 365.027344 293.046875 L 158.9375 423.152344 Z M 37.507812 230.800781 "/></clipPath><clipPath id="9980c4e49a"><path d="M 243 182 L 254 182 L 254 194 L 243 194 Z M 243 182 "/></clipPath><clipPath id="5703d37baa"><path d="M 37.507812 230.800781 L 243.597656 100.699219 L 365.027344 293.046875 L 158.9375 423.152344 Z M 37.507812 230.800781 "/></clipPath><clipPath id="8809ce3872"><path d="M 37.507812 230.800781 L 243.597656 100.699219 L 365.027344 293.046875 L 158.9375 423.152344 Z M 37.507812 230.800781 "/></clipPath><clipPath id="c6597ccf8e"><path d="M 235 200 L 243 200 L 243 208 L 235 208 Z M 235 200 "/></clipPath><clipPath id="00a71cd23b"><path d="M 37.507812 230.800781 L 243.597656 100.699219 L 365.027344 293.046875 L 158.9375 423.152344 Z M 37.507812 230.800781 "/></clipPath><clipPath id="644719aa7d"><path d="M 37.507812 230.800781 L 243.597656 100.699219 L 365.027344 293.046875 L 158.9375 423.152344 Z M 37.507812 230.800781 "/></clipPath><clipPath id="8c2b57a683"><path d="M 243 211 L 257 211 L 257 224 L 243 224 Z M 243 211 "/></clipPath><clipPath id="a52b713d8a"><path d="M 37.507812 230.800781 L 243.597656 100.699219 L 365.027344 293.046875 L 158.9375 423.152344 Z M 37.507812 230.800781 "/></clipPath><clipPath id="717337b5b9"><path d="M 37.507812 230.800781 L 243.597656 100.699219 L 365.027344 293.046875 L 158.9375 423.152344 Z M 37.507812 230.800781 "/></clipPath><clipPath id="b19b3e3460"><path d="M 258 194 L 272 194 L 272 208 L 258 208 Z M 258 194 "/></clipPath><clipPath id="363f9e6972"><path d="M 37.507812 230.800781 L 243.597656 100.699219 L 365.027344 293.046875 L 158.9375 423.152344 Z M 37.507812 230.800781 "/></clipPath><clipPath id="6ec62b1b6e"><path d="M 37.507812 230.800781 L 243.597656 100.699219 L 365.027344 293.046875 L 158.9375 423.152344 Z M 37.507812 230.800781 "/></clipPath><clipPath id="562d99f6c8"><path d="M 189 290 L 269 290 L 269 370 L 189 370 Z M 189 290 "/></clipPath><clipPath id="ce5ee3fcfa"><path d="M 37.507812 230.800781 L 243.597656 100.699219 L 365.027344 293.046875 L 158.9375 423.152344 Z M 37.507812 230.800781 "/></clipPath><clipPath id="bd19127ef9"><path d="M 37.507812 230.800781 L 243.597656 100.699219 L 365.027344 293.046875 L 158.9375 423.152344 Z M 37.507812 230.800781 "/></clipPath><clipPath id="07c9410f1d"><path d="M 219 312 L 230 312 L 230 322 L 219 322 Z M 219 312 "/></clipPath><clipPath id="b6ee2b2008"><path d="M 37.507812 230.800781 L 243.597656 100.699219 L 365.027344 293.046875 L 158.9375 423.152344 Z M 37.507812 230.800781 "/></clipPath><clipPath id="335ce2e655"><path d="M 37.507812 230.800781 L 243.597656 100.699219 L 365.027344 293.046875 L 158.9375 423.152344 Z M 37.507812 230.800781 "/></clipPath><clipPath id="62b1047ac0"><path d="M 213 328 L 220 328 L 220 334 L 213 334 Z M 213 328 "/></clipPath><clipPath id="8e6942ba27"><path d="M 37.507812 230.800781 L 243.597656 100.699219 L 365.027344 293.046875 L 158.9375 423.152344 Z M 37.507812 230.800781 "/></clipPath><clipPath id="d62cb5e9be"><path d="M 37.507812 230.800781 L 243.597656 100.699219 L 365.027344 293.046875 L 158.9375 423.152344 Z M 37.507812 230.800781 "/></clipPath><clipPath id="f08f1a9610"><path d="M 219 336 L 231 336 L 231 348 L 219 348 Z M 219 336 "/></clipPath><clipPath id="e88710af56"><path d="M 37.507812 230.800781 L 243.597656 100.699219 L 365.027344 293.046875 L 158.9375 423.152344 Z M 37.507812 230.800781 "/></clipPath><clipPath id="3eb4d1b993"><path d="M 37.507812 230.800781 L 243.597656 100.699219 L 365.027344 293.046875 L 158.9375 423.152344 Z M 37.507812 230.800781 "/></clipPath><clipPath id="40ba136bd7"><path d="M 233 322 L 245 322 L 245 334 L 233 334 Z M 233 322 "/></clipPath><clipPath id="137efac184"><path d="M 37.507812 230.800781 L 243.597656 100.699219 L 365.027344 293.046875 L 158.9375 423.152344 Z M 37.507812 230.800781 "/></clipPath><clipPath id="75932f4862"><path d="M 37.507812 230.800781 L 243.597656 100.699219 L 365.027344 293.046875 L 158.9375 423.152344 Z M 37.507812 230.800781 "/></clipPath></defs><g id="86a35c2b80"><g clip-rule="nonzero" clip-path="url(#666652461b)"><path style=" stroke:none;fill-rule:nonzero;fill:currentColor;fill-opacity:1;" d="M 153.480469 169.046875 C 130.929688 169.046875 112.585938 150.707031 112.585938 128.160156 C 112.585938 98.496094 143.160156 64.230469 153.464844 53.527344 C 163.761719 64.300781 194.371094 98.796875 194.371094 128.160156 C 194.371094 150.707031 176.027344 169.046875 153.480469 169.046875 Z M 156.828125 43.179688 C 154.964844 41.394531 152.023438 41.386719 150.152344 43.164062 C 148.226562 44.996094 102.929688 88.515625 102.929688 128.160156 C 102.929688 156.027344 125.605469 178.703125 153.480469 178.703125 C 181.351562 178.703125 204.027344 156.027344 204.027344 128.160156 C 204.027344 88.96875 158.753906 45.03125 156.828125 43.179688 "/></g><path style=" stroke:none;fill-rule:nonzero;fill:currentColor;fill-opacity:1;" d="M 208.554688 52.597656 C 200.875 52.597656 194.625 46.351562 194.625 38.671875 C 194.625 29.675781 202.886719 18.53125 208.542969 12.234375 C 214.199219 18.566406 222.46875 29.753906 222.46875 38.671875 C 222.46875 46.351562 216.222656 52.597656 208.554688 52.597656 Z M 232.121094 38.671875 C 232.121094 21.40625 212.722656 2.574219 211.898438 1.78125 C 210.035156 -0.00390625 207.097656 -0.0117188 205.226562 1.765625 C 204.398438 2.550781 184.972656 21.203125 184.972656 38.671875 C 184.972656 51.675781 195.550781 62.253906 208.554688 62.253906 C 221.550781 62.253906 232.121094 51.675781 232.121094 38.671875 "/><path style=" stroke:none;fill-rule:nonzero;fill:currentColor;fill-opacity:1;" d="M 245.722656 129.1875 C 234.617188 129.1875 225.589844 120.15625 225.589844 109.054688 C 225.589844 94.925781 239.253906 78.5 245.722656 71.511719 C 253.390625 79.832031 265.835938 96.078125 265.835938 109.054688 C 265.835938 120.15625 256.8125 129.1875 245.722656 129.1875 Z M 249.066406 61.105469 C 247.203125 59.320312 244.269531 59.308594 242.394531 61.085938 C 241.316406 62.113281 215.933594 86.484375 215.933594 109.054688 C 215.933594 125.476562 229.296875 138.84375 245.722656 138.84375 C 262.136719 138.84375 275.492188 125.476562 275.492188 109.054688 C 275.492188 86.746094 250.144531 62.140625 249.066406 61.105469 "/><path style=" stroke:none;fill-rule:nonzero;fill:currentColor;fill-opacity:1;" d="M 130.890625 134.347656 C 127.476562 122.667969 136.027344 109.394531 136.136719 109.222656 C 137.601562 107 136.988281 104.011719 134.769531 102.539062 C 132.546875 101.074219 129.550781 101.679688 128.078125 103.90625 C 127.621094 104.597656 116.9375 121.019531 121.625 137.0625 C 124.085938 145.441406 133.957031 161.289062 153.6875 161.289062 C 156.351562 161.289062 158.515625 159.128906 158.515625 156.460938 C 158.515625 153.796875 156.351562 151.632812 153.6875 151.632812 C 139.671875 151.632812 132.644531 140.320312 130.890625 134.347656 "/><path style=" stroke:none;fill-rule:nonzero;fill:currentColor;fill-opacity:1;" d="M 140.039062 98.332031 C 143.75 98.332031 146.773438 95.339844 146.773438 91.605469 C 146.773438 87.875 143.75 84.875 140.039062 84.875 C 136.320312 84.875 133.308594 87.875 133.308594 91.605469 C 133.308594 95.339844 136.320312 98.332031 140.039062 98.332031 "/><g clip-rule="nonzero" clip-path="url(#9382fdfa94)"><g clip-rule="nonzero" clip-path="url(#04119fee6f)"><g clip-rule="nonzero" clip-path="url(#c9b9767d31)"><path style=" stroke:none;fill-rule:nonzero;fill:currentColor;fill-opacity:1;" d="M 160.863281 211.742188 C 159.304688 212.726562 159.617188 216.117188 161.445312 219.808594 C 161.433594 219.820312 161.421875 219.832031 161.414062 219.847656 C 158.496094 223.5 154.398438 226.085938 149.847656 227.148438 C 147.980469 227.582031 146.371094 227.660156 145.398438 227.085938 C 144.03125 225.464844 142.535156 223.992188 140.9375 222.679688 C 140.574219 222.15625 140.648438 221.25 140.953125 220.1875 C 141.644531 217.796875 143.136719 215.683594 145.160156 214.234375 C 145.167969 214.230469 145.179688 214.222656 145.1875 214.21875 C 147.101562 215.292969 148.894531 215.550781 149.460938 214.75 C 150.128906 213.804688 148.835938 211.742188 146.570312 210.140625 C 144.304688 208.539062 141.925781 208.011719 141.257812 208.957031 C 140.691406 209.757812 141.535156 211.363281 143.191406 212.808594 C 143.1875 212.816406 143.1875 212.824219 143.183594 212.835938 C 142.492188 215.230469 141 217.339844 138.972656 218.792969 C 138.058594 219.445312 137.210938 219.820312 136.597656 219.632812 L 136.761719 219.75 C 135.003906 218.703125 133.160156 217.816406 131.261719 217.105469 C 130.394531 216.375 129.925781 214.832031 129.710938 212.921875 C 129.191406 208.277344 130.257812 203.550781 132.726562 199.582031 C 132.734375 199.566406 132.742188 199.550781 132.753906 199.539062 C 136.84375 200.023438 140.144531 199.1875 140.550781 197.390625 C 141.03125 195.269531 137.304688 192.625 132.230469 191.476562 C 127.15625 190.332031 122.652344 191.117188 122.175781 193.234375 C 121.769531 195.03125 124.390625 197.207031 128.289062 198.527344 C 128.292969 198.546875 128.292969 198.5625 128.296875 198.582031 C 128.820312 203.226562 127.75 207.953125 125.28125 211.921875 C 124.269531 213.554688 123.183594 214.746094 122.085938 215.03125 C 120.011719 214.855469 117.917969 214.863281 115.832031 215.066406 C 115.203125 214.957031 114.609375 214.261719 114.074219 213.292969 C 112.871094 211.109375 112.433594 208.566406 112.835938 206.105469 C 112.839844 206.097656 112.84375 206.089844 112.84375 206.078125 C 114.957031 205.484375 116.410156 204.398438 116.246094 203.433594 C 116.046875 202.292969 113.671875 201.75 110.941406 202.21875 C 108.207031 202.6875 106.152344 203.996094 106.347656 205.136719 C 106.511719 206.101562 108.246094 206.640625 110.433594 206.496094 C 110.441406 206.5 110.445312 206.507812 110.449219 206.519531 C 111.652344 208.699219 112.09375 211.246094 111.6875 213.703125 C 111.503906 214.8125 111.171875 215.679688 110.601562 215.980469 L 110.773438 215.949219 C 108.828125 216.445312 106.90625 217.113281 105.03125 217.96875 C 103.90625 218.0625 102.484375 217.300781 100.988281 216.105469 C 97.335938 213.191406 94.746094 209.09375 93.6875 204.542969 C 93.683594 204.523438 93.679688 204.507812 93.675781 204.492188 C 96.910156 201.945312 98.652344 199.019531 97.667969 197.460938 C 96.511719 195.625 92.003906 196.390625 87.605469 199.167969 C 83.203125 201.945312 80.578125 205.683594 81.738281 207.519531 C 82.71875 209.078125 86.113281 208.765625 89.800781 206.9375 C 89.816406 206.949219 89.828125 206.960938 89.839844 206.96875 C 93.496094 209.886719 96.082031 213.984375 97.140625 218.535156 C 97.578125 220.402344 97.652344 222.007812 97.082031 222.984375 C 95.460938 224.351562 93.988281 225.847656 92.675781 227.445312 C 92.152344 227.808594 91.242188 227.734375 90.183594 227.429688 C 87.789062 226.738281 85.679688 225.246094 84.226562 223.222656 C 84.222656 223.214844 84.21875 223.203125 84.214844 223.195312 C 85.289062 221.28125 85.546875 219.488281 84.746094 218.921875 C 83.800781 218.253906 81.738281 219.546875 80.136719 221.8125 C 78.535156 224.078125 78.003906 226.457031 78.949219 227.125 C 79.75 227.691406 81.359375 226.847656 82.800781 225.191406 C 82.8125 225.195312 82.820312 225.195312 82.832031 225.199219 C 85.226562 225.894531 87.335938 227.382812 88.785156 229.410156 C 89.441406 230.324219 89.816406 231.171875 89.628906 231.785156 L 89.746094 231.621094 C 88.695312 233.378906 87.8125 235.222656 87.097656 237.121094 C 86.371094 237.988281 84.828125 238.457031 82.917969 238.671875 C 78.273438 239.191406 73.546875 238.125 69.578125 235.65625 C 69.5625 235.648438 69.546875 235.636719 69.53125 235.628906 C 70.019531 231.539062 69.179688 228.238281 67.382812 227.832031 C 65.265625 227.351562 62.621094 231.078125 61.472656 236.152344 C 60.324219 241.226562 61.113281 245.730469 63.230469 246.207031 C 65.027344 246.613281 67.203125 243.992188 68.523438 240.089844 C 68.539062 240.089844 68.558594 240.089844 68.574219 240.085938 C 73.21875 239.566406 77.945312 240.632812 81.914062 243.101562 C 83.546875 244.117188 84.738281 245.203125 85.023438 246.296875 C 84.847656 248.371094 84.855469 250.464844 85.0625 252.554688 C 84.949219 253.179688 84.253906 253.773438 83.285156 254.308594 C 81.101562 255.511719 78.558594 255.949219 76.097656 255.546875 C 76.089844 255.542969 76.082031 255.542969 76.070312 255.539062 C 75.476562 253.429688 74.390625 251.972656 73.421875 252.140625 C 72.285156 252.335938 71.742188 254.710938 72.210938 257.445312 C 72.679688 260.175781 73.984375 262.234375 75.128906 262.039062 C 76.09375 261.871094 76.632812 260.140625 76.484375 257.949219 C 76.492188 257.945312 76.5 257.941406 76.507812 257.933594 C 78.691406 256.730469 81.238281 256.292969 83.695312 256.695312 C 84.804688 256.878906 85.671875 257.214844 85.972656 257.785156 L 85.941406 257.609375 C 86.433594 259.554688 87.105469 261.476562 87.957031 263.351562 C 88.054688 264.480469 87.292969 265.898438 86.097656 267.398438 C 83.179688 271.050781 79.082031 273.636719 74.535156 274.699219 C 74.515625 274.703125 74.5 274.707031 74.484375 274.710938 C 71.9375 271.472656 69.011719 269.734375 67.453125 270.714844 C 65.617188 271.875 66.378906 276.378906 69.160156 280.78125 C 71.9375 285.179688 75.675781 287.808594 77.511719 286.648438 C 79.066406 285.664062 78.753906 282.273438 76.929688 278.582031 C 76.941406 278.570312 76.949219 278.558594 76.960938 278.542969 C 79.878906 274.890625 83.976562 272.304688 88.523438 271.242188 C 90.390625 270.808594 92 270.730469 92.976562 271.300781 C 94.34375 272.925781 95.839844 274.398438 97.4375 275.710938 C 97.796875 276.234375 97.726562 277.140625 97.421875 278.203125 C 96.726562 280.597656 95.238281 282.707031 93.210938 284.15625 C 93.203125 284.160156 93.199219 284.167969 93.1875 284.171875 C 91.273438 283.097656 89.476562 282.839844 88.910156 283.640625 C 88.242188 284.585938 89.539062 286.648438 91.804688 288.25 C 94.070312 289.847656 96.449219 290.378906 97.117188 289.433594 C 97.683594 288.632812 96.835938 287.027344 95.183594 285.582031 C 95.1875 285.574219 95.1875 285.5625 95.191406 285.554688 C 95.882812 283.160156 97.371094 281.050781 99.398438 279.601562 C 100.3125 278.945312 101.160156 278.570312 101.777344 278.757812 L 101.609375 278.640625 C 103.367188 279.6875 105.210938 280.574219 107.113281 281.285156 C 107.980469 282.015625 108.449219 283.558594 108.660156 285.46875 C 109.183594 290.113281 108.113281 294.839844 105.644531 298.808594 C 105.636719 298.824219 105.628906 298.839844 105.617188 298.851562 C 101.527344 298.367188 98.226562 299.207031 97.820312 301.003906 C 97.339844 303.121094 101.066406 305.765625 106.140625 306.914062 C 111.214844 308.058594 115.71875 307.273438 116.195312 305.15625 C 116.601562 303.359375 113.984375 301.183594 110.082031 299.863281 C 110.078125 299.847656 110.078125 299.828125 110.074219 299.808594 C 109.554688 295.164062 110.621094 290.4375 113.089844 286.46875 C 114.105469 284.835938 115.191406 283.644531 116.285156 283.359375 C 118.359375 283.535156 120.453125 283.527344 122.542969 283.324219 C 123.167969 283.433594 123.761719 284.128906 124.296875 285.097656 C 125.5 287.28125 125.9375 289.824219 125.535156 292.285156 C 125.53125 292.292969 125.53125 292.304688 125.527344 292.3125 C 123.414062 292.90625 121.960938 293.992188 122.128906 294.957031 C 122.324219 296.097656 124.699219 296.640625 127.433594 296.171875 C 130.164062 295.703125 132.222656 294.398438 132.027344 293.253906 C 131.859375 292.289062 130.128906 291.75 127.9375 291.898438 C 127.933594 291.890625 127.925781 291.878906 127.921875 291.875 C 126.71875 289.691406 126.277344 287.144531 126.683594 284.6875 C 126.867188 283.578125 127.199219 282.710938 127.769531 282.410156 L 127.597656 282.441406 C 129.542969 281.949219 131.464844 281.277344 133.339844 280.421875 C 134.46875 280.328125 135.886719 281.089844 137.386719 282.285156 C 141.039062 285.203125 143.625 289.300781 144.6875 293.847656 C 144.6875 293.867188 144.695312 293.882812 144.695312 293.898438 C 141.460938 296.445312 139.71875 299.371094 140.703125 300.929688 C 141.863281 302.765625 146.367188 302 150.765625 299.222656 C 155.167969 296.445312 157.792969 292.707031 156.636719 290.871094 C 155.652344 289.316406 152.261719 289.625 148.570312 291.453125 C 148.554688 291.441406 148.542969 291.429688 148.53125 291.421875 C 144.878906 288.503906 142.289062 284.40625 141.230469 279.859375 C 140.792969 277.988281 140.71875 276.382812 141.289062 275.40625 C 142.914062 274.039062 144.382812 272.542969 145.695312 270.945312 C 146.21875 270.582031 147.128906 270.65625 148.1875 270.960938 C 150.582031 271.652344 152.691406 273.144531 154.144531 275.171875 C 154.148438 275.175781 154.15625 275.1875 154.160156 275.195312 C 153.085938 277.109375 152.824219 278.902344 153.625 279.46875 C 154.570312 280.136719 156.632812 278.84375 158.238281 276.578125 C 159.835938 274.3125 160.367188 271.933594 159.421875 271.265625 C 158.621094 270.699219 157.015625 271.546875 155.570312 273.199219 C 155.558594 273.195312 155.550781 273.195312 155.542969 273.191406 C 153.148438 272.5 151.039062 271.011719 149.585938 268.984375 C 148.933594 268.070312 148.554688 267.222656 148.746094 266.605469 L 148.628906 266.773438 C 149.675781 265.011719 150.558594 263.171875 151.273438 261.269531 C 152 260.402344 153.542969 259.933594 155.453125 259.722656 C 160.101562 259.199219 164.828125 260.269531 168.796875 262.738281 C 168.808594 262.746094 168.824219 262.753906 168.839844 262.765625 C 168.351562 266.851562 169.191406 270.152344 170.988281 270.558594 C 173.105469 271.039062 175.75 267.3125 176.898438 262.238281 C 178.046875 257.164062 177.257812 252.664062 175.140625 252.183594 C 173.347656 251.78125 171.167969 254.398438 169.847656 258.300781 C 169.832031 258.300781 169.816406 258.304688 169.796875 258.308594 C 165.152344 258.828125 160.425781 257.757812 156.453125 255.292969 C 154.824219 254.277344 153.628906 253.191406 153.347656 252.09375 C 153.523438 250.019531 153.511719 247.925781 153.308594 245.839844 C 153.417969 245.210938 154.117188 244.617188 155.085938 244.085938 C 157.265625 242.878906 159.8125 242.441406 162.269531 242.847656 C 162.28125 242.847656 162.289062 242.851562 162.296875 242.851562 C 162.890625 244.964844 163.976562 246.417969 164.945312 246.253906 C 166.085938 246.054688 166.628906 243.683594 166.160156 240.949219 C 165.6875 238.214844 164.382812 236.160156 163.242188 236.355469 C 162.273438 236.519531 161.738281 238.253906 161.882812 240.445312 C 161.875 240.449219 161.867188 240.453125 161.859375 240.460938 C 159.675781 241.664062 157.132812 242.101562 154.671875 241.695312 C 153.566406 241.515625 152.695312 241.179688 152.394531 240.609375 L 152.425781 240.785156 C 151.933594 238.835938 151.261719 236.917969 150.410156 235.039062 C 150.3125 233.914062 151.074219 232.496094 152.269531 230.996094 C 155.1875 227.34375 159.285156 224.757812 163.835938 223.695312 C 163.851562 223.691406 163.867188 223.6875 163.882812 223.683594 C 166.433594 226.917969 169.359375 228.660156 170.914062 227.675781 C 172.75 226.519531 171.988281 222.015625 169.210938 217.613281 C 166.433594 213.214844 162.695312 210.585938 160.859375 211.746094 Z M 160.863281 211.742188 "/></g></g></g><g clip-rule="nonzero" clip-path="url(#a1d73ec3c7)"><g clip-rule="nonzero" clip-path="url(#a92b408fc6)"><g clip-rule="nonzero" clip-path="url(#9fda9bbb05)"><path style=" stroke:none;fill-rule:nonzero;fill:#ffffff;fill-opacity:1;" d="M 118.546875 225.859375 C 118.789062 226.246094 118.992188 226.648438 119.15625 227.074219 C 119.316406 227.496094 119.4375 227.933594 119.515625 228.378906 C 119.589844 228.828125 119.625 229.277344 119.613281 229.734375 C 119.601562 230.1875 119.542969 230.636719 119.445312 231.078125 C 119.34375 231.523438 119.203125 231.949219 119.015625 232.367188 C 118.832031 232.78125 118.609375 233.171875 118.347656 233.542969 C 118.085938 233.914062 117.789062 234.257812 117.460938 234.570312 C 117.132812 234.882812 116.773438 235.160156 116.390625 235.402344 C 116.007812 235.644531 115.601562 235.847656 115.179688 236.011719 C 114.753906 236.171875 114.316406 236.292969 113.871094 236.371094 C 113.421875 236.449219 112.972656 236.480469 112.519531 236.46875 C 112.0625 236.457031 111.617188 236.402344 111.171875 236.300781 C 110.730469 236.199219 110.300781 236.058594 109.886719 235.875 C 109.46875 235.6875 109.078125 235.464844 108.707031 235.203125 C 108.335938 234.941406 107.992188 234.644531 107.679688 234.316406 C 107.367188 233.988281 107.089844 233.628906 106.847656 233.246094 C 106.605469 232.863281 106.402344 232.457031 106.242188 232.035156 C 106.078125 231.609375 105.957031 231.175781 105.878906 230.726562 C 105.804688 230.277344 105.769531 229.828125 105.78125 229.375 C 105.792969 228.921875 105.851562 228.472656 105.949219 228.027344 C 106.050781 227.585938 106.191406 227.15625 106.378906 226.742188 C 106.5625 226.328125 106.785156 225.933594 107.046875 225.5625 C 107.308594 225.191406 107.605469 224.851562 107.933594 224.535156 C 108.265625 224.222656 108.621094 223.945312 109.003906 223.703125 C 109.390625 223.460938 109.792969 223.257812 110.21875 223.097656 C 110.640625 222.933594 111.078125 222.8125 111.523438 222.738281 C 111.972656 222.660156 112.421875 222.625 112.878906 222.636719 C 113.332031 222.648438 113.78125 222.707031 114.222656 222.804688 C 114.664062 222.90625 115.09375 223.050781 115.507812 223.234375 C 115.925781 223.417969 116.316406 223.640625 116.6875 223.902344 C 117.058594 224.164062 117.402344 224.460938 117.714844 224.789062 C 118.027344 225.121094 118.304688 225.476562 118.546875 225.859375 Z M 118.546875 225.859375 "/></g></g></g><g clip-rule="nonzero" clip-path="url(#3fc2be1e4e)"><g clip-rule="nonzero" clip-path="url(#7c59be86da)"><g clip-rule="nonzero" clip-path="url(#38b1d8367c)"><path style=" stroke:none;fill-rule:nonzero;fill:#ffffff;fill-opacity:1;" d="M 99.351562 246.550781 C 99.625 246.457031 99.902344 246.390625 100.183594 246.351562 C 100.46875 246.316406 100.753906 246.304688 101.039062 246.320312 C 101.328125 246.339844 101.609375 246.382812 101.886719 246.457031 C 102.164062 246.53125 102.429688 246.628906 102.6875 246.753906 C 102.945312 246.882812 103.1875 247.03125 103.417969 247.203125 C 103.644531 247.378906 103.855469 247.574219 104.042969 247.789062 C 104.234375 248.003906 104.402344 248.234375 104.546875 248.480469 C 104.691406 248.730469 104.808594 248.988281 104.902344 249.257812 C 104.996094 249.53125 105.0625 249.808594 105.097656 250.09375 C 105.136719 250.375 105.148438 250.660156 105.132812 250.949219 C 105.113281 251.234375 105.066406 251.515625 104.996094 251.792969 C 104.921875 252.070312 104.824219 252.335938 104.695312 252.59375 C 104.570312 252.851562 104.421875 253.09375 104.246094 253.324219 C 104.074219 253.550781 103.878906 253.761719 103.664062 253.949219 C 103.449219 254.140625 103.21875 254.308594 102.972656 254.453125 C 102.722656 254.597656 102.464844 254.714844 102.191406 254.808594 C 101.921875 254.902344 101.644531 254.96875 101.359375 255.007812 C 101.078125 255.046875 100.792969 255.054688 100.503906 255.039062 C 100.21875 255.019531 99.9375 254.976562 99.660156 254.902344 C 99.382812 254.828125 99.113281 254.730469 98.859375 254.605469 C 98.601562 254.476562 98.355469 254.328125 98.128906 254.15625 C 97.902344 253.980469 97.691406 253.785156 97.5 253.570312 C 97.3125 253.355469 97.144531 253.125 97 252.878906 C 96.855469 252.628906 96.738281 252.371094 96.644531 252.101562 C 96.550781 251.828125 96.484375 251.550781 96.445312 251.265625 C 96.40625 250.984375 96.398438 250.699219 96.414062 250.410156 C 96.433594 250.125 96.476562 249.84375 96.550781 249.566406 C 96.625 249.289062 96.722656 249.023438 96.847656 248.765625 C 96.972656 248.507812 97.125 248.265625 97.296875 248.035156 C 97.472656 247.808594 97.664062 247.597656 97.878906 247.410156 C 98.09375 247.21875 98.328125 247.050781 98.574219 246.90625 C 98.820312 246.761719 99.082031 246.644531 99.351562 246.550781 Z M 99.351562 246.550781 "/></g></g></g><g clip-rule="nonzero" clip-path="url(#d35f2848c0)"><g clip-rule="nonzero" clip-path="url(#c382236371)"><g clip-rule="nonzero" clip-path="url(#45cfbd4438)"><path style=" stroke:none;fill-rule:nonzero;fill:#ffffff;fill-opacity:1;" d="M 111.722656 259.941406 C 112.21875 259.769531 112.730469 259.648438 113.253906 259.578125 C 113.777344 259.507812 114.304688 259.488281 114.832031 259.519531 C 115.359375 259.550781 115.875 259.636719 116.386719 259.769531 C 116.898438 259.902344 117.390625 260.085938 117.867188 260.320312 C 118.339844 260.550781 118.789062 260.828125 119.207031 261.144531 C 119.628906 261.464844 120.011719 261.824219 120.363281 262.21875 C 120.710938 262.613281 121.019531 263.039062 121.285156 263.496094 C 121.550781 263.953125 121.769531 264.429688 121.941406 264.929688 C 122.113281 265.429688 122.234375 265.941406 122.308594 266.464844 C 122.378906 266.988281 122.398438 267.511719 122.367188 268.039062 C 122.332031 268.566406 122.25 269.085938 122.113281 269.597656 C 121.980469 270.109375 121.796875 270.601562 121.566406 271.074219 C 121.332031 271.550781 121.058594 271.996094 120.738281 272.417969 C 120.417969 272.835938 120.0625 273.222656 119.664062 273.574219 C 119.269531 273.921875 118.84375 274.230469 118.386719 274.496094 C 117.929688 274.761719 117.453125 274.980469 116.953125 275.152344 C 116.453125 275.324219 115.941406 275.445312 115.417969 275.515625 C 114.894531 275.589844 114.371094 275.609375 113.84375 275.574219 C 113.316406 275.542969 112.796875 275.460938 112.289062 275.324219 C 111.777344 275.191406 111.285156 275.007812 110.808594 274.773438 C 110.335938 274.542969 109.886719 274.269531 109.46875 273.949219 C 109.046875 273.628906 108.660156 273.269531 108.3125 272.875 C 107.960938 272.480469 107.652344 272.054688 107.386719 271.597656 C 107.121094 271.140625 106.902344 270.664062 106.730469 270.164062 C 106.558594 269.664062 106.4375 269.152344 106.367188 268.628906 C 106.296875 268.105469 106.277344 267.582031 106.308594 267.054688 C 106.34375 266.527344 106.425781 266.007812 106.558594 265.496094 C 106.695312 264.988281 106.878906 264.492188 107.109375 264.019531 C 107.339844 263.542969 107.617188 263.097656 107.9375 262.675781 C 108.257812 262.257812 108.613281 261.871094 109.007812 261.523438 C 109.40625 261.171875 109.832031 260.863281 110.289062 260.597656 C 110.742188 260.332031 111.222656 260.113281 111.722656 259.941406 Z M 111.722656 259.941406 "/></g></g></g><g clip-rule="nonzero" clip-path="url(#292614f813)"><g clip-rule="nonzero" clip-path="url(#c27535ad3b)"><g clip-rule="nonzero" clip-path="url(#2fdd3a97d9)"><path style=" stroke:none;fill-rule:nonzero;fill:#ffffff;fill-opacity:1;" d="M 131.535156 238.660156 C 132.046875 238.484375 132.570312 238.359375 133.105469 238.289062 C 133.640625 238.214844 134.179688 238.195312 134.71875 238.226562 C 135.257812 238.261719 135.789062 238.347656 136.3125 238.484375 C 136.832031 238.621094 137.335938 238.808594 137.824219 239.046875 C 138.308594 239.285156 138.765625 239.566406 139.195312 239.894531 C 139.625 240.21875 140.019531 240.585938 140.378906 240.992188 C 140.734375 241.394531 141.050781 241.832031 141.324219 242.296875 C 141.59375 242.765625 141.820312 243.253906 141.996094 243.765625 C 142.171875 244.277344 142.296875 244.800781 142.367188 245.335938 C 142.441406 245.871094 142.460938 246.40625 142.425781 246.945312 C 142.394531 247.484375 142.308594 248.015625 142.171875 248.539062 C 142.03125 249.0625 141.847656 249.566406 141.609375 250.050781 C 141.371094 250.539062 141.089844 250.996094 140.761719 251.425781 C 140.433594 251.855469 140.070312 252.25 139.664062 252.605469 C 139.257812 252.964844 138.824219 253.28125 138.355469 253.550781 C 137.890625 253.824219 137.402344 254.046875 136.890625 254.222656 C 136.378906 254.398438 135.855469 254.523438 135.320312 254.597656 C 134.785156 254.667969 134.246094 254.691406 133.707031 254.65625 C 133.167969 254.625 132.636719 254.539062 132.117188 254.398438 C 131.59375 254.261719 131.089844 254.074219 130.601562 253.839844 C 130.117188 253.601562 129.660156 253.320312 129.230469 252.992188 C 128.800781 252.664062 128.40625 252.296875 128.046875 251.894531 C 127.691406 251.488281 127.375 251.054688 127.101562 250.585938 C 126.832031 250.121094 126.605469 249.628906 126.429688 249.121094 C 126.253906 248.609375 126.132812 248.085938 126.058594 247.550781 C 125.984375 247.015625 125.964844 246.476562 126 245.9375 C 126.03125 245.398438 126.117188 244.867188 126.253906 244.34375 C 126.394531 243.820312 126.582031 243.316406 126.816406 242.832031 C 127.054688 242.347656 127.335938 241.890625 127.664062 241.460938 C 127.992188 241.027344 128.355469 240.636719 128.761719 240.277344 C 129.167969 239.917969 129.601562 239.605469 130.070312 239.332031 C 130.535156 239.058594 131.023438 238.835938 131.535156 238.660156 Z M 131.535156 238.660156 "/></g></g></g><g clip-rule="nonzero" clip-path="url(#3d12eb10c4)"><g clip-rule="nonzero" clip-path="url(#66ace18cba)"><g clip-rule="nonzero" clip-path="url(#20f9bfd56c)"><path style=" stroke:none;fill-rule:nonzero;fill:currentColor;fill-opacity:1;" d="M 286.019531 173.800781 C 284.808594 174.566406 285.054688 177.210938 286.472656 180.085938 C 286.464844 180.09375 286.457031 180.105469 286.445312 180.117188 C 284.175781 182.960938 280.984375 184.976562 277.4375 185.804688 C 275.984375 186.140625 274.730469 186.203125 273.96875 185.757812 C 272.90625 184.492188 271.742188 183.347656 270.496094 182.324219 C 270.214844 181.917969 270.269531 181.210938 270.507812 180.386719 C 271.050781 178.519531 272.210938 176.878906 273.785156 175.746094 C 273.792969 175.742188 273.800781 175.738281 273.804688 175.734375 C 275.296875 176.570312 276.695312 176.773438 277.136719 176.148438 C 277.65625 175.414062 276.648438 173.804688 274.882812 172.558594 C 273.117188 171.3125 271.265625 170.898438 270.746094 171.636719 C 270.304688 172.261719 270.964844 173.511719 272.25 174.636719 C 272.246094 174.644531 272.246094 174.648438 272.246094 174.65625 C 271.707031 176.519531 270.546875 178.164062 268.96875 179.296875 C 268.257812 179.804688 267.597656 180.097656 267.117188 179.949219 L 267.246094 180.042969 C 265.875 179.226562 264.441406 178.539062 262.957031 177.980469 C 262.28125 177.414062 261.917969 176.210938 261.75 174.722656 C 261.34375 171.105469 262.175781 167.421875 264.097656 164.332031 C 264.105469 164.320312 264.113281 164.308594 264.121094 164.296875 C 267.304688 164.675781 269.875 164.023438 270.195312 162.625 C 270.566406 160.976562 267.664062 158.914062 263.710938 158.019531 C 259.757812 157.125 256.253906 157.738281 255.878906 159.386719 C 255.5625 160.789062 257.601562 162.480469 260.640625 163.511719 C 260.644531 163.523438 260.644531 163.535156 260.648438 163.550781 C 261.050781 167.167969 260.21875 170.851562 258.296875 173.941406 C 257.507812 175.214844 256.664062 176.140625 255.808594 176.363281 C 254.191406 176.226562 252.558594 176.234375 250.933594 176.394531 C 250.445312 176.304688 249.984375 175.765625 249.566406 175.011719 C 248.628906 173.3125 248.289062 171.328125 248.601562 169.414062 C 248.601562 169.40625 248.605469 169.398438 248.605469 169.390625 C 250.253906 168.925781 251.382812 168.082031 251.253906 167.328125 C 251.101562 166.441406 249.253906 166.019531 247.125 166.386719 C 244.996094 166.75 243.394531 167.769531 243.546875 168.65625 C 243.675781 169.410156 245.023438 169.828125 246.730469 169.714844 C 246.734375 169.722656 246.738281 169.730469 246.742188 169.734375 C 247.679688 171.433594 248.019531 173.417969 247.707031 175.332031 C 247.5625 176.195312 247.304688 176.871094 246.859375 177.105469 L 246.996094 177.082031 C 245.476562 177.46875 243.980469 177.988281 242.523438 178.652344 C 241.644531 178.726562 240.539062 178.132812 239.371094 177.199219 C 236.527344 174.929688 234.511719 171.738281 233.683594 168.191406 C 233.679688 168.175781 233.675781 168.164062 233.671875 168.152344 C 236.195312 166.167969 237.550781 163.886719 236.78125 162.671875 C 235.878906 161.242188 232.367188 161.835938 228.941406 164 C 225.515625 166.164062 223.46875 169.078125 224.371094 170.507812 C 225.136719 171.71875 227.78125 171.476562 230.65625 170.054688 C 230.664062 170.066406 230.675781 170.074219 230.6875 170.082031 C 233.53125 172.355469 235.546875 175.546875 236.375 179.09375 C 236.710938 180.546875 236.773438 181.796875 236.328125 182.558594 C 235.0625 183.625 233.917969 184.789062 232.894531 186.035156 C 232.488281 186.316406 231.78125 186.257812 230.957031 186.019531 C 229.089844 185.480469 227.449219 184.320312 226.316406 182.742188 C 226.3125 182.738281 226.308594 182.730469 226.304688 182.722656 C 227.140625 181.230469 227.34375 179.835938 226.71875 179.394531 C 225.980469 178.871094 224.375 179.882812 223.128906 181.644531 C 221.882812 183.410156 221.46875 185.261719 222.203125 185.78125 C 222.828125 186.222656 224.082031 185.566406 225.207031 184.277344 C 225.210938 184.28125 225.21875 184.28125 225.226562 184.28125 C 227.089844 184.820312 228.734375 185.984375 229.867188 187.558594 C 230.375 188.269531 230.667969 188.933594 230.519531 189.410156 L 230.613281 189.28125 C 229.796875 190.652344 229.109375 192.085938 228.550781 193.566406 C 227.984375 194.242188 226.78125 194.609375 225.292969 194.773438 C 221.675781 195.179688 217.992188 194.347656 214.902344 192.425781 C 214.890625 192.417969 214.878906 192.410156 214.867188 192.40625 C 215.25 189.21875 214.59375 186.648438 213.195312 186.332031 C 211.546875 185.960938 209.484375 188.863281 208.589844 192.8125 C 207.699219 196.765625 208.308594 200.273438 209.960938 200.648438 C 211.359375 200.964844 213.054688 198.925781 214.082031 195.882812 C 214.097656 195.882812 214.105469 195.878906 214.121094 195.878906 C 217.738281 195.472656 221.421875 196.304688 224.511719 198.226562 C 225.785156 199.019531 226.714844 199.863281 226.933594 200.71875 C 226.796875 202.335938 226.804688 203.964844 226.964844 205.59375 C 226.878906 206.082031 226.335938 206.542969 225.582031 206.960938 C 223.882812 207.898438 221.898438 208.238281 219.984375 207.925781 C 219.976562 207.921875 219.96875 207.921875 219.960938 207.917969 C 219.5 206.273438 218.652344 205.140625 217.902344 205.269531 C 217.011719 205.421875 216.589844 207.273438 216.957031 209.402344 C 217.324219 211.53125 218.339844 213.132812 219.226562 212.980469 C 219.980469 212.851562 220.398438 211.5 220.289062 209.792969 C 220.292969 209.792969 220.300781 209.785156 220.304688 209.78125 C 222.003906 208.847656 223.988281 208.503906 225.902344 208.820312 C 226.765625 208.960938 227.441406 209.222656 227.675781 209.667969 L 227.652344 209.535156 C 228.039062 211.050781 228.5625 212.546875 229.222656 214.007812 C 229.296875 214.882812 228.707031 215.988281 227.773438 217.15625 C 225.5 220 222.308594 222.015625 218.761719 222.84375 C 218.75 222.847656 218.734375 222.851562 218.722656 222.855469 C 216.738281 220.332031 214.460938 218.976562 213.246094 219.746094 C 211.816406 220.648438 212.410156 224.160156 214.574219 227.585938 C 216.734375 231.011719 219.648438 233.058594 221.078125 232.15625 C 222.292969 231.390625 222.046875 228.746094 220.628906 225.875 C 220.636719 225.863281 220.644531 225.851562 220.65625 225.839844 C 222.925781 222.996094 226.117188 220.980469 229.664062 220.152344 C 231.117188 219.816406 232.371094 219.757812 233.132812 220.199219 C 234.195312 221.464844 235.359375 222.609375 236.605469 223.632812 C 236.886719 224.039062 236.828125 224.746094 236.589844 225.570312 C 236.050781 227.4375 234.890625 229.078125 233.316406 230.210938 C 233.308594 230.214844 233.300781 230.21875 233.296875 230.222656 C 231.804688 229.386719 230.40625 229.183594 229.964844 229.808594 C 229.445312 230.546875 230.453125 232.152344 232.21875 233.398438 C 233.980469 234.644531 235.832031 235.058594 236.355469 234.324219 C 236.796875 233.699219 236.136719 232.445312 234.851562 231.320312 C 234.851562 231.316406 234.855469 231.308594 234.855469 231.300781 C 235.394531 229.4375 236.554688 227.792969 238.132812 226.664062 C 238.84375 226.152344 239.503906 225.859375 239.984375 226.007812 L 239.851562 225.917969 C 241.222656 226.734375 242.65625 227.421875 244.140625 227.976562 C 244.816406 228.542969 245.179688 229.75 245.347656 231.234375 C 245.753906 234.851562 244.921875 238.535156 243 241.628906 C 242.992188 241.640625 242.984375 241.648438 242.976562 241.660156 C 239.792969 241.28125 237.222656 241.9375 236.90625 243.335938 C 236.53125 244.984375 239.433594 247.046875 243.386719 247.9375 C 247.339844 248.832031 250.847656 248.21875 251.21875 246.570312 C 251.535156 245.171875 249.496094 243.476562 246.457031 242.449219 C 246.457031 242.433594 246.453125 242.421875 246.453125 242.40625 C 246.046875 238.789062 246.878906 235.105469 248.800781 232.015625 C 249.589844 230.746094 250.4375 229.816406 251.292969 229.59375 C 252.90625 229.730469 254.539062 229.726562 256.164062 229.566406 C 256.652344 229.652344 257.117188 230.195312 257.535156 230.949219 C 258.46875 232.648438 258.8125 234.632812 258.496094 236.546875 C 258.496094 236.554688 258.496094 236.558594 258.492188 236.566406 C 256.847656 237.03125 255.714844 237.875 255.84375 238.628906 C 255.996094 239.515625 257.847656 239.941406 259.976562 239.574219 C 262.101562 239.207031 263.707031 238.191406 263.554688 237.300781 C 263.421875 236.546875 262.074219 236.128906 260.367188 236.242188 C 260.363281 236.238281 260.359375 236.230469 260.355469 236.222656 C 259.417969 234.523438 259.078125 232.542969 259.394531 230.625 C 259.535156 229.761719 259.796875 229.085938 260.242188 228.851562 L 260.105469 228.875 C 261.621094 228.492188 263.121094 227.96875 264.578125 227.304688 C 265.457031 227.234375 266.5625 227.824219 267.730469 228.757812 C 270.574219 231.03125 272.589844 234.222656 273.417969 237.765625 C 273.421875 237.78125 273.425781 237.792969 273.425781 237.808594 C 270.90625 239.792969 269.550781 242.070312 270.316406 243.285156 C 271.222656 244.714844 274.730469 244.121094 278.160156 241.957031 C 281.585938 239.792969 283.632812 236.878906 282.726562 235.449219 C 281.964844 234.238281 279.320312 234.480469 276.445312 235.902344 C 276.4375 235.890625 276.425781 235.882812 276.414062 235.875 C 273.570312 233.601562 271.554688 230.410156 270.726562 226.867188 C 270.390625 225.410156 270.328125 224.160156 270.773438 223.398438 C 272.039062 222.335938 273.183594 221.171875 274.203125 219.925781 C 274.613281 219.640625 275.320312 219.699219 276.144531 219.9375 C 278.007812 220.476562 279.652344 221.636719 280.785156 223.214844 C 280.789062 223.21875 280.792969 223.226562 280.796875 223.234375 C 279.960938 224.726562 279.757812 226.125 280.382812 226.566406 C 281.117188 227.085938 282.726562 226.074219 283.972656 224.3125 C 285.21875 222.546875 285.632812 220.695312 284.894531 220.175781 C 284.269531 219.734375 283.019531 220.394531 281.894531 221.679688 C 281.886719 221.675781 281.882812 221.675781 281.875 221.675781 C 280.011719 221.136719 278.367188 219.976562 277.234375 218.398438 C 276.726562 217.6875 276.433594 217.023438 276.582031 216.546875 L 276.488281 216.675781 C 277.308594 215.304688 277.996094 213.871094 278.550781 212.386719 C 279.117188 211.714844 280.320312 211.347656 281.808594 211.179688 C 285.425781 210.777344 289.109375 211.609375 292.199219 213.53125 C 292.214844 213.539062 292.222656 213.542969 292.234375 213.550781 C 291.855469 216.738281 292.511719 219.304688 293.910156 219.625 C 295.558594 219.996094 297.617188 217.09375 298.511719 213.140625 C 299.40625 209.1875 298.792969 205.683594 297.144531 205.308594 C 295.742188 204.992188 294.050781 207.03125 293.019531 210.070312 C 293.007812 210.074219 292.996094 210.074219 292.980469 210.078125 C 289.363281 210.484375 285.679688 209.652344 282.589844 207.726562 C 281.316406 206.9375 280.390625 206.09375 280.167969 205.238281 C 280.304688 203.621094 280.296875 201.988281 280.136719 200.363281 C 280.226562 199.875 280.765625 199.414062 281.523438 198.996094 C 283.222656 198.058594 285.203125 197.71875 287.117188 198.03125 C 287.125 198.03125 287.132812 198.035156 287.140625 198.039062 C 287.605469 199.683594 288.449219 200.816406 289.203125 200.6875 C 290.089844 200.53125 290.511719 198.683594 290.148438 196.554688 C 289.78125 194.425781 288.761719 192.824219 287.875 192.976562 C 287.121094 193.105469 286.703125 194.457031 286.816406 196.160156 C 286.808594 196.164062 286.800781 196.171875 286.796875 196.171875 C 285.097656 197.109375 283.113281 197.453125 281.199219 197.136719 C 280.335938 196.996094 279.660156 196.734375 279.425781 196.289062 L 279.449219 196.421875 C 279.0625 194.90625 278.542969 193.410156 277.878906 191.949219 C 277.804688 191.074219 278.398438 189.964844 279.332031 188.800781 C 281.601562 185.953125 284.792969 183.941406 288.339844 183.113281 C 288.355469 183.109375 288.367188 183.105469 288.378906 183.101562 C 290.363281 185.625 292.644531 186.976562 293.855469 186.210938 C 295.289062 185.308594 294.691406 181.796875 292.53125 178.371094 C 290.367188 174.945312 287.453125 172.898438 286.023438 173.800781 Z M 286.019531 173.800781 "/></g></g></g><g clip-rule="nonzero" clip-path="url(#9980c4e49a)"><g clip-rule="nonzero" clip-path="url(#5703d37baa)"><g clip-rule="nonzero" clip-path="url(#8809ce3872)"><path style=" stroke:none;fill-rule:nonzero;fill:#ffffff;fill-opacity:1;" d="M 253.058594 184.800781 C 253.25 185.101562 253.40625 185.414062 253.535156 185.746094 C 253.660156 186.074219 253.753906 186.414062 253.8125 186.761719 C 253.875 187.113281 253.898438 187.464844 253.890625 187.816406 C 253.882812 188.171875 253.835938 188.519531 253.757812 188.863281 C 253.683594 189.210938 253.570312 189.542969 253.425781 189.867188 C 253.28125 190.191406 253.109375 190.496094 252.90625 190.785156 C 252.699219 191.074219 252.46875 191.339844 252.214844 191.585938 C 251.957031 191.828125 251.679688 192.042969 251.378906 192.234375 C 251.082031 192.421875 250.765625 192.582031 250.4375 192.707031 C 250.105469 192.832031 249.765625 192.925781 249.417969 192.988281 C 249.070312 193.046875 248.71875 193.074219 248.363281 193.0625 C 248.011719 193.054688 247.660156 193.011719 247.316406 192.933594 C 246.972656 192.855469 246.636719 192.742188 246.3125 192.601562 C 245.992188 192.457031 245.683594 192.28125 245.394531 192.078125 C 245.105469 191.875 244.839844 191.644531 244.597656 191.386719 C 244.351562 191.128906 244.136719 190.851562 243.949219 190.554688 C 243.757812 190.253906 243.601562 189.941406 243.472656 189.609375 C 243.347656 189.277344 243.253906 188.941406 243.195312 188.589844 C 243.132812 188.242188 243.109375 187.890625 243.117188 187.539062 C 243.128906 187.183594 243.171875 186.835938 243.25 186.488281 C 243.328125 186.144531 243.4375 185.808594 243.582031 185.488281 C 243.726562 185.164062 243.898438 184.859375 244.101562 184.570312 C 244.308594 184.28125 244.539062 184.011719 244.792969 183.769531 C 245.050781 183.527344 245.328125 183.308594 245.628906 183.121094 C 245.925781 182.933594 246.242188 182.773438 246.570312 182.648438 C 246.902344 182.519531 247.242188 182.425781 247.589844 182.367188 C 247.9375 182.308594 248.289062 182.28125 248.644531 182.289062 C 248.996094 182.300781 249.347656 182.34375 249.691406 182.421875 C 250.039062 182.5 250.371094 182.609375 250.695312 182.753906 C 251.019531 182.898438 251.324219 183.070312 251.613281 183.277344 C 251.902344 183.480469 252.167969 183.710938 252.410156 183.96875 C 252.65625 184.222656 252.871094 184.5 253.058594 184.800781 Z M 253.058594 184.800781 "/></g></g></g><g clip-rule="nonzero" clip-path="url(#c6597ccf8e)"><g clip-rule="nonzero" clip-path="url(#00a71cd23b)"><g clip-rule="nonzero" clip-path="url(#644719aa7d)"><path style=" stroke:none;fill-rule:nonzero;fill:#ffffff;fill-opacity:1;" d="M 238.101562 200.917969 C 238.53125 200.769531 238.96875 200.710938 239.417969 200.738281 C 239.867188 200.765625 240.296875 200.878906 240.703125 201.078125 C 241.105469 201.273438 241.460938 201.542969 241.757812 201.878906 C 242.054688 202.21875 242.277344 202.601562 242.425781 203.027344 C 242.574219 203.453125 242.632812 203.890625 242.605469 204.339844 C 242.578125 204.792969 242.464844 205.21875 242.265625 205.625 C 242.070312 206.03125 241.800781 206.382812 241.460938 206.679688 C 241.125 206.980469 240.742188 207.203125 240.316406 207.347656 C 239.890625 207.496094 239.453125 207.554688 239 207.527344 C 238.550781 207.5 238.125 207.386719 237.71875 207.1875 C 237.3125 206.992188 236.960938 206.722656 236.660156 206.386719 C 236.363281 206.046875 236.140625 205.664062 235.992188 205.238281 C 235.847656 204.8125 235.789062 204.375 235.816406 203.925781 C 235.84375 203.472656 235.957031 203.046875 236.152344 202.640625 C 236.351562 202.234375 236.617188 201.882812 236.957031 201.585938 C 237.292969 201.285156 237.675781 201.0625 238.101562 200.917969 Z M 238.101562 200.917969 "/></g></g></g><g clip-rule="nonzero" clip-path="url(#8c2b57a683)"><g clip-rule="nonzero" clip-path="url(#a52b713d8a)"><g clip-rule="nonzero" clip-path="url(#717337b5b9)"><path style=" stroke:none;fill-rule:nonzero;fill:#ffffff;fill-opacity:1;" d="M 247.738281 211.347656 C 248.125 211.214844 248.523438 211.117188 248.929688 211.0625 C 249.339844 211.007812 249.746094 210.992188 250.160156 211.019531 C 250.570312 211.042969 250.972656 211.109375 251.371094 211.214844 C 251.769531 211.316406 252.152344 211.460938 252.523438 211.640625 C 252.890625 211.820312 253.238281 212.035156 253.566406 212.285156 C 253.894531 212.535156 254.195312 212.8125 254.46875 213.121094 C 254.738281 213.429688 254.980469 213.761719 255.1875 214.117188 C 255.394531 214.472656 255.5625 214.84375 255.699219 215.234375 C 255.832031 215.621094 255.925781 216.019531 255.980469 216.429688 C 256.035156 216.835938 256.050781 217.246094 256.027344 217.65625 C 256 218.066406 255.9375 218.46875 255.832031 218.867188 C 255.726562 219.265625 255.585938 219.648438 255.402344 220.019531 C 255.222656 220.386719 255.007812 220.738281 254.757812 221.0625 C 254.511719 221.390625 254.230469 221.691406 253.921875 221.964844 C 253.617188 222.238281 253.285156 222.476562 252.929688 222.683594 C 252.574219 222.890625 252.199219 223.0625 251.8125 223.195312 C 251.421875 223.328125 251.023438 223.421875 250.617188 223.476562 C 250.210938 223.535156 249.800781 223.546875 249.390625 223.523438 C 248.980469 223.5 248.574219 223.433594 248.175781 223.328125 C 247.78125 223.222656 247.394531 223.082031 247.027344 222.902344 C 246.65625 222.71875 246.308594 222.503906 245.980469 222.257812 C 245.652344 222.007812 245.355469 221.730469 245.082031 221.421875 C 244.808594 221.113281 244.570312 220.78125 244.363281 220.425781 C 244.15625 220.070312 243.984375 219.699219 243.851562 219.308594 C 243.714844 218.917969 243.621094 218.523438 243.566406 218.113281 C 243.511719 217.707031 243.496094 217.296875 243.523438 216.886719 C 243.546875 216.476562 243.613281 216.070312 243.714844 215.675781 C 243.820312 215.277344 243.964844 214.894531 244.144531 214.523438 C 244.324219 214.152344 244.539062 213.804688 244.789062 213.476562 C 245.039062 213.148438 245.316406 212.851562 245.625 212.578125 C 245.933594 212.304688 246.265625 212.066406 246.621094 211.859375 C 246.976562 211.652344 247.347656 211.480469 247.738281 211.347656 Z M 247.738281 211.347656 "/></g></g></g><g clip-rule="nonzero" clip-path="url(#b19b3e3460)"><g clip-rule="nonzero" clip-path="url(#363f9e6972)"><g clip-rule="nonzero" clip-path="url(#6ec62b1b6e)"><path style=" stroke:none;fill-rule:nonzero;fill:#ffffff;fill-opacity:1;" d="M 263.171875 194.769531 C 263.570312 194.632812 263.976562 194.539062 264.394531 194.480469 C 264.8125 194.425781 265.230469 194.410156 265.648438 194.433594 C 266.070312 194.460938 266.484375 194.527344 266.890625 194.632812 C 267.296875 194.742188 267.691406 194.886719 268.066406 195.070312 C 268.445312 195.257812 268.800781 195.476562 269.136719 195.730469 C 269.472656 195.984375 269.78125 196.269531 270.058594 196.585938 C 270.335938 196.902344 270.582031 197.242188 270.792969 197.605469 C 271.007812 197.96875 271.179688 198.347656 271.316406 198.746094 C 271.453125 199.144531 271.550781 199.550781 271.609375 199.96875 C 271.664062 200.386719 271.679688 200.804688 271.652344 201.226562 C 271.628906 201.644531 271.5625 202.058594 271.453125 202.464844 C 271.347656 202.871094 271.203125 203.265625 271.015625 203.644531 C 270.832031 204.023438 270.613281 204.378906 270.359375 204.714844 C 270.101562 205.046875 269.816406 205.355469 269.503906 205.632812 C 269.1875 205.914062 268.847656 206.15625 268.484375 206.371094 C 268.121094 206.582031 267.738281 206.757812 267.339844 206.894531 C 266.945312 207.03125 266.535156 207.128906 266.117188 207.183594 C 265.703125 207.242188 265.285156 207.253906 264.863281 207.230469 C 264.441406 207.203125 264.03125 207.136719 263.621094 207.03125 C 263.214844 206.921875 262.824219 206.777344 262.445312 206.59375 C 262.066406 206.40625 261.710938 206.1875 261.375 205.933594 C 261.039062 205.679688 260.734375 205.394531 260.453125 205.078125 C 260.175781 204.761719 259.929688 204.421875 259.71875 204.058594 C 259.507812 203.695312 259.332031 203.316406 259.195312 202.917969 C 259.058594 202.519531 258.960938 202.113281 258.90625 201.695312 C 258.847656 201.277344 258.832031 200.859375 258.859375 200.4375 C 258.882812 200.019531 258.949219 199.605469 259.058594 199.199219 C 259.164062 198.792969 259.3125 198.398438 259.496094 198.019531 C 259.679688 197.640625 259.902344 197.285156 260.15625 196.949219 C 260.410156 196.617188 260.695312 196.308594 261.011719 196.03125 C 261.324219 195.75 261.664062 195.507812 262.027344 195.292969 C 262.394531 195.082031 262.773438 194.90625 263.171875 194.769531 Z M 263.171875 194.769531 "/></g></g></g><g clip-rule="nonzero" clip-path="url(#562d99f6c8)"><g clip-rule="nonzero" clip-path="url(#ce5ee3fcfa)"><g clip-rule="nonzero" clip-path="url(#bd19127ef9)"><path style=" stroke:none;fill-rule:nonzero;fill:currentColor;fill-opacity:1;" d="M 256.9375 304.660156 C 255.882812 305.328125 256.09375 307.621094 257.332031 310.121094 C 257.324219 310.128906 257.316406 310.140625 257.308594 310.148438 C 255.335938 312.617188 252.558594 314.371094 249.480469 315.089844 C 248.214844 315.382812 247.128906 315.4375 246.464844 315.050781 C 245.542969 313.953125 244.53125 312.957031 243.445312 312.066406 C 243.203125 311.714844 243.253906 311.097656 243.457031 310.378906 C 243.925781 308.757812 244.933594 307.332031 246.304688 306.347656 C 246.3125 306.34375 246.316406 306.339844 246.320312 306.335938 C 247.617188 307.0625 248.832031 307.242188 249.21875 306.699219 C 249.667969 306.058594 248.792969 304.660156 247.261719 303.578125 C 245.726562 302.492188 244.117188 302.132812 243.664062 302.773438 C 243.28125 303.316406 243.855469 304.402344 244.972656 305.382812 C 244.972656 305.390625 244.96875 305.394531 244.96875 305.402344 C 244.5 307.023438 243.492188 308.449219 242.121094 309.433594 C 241.503906 309.875 240.929688 310.132812 240.511719 310.003906 L 240.625 310.082031 C 239.433594 309.375 238.183594 308.777344 236.898438 308.292969 C 236.308594 307.796875 235.992188 306.753906 235.847656 305.460938 C 235.496094 302.316406 236.21875 299.113281 237.890625 296.429688 C 237.894531 296.417969 237.902344 296.410156 237.910156 296.398438 C 240.675781 296.730469 242.910156 296.160156 243.183594 294.945312 C 243.507812 293.511719 240.988281 291.71875 237.554688 290.945312 C 234.117188 290.167969 231.070312 290.699219 230.746094 292.132812 C 230.472656 293.347656 232.246094 294.824219 234.886719 295.714844 C 234.886719 295.726562 234.886719 295.738281 234.890625 295.75 C 235.242188 298.894531 234.519531 302.097656 232.851562 304.78125 C 232.164062 305.886719 231.425781 306.691406 230.683594 306.886719 C 229.28125 306.769531 227.863281 306.773438 226.449219 306.910156 C 226.023438 306.835938 225.621094 306.363281 225.261719 305.707031 C 224.449219 304.230469 224.148438 302.507812 224.425781 300.84375 C 224.425781 300.839844 224.429688 300.832031 224.429688 300.828125 C 225.859375 300.421875 226.84375 299.691406 226.734375 299.035156 C 226.597656 298.261719 224.992188 297.894531 223.140625 298.210938 C 221.289062 298.53125 219.898438 299.414062 220.03125 300.1875 C 220.144531 300.84375 221.320312 301.207031 222.800781 301.109375 C 222.804688 301.113281 222.808594 301.117188 222.8125 301.125 C 223.625 302.601562 223.925781 304.324219 223.648438 305.988281 C 223.523438 306.738281 223.300781 307.324219 222.914062 307.53125 L 223.03125 307.507812 C 221.714844 307.84375 220.414062 308.296875 219.140625 308.875 C 218.378906 308.9375 217.417969 308.421875 216.40625 307.613281 C 213.933594 305.640625 212.179688 302.863281 211.460938 299.785156 C 211.460938 299.773438 211.457031 299.761719 211.453125 299.75 C 213.644531 298.027344 214.820312 296.042969 214.15625 294.992188 C 213.371094 293.746094 210.320312 294.265625 207.34375 296.144531 C 204.363281 298.027344 202.585938 300.554688 203.371094 301.800781 C 204.035156 302.855469 206.332031 302.640625 208.832031 301.40625 C 208.839844 301.414062 208.847656 301.421875 208.855469 301.429688 C 211.328125 303.402344 213.082031 306.175781 213.800781 309.257812 C 214.09375 310.523438 214.144531 311.609375 213.761719 312.273438 C 212.660156 313.195312 211.664062 314.207031 210.777344 315.292969 C 210.421875 315.535156 209.808594 315.484375 209.089844 315.28125 C 207.46875 314.8125 206.039062 313.800781 205.058594 312.433594 C 205.054688 312.425781 205.050781 312.421875 205.046875 312.414062 C 205.773438 311.121094 205.949219 309.902344 205.40625 309.519531 C 204.769531 309.066406 203.371094 309.945312 202.289062 311.476562 C 201.203125 313.011719 200.84375 314.621094 201.484375 315.074219 C 202.027344 315.457031 203.113281 314.882812 204.09375 313.765625 C 204.097656 313.765625 204.105469 313.765625 204.109375 313.769531 C 205.730469 314.234375 207.160156 315.246094 208.144531 316.617188 C 208.585938 317.234375 208.84375 317.808594 208.714844 318.226562 L 208.792969 318.113281 C 208.082031 319.304688 207.484375 320.550781 207 321.839844 C 206.507812 322.429688 205.464844 322.746094 204.167969 322.890625 C 201.027344 323.242188 197.824219 322.519531 195.140625 320.847656 C 195.128906 320.84375 195.117188 320.835938 195.109375 320.828125 C 195.4375 318.0625 194.871094 315.828125 193.65625 315.550781 C 192.222656 315.226562 190.429688 317.75 189.652344 321.183594 C 188.878906 324.621094 189.410156 327.667969 190.84375 327.992188 C 192.058594 328.265625 193.535156 326.492188 194.425781 323.851562 C 194.4375 323.847656 194.449219 323.847656 194.460938 323.847656 C 197.605469 323.496094 200.804688 324.21875 203.492188 325.886719 C 204.597656 326.574219 205.402344 327.3125 205.597656 328.050781 C 205.476562 329.457031 205.484375 330.875 205.621094 332.289062 C 205.546875 332.710938 205.074219 333.117188 204.417969 333.476562 C 202.941406 334.289062 201.21875 334.585938 199.554688 334.3125 C 199.546875 334.308594 199.542969 334.308594 199.535156 334.308594 C 199.132812 332.878906 198.398438 331.894531 197.742188 332.003906 C 196.972656 332.136719 196.605469 333.746094 196.921875 335.597656 C 197.242188 337.445312 198.125 338.839844 198.898438 338.703125 C 199.550781 338.589844 199.917969 337.417969 199.816406 335.9375 C 199.824219 335.933594 199.828125 335.929688 199.835938 335.925781 C 201.3125 335.113281 203.035156 334.8125 204.699219 335.089844 C 205.449219 335.214844 206.035156 335.441406 206.238281 335.824219 L 206.21875 335.707031 C 206.554688 337.023438 207.007812 338.324219 207.585938 339.597656 C 207.648438 340.359375 207.132812 341.320312 206.324219 342.332031 C 204.351562 344.804688 201.574219 346.558594 198.492188 347.277344 C 198.484375 347.277344 198.472656 347.28125 198.460938 347.285156 C 196.738281 345.09375 194.753906 343.917969 193.703125 344.582031 C 192.457031 345.367188 192.976562 348.414062 194.855469 351.394531 C 196.734375 354.375 199.265625 356.152344 200.511719 355.367188 C 201.566406 354.699219 201.351562 352.40625 200.117188 349.90625 C 200.125 349.898438 200.128906 349.886719 200.136719 349.882812 C 202.113281 347.410156 204.886719 345.65625 207.96875 344.9375 C 209.230469 344.644531 210.320312 344.59375 210.980469 344.976562 C 211.90625 346.078125 212.917969 347.070312 214 347.960938 C 214.246094 348.3125 214.195312 348.929688 213.988281 349.648438 C 213.523438 351.269531 212.511719 352.695312 211.140625 353.679688 C 211.136719 353.683594 211.132812 353.6875 211.125 353.691406 C 209.832031 352.964844 208.613281 352.789062 208.230469 353.328125 C 207.777344 353.96875 208.65625 355.367188 210.1875 356.449219 C 211.722656 357.535156 213.332031 357.894531 213.78125 357.253906 C 214.167969 356.710938 213.59375 355.625 212.476562 354.644531 C 212.476562 354.636719 212.476562 354.632812 212.480469 354.625 C 212.945312 353.003906 213.957031 351.578125 215.324219 350.59375 C 215.945312 350.152344 216.519531 349.894531 216.9375 350.023438 L 216.824219 349.945312 C 218.015625 350.652344 219.261719 351.25 220.550781 351.738281 C 221.140625 352.230469 221.457031 353.273438 221.601562 354.566406 C 221.953125 357.710938 221.230469 360.914062 219.558594 363.597656 C 219.550781 363.609375 219.546875 363.621094 219.539062 363.628906 C 216.769531 363.296875 214.535156 363.867188 214.261719 365.082031 C 213.9375 366.515625 216.460938 368.308594 219.894531 369.082031 C 223.328125 369.859375 226.375 369.328125 226.699219 367.894531 C 226.976562 366.679688 225.203125 365.203125 222.5625 364.3125 C 222.558594 364.300781 222.558594 364.289062 222.558594 364.277344 C 222.203125 361.132812 222.929688 357.929688 224.597656 355.246094 C 225.285156 354.140625 226.019531 353.335938 226.761719 353.140625 C 228.167969 353.257812 229.585938 353.253906 231 353.117188 C 231.421875 353.191406 231.824219 353.664062 232.1875 354.320312 C 233 355.796875 233.296875 357.519531 233.023438 359.183594 C 233.019531 359.1875 233.019531 359.195312 233.019531 359.199219 C 231.585938 359.605469 230.601562 360.339844 230.714844 360.992188 C 230.847656 361.765625 232.457031 362.132812 234.304688 361.816406 C 236.15625 361.496094 237.546875 360.613281 237.414062 359.839844 C 237.300781 359.183594 236.128906 358.820312 234.644531 358.917969 C 234.644531 358.914062 234.640625 358.910156 234.636719 358.902344 C 233.820312 357.425781 233.523438 355.703125 233.800781 354.039062 C 233.921875 353.289062 234.148438 352.703125 234.535156 352.496094 L 234.417969 352.519531 C 235.734375 352.183594 237.035156 351.730469 238.304688 351.152344 C 239.070312 351.089844 240.03125 351.605469 241.042969 352.414062 C 243.515625 354.386719 245.265625 357.164062 245.988281 360.242188 C 245.988281 360.253906 245.992188 360.265625 245.996094 360.277344 C 243.804688 362 242.625 363.984375 243.292969 365.035156 C 244.078125 366.28125 247.125 365.761719 250.105469 363.882812 C 253.082031 362 254.863281 359.472656 254.078125 358.226562 C 253.410156 357.171875 251.117188 357.386719 248.617188 358.621094 C 248.609375 358.613281 248.597656 358.609375 248.589844 358.597656 C 246.117188 356.625 244.367188 353.851562 243.648438 350.769531 C 243.351562 349.507812 243.300781 348.417969 243.6875 347.753906 C 244.785156 346.832031 245.78125 345.820312 246.671875 344.734375 C 247.023438 344.492188 247.640625 344.542969 248.359375 344.75 C 249.980469 345.214844 251.40625 346.226562 252.390625 347.59375 C 252.394531 347.601562 252.398438 347.605469 252.398438 347.613281 C 251.671875 348.90625 251.496094 350.125 252.039062 350.507812 C 252.679688 350.960938 254.078125 350.082031 255.160156 348.550781 C 256.242188 347.015625 256.601562 345.40625 255.964844 344.953125 C 255.421875 344.570312 254.332031 345.144531 253.355469 346.261719 C 253.347656 346.261719 253.34375 346.261719 253.335938 346.257812 C 251.714844 345.792969 250.289062 344.78125 249.304688 343.410156 C 248.859375 342.792969 248.605469 342.21875 248.734375 341.800781 L 248.65625 341.914062 C 249.363281 340.722656 249.960938 339.476562 250.445312 338.1875 C 250.941406 337.597656 251.984375 337.28125 253.277344 337.136719 C 256.421875 336.785156 259.621094 337.507812 262.308594 339.179688 C 262.316406 339.1875 262.328125 339.191406 262.339844 339.199219 C 262.007812 341.964844 262.578125 344.199219 263.792969 344.476562 C 265.226562 344.800781 267.015625 342.277344 267.792969 338.84375 C 268.570312 335.40625 268.035156 332.359375 266.605469 332.039062 C 265.390625 331.761719 263.914062 333.535156 263.023438 336.175781 C 263.011719 336.179688 262.996094 336.179688 262.984375 336.179688 C 259.84375 336.535156 256.640625 335.808594 253.957031 334.140625 C 252.851562 333.453125 252.042969 332.71875 251.851562 331.976562 C 251.96875 330.570312 251.964844 329.152344 251.828125 327.738281 C 251.902344 327.316406 252.375 326.910156 253.027344 326.550781 C 254.503906 325.738281 256.230469 325.441406 257.894531 325.714844 C 257.898438 325.71875 257.90625 325.71875 257.910156 325.71875 C 258.3125 327.152344 259.046875 328.132812 259.703125 328.023438 C 260.476562 327.890625 260.84375 326.28125 260.523438 324.429688 C 260.207031 322.582031 259.320312 321.1875 258.550781 321.324219 C 257.894531 321.4375 257.53125 322.609375 257.628906 324.089844 C 257.625 324.09375 257.617188 324.097656 257.613281 324.101562 C 256.136719 324.917969 254.414062 325.214844 252.75 324.9375 C 252 324.8125 251.410156 324.585938 251.207031 324.203125 L 251.226562 324.320312 C 250.894531 323.003906 250.4375 321.703125 249.863281 320.433594 C 249.800781 319.667969 250.3125 318.707031 251.125 317.695312 C 253.097656 315.222656 255.871094 313.46875 258.953125 312.75 C 258.964844 312.75 258.976562 312.746094 258.988281 312.742188 C 260.710938 314.933594 262.691406 316.109375 263.746094 315.445312 C 264.988281 314.660156 264.472656 311.613281 262.59375 308.632812 C 260.710938 305.652344 258.179688 303.875 256.9375 304.660156 Z M 256.9375 304.660156 "/></g></g></g><g clip-rule="nonzero" clip-path="url(#07c9410f1d)"><g clip-rule="nonzero" clip-path="url(#b6ee2b2008)"><g clip-rule="nonzero" clip-path="url(#335ce2e655)"><path style=" stroke:none;fill-rule:nonzero;fill:#ffffff;fill-opacity:1;" d="M 228.289062 314.21875 C 228.453125 314.480469 228.589844 314.753906 228.703125 315.039062 C 228.8125 315.328125 228.894531 315.621094 228.945312 315.925781 C 228.996094 316.226562 229.019531 316.535156 229.011719 316.839844 C 229.003906 317.148438 228.964844 317.453125 228.898438 317.75 C 228.832031 318.050781 228.734375 318.34375 228.609375 318.621094 C 228.484375 318.902344 228.332031 319.171875 228.15625 319.421875 C 227.976562 319.671875 227.777344 319.902344 227.554688 320.117188 C 227.332031 320.328125 227.089844 320.515625 226.832031 320.679688 C 226.570312 320.84375 226.296875 320.980469 226.007812 321.089844 C 225.722656 321.199219 225.425781 321.28125 225.125 321.335938 C 224.820312 321.386719 224.515625 321.410156 224.207031 321.402344 C 223.902344 321.394531 223.597656 321.355469 223.296875 321.285156 C 222.996094 321.21875 222.707031 321.121094 222.425781 320.996094 C 222.144531 320.871094 221.878906 320.722656 221.628906 320.542969 C 221.378906 320.367188 221.144531 320.167969 220.933594 319.945312 C 220.722656 319.71875 220.535156 319.480469 220.371094 319.21875 C 220.207031 318.960938 220.070312 318.683594 219.957031 318.398438 C 219.847656 318.113281 219.765625 317.816406 219.714844 317.511719 C 219.664062 317.210938 219.640625 316.90625 219.648438 316.597656 C 219.65625 316.289062 219.695312 315.988281 219.761719 315.6875 C 219.828125 315.386719 219.925781 315.097656 220.050781 314.816406 C 220.175781 314.535156 220.328125 314.269531 220.503906 314.015625 C 220.683594 313.765625 220.882812 313.535156 221.105469 313.324219 C 221.328125 313.109375 221.570312 312.921875 221.832031 312.757812 C 222.089844 312.59375 222.363281 312.457031 222.652344 312.347656 C 222.9375 312.238281 223.234375 312.15625 223.535156 312.105469 C 223.839844 312.050781 224.144531 312.03125 224.453125 312.039062 C 224.757812 312.046875 225.0625 312.082031 225.363281 312.152344 C 225.664062 312.21875 225.953125 312.316406 226.234375 312.441406 C 226.515625 312.566406 226.78125 312.714844 227.03125 312.894531 C 227.285156 313.070312 227.515625 313.273438 227.726562 313.496094 C 227.9375 313.71875 228.125 313.960938 228.289062 314.21875 Z M 228.289062 314.21875 "/></g></g></g><g clip-rule="nonzero" clip-path="url(#62b1047ac0)"><g clip-rule="nonzero" clip-path="url(#8e6942ba27)"><g clip-rule="nonzero" clip-path="url(#d62cb5e9be)"><path style=" stroke:none;fill-rule:nonzero;fill:#ffffff;fill-opacity:1;" d="M 215.289062 328.21875 C 215.660156 328.09375 216.042969 328.039062 216.433594 328.066406 C 216.824219 328.089844 217.195312 328.1875 217.546875 328.359375 C 217.902344 328.53125 218.207031 328.761719 218.464844 329.058594 C 218.726562 329.351562 218.917969 329.683594 219.046875 330.054688 C 219.175781 330.425781 219.226562 330.804688 219.203125 331.195312 C 219.179688 331.589844 219.082031 331.960938 218.910156 332.3125 C 218.738281 332.664062 218.503906 332.972656 218.210938 333.230469 C 217.917969 333.488281 217.585938 333.683594 217.214844 333.8125 C 216.84375 333.9375 216.460938 333.992188 216.070312 333.964844 C 215.679688 333.941406 215.308594 333.84375 214.953125 333.671875 C 214.601562 333.5 214.296875 333.269531 214.035156 332.972656 C 213.777344 332.679688 213.582031 332.347656 213.457031 331.976562 C 213.328125 331.605469 213.277344 331.226562 213.300781 330.835938 C 213.324219 330.441406 213.421875 330.070312 213.59375 329.71875 C 213.765625 329.367188 214 329.058594 214.292969 328.800781 C 214.585938 328.542969 214.917969 328.347656 215.289062 328.21875 Z M 215.289062 328.21875 "/></g></g></g><g clip-rule="nonzero" clip-path="url(#f08f1a9610)"><g clip-rule="nonzero" clip-path="url(#e88710af56)"><g clip-rule="nonzero" clip-path="url(#3eb4d1b993)"><path style=" stroke:none;fill-rule:nonzero;fill:#ffffff;fill-opacity:1;" d="M 223.664062 337.289062 C 224.003906 337.171875 224.347656 337.089844 224.703125 337.039062 C 225.058594 336.992188 225.414062 336.980469 225.769531 337 C 226.128906 337.023438 226.476562 337.078125 226.824219 337.171875 C 227.167969 337.261719 227.503906 337.386719 227.824219 337.542969 C 228.144531 337.699219 228.449219 337.886719 228.734375 338.101562 C 229.019531 338.320312 229.277344 338.5625 229.515625 338.828125 C 229.75 339.097656 229.960938 339.386719 230.140625 339.695312 C 230.320312 340.003906 230.46875 340.328125 230.585938 340.664062 C 230.699219 341.003906 230.785156 341.347656 230.832031 341.703125 C 230.878906 342.058594 230.894531 342.414062 230.871094 342.769531 C 230.847656 343.125 230.792969 343.476562 230.699219 343.824219 C 230.609375 344.167969 230.484375 344.503906 230.328125 344.824219 C 230.171875 345.144531 229.984375 345.449219 229.769531 345.734375 C 229.554688 346.015625 229.3125 346.277344 229.042969 346.515625 C 228.773438 346.75 228.488281 346.960938 228.179688 347.140625 C 227.867188 347.320312 227.546875 347.46875 227.207031 347.585938 C 226.871094 347.699219 226.523438 347.78125 226.167969 347.832031 C 225.816406 347.878906 225.460938 347.890625 225.101562 347.871094 C 224.746094 347.847656 224.394531 347.792969 224.046875 347.699219 C 223.703125 347.609375 223.371094 347.484375 223.046875 347.328125 C 222.726562 347.171875 222.425781 346.984375 222.140625 346.769531 C 221.855469 346.550781 221.59375 346.308594 221.359375 346.042969 C 221.121094 345.773438 220.914062 345.484375 220.734375 345.175781 C 220.550781 344.867188 220.40625 344.542969 220.289062 344.207031 C 220.171875 343.867188 220.089844 343.523438 220.042969 343.167969 C 219.992188 342.8125 219.980469 342.457031 220.003906 342.101562 C 220.023438 341.746094 220.082031 341.394531 220.171875 341.046875 C 220.261719 340.703125 220.386719 340.367188 220.542969 340.046875 C 220.699219 339.726562 220.886719 339.421875 221.105469 339.140625 C 221.320312 338.855469 221.5625 338.59375 221.828125 338.355469 C 222.097656 338.121094 222.386719 337.910156 222.695312 337.730469 C 223.003906 337.550781 223.328125 337.402344 223.664062 337.289062 Z M 223.664062 337.289062 "/></g></g></g><g clip-rule="nonzero" clip-path="url(#40ba136bd7)"><g clip-rule="nonzero" clip-path="url(#137efac184)"><g clip-rule="nonzero" clip-path="url(#75932f4862)"><path style=" stroke:none;fill-rule:nonzero;fill:#ffffff;fill-opacity:1;" d="M 237.078125 322.878906 C 237.421875 322.761719 237.777344 322.675781 238.140625 322.628906 C 238.503906 322.578125 238.867188 322.566406 239.230469 322.585938 C 239.597656 322.609375 239.957031 322.667969 240.308594 322.761719 C 240.664062 322.855469 241.003906 322.980469 241.332031 323.140625 C 241.660156 323.300781 241.972656 323.492188 242.261719 323.714844 C 242.554688 323.9375 242.820312 324.183594 243.0625 324.457031 C 243.304688 324.730469 243.519531 325.027344 243.703125 325.34375 C 243.886719 325.660156 244.039062 325.988281 244.15625 326.335938 C 244.277344 326.679688 244.359375 327.035156 244.410156 327.398438 C 244.457031 327.761719 244.472656 328.125 244.449219 328.488281 C 244.425781 328.855469 244.371094 329.214844 244.277344 329.566406 C 244.183594 329.921875 244.054688 330.261719 243.894531 330.589844 C 243.734375 330.917969 243.542969 331.230469 243.324219 331.519531 C 243.101562 331.8125 242.855469 332.078125 242.578125 332.320312 C 242.304688 332.5625 242.011719 332.777344 241.695312 332.960938 C 241.378906 333.144531 241.046875 333.296875 240.703125 333.414062 C 240.355469 333.535156 240.003906 333.617188 239.640625 333.667969 C 239.277344 333.714844 238.914062 333.730469 238.546875 333.707031 C 238.183594 333.683594 237.824219 333.625 237.46875 333.535156 C 237.117188 333.441406 236.773438 333.3125 236.445312 333.152344 C 236.117188 332.992188 235.808594 332.800781 235.515625 332.582031 C 235.226562 332.359375 234.960938 332.109375 234.71875 331.835938 C 234.476562 331.5625 234.261719 331.269531 234.078125 330.953125 C 233.894531 330.636719 233.742188 330.304688 233.621094 329.960938 C 233.503906 329.613281 233.417969 329.257812 233.371094 328.898438 C 233.320312 328.535156 233.308594 328.171875 233.332031 327.804688 C 233.351562 327.441406 233.410156 327.082031 233.503906 326.726562 C 233.597656 326.375 233.722656 326.03125 233.882812 325.703125 C 234.042969 325.375 234.234375 325.066406 234.457031 324.773438 C 234.679688 324.484375 234.925781 324.214844 235.199219 323.972656 C 235.472656 323.730469 235.769531 323.519531 236.085938 323.335938 C 236.402344 323.148438 236.730469 323 237.078125 322.878906 Z M 237.078125 322.878906 "/></g></g></g></g></svg>