<svg xmlns="http://www.w3.org/2000/svg" xmlns:xlink="http://www.w3.org/1999/xlink" width="500" zoomAndPan="magnify" viewBox="0 0 375 374.999991" height="500" preserveAspectRatio="xMidYMid meet" version="1.2"><defs><clipPath id="ffaa77218f"><path d="M 1 13.125 L 374 13.125 L 374 361.875 L 1 361.875 Z M 1 13.125 "/></clipPath></defs><g id="89f2d7e0a8"><g clip-rule="nonzero" clip-path="url(#ffaa77218f)"><path style=" stroke:none;fill-rule:nonzero;fill:currentColor;fill-opacity:1;" d="M 373.800781 316.5 C 371.765625 290.613281 358.964844 249.601562 310.390625 200.152344 C 310.390625 200.152344 294.101562 183.574219 274.90625 164.085938 L 292.066406 166.703125 C 293.230469 166.992188 294.101562 167.285156 294.976562 167.867188 L 323.480469 192.007812 C 326.679688 194.625 330.753906 196.082031 334.824219 196.082031 L 367.984375 196.082031 C 371.183594 196.082031 373.800781 193.460938 373.800781 190.261719 C 373.800781 187.0625 371.183594 184.445312 367.984375 184.445312 L 334.824219 184.445312 C 333.371094 184.445312 332.207031 183.863281 331.042969 182.992188 L 302.539062 158.847656 C 300.210938 156.8125 297.011719 155.359375 293.8125 155.066406 L 261.234375 150.125 C 258.328125 147.214844 255.417969 144.015625 252.507812 141.105469 L 268.214844 133.253906 C 274.324219 130.34375 278.105469 123.945312 277.8125 117.253906 L 276.359375 55.882812 C 276.359375 53.265625 277.8125 51.230469 280.140625 50.355469 L 311.847656 38.722656 C 314.753906 37.558594 316.5 34.359375 315.335938 31.160156 C 314.171875 28.25 310.972656 26.503906 307.773438 27.667969 L 276.070312 39.304688 C 269.089844 41.921875 264.433594 48.609375 264.726562 56.171875 L 266.179688 117.546875 C 266.179688 119.875 265.015625 121.910156 262.980469 122.78125 L 243.78125 132.378906 C 241.457031 130.054688 239.417969 128.019531 237.382812 125.980469 C 245.238281 121.910156 250.183594 114.347656 251.34375 105.621094 C 253.671875 87.878906 240.875 68.679688 222.257812 61.699219 C 219.351562 60.535156 216.441406 59.953125 213.242188 59.664062 C 212.660156 46.574219 204.226562 36.101562 193.171875 33.777344 L 193.171875 18.941406 C 193.171875 15.742188 190.554688 13.125 187.355469 13.125 C 184.15625 13.125 181.539062 15.742188 181.539062 18.941406 L 181.539062 34.648438 C 171.9375 37.847656 164.667969 47.738281 164.085938 59.664062 C 160.304688 59.664062 156.523438 60.535156 152.742188 61.992188 C 134.125 68.679688 121.328125 88.167969 123.65625 105.910156 C 124.816406 114.347656 129.761719 122.199219 137.617188 126.273438 C 135.582031 128.308594 133.542969 130.636719 131.21875 132.671875 L 112.019531 123.074219 C 109.984375 122.199219 108.820312 119.875 108.820312 117.835938 L 110.273438 56.464844 C 110.566406 48.902344 105.910156 42.210938 98.929688 39.59375 L 67.226562 27.960938 C 64.316406 26.796875 60.828125 28.25 59.664062 31.449219 C 58.5 34.359375 59.953125 37.847656 63.152344 39.011719 L 94.859375 50.648438 C 97.1875 51.519531 98.640625 53.847656 98.640625 56.171875 L 97.476562 117.253906 C 97.1875 123.945312 100.96875 130.34375 107.074219 133.253906 L 122.78125 141.105469 C 119.875 144.015625 116.964844 146.925781 114.054688 150.125 L 81.480469 155.066406 C 78.28125 155.648438 75.371094 156.8125 72.753906 158.847656 L 44.246094 182.992188 C 43.085938 183.863281 41.921875 184.445312 40.464844 184.445312 L 7.308594 184.445312 C 4.109375 184.445312 1.492188 187.0625 1.492188 190.261719 C 1.492188 193.460938 4.109375 196.082031 7.308594 196.082031 L 40.464844 196.082031 C 44.539062 196.082031 48.609375 194.625 51.808594 192.007812 L 80.316406 167.867188 C 81.1875 167.285156 82.0625 166.703125 83.222656 166.703125 L 100.386719 164.085938 C 81.1875 183.574219 64.898438 200.152344 64.898438 200.152344 C 16.617188 249.601562 3.816406 290.902344 1.492188 316.5 C 0.0351562 332.207031 13.414062 347.039062 29.414062 347.039062 C 48.902344 347.039062 68.390625 326.390625 82.933594 315.628906 C 95.730469 306.320312 108.820312 296.71875 121.910156 287.121094 C 134.417969 331.914062 161.175781 361.875 192.589844 361.875 C 222.550781 361.875 248.144531 334.535156 261.527344 293.230469 C 271.707031 300.792969 281.886719 308.066406 292.066406 315.628906 C 306.609375 326.390625 326.390625 347.039062 345.585938 347.039062 C 361.875 347.332031 374.964844 332.496094 373.800781 316.5 Z M 209.75 71.296875 C 225.75 71.296875 242.039062 87.878906 240 104.167969 C 238.257812 116.382812 225.457031 119.875 215.277344 116.09375 C 201.898438 111.148438 192.300781 96.894531 193.753906 84.679688 C 194.335938 79.734375 196.664062 75.953125 200.734375 73.625 C 203.351562 71.878906 206.550781 71.296875 209.75 71.296875 Z M 171.066406 233.019531 C 174.847656 224.292969 177.757812 214.695312 179.5 204.804688 C 181.539062 205.097656 183.863281 205.097656 186.191406 205.097656 C 189.390625 205.097656 192.589844 204.804688 195.789062 204.515625 C 197.535156 214.40625 200.152344 224.003906 203.933594 232.730469 C 191.71875 234.183594 180.664062 233.894531 171.066406 233.019531 Z M 209.460938 243.492188 C 214.40625 252.507812 220.804688 260.652344 228.074219 267.632812 C 191.425781 278.976562 162.050781 273.160156 146.632812 268.214844 C 154.195312 261.234375 160.304688 253.089844 165.539062 244.074219 C 171.648438 244.945312 178.335938 245.527344 185.609375 245.527344 C 193.171875 245.527344 201.023438 244.945312 209.460938 243.492188 Z M 181.539062 167.285156 C 181.539062 166.121094 181.246094 164.957031 181.246094 164.085938 C 182.992188 164.085938 184.445312 164.375 186.191406 164.375 C 188.808594 164.375 191.425781 164.085938 194.042969 163.792969 C 194.042969 164.957031 193.753906 166.121094 193.753906 167.285156 C 193.171875 176.011719 193.460938 184.445312 194.042969 192.589844 C 189.390625 193.171875 185.027344 193.171875 180.957031 192.882812 C 181.828125 184.738281 182.117188 176.300781 181.539062 167.285156 Z M 180.082031 152.160156 C 178.628906 142.5625 176.882812 132.960938 173.976562 123.363281 C 173.976562 123.074219 173.683594 122.78125 173.683594 122.199219 C 179.5 118.417969 184.445312 113.183594 187.9375 107.367188 C 191.425781 113.183594 196.371094 118.417969 202.1875 122.199219 C 201.898438 122.78125 201.898438 123.363281 201.898438 123.363281 C 199.28125 132.960938 197.242188 142.269531 195.789062 151.867188 C 189.679688 152.742188 184.738281 152.742188 180.082031 152.160156 Z M 188.808594 45.703125 C 195.5 45.703125 201.023438 52.390625 201.023438 60.828125 C 198.699219 61.410156 196.371094 62.574219 194.335938 63.734375 C 191.71875 65.480469 189.390625 67.515625 187.355469 69.84375 C 185.609375 67.515625 183.28125 65.480469 180.375 63.734375 C 179.210938 62.863281 177.757812 62.28125 176.300781 61.699219 C 176.300781 61.410156 176.300781 61.410156 176.300781 61.117188 C 176.59375 52.683594 182.117188 45.703125 188.808594 45.703125 Z M 135.582031 104.167969 C 133.835938 91.949219 143.722656 77.699219 157.105469 72.753906 C 162.628906 70.714844 169.613281 70.136719 174.847656 73.335938 C 182.699219 77.988281 182.992188 88.75 180.082031 96.605469 C 176.59375 105.328125 169.03125 112.601562 160.304688 115.800781 C 153.613281 118.128906 147.214844 117.835938 142.5625 115.21875 C 138.488281 112.890625 136.160156 109.109375 135.582031 104.167969 Z M 76.242188 306.609375 C 67.808594 312.71875 59.371094 319.117188 50.9375 325.226562 C 43.667969 330.460938 34.648438 338.023438 25.050781 335.113281 C 17.777344 332.789062 12.542969 325.226562 13.125 317.664062 C 14.871094 298.175781 24.757812 258.035156 73.335938 208.296875 C 109.984375 171.066406 135.871094 144.597656 150.996094 129.179688 C 151.285156 129.179688 151.285156 129.179688 151.578125 129.179688 C 155.359375 129.179688 159.140625 128.597656 162.921875 127.144531 C 166.703125 140.816406 169.320312 154.488281 169.902344 167.867188 C 172.519531 211.789062 157.394531 247.5625 127.726562 268.796875 C 110.566406 281.304688 93.113281 294.101562 76.242188 306.609375 Z M 192.882812 350.53125 C 176.011719 350.53125 160.59375 338.894531 148.667969 319.988281 C 158.558594 323.191406 173.101562 326.679688 191.425781 326.679688 C 204.804688 326.679688 220.222656 324.644531 237.09375 319.410156 C 225.457031 338.894531 209.75 350.53125 192.882812 350.53125 Z M 245.238281 304.574219 C 185.609375 328.425781 141.6875 304.574219 141.105469 304.285156 C 140.816406 304.285156 140.523438 303.992188 140.523438 303.992188 C 137.324219 296.71875 134.707031 288.578125 132.378906 279.851562 C 132.378906 279.558594 136.453125 276.941406 136.453125 276.941406 C 145.46875 280.722656 162.628906 286.25 185.898438 286.25 C 201.316406 286.25 219.058594 283.632812 238.546875 276.652344 C 239.417969 277.234375 240 277.8125 240.875 278.394531 C 244.65625 281.015625 248.144531 283.632812 251.925781 286.25 C 249.890625 292.648438 247.5625 298.757812 245.238281 304.574219 Z M 350.242188 334.824219 C 341.515625 337.441406 333.371094 331.332031 325.226562 325.515625 C 316.5 319.117188 307.773438 312.71875 299.046875 306.320312 C 282.175781 293.8125 264.726562 281.015625 247.273438 268.796875 C 217.605469 247.5625 202.480469 211.789062 205.097656 167.867188 C 205.96875 154.488281 208.296875 140.816406 212.078125 127.144531 C 215.859375 128.308594 219.640625 129.179688 223.421875 129.179688 C 223.714844 129.179688 223.714844 129.179688 224.003906 129.179688 C 239.128906 144.597656 265.015625 171.066406 301.664062 208.296875 C 350.242188 257.746094 360.128906 298.175781 361.875 317.664062 C 362.746094 325.226562 357.511719 332.496094 350.242188 334.824219 Z M 350.242188 334.824219 "/></g></g></svg>