<svg xmlns="http://www.w3.org/2000/svg" xmlns:xlink="http://www.w3.org/1999/xlink" width="500" zoomAndPan="magnify" viewBox="0 0 375 374.999991" height="500" preserveAspectRatio="xMidYMid meet" version="1.2"><g id="19a29ea1d9"><path style=" stroke:none;fill-rule:nonzero;fill:currentColor;fill-opacity:1;" d="M 317.71875 14.457031 C 313.828125 12.054688 309.480469 16.515625 311.769531 20.40625 C 353.21875 90.949219 300.097656 179.277344 218.636719 176.375 C 211.441406 176.117188 203.789062 174 196.988281 177.296875 C 190.898438 180.242188 186.667969 186.207031 182.289062 191.519531 L 161.359375 165.792969 L 172.371094 162.710938 C 197.140625 155.773438 211.558594 130.132812 204.621094 105.363281 L 200.546875 90.816406 C 199.125 85.738281 193.820312 82.699219 188.679688 84.140625 L 174.128906 88.214844 C 150.960938 94.703125 137.097656 117.730469 141.144531 140.941406 L 110.230469 102.9375 C 113.183594 102.042969 120.824219 99.308594 124.863281 97.925781 C 149.15625 89.46875 161.964844 62.988281 153.515625 38.699219 L 148.550781 24.429688 C 146.816406 19.449219 141.335938 16.742188 136.292969 18.496094 L 122.023438 23.460938 C 97.96875 31.832031 85.246094 58.054688 93.3125 82.140625 L 72.582031 56.652344 L 72.941406 52.28125 C 75.03125 26.714844 55.925781 4.277344 30.363281 2.1875 L 15.304688 0.953125 C 9.980469 0.519531 5.359375 4.441406 4.929688 9.695312 L 3.695312 24.753906 C 1.597656 50.386719 20.632812 72.816406 46.269531 74.914062 L 54.3125 75.574219 L 69.398438 94.121094 C 46.773438 89.179688 23.546875 101.515625 15.667969 123.929688 L 10.652344 138.183594 C 8.90625 143.15625 11.527344 148.625 16.566406 150.394531 L 30.820312 155.40625 C 55.015625 163.914062 81.609375 151.214844 90.117188 127.015625 L 91.941406 121.832031 L 117.574219 153.347656 C 96.828125 148.226562 74.632812 157.917969 64.777344 177.878906 L 58.085938 191.425781 C 55.753906 196.152344 57.699219 201.890625 62.488281 204.257812 L 76.035156 210.945312 C 99.035156 222.304688 126.960938 212.894531 138.316406 189.894531 L 141.710938 183.015625 L 165.269531 211.976562 C 61.011719 337.363281 65.308594 331.121094 63.753906 336.539062 C 62.125 342.214844 64.660156 348.785156 69.132812 352.5 C 75.320312 357.585938 82.003906 363.28125 90.445312 359.09375 C 98.066406 355.316406 189.019531 243.296875 189.824219 242.164062 L 292.941406 368.929688 C 297.496094 374.53125 305.71875 375.363281 311.308594 370.820312 C 316.902344 366.269531 317.75 358.050781 313.199219 352.457031 L 206.59375 221.398438 C 211.5 214.917969 216.550781 208.464844 222.246094 203.40625 C 224.027344 201.828125 226.273438 200.648438 228.652344 200.605469 C 233.398438 200.511719 250.863281 210.75 282.609375 204.675781 C 300.867188 201.175781 317.863281 192.746094 332.246094 179.761719 C 385.222656 131.957031 374.910156 48.765625 317.71875 14.457031 Z M 173.722656 106.210938 L 181.238281 104.109375 C 183.894531 103.363281 186.636719 104.933594 187.367188 107.554688 L 189.476562 115.074219 C 193.058594 127.871094 185.609375 141.117188 172.8125 144.703125 L 165.296875 146.808594 C 162.671875 147.542969 159.945312 146.007812 159.199219 143.351562 L 157.09375 135.832031 C 153.519531 123.070312 160.960938 109.789062 173.722656 106.210938 Z M 122.734375 43.03125 L 130.050781 40.480469 C 132.636719 39.582031 135.445312 40.972656 136.332031 43.523438 L 138.878906 50.839844 C 143.214844 63.292969 136.644531 76.875 124.191406 81.207031 L 116.875 83.753906 C 114.320312 84.640625 111.523438 83.285156 110.621094 80.699219 L 108.078125 73.382812 C 103.757812 60.960938 110.3125 47.351562 122.734375 43.03125 Z M 75.898438 120.148438 L 72.789062 127.511719 C 67.503906 140.015625 53.039062 145.859375 40.535156 140.574219 L 33.167969 137.460938 C 30.5625 136.359375 29.359375 133.386719 30.441406 130.816406 L 33.558594 123.449219 C 38.855469 110.910156 53.285156 105.054688 65.824219 110.355469 L 73.191406 113.464844 C 75.757812 114.550781 77 117.539062 75.898438 120.148438 Z M 124.515625 179.886719 L 120.980469 187.046875 C 114.980469 199.195312 100.226562 204.167969 88.074219 198.167969 L 80.917969 194.632812 C 78.386719 193.386719 77.359375 190.351562 78.589844 187.855469 L 82.125 180.695312 C 88.144531 168.511719 102.863281 163.523438 115.050781 169.539062 L 122.207031 173.074219 C 124.703125 174.308594 125.765625 177.355469 124.515625 179.886719 Z M 42.109375 55.90625 C 29.875 54.90625 20.792969 44.199219 21.792969 31.964844 L 22.378906 24.777344 C 22.585938 22.273438 24.792969 20.398438 27.332031 20.609375 L 34.519531 21.195312 C 46.71875 22.195312 55.839844 32.902344 54.839844 45.101562 L 54.25 52.289062 C 54.042969 54.828125 51.804688 56.699219 49.296875 56.492188 Z M 292.082031 189.304688 C 287.070312 189.304688 283.011719 185.242188 283.011719 180.226562 C 283.011719 175.21875 287.070312 171.15625 292.082031 171.15625 C 297.09375 171.15625 301.15625 175.21875 301.15625 180.226562 C 301.15625 185.242188 297.09375 189.304688 292.082031 189.304688 Z M 326.320312 163.148438 C 319.234375 163.148438 313.488281 157.402344 313.488281 150.316406 C 313.488281 143.226562 319.234375 137.480469 326.320312 137.480469 C 333.40625 137.480469 339.152344 143.226562 339.152344 150.316406 C 339.152344 157.402344 333.40625 163.148438 326.320312 163.148438 Z M 353.011719 114.417969 C 353.011719 119.425781 348.949219 123.488281 343.9375 123.488281 C 338.925781 123.488281 334.863281 119.425781 334.863281 114.417969 C 334.863281 109.40625 338.925781 105.339844 343.9375 105.339844 C 348.949219 105.339844 353.011719 109.40625 353.011719 114.417969 Z M 353.011719 114.417969 "/></g></svg>