<svg xmlns="http://www.w3.org/2000/svg" xmlns:xlink="http://www.w3.org/1999/xlink" width="500" zoomAndPan="magnify" viewBox="0 0 375 374.999991" height="500" preserveAspectRatio="xMidYMid meet" version="1.2"><g id="44d7d33bc8"><path style=" stroke:none;fill-rule:nonzero;fill:currentColor;fill-opacity:1;" d="M 346.539062 210.941406 L 304.714844 210.941406 C 302.796875 197.234375 299.066406 184.042969 293.457031 171.507812 L 323.039062 158.34375 C 327.367188 156.414062 330.152344 152.132812 330.152344 147.398438 L 330.152344 90.855469 C 330.03125 75.234375 306.304688 75.144531 306.195312 90.859375 C 306.195312 90.855469 306.195312 139.617188 306.195312 139.617188 L 281.816406 150.460938 C 273.800781 138.484375 264.085938 128.167969 253.148438 119.910156 C 257.042969 93.042969 245.101562 64.542969 224.609375 49.707031 C 224.609375 49.707031 242.847656 28.902344 242.847656 28.902344 C 253.089844 17.210938 235.261719 1.308594 224.835938 13.113281 C 224.835938 13.109375 202.113281 39.027344 202.113281 39.027344 C 192.023438 36.441406 181.582031 36.453125 171.640625 39.015625 C 171.640625 39.015625 148.925781 13.109375 148.925781 13.109375 C 138.578125 1.464844 120.613281 17.011719 130.914062 28.902344 C 130.914062 28.902344 149.171875 49.722656 149.171875 49.722656 C 128.628906 64.617188 116.722656 93.046875 120.617188 119.914062 C 109.660156 128.195312 99.957031 138.503906 91.949219 150.460938 L 67.566406 139.617188 L 67.566406 90.855469 C 67.390625 75.195312 43.839844 75.0625 43.613281 90.855469 C 43.613281 90.855469 43.613281 147.398438 43.613281 147.398438 C 43.613281 152.132812 46.398438 156.414062 50.726562 158.34375 L 80.308594 171.507812 C 74.710938 184.027344 70.980469 197.210938 69.054688 210.941406 C 69.054688 210.941406 27.226562 210.941406 27.226562 210.941406 C 11.597656 211.152344 11.398438 234.640625 27.226562 234.898438 C 27.226562 234.898438 67.417969 234.898438 67.417969 234.898438 C 67.660156 251.597656 70.664062 268.125 76.179688 283.511719 L 41.191406 294.023438 C 36.128906 295.542969 32.664062 300.210938 32.664062 305.496094 C 32.664062 305.496094 32.664062 356.363281 32.664062 356.363281 C 32.789062 371.933594 56.503906 372.117188 56.621094 356.363281 C 56.621094 356.363281 56.621094 314.410156 56.621094 314.410156 L 86.351562 305.476562 C 108.097656 344.386719 145.660156 368.339844 186.882812 368.339844 C 228.125 368.339844 265.699219 344.363281 287.414062 305.480469 L 317.144531 314.410156 L 317.144531 356.363281 C 317.296875 371.964844 340.871094 372.203125 341.097656 356.363281 C 341.097656 356.363281 341.097656 305.496094 341.097656 305.496094 C 341.097656 300.210938 337.636719 295.542969 332.570312 294.023438 L 297.582031 283.511719 C 303.105469 268.101562 306.105469 251.585938 306.347656 234.898438 L 346.539062 234.898438 C 362.101562 234.832031 362.285156 211.019531 346.539062 210.941406 Z M 172.355469 63.746094 C 199.933594 52.050781 228.492188 76.21875 229.761719 105.875 C 202.714844 93.917969 171.050781 93.917969 144.003906 105.875 C 145.289062 86.820312 156.296875 70.1875 172.355469 63.746094 Z M 186.882812 344.386719 C 106.390625 344.722656 67.277344 236.132812 106.953125 171.433594 C 141.238281 105.097656 232.492188 105.265625 266.816406 171.4375 C 306.457031 236.09375 267.425781 344.734375 186.882812 344.386719 Z M 186.882812 344.386719 "/></g></svg>