<svg xmlns="http://www.w3.org/2000/svg" xmlns:xlink="http://www.w3.org/1999/xlink" width="500" zoomAndPan="magnify" viewBox="0 0 375 374.999991" height="500" preserveAspectRatio="xMidYMid meet" version="1.2"><defs><clipPath id="d7636d0cdb"><path d="M 99.796875 42 L 203 42 L 203 181.253906 L 99.796875 181.253906 Z M 99.796875 42 "/></clipPath></defs><g id="eee4054418"><g clip-rule="nonzero" clip-path="url(#d7636d0cdb)"><path style=" stroke:none;fill-rule:nonzero;fill:currentColor;fill-opacity:1;" d="M 151.140625 171.433594 C 128.269531 171.433594 109.664062 152.835938 109.664062 129.96875 C 109.664062 99.890625 140.671875 65.140625 151.125 54.285156 C 161.566406 65.210938 192.605469 100.195312 192.605469 129.96875 C 192.605469 152.835938 174.003906 171.433594 151.140625 171.433594 Z M 154.53125 43.789062 C 152.644531 41.976562 149.664062 41.972656 147.765625 43.773438 C 145.8125 45.632812 99.875 89.765625 99.875 129.96875 C 99.875 158.234375 122.871094 181.226562 151.140625 181.226562 C 179.402344 181.226562 202.398438 158.234375 202.398438 129.96875 C 202.398438 90.226562 156.484375 45.667969 154.53125 43.789062 "/></g><path style=" stroke:none;fill-rule:nonzero;fill:currentColor;fill-opacity:1;" d="M 206.992188 53.34375 C 199.203125 53.34375 192.867188 47.007812 192.867188 39.21875 C 192.867188 30.09375 201.242188 18.792969 206.976562 12.40625 C 212.71875 18.828125 221.101562 30.171875 221.101562 39.21875 C 221.101562 47.007812 214.769531 53.34375 206.992188 53.34375 Z M 230.890625 39.21875 C 230.890625 21.707031 211.21875 2.613281 210.382812 1.808594 C 208.492188 -0.00390625 205.515625 -0.0117188 203.617188 1.789062 C 202.777344 2.585938 183.074219 21.503906 183.074219 39.21875 C 183.074219 52.40625 193.804688 63.132812 206.992188 63.132812 C 220.171875 63.132812 230.890625 52.40625 230.890625 39.21875 "/><path style=" stroke:none;fill-rule:nonzero;fill:currentColor;fill-opacity:1;" d="M 244.683594 131.011719 C 233.425781 131.011719 224.265625 121.851562 224.265625 110.59375 C 224.265625 96.265625 238.125 79.609375 244.6875 72.523438 C 252.460938 80.960938 265.082031 97.433594 265.082031 110.59375 C 265.082031 121.851562 255.929688 131.011719 244.683594 131.011719 Z M 248.074219 61.96875 C 246.1875 60.15625 243.210938 60.148438 241.3125 61.949219 C 240.214844 62.992188 214.472656 87.703125 214.472656 110.59375 C 214.472656 127.25 228.023438 140.804688 244.683594 140.804688 C 261.332031 140.804688 274.875 127.25 274.875 110.59375 C 274.875 87.972656 249.167969 63.019531 248.074219 61.96875 "/><path style=" stroke:none;fill-rule:nonzero;fill:currentColor;fill-opacity:1;" d="M 128.230469 136.246094 C 124.769531 124.402344 133.4375 110.941406 133.550781 110.765625 C 135.035156 108.511719 134.414062 105.480469 132.164062 103.988281 C 129.910156 102.5 126.871094 103.117188 125.378906 105.375 C 124.914062 106.074219 114.078125 122.730469 118.832031 139 C 121.328125 147.496094 131.339844 163.570312 151.347656 163.570312 C 154.050781 163.570312 156.246094 161.375 156.246094 158.671875 C 156.246094 155.96875 154.050781 153.777344 151.347656 153.777344 C 137.136719 153.777344 130.007812 142.304688 128.230469 136.246094 "/><path style=" stroke:none;fill-rule:nonzero;fill:currentColor;fill-opacity:1;" d="M 137.507812 99.722656 C 141.269531 99.722656 144.335938 96.683594 144.335938 92.898438 C 144.335938 89.117188 141.269531 86.074219 137.507812 86.074219 C 133.734375 86.074219 130.683594 89.117188 130.683594 92.898438 C 130.683594 96.683594 133.734375 99.722656 137.507812 99.722656 "/><path style=" stroke:none;fill-rule:nonzero;fill:currentColor;fill-opacity:1;" d="M 266.019531 294.035156 L 245.375 294.035156 C 244.425781 287.269531 242.585938 280.757812 239.816406 274.570312 L 254.417969 268.070312 C 256.554688 267.117188 257.929688 265.003906 257.929688 262.667969 L 257.929688 234.753906 C 257.871094 227.042969 246.15625 227 246.105469 234.757812 C 246.105469 234.753906 246.105469 258.828125 246.105469 258.828125 L 234.070312 264.179688 C 230.109375 258.265625 225.316406 253.175781 219.917969 249.097656 C 221.839844 235.835938 215.945312 221.765625 205.828125 214.441406 C 205.828125 214.441406 214.832031 204.171875 214.832031 204.171875 C 219.886719 198.402344 211.085938 190.550781 205.941406 196.375 C 205.941406 196.375 194.722656 209.171875 194.722656 209.171875 C 189.742188 207.894531 184.589844 207.898438 179.679688 209.164062 C 179.679688 209.164062 168.46875 196.375 168.46875 196.375 C 163.359375 190.628906 154.492188 198.300781 159.578125 204.171875 C 159.574219 204.171875 168.589844 214.449219 168.589844 214.449219 C 158.449219 221.800781 152.570312 235.835938 154.492188 249.101562 C 149.082031 253.1875 144.292969 258.277344 140.339844 264.179688 L 128.304688 258.828125 L 128.304688 234.753906 C 128.214844 227.027344 116.589844 226.957031 116.480469 234.757812 C 116.480469 234.753906 116.480469 262.667969 116.480469 262.667969 C 116.480469 265.003906 117.855469 267.117188 119.988281 268.070312 L 134.59375 274.570312 C 131.832031 280.75 129.988281 287.257812 129.039062 294.035156 C 129.039062 294.035156 108.390625 294.035156 108.390625 294.035156 C 100.675781 294.140625 100.574219 305.734375 108.390625 305.863281 C 108.390625 305.863281 128.230469 305.863281 128.230469 305.863281 C 128.351562 314.105469 129.832031 322.265625 132.558594 329.859375 L 115.285156 335.050781 C 112.785156 335.800781 111.074219 338.105469 111.074219 340.714844 C 111.074219 340.714844 111.074219 365.824219 111.074219 365.824219 C 111.136719 373.511719 122.84375 373.601562 122.898438 365.824219 C 122.898438 365.824219 122.898438 345.113281 122.898438 345.113281 L 137.578125 340.703125 C 148.3125 359.910156 166.855469 371.738281 187.203125 371.738281 C 207.5625 371.738281 226.113281 359.902344 236.832031 340.703125 L 251.507812 345.113281 L 251.507812 365.824219 C 251.582031 373.527344 263.222656 373.644531 263.332031 365.824219 C 263.332031 365.824219 263.332031 340.714844 263.332031 340.714844 C 263.332031 338.105469 261.625 335.800781 259.125 335.050781 L 241.851562 329.859375 C 244.578125 322.253906 246.058594 314.097656 246.179688 305.863281 L 266.019531 305.863281 C 273.703125 305.832031 273.792969 294.074219 266.019531 294.035156 Z M 180.035156 221.371094 C 193.648438 215.601562 207.746094 227.527344 208.371094 242.167969 C 195.019531 236.265625 179.390625 236.265625 166.039062 242.167969 C 166.671875 232.765625 172.105469 224.554688 180.035156 221.371094 Z M 187.203125 359.910156 C 147.46875 360.078125 128.160156 306.472656 147.746094 274.53125 C 164.671875 241.785156 209.71875 241.871094 226.664062 274.535156 C 246.234375 306.453125 226.964844 360.082031 187.203125 359.910156 Z M 187.203125 359.910156 "/></g></svg>