<svg xmlns="http://www.w3.org/2000/svg" xmlns:xlink="http://www.w3.org/1999/xlink" width="500" zoomAndPan="magnify" viewBox="0 0 375 374.999991" height="500" preserveAspectRatio="xMidYMid meet" version="1.2"><defs><clipPath id="a1a0bc89b2"><path d="M 200.914062 0 L 311.785156 0 L 311.785156 110.871094 L 200.914062 110.871094 Z M 200.914062 0 "/></clipPath><clipPath id="98e22de3dd"><path d="M 18.542969 39.152344 L 253 39.152344 L 253 336 L 18.542969 336 Z M 18.542969 39.152344 "/></clipPath><clipPath id="5a2126f60d"><path d="M 251.65625 26.597656 L 262.289062 26.597656 L 262.289062 62.984375 L 251.65625 62.984375 Z M 251.65625 26.597656 "/></clipPath><clipPath id="a7dd5f0a59"><path d="M 259.875 29.925781 C 257.398438 35.175781 256.199219 35.324219 255.449219 35.175781 C 254.699219 34.949219 253.726562 34.050781 253.574219 33.449219 C 253.351562 33 253.949219 32.398438 253.800781 31.949219 C 253.648438 31.5 252.75 31.351562 252.449219 30.898438 C 252.148438 30.449219 252 29.773438 252.074219 29.25 C 252.226562 28.574219 252.898438 27.75 253.425781 27.449219 C 253.949219 27.148438 254.699219 26.925781 255.148438 27.300781 C 256.125 27.898438 257.773438 32.101562 257.25 33.226562 C 256.875 34.050781 254.476562 34.5 254.25 34.273438 C 254.101562 34.125 254.699219 33.074219 255.148438 32.699219 C 255.601562 32.398438 256.273438 32.101562 256.800781 32.101562 C 257.398438 32.175781 258.074219 32.398438 258.449219 32.773438 C 258.898438 33.148438 259.125 33.675781 259.273438 34.425781 C 259.574219 35.550781 259.5 37.5 259.351562 39.300781 C 259.125 41.550781 258.601562 45.375 257.851562 46.800781 C 257.550781 47.476562 257.175781 47.851562 256.648438 48.074219 C 256.125 48.375 255.375 48.449219 254.851562 48.226562 C 254.175781 48 253.351562 47.25 252.976562 46.050781 C 252.148438 43.199219 254.023438 32.851562 255.074219 29.773438 C 255.523438 28.425781 255.898438 27.523438 256.648438 27.074219 C 257.25 26.625 258.300781 26.550781 258.976562 26.699219 C 259.574219 26.925781 259.949219 27.300781 260.324219 27.898438 C 260.925781 28.875 261.300781 30.898438 261.449219 32.324219 C 261.601562 33.75 261.898438 35.476562 261.449219 36.523438 C 261 37.425781 260.023438 38.324219 259.199219 38.476562 C 258.523438 38.625 257.476562 38.101562 256.949219 37.648438 C 256.574219 37.199219 256.273438 35.925781 256.351562 35.925781 C 256.425781 35.851562 257.925781 38.023438 257.773438 38.175781 C 257.625 38.324219 255.976562 37.273438 255.300781 36.523438 C 254.625 35.699219 253.726562 34.199219 253.949219 33.300781 C 254.101562 32.476562 255.300781 31.425781 256.125 31.273438 C 256.800781 31.125 257.925781 31.425781 258.375 32.101562 C 259.273438 33.375 257.550781 37.875 258.375 39.898438 C 259.050781 41.699219 261.75 42.675781 262.125 44.175781 C 262.425781 45.300781 262.050781 47.101562 261.449219 47.699219 C 260.925781 48.226562 259.949219 48.300781 259.125 48.148438 C 258.226562 47.925781 256.875 46.800781 256.273438 45.976562 C 255.824219 45.226562 255.523438 44.324219 255.675781 43.648438 C 255.824219 42.898438 256.574219 42 257.25 41.773438 C 258 41.550781 259.574219 41.851562 260.101562 42.449219 C 260.699219 43.050781 260.625 44.101562 260.625 45.375 C 260.625 47.925781 260.773438 55.050781 259.125 56.773438 C 258.148438 57.824219 255.976562 58.199219 254.851562 57.601562 C 253.574219 56.925781 252.824219 53.925781 252.375 52.050781 C 251.925781 50.324219 251.625 47.925781 252.226562 46.800781 C 252.601562 45.976562 253.425781 45.375 254.175781 45.375 C 255 45.300781 256.273438 45.824219 256.875 46.726562 C 257.851562 48.074219 257.175781 52.273438 257.699219 54.226562 C 258 55.5 259.351562 56.625 258.976562 57.226562 C 258.601562 57.824219 255.226562 57.898438 255.074219 57.523438 C 254.925781 57.226562 256.351562 55.800781 257.101562 55.648438 C 257.625 55.574219 258.375 55.949219 258.824219 56.324219 C 259.199219 56.773438 259.648438 57.300781 259.648438 58.050781 C 259.574219 59.175781 258.074219 61.726562 257.101562 62.398438 C 256.5 62.851562 255.898438 63 255.300781 62.925781 C 254.699219 62.851562 254.023438 62.476562 253.574219 62.023438 C 253.199219 61.648438 252.898438 60.898438 252.898438 60.300781 C 252.898438 59.699219 253.425781 58.5 253.574219 58.574219 C 253.726562 58.574219 253.574219 61.574219 253.425781 61.648438 C 253.199219 61.648438 251.851562 54.976562 252 53.25 C 252 52.425781 252.074219 51.898438 252.449219 51.449219 C 252.976562 50.851562 254.476562 50.25 255.300781 50.398438 C 256.050781 50.550781 256.875 51.449219 257.101562 52.125 C 257.324219 52.726562 256.425781 53.699219 256.574219 54.375 C 256.648438 54.976562 257.699219 55.5 257.851562 56.023438 C 257.925781 56.476562 257.773438 56.851562 257.550781 57.300781 C 257.25 57.824219 256.273438 58.574219 255.601562 58.726562 C 255 58.875 254.25 58.726562 253.726562 58.351562 C 253.199219 57.976562 252.523438 57 252.523438 56.25 C 252.523438 55.5 253.125 54.300781 253.800781 53.925781 C 254.398438 53.476562 255.601562 53.398438 256.273438 53.699219 C 256.949219 54 257.625 54.976562 257.773438 55.648438 C 257.925781 56.398438 257.625 57.523438 257.023438 58.050781 C 256.351562 58.574219 254.625 58.800781 253.875 58.425781 C 253.199219 58.125 252.523438 57.074219 252.523438 56.324219 C 252.523438 55.5 253.5 54 254.25 53.625 C 255 53.324219 256.199219 53.550781 256.726562 54 C 257.324219 54.523438 257.925781 55.875 257.773438 56.625 C 257.625 57.375 256.875 58.351562 256.199219 58.574219 C 255.449219 58.875 253.875 58.574219 253.273438 57.976562 C 252.601562 57.375 252.449219 55.949219 252.375 54.898438 C 252.226562 53.851562 252.75 51.675781 252.601562 51.675781 C 252.523438 51.601562 252 53.25 252 53.25 C 252 53.25 252.375 51.449219 252.898438 50.925781 C 253.351562 50.550781 254.101562 50.324219 254.699219 50.324219 C 255.226562 50.324219 255.898438 50.550781 256.425781 51.074219 C 257.175781 51.824219 257.625 53.699219 257.925781 55.273438 C 258.148438 57.226562 258.375 60.824219 257.550781 62.023438 C 257.101562 62.699219 256.050781 63 255.300781 62.925781 C 254.476562 62.773438 253.199219 61.800781 252.976562 60.976562 C 252.75 60 253.648438 58.273438 254.398438 57.375 C 255.074219 56.550781 256.273438 55.726562 257.101562 55.648438 C 257.699219 55.574219 258.375 55.949219 258.824219 56.324219 C 259.199219 56.773438 259.574219 57.449219 259.648438 58.050781 C 259.726562 58.574219 259.5 59.324219 259.125 59.851562 C 258.824219 60.300781 257.625 60.898438 257.550781 60.824219 C 257.550781 60.824219 258.898438 59.851562 258.898438 59.773438 C 258.824219 59.625 257.175781 60.898438 256.351562 60.824219 C 255.601562 60.75 254.925781 60.226562 254.324219 59.476562 C 253.351562 58.199219 252.523438 55.351562 252.148438 53.324219 C 251.773438 51.375 251.398438 48.75 252 47.398438 C 252.375 46.425781 253.425781 45.523438 254.175781 45.375 C 254.925781 45.226562 255.898438 45.449219 256.5 46.199219 C 257.625 47.476562 259.351562 53.476562 258.523438 54.300781 C 257.925781 54.898438 255.074219 54.300781 254.476562 53.398438 C 253.800781 52.425781 254.699219 49.726562 255.074219 48.375 C 255.375 47.398438 256.199219 46.800781 256.273438 45.976562 C 256.351562 45.148438 255.523438 44.324219 255.675781 43.648438 C 255.75 43.050781 256.199219 42.449219 256.726562 42.074219 C 257.175781 41.773438 257.851562 41.476562 258.523438 41.625 C 259.351562 41.851562 261.449219 43.574219 261.300781 43.949219 C 261.226562 44.25 259.5 43.800781 258.675781 44.101562 C 257.851562 44.398438 257.023438 45.976562 256.273438 45.898438 C 255.449219 45.75 254.398438 44.101562 253.875 42.75 C 253.050781 40.875 252.75 37.050781 253.050781 35.25 C 253.199219 34.050781 254.101562 32.476562 254.25 32.476562 C 254.476562 32.550781 254.175781 35.101562 254.175781 35.175781 C 254.175781 35.175781 254.023438 32.851562 254.476562 32.175781 C 254.925781 31.574219 255.898438 31.125 256.726562 31.273438 C 258.074219 31.574219 261.375 34.574219 261.523438 35.925781 C 261.601562 36.824219 260.625 38.023438 259.800781 38.324219 C 259.050781 38.625 257.699219 38.398438 256.949219 37.648438 C 255.75 36.226562 254.925781 29.625 255.824219 27.976562 C 256.273438 27.074219 257.625 26.625 258.375 26.625 C 258.976562 26.550781 259.574219 27 260.023438 27.449219 C 260.398438 27.824219 260.550781 28.199219 260.625 29.101562 C 260.925781 31.875 259.351562 44.175781 257.851562 46.800781 C 257.324219 47.699219 256.726562 48.074219 256.050781 48.300781 C 255.523438 48.449219 254.773438 48.375 254.25 48 C 253.648438 47.550781 253.199219 46.648438 252.976562 45.449219 C 252.601562 42.898438 253.273438 34.949219 254.699219 33.148438 C 255.449219 32.324219 256.648438 32.023438 257.398438 32.25 C 258.148438 32.398438 259.199219 33.601562 259.273438 34.425781 C 259.351562 35.398438 258.074219 37.425781 257.023438 37.800781 C 255.976562 38.175781 253.949219 37.648438 253.050781 36.601562 C 251.925781 35.25 251.699219 29.398438 252.074219 29.25 C 252.375 29.175781 253.949219 31.875 253.800781 31.949219 C 253.726562 32.023438 252.75 31.351562 252.449219 30.898438 C 252.148438 30.449219 252 29.773438 252.074219 29.25 C 252.226562 28.574219 252.898438 27.75 253.425781 27.449219 C 253.949219 27.148438 254.625 27.148438 255.148438 27.300781 C 255.824219 27.449219 256.648438 28.050781 257.023438 28.726562 C 257.476562 29.476562 257.925781 31.273438 257.550781 31.574219 C 257.25 31.875 255.226562 31.273438 254.925781 30.675781 C 254.625 30.074219 255.375 28.351562 255.976562 27.75 C 256.5 27.226562 257.398438 27 258 27.074219 C 258.523438 27.074219 259.125 27.375 259.425781 27.824219 C 259.800781 28.351562 259.875 29.925781 259.875 29.925781 "/></clipPath><clipPath id="e5248d3abe"><path d="M 254.265625 76.332031 L 259.355469 76.332031 L 259.355469 82.492188 L 254.265625 82.492188 Z M 254.265625 76.332031 "/></clipPath><clipPath id="f7f8f177e4"><path d="M 258.675781 80.25 C 257.625 82.425781 256.125 82.5 255.523438 82.125 C 254.925781 81.824219 254.476562 80.925781 254.398438 80.25 C 254.398438 79.648438 254.773438 78.75 255.300781 78.300781 C 255.75 77.925781 256.800781 77.699219 257.398438 77.925781 C 258.074219 78.074219 258.824219 78.824219 258.976562 79.5 C 259.125 80.175781 258.601562 81.675781 258 82.125 C 257.476562 82.5 256.425781 82.574219 255.824219 82.273438 C 255.226562 82.050781 254.550781 81.226562 254.476562 80.550781 C 254.324219 79.949219 254.625 78.976562 255.074219 78.523438 C 255.523438 78.074219 256.574219 77.699219 257.175781 77.851562 C 257.773438 78 258.675781 78.601562 258.898438 79.199219 C 259.125 79.875 258.976562 81.074219 258.523438 81.601562 C 258.074219 82.125 256.726562 82.574219 256.050781 82.351562 C 255.375 82.199219 254.773438 81.523438 254.476562 80.851562 C 254.175781 80.023438 254.25 78.449219 254.625 77.699219 C 255 77.101562 255.75 76.574219 256.351562 76.425781 C 257.023438 76.273438 258 76.425781 258.449219 76.800781 C 258.976562 77.175781 259.351562 78.148438 259.351562 78.75 C 259.351562 79.273438 258.675781 80.25 258.675781 80.25 "/></clipPath><clipPath id="511540e1c4"><path d="M 251.535156 77.03125 L 260.5625 77.03125 L 260.5625 86.230469 L 251.535156 86.230469 Z M 251.535156 77.03125 "/></clipPath><clipPath id="eab1803580"><path d="M 253.648438 82.425781 C 254.25 81.300781 252.300781 82.125 251.851562 81.75 C 251.398438 81.300781 251.550781 79.726562 251.925781 78.976562 C 252.226562 78.226562 253.050781 77.398438 253.875 77.175781 C 254.625 76.949219 255.75 77.101562 256.648438 77.476562 C 257.851562 78.074219 259.648438 80.101562 260.175781 81.148438 C 260.476562 81.675781 260.625 82.199219 260.476562 82.648438 C 260.25 83.398438 259.050781 84.675781 258.300781 84.824219 C 257.476562 84.898438 255.976562 84 255.675781 83.324219 C 255.375 82.574219 255.824219 80.925781 256.425781 80.398438 C 256.949219 79.875 258.074219 79.726562 258.75 79.949219 C 259.351562 80.175781 260.175781 81 260.324219 81.601562 C 260.550781 82.273438 260.25 83.398438 259.875 83.925781 C 259.574219 84.375 259.050781 84.675781 258.523438 84.75 C 257.925781 84.824219 256.800781 84.675781 256.273438 84.148438 C 255.75 83.625 255.523438 82.5 255.449219 81.601562 C 255.449219 80.699219 255.601562 79.050781 256.050781 78.898438 C 256.574219 78.675781 258.148438 79.800781 258.523438 80.625 C 258.976562 81.601562 258.523438 83.476562 258 84.449219 C 257.625 85.125 257.023438 85.726562 256.425781 86.023438 C 255.898438 86.25 255.300781 86.25 254.773438 86.101562 C 254.25 85.875 253.425781 85.125 253.273438 84.523438 C 253.125 83.925781 253.648438 82.425781 253.648438 82.425781 "/></clipPath><clipPath id="3604bafc22"><path d="M 200.84375 0 L 311.714844 0 L 311.714844 110.871094 L 200.84375 110.871094 Z M 200.84375 0 "/></clipPath><clipPath id="ac1914c5d5"><path d="M 256.28125 0 C 225.664062 0 200.84375 24.820312 200.84375 55.433594 C 200.84375 86.050781 225.664062 110.871094 256.28125 110.871094 C 286.898438 110.871094 311.714844 86.050781 311.714844 55.433594 C 311.714844 24.820312 286.898438 0 256.28125 0 Z M 256.28125 0 "/></clipPath></defs><g id="5e135e6b8d"><g clip-rule="nonzero" clip-path="url(#a1a0bc89b2)"><path style=" stroke:none;fill-rule:nonzero;fill:currentColor;fill-opacity:1;" d="M 256.351562 0 C 271.660156 0 285.519531 6.203125 295.550781 16.238281 C 305.582031 26.269531 311.785156 40.128906 311.785156 55.433594 C 311.785156 70.742188 305.582031 84.601562 295.550781 94.632812 C 285.519531 104.667969 271.660156 110.871094 256.351562 110.871094 C 241.042969 110.871094 227.183594 104.667969 217.152344 94.632812 C 207.121094 84.601562 200.914062 70.742188 200.914062 55.433594 C 200.914062 40.128906 207.121094 26.269531 217.152344 16.238281 C 227.183594 6.203125 241.042969 0 256.351562 0 Z M 292.445312 19.339844 C 283.207031 10.105469 270.449219 4.390625 256.351562 4.390625 C 242.253906 4.390625 229.496094 10.105469 220.257812 19.339844 C 211.019531 28.578125 205.304688 41.339844 205.304688 55.433594 C 205.304688 69.53125 211.019531 82.292969 220.257812 91.53125 C 229.496094 100.765625 242.253906 106.480469 256.351562 106.480469 C 270.449219 106.480469 283.207031 100.765625 292.445312 91.53125 C 301.683594 82.292969 307.394531 69.53125 307.394531 55.433594 C 307.394531 41.339844 301.683594 28.578125 292.445312 19.339844 "/></g><path style=" stroke:none;fill-rule:nonzero;fill:currentColor;fill-opacity:1;" d="M 250.863281 23.6875 L 261.839844 23.6875 C 263.050781 23.6875 264.035156 24.671875 264.035156 25.882812 C 264.035156 25.976562 264.027344 26.070312 264.019531 26.160156 L 261.78125 63.847656 L 259.59375 63.71875 L 261.785156 63.851562 C 261.714844 65.019531 260.75 65.917969 259.59375 65.914062 L 252.878906 65.914062 C 251.667969 65.914062 250.683594 64.933594 250.683594 63.71875 L 250.683594 63.679688 L 248.675781 26 L 248.671875 26 C 248.605469 24.789062 249.535156 23.757812 250.746094 23.691406 C 250.785156 23.6875 250.824219 23.6875 250.863281 23.6875 Z M 259.515625 28.078125 L 253.171875 28.078125 L 254.953125 61.523438 L 257.53125 61.523438 L 259.515625 28.078125 "/><path style=" stroke:none;fill-rule:nonzero;fill:currentColor;fill-opacity:1;" d="M 256.351562 73.546875 C 258.234375 73.546875 259.9375 74.3125 261.171875 75.546875 C 262.40625 76.777344 263.167969 78.484375 263.167969 80.367188 C 263.167969 82.246094 262.40625 83.953125 261.171875 85.183594 C 259.9375 86.417969 258.234375 87.183594 256.351562 87.183594 C 254.46875 87.183594 252.765625 86.417969 251.53125 85.183594 C 250.296875 83.953125 249.535156 82.246094 249.535156 80.367188 C 249.535156 78.484375 250.296875 76.777344 251.53125 75.546875 C 252.765625 74.3125 254.46875 73.546875 256.351562 73.546875 Z M 258.066406 78.648438 C 257.628906 78.210938 257.023438 77.9375 256.351562 77.9375 C 255.679688 77.9375 255.074219 78.210938 254.636719 78.648438 C 254.195312 79.089844 253.925781 79.695312 253.925781 80.367188 C 253.925781 81.035156 254.195312 81.640625 254.636719 82.082031 C 255.074219 82.519531 255.679688 82.789062 256.351562 82.789062 C 257.023438 82.789062 257.628906 82.519531 258.066406 82.082031 C 258.503906 81.640625 258.777344 81.035156 258.777344 80.367188 C 258.777344 79.695312 258.503906 79.089844 258.066406 78.648438 "/><path style=" stroke:none;fill-rule:nonzero;fill:currentColor;fill-opacity:1;" d="M 329.617188 326.644531 C 382.71875 256.3125 320.53125 111.867188 320.53125 111.867188 C 320.53125 111.867188 277.296875 179.011719 229.875 197.773438 C 198.1875 210.296875 115.164062 268.820312 201.71875 350.996094 C 202.640625 351.875 203.617188 352.761719 204.632812 353.628906 C 246.507812 332.109375 327.289062 271.519531 319.164062 126.511719 C 319.164062 126.511719 348.03125 291.667969 210.195312 358.082031 C 236.273438 377.359375 282.191406 389.464844 329.617188 326.644531 "/><g clip-rule="nonzero" clip-path="url(#98e22de3dd)"><path style=" stroke:none;fill-rule:nonzero;fill:currentColor;fill-opacity:1;" d="M 183.519531 211.519531 C 163.066406 157.863281 120.0625 98.722656 33.515625 50.59375 C 33.515625 50.59375 147.824219 97.648438 192.382812 205.445312 C 199.230469 201.132812 205.667969 197.914062 210.773438 195.898438 C 225.441406 190.089844 239.695312 179.664062 252.40625 168.023438 C 207.007812 68.992188 18.734375 39.199219 18.734375 39.199219 C 18.734375 39.199219 61.472656 131.109375 49.460938 194.710938 C 41.941406 234.46875 47.171875 349.820312 168.28125 333.949219 C 121.445312 277.933594 152.65625 234.484375 183.519531 211.519531 "/></g><g clip-rule="nonzero" clip-path="url(#5a2126f60d)"><g clip-rule="nonzero" clip-path="url(#a7dd5f0a59)"><path style=" stroke:none;fill-rule:nonzero;fill:currentColor;fill-opacity:1;" d="M 249 23.625 L 265.199219 23.625 L 265.199219 66.023438 L 249 66.023438 Z M 249 23.625 "/></g></g><g clip-rule="nonzero" clip-path="url(#e5248d3abe)"><g clip-rule="nonzero" clip-path="url(#f7f8f177e4)"><path style=" stroke:none;fill-rule:nonzero;fill:currentColor;fill-opacity:1;" d="M 251.398438 73.425781 L 262.351562 73.425781 L 262.351562 85.445312 L 251.398438 85.445312 Z M 251.398438 73.425781 "/></g></g><g clip-rule="nonzero" clip-path="url(#511540e1c4)"><g clip-rule="nonzero" clip-path="url(#eab1803580)"><path style=" stroke:none;fill-rule:nonzero;fill:currentColor;fill-opacity:1;" d="M 248.851562 74.175781 L 263.476562 74.175781 L 263.476562 89.085938 L 248.851562 89.085938 Z M 248.851562 74.175781 "/></g></g><g clip-rule="nonzero" clip-path="url(#3604bafc22)"><g clip-rule="nonzero" clip-path="url(#ac1914c5d5)"><path style="fill:none;stroke-width:30;stroke-linecap:butt;stroke-linejoin:miter;stroke:currentColor;stroke-opacity:1;stroke-miterlimit:4;" d="M 73.914286 0 C 33.091366 0 -0.00238575 33.093752 -0.00238575 73.911463 C -0.00238575 114.734383 33.091366 147.828135 73.914286 147.828135 C 114.737205 147.828135 147.825749 114.734383 147.825749 73.911463 C 147.825749 33.093752 114.737205 0 73.914286 0 Z M 73.914286 0 " transform="matrix(0.75,0,0,0.75,200.845539,0)"/></g></g></g></svg>