<svg xmlns="http://www.w3.org/2000/svg" xmlns:xlink="http://www.w3.org/1999/xlink" width="500" zoomAndPan="magnify" viewBox="0 0 375 374.999991" height="500" preserveAspectRatio="xMidYMid meet" version="1.2"><defs><clipPath id="a316d59f7a"><path d="M 0 300 L 150 300 L 150 355.902344 L 0 355.902344 Z M 0 300 "/></clipPath><clipPath id="277cedaacb"><path d="M 80 134.828125 L 157.570312 134.828125 L 157.570312 213 L 80 213 Z M 80 134.828125 "/></clipPath><clipPath id="ceb1cfb557"><path d="M 217.332031 184 L 368 184 L 368 240 L 217.332031 240 Z M 217.332031 184 "/></clipPath><clipPath id="4d9c3d2f45"><path d="M 297 19.273438 L 374.90625 19.273438 L 374.90625 97 L 297 97 Z M 297 19.273438 "/></clipPath></defs><g id="2bab11ce3c"><g clip-rule="nonzero" clip-path="url(#a316d59f7a)"><path style=" stroke:none;fill-rule:nonzero;fill:currentColor;fill-opacity:1;" d="M 74.847656 300.371094 C 33.578125 300.371094 0 323.347656 0 351.582031 C 0 352.105469 0.101562 352.609375 0.300781 353.089844 C 0.5 353.574219 0.785156 354 1.152344 354.367188 C 1.523438 354.738281 1.949219 355.023438 2.433594 355.222656 C 2.914062 355.421875 3.417969 355.523438 3.9375 355.523438 L 145.753906 355.523438 C 146.277344 355.523438 146.777344 355.421875 147.261719 355.222656 C 147.742188 355.023438 148.171875 354.738281 148.539062 354.367188 C 148.910156 354 149.195312 353.574219 149.394531 353.089844 C 149.59375 352.609375 149.691406 352.105469 149.691406 351.582031 C 149.691406 323.347656 116.117188 300.371094 74.847656 300.371094 Z M 74.847656 300.371094 "/></g><g clip-rule="nonzero" clip-path="url(#277cedaacb)"><path style=" stroke:none;fill-rule:nonzero;fill:currentColor;fill-opacity:1;" d="M 153.65625 134.921875 C 151.925781 134.851562 113.003906 134.917969 92.351562 155.574219 C 77.589844 170.335938 76.441406 189.804688 89.566406 202.929688 C 90.382812 203.742188 91.238281 204.511719 92.136719 205.238281 C 98.3125 191.355469 107.152344 179.804688 119.828125 173.953125 C 120.304688 173.734375 120.800781 173.613281 121.324219 173.59375 C 121.84375 173.574219 122.351562 173.652344 122.839844 173.832031 C 123.332031 174.015625 123.769531 174.28125 124.152344 174.636719 C 124.535156 174.992188 124.835938 175.40625 125.054688 175.878906 C 125.273438 176.355469 125.394531 176.851562 125.414062 177.375 C 125.4375 177.898438 125.355469 178.402344 125.175781 178.894531 C 124.996094 179.382812 124.726562 179.820312 124.371094 180.203125 C 124.019531 180.589844 123.601562 180.890625 123.128906 181.109375 C 112.085938 186.203125 104.316406 196.667969 98.847656 209.40625 C 102.660156 211.160156 106.667969 212.039062 110.867188 212.042969 C 113.320312 211.957031 115.746094 211.632812 118.136719 211.070312 C 120.53125 210.507812 122.84375 209.714844 125.078125 208.695312 C 127.316406 207.671875 129.429688 206.445312 131.421875 205.003906 C 133.414062 203.566406 135.246094 201.945312 136.917969 200.144531 C 157.582031 179.480469 157.582031 140.488281 157.570312 138.835938 C 157.570312 138.320312 157.46875 137.820312 157.269531 137.34375 C 157.070312 136.863281 156.785156 136.441406 156.417969 136.074219 C 156.050781 135.707031 155.628906 135.425781 155.152344 135.226562 C 154.671875 135.027344 154.175781 134.925781 153.65625 134.921875 Z M 153.65625 134.921875 "/></g><path style=" stroke:none;fill-rule:nonzero;fill:currentColor;fill-opacity:1;" d="M 24.648438 227.265625 C 24.238281 226.953125 23.902344 226.578125 23.636719 226.140625 C 23.375 225.699219 23.203125 225.222656 23.125 224.714844 C 23.046875 224.207031 23.070312 223.707031 23.1875 223.207031 C 23.308594 222.707031 23.515625 222.246094 23.8125 221.828125 C 24.113281 221.410156 24.480469 221.066406 24.914062 220.792969 C 25.347656 220.515625 25.816406 220.332031 26.320312 220.242188 C 26.828125 220.152344 27.332031 220.160156 27.832031 220.265625 C 28.335938 220.371094 28.800781 220.566406 29.226562 220.855469 C 36.570312 226.714844 42.453125 233.789062 46.878906 242.078125 C 47.871094 241.375 48.800781 240.59375 49.660156 239.730469 C 50.738281 238.730469 51.675781 237.613281 52.480469 236.382812 C 53.28125 235.148438 53.917969 233.839844 54.398438 232.449219 C 54.875 231.058594 55.175781 229.628906 55.304688 228.167969 C 55.429688 226.703125 55.375 225.242188 55.140625 223.792969 C 54.566406 220.96875 53.574219 218.304688 52.160156 215.792969 C 50.75 213.285156 48.988281 211.050781 46.875 209.09375 C 44.253906 206.621094 41.421875 204.421875 38.371094 202.503906 C 35.320312 200.585938 32.117188 198.980469 28.753906 197.6875 C 25.390625 196.394531 21.933594 195.441406 18.382812 194.824219 C 14.832031 194.207031 11.257812 193.9375 7.65625 194.019531 C 7.171875 194.046875 6.710938 194.160156 6.269531 194.355469 C 5.828125 194.554688 5.433594 194.824219 5.09375 195.167969 C 4.75 195.507812 4.480469 195.898438 4.285156 196.34375 C 4.085938 196.785156 3.972656 197.246094 3.945312 197.730469 C 3.863281 201.332031 4.132812 204.90625 4.75 208.457031 C 5.367188 212.007812 6.320312 215.460938 7.613281 218.824219 C 8.90625 222.1875 10.511719 225.394531 12.429688 228.445312 C 14.351562 231.492188 16.546875 234.328125 19.019531 236.949219 C 20.976562 239.0625 23.210938 240.824219 25.722656 242.234375 C 28.230469 243.644531 30.898438 244.640625 33.71875 245.214844 C 34.691406 245.371094 35.664062 245.449219 36.648438 245.449219 C 37.585938 245.429688 38.515625 245.335938 39.4375 245.164062 C 35.691406 238.21875 30.761719 232.25 24.648438 227.265625 Z M 24.648438 227.265625 "/><path style=" stroke:none;fill-rule:nonzero;fill:currentColor;fill-opacity:1;" d="M 74.84375 308.25 C 74.398438 308.25 73.96875 308.175781 73.550781 308.03125 C 73.132812 307.886719 72.746094 307.675781 72.402344 307.398438 C 72.054688 307.125 71.761719 306.800781 71.523438 306.425781 C 71.285156 306.050781 71.113281 305.648438 71.011719 305.21875 C 70.855469 304.558594 55.273438 239.460938 29.226562 220.851562 C 28.8125 220.542969 28.476562 220.167969 28.210938 219.730469 C 27.945312 219.289062 27.773438 218.8125 27.695312 218.304688 C 27.617188 217.796875 27.636719 217.292969 27.757812 216.789062 C 27.875 216.289062 28.085938 215.832031 28.382812 215.414062 C 28.683594 214.992188 29.050781 214.648438 29.484375 214.371094 C 29.917969 214.097656 30.390625 213.914062 30.894531 213.824219 C 31.402344 213.734375 31.90625 213.742188 32.410156 213.847656 C 32.914062 213.957031 33.378906 214.15625 33.804688 214.445312 C 50.753906 226.550781 63.199219 254.804688 70.636719 276.269531 C 71.898438 241.078125 79.785156 183.761719 116.527344 166.800781 C 117.003906 166.582031 117.5 166.460938 118.023438 166.441406 C 118.542969 166.421875 119.050781 166.5 119.539062 166.683594 C 120.03125 166.863281 120.464844 167.132812 120.851562 167.484375 C 121.234375 167.839844 121.535156 168.253906 121.753906 168.730469 C 121.972656 169.203125 122.089844 169.699219 122.113281 170.222656 C 122.132812 170.742188 122.054688 171.25 121.871094 171.738281 C 121.691406 172.230469 121.425781 172.667969 121.070312 173.050781 C 120.71875 173.433594 120.304688 173.734375 119.828125 173.953125 C 71.683594 196.175781 78.703125 302.960938 78.773438 304.03125 C 78.792969 304.300781 78.785156 304.570312 78.746094 304.839844 C 78.710938 305.105469 78.648438 305.367188 78.558594 305.621094 C 78.46875 305.878906 78.351562 306.121094 78.210938 306.351562 C 78.070312 306.582031 77.910156 306.796875 77.722656 306.996094 C 77.539062 307.191406 77.335938 307.371094 77.117188 307.527344 C 76.894531 307.683594 76.660156 307.8125 76.414062 307.921875 C 76.167969 308.03125 75.910156 308.113281 75.644531 308.167969 C 75.378906 308.222656 75.113281 308.25 74.84375 308.25 Z M 74.84375 308.25 "/><g clip-rule="nonzero" clip-path="url(#ceb1cfb557)"><path style=" stroke:none;fill-rule:nonzero;fill:currentColor;fill-opacity:1;" d="M 292.179688 184.8125 C 250.910156 184.8125 217.332031 207.789062 217.332031 236.023438 C 217.332031 236.546875 217.433594 237.050781 217.632812 237.53125 C 217.832031 238.015625 218.117188 238.441406 218.488281 238.8125 C 218.855469 239.179688 219.28125 239.464844 219.765625 239.664062 C 220.25 239.863281 220.75 239.964844 221.273438 239.964844 L 363.085938 239.964844 C 363.609375 239.964844 364.113281 239.863281 364.59375 239.664062 C 365.078125 239.464844 365.503906 239.179688 365.875 238.8125 C 366.242188 238.441406 366.527344 238.015625 366.726562 237.53125 C 366.925781 237.050781 367.027344 236.546875 367.027344 236.023438 C 367.027344 207.789062 333.449219 184.8125 292.179688 184.8125 Z M 292.179688 184.8125 "/></g><g clip-rule="nonzero" clip-path="url(#4d9c3d2f45)"><path style=" stroke:none;fill-rule:nonzero;fill:currentColor;fill-opacity:1;" d="M 370.988281 19.363281 C 369.257812 19.292969 330.335938 19.359375 309.683594 40.019531 C 294.921875 54.777344 293.777344 74.25 306.898438 87.371094 C 307.714844 88.183594 308.574219 88.953125 309.46875 89.679688 C 315.648438 75.796875 324.484375 64.246094 337.164062 58.394531 C 337.636719 58.175781 338.136719 58.054688 338.65625 58.035156 C 339.179688 58.015625 339.683594 58.09375 340.175781 58.277344 C 340.664062 58.457031 341.101562 58.722656 341.484375 59.078125 C 341.871094 59.433594 342.171875 59.847656 342.390625 60.324219 C 342.609375 60.796875 342.730469 61.296875 342.75 61.816406 C 342.769531 62.339844 342.691406 62.84375 342.507812 63.335938 C 342.328125 63.824219 342.0625 64.261719 341.707031 64.648438 C 341.351562 65.03125 340.9375 65.332031 340.460938 65.550781 C 329.417969 70.644531 321.648438 81.109375 316.179688 93.851562 C 319.996094 95.601562 324 96.480469 328.199219 96.484375 C 330.65625 96.398438 333.078125 96.078125 335.472656 95.511719 C 337.863281 94.949219 340.179688 94.15625 342.414062 93.136719 C 344.648438 92.117188 346.761719 90.886719 348.753906 89.445312 C 350.746094 88.007812 352.578125 86.386719 354.25 84.585938 C 374.917969 63.921875 374.917969 24.929688 374.90625 23.28125 C 374.902344 22.761719 374.800781 22.261719 374.601562 21.785156 C 374.402344 21.304688 374.121094 20.882812 373.753906 20.515625 C 373.386719 20.148438 372.964844 19.867188 372.484375 19.667969 C 372.007812 19.46875 371.507812 19.367188 370.988281 19.363281 Z M 370.988281 19.363281 "/></g><path style=" stroke:none;fill-rule:nonzero;fill:currentColor;fill-opacity:1;" d="M 241.980469 111.707031 C 241.570312 111.398438 241.234375 111.023438 240.972656 110.582031 C 240.707031 110.140625 240.539062 109.667969 240.460938 109.160156 C 240.382812 108.652344 240.402344 108.148438 240.523438 107.648438 C 240.640625 107.148438 240.851562 106.691406 241.148438 106.273438 C 241.445312 105.855469 241.8125 105.507812 242.246094 105.234375 C 242.679688 104.957031 243.148438 104.777344 243.65625 104.683594 C 244.160156 104.59375 244.664062 104.601562 245.167969 104.707031 C 245.667969 104.8125 246.132812 105.011719 246.558594 105.296875 C 253.902344 111.15625 259.785156 118.230469 264.210938 126.519531 C 265.207031 125.816406 266.132812 125.035156 266.996094 124.175781 C 268.074219 123.171875 269.011719 122.058594 269.8125 120.824219 C 270.613281 119.59375 271.253906 118.28125 271.730469 116.890625 C 272.210938 115.5 272.511719 114.074219 272.636719 112.609375 C 272.761719 111.144531 272.710938 109.6875 272.476562 108.234375 C 271.902344 105.414062 270.90625 102.746094 269.496094 100.238281 C 268.082031 97.726562 266.320312 95.492188 264.210938 93.535156 C 261.589844 91.0625 258.753906 88.867188 255.707031 86.945312 C 252.65625 85.027344 249.449219 83.421875 246.085938 82.128906 C 242.722656 80.835938 239.265625 79.882812 235.71875 79.265625 C 232.167969 78.648438 228.589844 78.378906 224.988281 78.460938 C 224.507812 78.488281 224.042969 78.601562 223.601562 78.800781 C 223.160156 78.996094 222.769531 79.265625 222.425781 79.609375 C 222.085938 79.949219 221.816406 80.34375 221.617188 80.785156 C 221.421875 81.226562 221.308594 81.6875 221.28125 82.171875 C 221.199219 85.773438 221.464844 89.347656 222.082031 92.898438 C 222.699219 96.449219 223.65625 99.90625 224.949219 103.269531 C 226.238281 106.632812 227.84375 109.835938 229.765625 112.886719 C 231.683594 115.9375 233.878906 118.769531 236.351562 121.390625 C 238.3125 123.503906 240.546875 125.265625 243.054688 126.675781 C 245.566406 128.085938 248.230469 129.082031 251.054688 129.65625 C 252.023438 129.8125 253 129.890625 253.980469 129.894531 C 254.917969 129.875 255.847656 129.777344 256.769531 129.605469 C 253.027344 122.660156 248.097656 116.691406 241.980469 111.707031 Z M 241.980469 111.707031 "/><path style=" stroke:none;fill-rule:nonzero;fill:currentColor;fill-opacity:1;" d="M 292.175781 192.691406 C 291.734375 192.691406 291.300781 192.617188 290.882812 192.472656 C 290.464844 192.328125 290.082031 192.117188 289.734375 191.839844 C 289.386719 191.566406 289.09375 191.242188 288.855469 190.867188 C 288.617188 190.492188 288.449219 190.089844 288.34375 189.660156 C 288.191406 189 272.605469 123.902344 246.558594 105.296875 C 246.148438 104.988281 245.808594 104.613281 245.542969 104.171875 C 245.28125 103.730469 245.109375 103.253906 245.03125 102.746094 C 244.949219 102.238281 244.972656 101.734375 245.089844 101.234375 C 245.210938 100.734375 245.417969 100.273438 245.71875 99.855469 C 246.015625 99.4375 246.382812 99.089844 246.816406 98.8125 C 247.253906 98.539062 247.722656 98.355469 248.230469 98.265625 C 248.738281 98.175781 249.242188 98.183594 249.746094 98.292969 C 250.246094 98.398438 250.710938 98.597656 251.136719 98.886719 C 268.085938 110.992188 280.53125 139.25 287.96875 160.710938 C 289.230469 125.519531 297.117188 68.203125 333.863281 51.242188 C 334.335938 51.023438 334.835938 50.90625 335.355469 50.882812 C 335.878906 50.863281 336.382812 50.945312 336.875 51.125 C 337.363281 51.304688 337.800781 51.574219 338.183594 51.929688 C 338.566406 52.28125 338.867188 52.695312 339.085938 53.171875 C 339.304688 53.644531 339.425781 54.144531 339.445312 54.664062 C 339.464844 55.1875 339.386719 55.691406 339.207031 56.183594 C 339.027344 56.671875 338.757812 57.109375 338.40625 57.492188 C 338.050781 57.875 337.636719 58.179688 337.164062 58.398438 C 289.019531 80.617188 296.035156 187.402344 296.109375 188.476562 C 296.128906 188.746094 296.117188 189.011719 296.082031 189.28125 C 296.042969 189.550781 295.980469 189.808594 295.890625 190.066406 C 295.800781 190.320312 295.683594 190.5625 295.546875 190.792969 C 295.40625 191.023438 295.242188 191.238281 295.058594 191.4375 C 294.875 191.636719 294.671875 191.8125 294.449219 191.96875 C 294.230469 192.125 293.996094 192.257812 293.746094 192.363281 C 293.5 192.472656 293.242188 192.554688 292.980469 192.609375 C 292.714844 192.664062 292.445312 192.691406 292.175781 192.691406 Z M 292.175781 192.691406 "/></g></svg>