<svg xmlns="http://www.w3.org/2000/svg" xmlns:xlink="http://www.w3.org/1999/xlink" width="500" zoomAndPan="magnify" viewBox="0 0 375 374.999991" height="500" preserveAspectRatio="xMidYMid meet" version="1.2"><defs><clipPath id="ae2b8613d4"><path d="M 0 0.289062 L 375 0.289062 L 375 375 L 0 375 Z M 0 0.289062 "/></clipPath></defs><g id="53abb57933"><g clip-rule="nonzero" clip-path="url(#ae2b8613d4)"><path style=" stroke:none;fill-rule:nonzero;fill:currentColor;fill-opacity:1;" d="M 175.515625 287.445312 C 120.46875 280.824219 81.207031 230.769531 87.820312 175.632812 C 94.433594 120.503906 144.417969 81.183594 199.476562 87.8125 C 254.53125 94.433594 293.8125 144.492188 287.191406 199.628906 C 280.578125 254.75 230.582031 294.070312 175.515625 287.445312 Z M 345.949219 177.648438 L 337.894531 136.667969 L 362.316406 120.144531 C 355.949219 103.628906 347.289062 88.144531 336.667969 74.175781 L 309.832031 86.292969 L 279.265625 57.878906 L 289.316406 30.136719 C 274.777344 20.671875 258.753906 13.171875 241.605469 8.003906 L 226.972656 33.636719 L 185.574219 28.644531 L 177.429688 0.285156 C 159.542969 1.230469 142.214844 4.734375 125.824219 10.464844 L 129.050781 39.8125 L 92.628906 60.148438 L 69.417969 42.019531 C 55.796875 53.085938 43.714844 66.0625 33.609375 80.597656 L 53.445312 102.453125 L 35.90625 140.347656 L 6.472656 139.332031 C 4.242188 147.726562 2.5625 156.382812 1.496094 165.257812 C 0.4375 174.125 0.015625 182.933594 0.195312 191.621094 L 29.039062 197.621094 L 37.117188 238.59375 L 12.675781 255.109375 C 19.046875 271.636719 27.71875 287.101562 38.335938 301.089844 L 65.171875 288.96875 L 95.746094 317.382812 L 85.675781 345.117188 C 100.242188 354.574219 116.242188 362.097656 133.394531 367.253906 L 148.015625 341.625 L 189.421875 346.601562 L 197.566406 374.976562 C 215.457031 374.027344 232.796875 370.523438 249.167969 364.792969 L 245.964844 335.453125 L 282.371094 315.105469 L 305.582031 333.238281 C 319.195312 322.164062 331.28125 309.207031 341.378906 294.65625 L 321.5625 272.8125 L 339.082031 234.921875 L 368.53125 235.925781 C 370.753906 227.535156 372.433594 218.875 373.492188 210.011719 C 374.558594 201.132812 374.980469 192.328125 374.808594 183.648438 L 345.949219 177.648438 "/></g><path style=" stroke:none;fill-rule:nonzero;fill:currentColor;fill-opacity:1;" d="M 183.953125 217.148438 C 167.679688 215.199219 156.066406 200.394531 158.019531 184.085938 C 159.976562 167.773438 174.753906 156.140625 191.035156 158.097656 C 207.328125 160.058594 218.945312 174.863281 216.992188 191.171875 C 215.035156 207.484375 200.246094 219.109375 183.953125 217.148438 Z M 196.011719 116.660156 C 156.886719 111.960938 121.335938 139.914062 116.632812 179.105469 C 111.925781 218.296875 139.847656 253.882812 178.980469 258.59375 C 218.128906 263.304688 253.667969 235.351562 258.371094 196.15625 C 263.074219 156.960938 235.164062 121.371094 196.011719 116.660156 "/></g></svg>