<svg xmlns="http://www.w3.org/2000/svg" xmlns:xlink="http://www.w3.org/1999/xlink" width="500" zoomAndPan="magnify" viewBox="0 0 375 374.999991" height="500" preserveAspectRatio="xMidYMid meet" version="1.2"><defs><clipPath id="ed98a89bab"><path d="M 18.542969 39.152344 L 253 39.152344 L 253 336 L 18.542969 336 Z M 18.542969 39.152344 "/></clipPath><clipPath id="dfa4aa0a7d"><path d="M 200.84375 0.0390625 L 312.394531 0.0390625 L 312.394531 111.570312 L 200.84375 111.570312 Z M 200.84375 0.0390625 "/></clipPath></defs><g id="32039010be"><path style=" stroke:none;fill-rule:nonzero;fill:currentColor;fill-opacity:1;" d="M 329.617188 326.644531 C 382.71875 256.3125 320.53125 111.867188 320.53125 111.867188 C 320.53125 111.867188 277.296875 179.011719 229.875 197.773438 C 198.1875 210.296875 115.164062 268.820312 201.71875 350.996094 C 202.640625 351.875 203.617188 352.761719 204.632812 353.628906 C 246.507812 332.109375 327.289062 271.519531 319.164062 126.511719 C 319.164062 126.511719 348.03125 291.667969 210.195312 358.082031 C 236.273438 377.359375 282.191406 389.464844 329.617188 326.644531 "/><g clip-rule="nonzero" clip-path="url(#ed98a89bab)"><path style=" stroke:none;fill-rule:nonzero;fill:currentColor;fill-opacity:1;" d="M 183.519531 211.519531 C 163.066406 157.863281 120.0625 98.722656 33.515625 50.59375 C 33.515625 50.59375 147.824219 97.648438 192.382812 205.445312 C 199.230469 201.132812 205.667969 197.914062 210.773438 195.898438 C 225.441406 190.089844 239.695312 179.664062 252.40625 168.023438 C 207.007812 68.992188 18.734375 39.199219 18.734375 39.199219 C 18.734375 39.199219 61.472656 131.109375 49.460938 194.710938 C 41.941406 234.46875 47.171875 349.820312 168.28125 333.949219 C 121.445312 277.933594 152.65625 234.484375 183.519531 211.519531 "/></g><path style=" stroke:none;fill-rule:nonzero;fill:currentColor;fill-opacity:1;" d="M 308.878906 5.941406 C 307.632812 5.941406 306.375 6.261719 305.226562 6.941406 C 278.582031 22.679688 259.660156 50.914062 250.964844 65.886719 L 236.757812 48.027344 C 235.339844 46.238281 233.242188 45.308594 231.125 45.308594 C 229.554688 45.308594 227.972656 45.820312 226.648438 46.875 C 223.539062 49.347656 223.019531 53.875 225.496094 56.984375 L 246.484375 83.371094 C 247.855469 85.097656 249.9375 86.085938 252.113281 86.085938 C 252.382812 86.085938 252.652344 86.074219 252.921875 86.042969 C 255.382812 85.765625 257.53125 84.238281 258.601562 82.003906 C 258.808594 81.574219 279.625 38.777344 312.542969 19.332031 C 315.964844 17.3125 317.101562 12.902344 315.082031 9.480469 C 313.734375 7.207031 311.339844 5.941406 308.878906 5.941406 "/><g clip-rule="nonzero" clip-path="url(#dfa4aa0a7d)"><path style=" stroke:none;fill-rule:nonzero;fill:currentColor;fill-opacity:1;" d="M 308.03125 33.710938 L 307.15625 34.003906 C 304.882812 35.824219 302.683594 37.746094 300.570312 39.738281 L 300.945312 40.847656 C 302.566406 45.648438 303.386719 50.683594 303.386719 55.804688 C 303.386719 81.59375 282.402344 102.578125 256.613281 102.578125 C 230.820312 102.578125 209.839844 81.59375 209.839844 55.804688 C 209.839844 40.816406 217.105469 26.625 229.28125 17.84375 C 237.273438 12.078125 246.722656 9.03125 256.613281 9.03125 C 264.421875 9.03125 272.144531 10.992188 278.953125 14.703125 L 279.578125 15.042969 C 281.921875 12.886719 284.351562 10.789062 286.871094 8.769531 L 283.257812 6.804688 C 275.132812 2.375 265.917969 0.0351562 256.613281 0.0351562 C 246.335938 0.0351562 236.453125 2.800781 227.769531 8.066406 L 227.664062 7.917969 L 224.015625 10.550781 L 220.371094 13.179688 L 220.480469 13.332031 C 208.113281 23.878906 200.84375 39.441406 200.84375 55.804688 C 200.84375 86.554688 225.863281 111.570312 256.613281 111.570312 C 287.363281 111.570312 312.378906 86.554688 312.378906 55.804688 C 312.378906 49.703125 311.398438 43.703125 309.46875 37.972656 L 308.03125 33.710938 "/></g></g></svg>