<svg xmlns="http://www.w3.org/2000/svg" xmlns:xlink="http://www.w3.org/1999/xlink" width="500" zoomAndPan="magnify" viewBox="0 0 375 374.999991" height="500" preserveAspectRatio="xMidYMid meet" version="1.2"><g id="069dd6c81f"><path style=" stroke:none;fill-rule:nonzero;fill:currentColor;fill-opacity:1;" d="M 320.3125 0 C 320.3125 0 296.875 31.25 296.875 54.6875 C 296.875 67.625 307.375 78.125 320.3125 78.125 C 333.25 78.125 343.75 67.625 343.75 54.6875 C 343.75 31.25 320.3125 0 320.3125 0 Z M 54.6875 15.625 C 54.6875 15.625 31.25 46.875 31.25 70.3125 C 31.25 83.25 41.75 93.75 54.6875 93.75 C 67.625 93.75 78.125 83.25 78.125 70.3125 C 78.125 46.875 54.6875 15.625 54.6875 15.625 Z M 210.9375 15.625 C 210.9375 15.625 187.5 46.875 187.5 70.3125 C 187.5 83.25 198 93.75 210.9375 93.75 C 223.875 93.75 234.375 83.25 234.375 70.3125 C 234.375 46.875 210.9375 15.625 210.9375 15.625 Z M 132.8125 46.875 C 132.8125 46.875 109.375 78.125 109.375 101.5625 C 109.375 114.5 119.875 125 132.8125 125 C 145.75 125 156.25 114.5 156.25 101.5625 C 156.25 78.125 132.8125 46.875 132.8125 46.875 Z M 312.5 125 C 250 125 187.5 156.25 187.5 234.375 C 187.5 252.265625 190.148438 266.179688 194.914062 277.101562 C 191.691406 284.535156 188.90625 291.867188 186.371094 299.101562 C 180.550781 286.761719 173.453125 275.199219 165.222656 264.464844 C 162.21875 260.550781 159.082031 256.722656 155.824219 252.992188 C 156.074219 251.078125 156.25 249.167969 156.25 247.375 C 156.25 182.28125 104.15625 156.25 52.0625 156.25 L 0 156.25 L 0 195.3125 C 0 273.4375 52.0625 312.5 91.125 312.5 C 99 312.5 105.867188 311.15625 112.242188 309.265625 C 101.554688 293.609375 83.449219 270.410156 58.167969 249.910156 C 51.464844 244.472656 50.410156 234.640625 55.847656 227.9375 C 61.285156 221.234375 71.117188 220.164062 77.820312 225.617188 C 100.105469 243.683594 122.640625 265.1875 134.214844 276.367188 C 136.234375 278.753906 138.542969 281.042969 140.410156 283.476562 C 160.292969 309.40625 171.933594 337.960938 171.875 374.96875 C 171.875 375.039062 171.875 375.113281 171.875 375.183594 L 187.5 375 L 203.125 375.03125 C 203.125 374.957031 203.125 374.890625 203.125 374.816406 C 202.855469 351.574219 211.425781 312.769531 230.773438 274.046875 C 235.515625 264.558594 240.90625 255.066406 246.917969 245.726562 C 257.933594 230.015625 269.589844 214.191406 280.394531 203.339844 C 286.488281 197.230469 296.378906 197.183594 302.492188 203.277344 C 308.617188 209.371094 308.644531 219.261719 302.550781 225.371094 C 276.707031 251.324219 258.589844 279.945312 247.496094 311.523438 C 253.230469 312.179688 259.265625 312.5 265.625 312.5 C 312.5 312.5 375 265.625 375 171.875 L 375 125 Z M 312.5 125 "/></g></svg>