<svg xmlns="http://www.w3.org/2000/svg" xmlns:xlink="http://www.w3.org/1999/xlink" width="500" zoomAndPan="magnify" viewBox="0 0 375 374.999991" height="500" preserveAspectRatio="xMidYMid meet" version="1.0"><defs><clipPath id="256b302670"><path d="M 0 0 L 375 0 L 375 375 L 0 375 Z M 0 0 " clip-rule="nonzero"/></clipPath><clipPath id="feb5e68705"><rect x="0" width="375" y="0" height="375"/></clipPath></defs><g transform="matrix(1, 0, 0, 1, 0, 0)"><g clip-path="url(#feb5e68705)"><g clip-path="url(#256b302670)"><path fill="currentColor" d="M 187.53125 374.976562 C 290.914062 374.976562 375.03125 290.863281 375.03125 187.476562 C 375.03125 84.09375 290.914062 -0.03125 187.53125 -0.03125 C 84.144531 -0.03125 0.03125 84.085938 0.03125 187.46875 C 0.03125 290.855469 84.144531 374.96875 187.53125 374.96875 Z M 187.53125 17.828125 C 281.070312 17.828125 357.179688 93.9375 357.179688 187.476562 C 357.179688 281.019531 281.070312 357.125 187.53125 357.125 C 93.988281 357.125 17.878906 281.019531 17.878906 187.476562 C 17.878906 93.9375 93.988281 17.828125 187.53125 17.828125 Z M 187.53125 17.828125 " fill-opacity="1" fill-rule="nonzero"/></g><path fill="currentColor" d="M 320.105469 67.519531 L 307.476562 54.894531 L 54.953125 307.414062 L 67.582031 320.042969 Z M 320.105469 67.519531 " fill-opacity="1" fill-rule="nonzero"/></g></g><path fill="currentColor" d="M 290.960938 191.125 L 263.761719 191.125 C 262.511719 182.210938 260.085938 173.628906 256.4375 165.476562 L 275.679688 156.917969 C 278.492188 155.660156 280.304688 152.878906 280.304688 149.796875 L 280.304688 113.023438 C 280.226562 102.863281 264.792969 102.804688 264.722656 113.023438 C 264.722656 113.023438 264.722656 144.738281 264.722656 144.738281 L 248.867188 151.789062 C 243.652344 144 237.335938 137.289062 230.222656 131.921875 C 232.753906 114.445312 224.988281 95.910156 211.660156 86.261719 C 211.660156 86.261719 223.523438 72.730469 223.523438 72.730469 C 230.183594 65.128906 218.589844 54.785156 211.808594 62.460938 C 211.808594 62.460938 197.03125 79.316406 197.03125 79.316406 C 190.46875 77.632812 183.679688 77.644531 177.210938 79.308594 C 177.210938 79.308594 162.441406 62.460938 162.441406 62.460938 C 155.710938 54.886719 144.027344 64.996094 150.726562 72.730469 C 150.726562 72.730469 162.597656 86.273438 162.597656 86.273438 C 149.238281 95.957031 141.496094 114.449219 144.027344 131.921875 C 136.902344 137.308594 130.589844 144.011719 125.382812 151.789062 L 109.527344 144.738281 L 109.527344 113.023438 C 109.410156 102.839844 94.09375 102.75 93.945312 113.023438 C 93.945312 113.023438 93.945312 149.796875 93.945312 149.796875 C 93.945312 152.878906 95.757812 155.660156 98.570312 156.917969 L 117.8125 165.476562 C 114.171875 173.621094 111.746094 182.195312 110.492188 191.125 C 110.492188 191.125 83.289062 191.125 83.289062 191.125 C 73.125 191.261719 72.992188 206.535156 83.289062 206.703125 C 83.289062 206.703125 109.429688 206.703125 109.429688 206.703125 C 109.585938 217.566406 111.539062 228.316406 115.128906 238.320312 L 92.371094 245.15625 C 89.078125 246.148438 86.828125 249.183594 86.828125 252.621094 C 86.828125 252.621094 86.828125 285.703125 86.828125 285.703125 C 86.90625 295.828125 102.332031 295.949219 102.40625 285.703125 C 102.40625 285.703125 102.40625 258.417969 102.40625 258.417969 L 121.742188 252.609375 C 135.886719 277.914062 160.3125 293.492188 187.125 293.492188 C 213.949219 293.492188 238.386719 277.898438 252.507812 252.609375 L 271.84375 258.417969 L 271.84375 285.703125 C 271.941406 295.847656 287.277344 296.003906 287.421875 285.703125 C 287.421875 285.703125 287.421875 252.621094 287.421875 252.621094 C 287.421875 249.183594 285.171875 246.148438 281.878906 245.15625 L 259.121094 238.320312 C 262.714844 228.300781 264.664062 217.558594 264.820312 206.703125 L 290.960938 206.703125 C 301.082031 206.664062 301.203125 191.175781 290.960938 191.125 Z M 177.675781 95.390625 C 195.613281 87.785156 214.1875 103.503906 215.011719 122.792969 C 197.421875 115.015625 176.828125 115.015625 159.238281 122.792969 C 160.074219 110.398438 167.234375 99.582031 177.675781 95.390625 Z M 187.125 277.914062 C 134.777344 278.132812 109.335938 207.507812 135.140625 165.429688 C 157.4375 122.285156 216.789062 122.394531 239.109375 165.429688 C 264.894531 207.484375 239.507812 278.140625 187.125 277.914062 Z M 187.125 277.914062 " fill-opacity="1" fill-rule="nonzero"/></svg>