<svg xmlns="http://www.w3.org/2000/svg" xmlns:xlink="http://www.w3.org/1999/xlink" width="500" zoomAndPan="magnify" viewBox="0 0 375 374.999991" height="500" preserveAspectRatio="xMidYMid meet" version="1.2"><defs><clipPath id="024bd39fe0"><path d="M 53.671875 281 L 308 281 L 308 375 L 53.671875 375 Z M 53.671875 281 "/></clipPath><clipPath id="7332e73900"><path d="M 190 0 L 321.421875 0 L 321.421875 132 L 190 132 Z M 190 0 "/></clipPath></defs><g id="16dc8dbd1e"><g clip-rule="nonzero" clip-path="url(#024bd39fe0)"><path style=" stroke:none;fill-rule:nonzero;fill:currentColor;fill-opacity:1;" d="M 180.808594 281.179688 C 110.707031 281.179688 53.671875 320.203125 53.671875 368.167969 C 53.671875 368.605469 53.714844 369.042969 53.800781 369.472656 C 53.886719 369.902344 54.011719 370.324219 54.179688 370.730469 C 54.347656 371.132812 54.554688 371.519531 54.800781 371.886719 C 55.042969 372.25 55.320312 372.589844 55.632812 372.898438 C 55.941406 373.210938 56.28125 373.488281 56.644531 373.730469 C 57.011719 373.976562 57.398438 374.183594 57.800781 374.351562 C 58.207031 374.519531 58.625 374.644531 59.058594 374.730469 C 59.488281 374.816406 59.925781 374.859375 60.363281 374.859375 L 301.253906 374.859375 C 301.691406 374.859375 302.128906 374.816406 302.558594 374.730469 C 302.988281 374.644531 303.410156 374.519531 303.816406 374.351562 C 304.21875 374.183594 304.605469 373.976562 304.972656 373.730469 C 305.335938 373.488281 305.675781 373.210938 305.984375 372.898438 C 306.296875 372.589844 306.574219 372.25 306.816406 371.886719 C 307.0625 371.519531 307.269531 371.132812 307.4375 370.730469 C 307.605469 370.324219 307.730469 369.902344 307.816406 369.472656 C 307.902344 369.042969 307.945312 368.605469 307.945312 368.167969 C 307.945312 320.203125 250.910156 281.179688 180.808594 281.179688 Z M 180.808594 281.179688 "/></g><g clip-rule="nonzero" clip-path="url(#7332e73900)"><path style=" stroke:none;fill-rule:nonzero;fill:currentColor;fill-opacity:1;" d="M 314.675781 0.140625 C 311.734375 0.0234375 245.621094 0.132812 210.542969 35.226562 C 185.46875 60.296875 183.519531 93.371094 205.808594 115.660156 C 207.199219 117.039062 208.652344 118.347656 210.175781 119.582031 C 220.667969 96.003906 235.683594 76.378906 257.214844 66.441406 C 257.613281 66.257812 258.027344 66.113281 258.457031 66.011719 C 258.882812 65.90625 259.316406 65.847656 259.753906 65.832031 C 260.195312 65.8125 260.628906 65.839844 261.066406 65.90625 C 261.5 65.976562 261.921875 66.085938 262.335938 66.238281 C 262.746094 66.390625 263.140625 66.582031 263.515625 66.808594 C 263.890625 67.039062 264.238281 67.304688 264.5625 67.601562 C 264.882812 67.898438 265.175781 68.226562 265.433594 68.582031 C 265.691406 68.9375 265.914062 69.316406 266.097656 69.714844 C 266.28125 70.113281 266.421875 70.527344 266.527344 70.953125 C 266.628906 71.382812 266.6875 71.8125 266.707031 72.253906 C 266.722656 72.691406 266.699219 73.128906 266.628906 73.5625 C 266.5625 73.996094 266.449219 74.421875 266.296875 74.832031 C 266.148438 75.246094 265.957031 75.636719 265.726562 76.011719 C 265.496094 76.386719 265.234375 76.738281 264.933594 77.058594 C 264.636719 77.382812 264.308594 77.671875 263.953125 77.929688 C 263.597656 78.1875 263.222656 78.410156 262.824219 78.59375 C 244.0625 87.25 230.867188 105.027344 221.574219 126.664062 C 228.054688 129.640625 234.859375 131.132812 241.992188 131.140625 C 246.164062 130.996094 250.28125 130.449219 254.34375 129.492188 C 258.40625 128.535156 262.339844 127.1875 266.136719 125.453125 C 269.933594 123.71875 273.523438 121.628906 276.90625 119.183594 C 280.292969 116.742188 283.402344 113.988281 286.242188 110.925781 C 321.347656 75.832031 321.347656 9.597656 321.328125 6.792969 C 321.324219 6.355469 321.28125 5.925781 321.195312 5.496094 C 321.109375 5.070312 320.980469 4.65625 320.8125 4.253906 C 320.644531 3.851562 320.4375 3.46875 320.195312 3.105469 C 319.953125 2.742188 319.679688 2.40625 319.371094 2.097656 C 319.0625 1.789062 318.726562 1.515625 318.363281 1.273438 C 318 1.03125 317.617188 0.824219 317.214844 0.65625 C 316.8125 0.488281 316.398438 0.359375 315.972656 0.273438 C 315.542969 0.1875 315.113281 0.144531 314.675781 0.140625 Z M 314.675781 0.140625 "/></g><path style=" stroke:none;fill-rule:nonzero;fill:currentColor;fill-opacity:1;" d="M 95.539062 156.996094 C 95.195312 156.738281 94.878906 156.445312 94.589844 156.125 C 94.300781 155.800781 94.046875 155.457031 93.824219 155.085938 C 93.601562 154.714844 93.417969 154.324219 93.273438 153.917969 C 93.125 153.511719 93.019531 153.097656 92.953125 152.667969 C 92.890625 152.242188 92.863281 151.8125 92.882812 151.378906 C 92.902344 150.949219 92.960938 150.523438 93.058594 150.101562 C 93.160156 149.683594 93.300781 149.277344 93.480469 148.882812 C 93.65625 148.488281 93.871094 148.117188 94.125 147.765625 C 94.375 147.414062 94.65625 147.089844 94.972656 146.792969 C 95.285156 146.496094 95.625 146.230469 95.988281 146 C 96.355469 145.769531 96.738281 145.574219 97.140625 145.417969 C 97.542969 145.261719 97.957031 145.144531 98.382812 145.070312 C 98.808594 144.992188 99.238281 144.957031 99.667969 144.964844 C 100.101562 144.96875 100.527344 145.019531 100.949219 145.109375 C 101.375 145.195312 101.785156 145.324219 102.179688 145.496094 C 102.578125 145.664062 102.957031 145.867188 103.316406 146.109375 C 109.488281 151.035156 115.097656 156.535156 120.148438 162.605469 C 125.195312 168.675781 129.582031 175.195312 133.300781 182.160156 C 134.988281 180.964844 136.5625 179.636719 138.027344 178.175781 C 139.859375 176.476562 141.453125 174.578125 142.8125 172.484375 C 144.175781 170.390625 145.261719 168.164062 146.074219 165.800781 C 146.886719 163.441406 147.398438 161.015625 147.613281 158.527344 C 147.828125 156.039062 147.734375 153.5625 147.339844 151.097656 C 146.359375 146.304688 144.671875 141.777344 142.273438 137.511719 C 139.875 133.25 136.882812 129.453125 133.296875 126.128906 C 131.074219 124.035156 128.757812 122.050781 126.347656 120.183594 C 123.933594 118.3125 121.433594 116.5625 118.851562 114.9375 C 116.265625 113.3125 113.609375 111.816406 110.878906 110.449219 C 108.152344 109.082031 105.363281 107.851562 102.511719 106.753906 C 99.664062 105.660156 96.765625 104.707031 93.824219 103.894531 C 90.882812 103.082031 87.90625 102.414062 84.898438 101.890625 C 81.890625 101.367188 78.863281 100.992188 75.820312 100.765625 C 72.777344 100.539062 69.726562 100.457031 66.675781 100.527344 C 66.269531 100.550781 65.867188 100.609375 65.472656 100.707031 C 65.074219 100.800781 64.691406 100.933594 64.320312 101.097656 C 63.949219 101.265625 63.59375 101.464844 63.257812 101.695312 C 62.921875 101.925781 62.609375 102.1875 62.324219 102.472656 C 62.035156 102.761719 61.773438 103.074219 61.542969 103.410156 C 61.3125 103.746094 61.113281 104.097656 60.949219 104.472656 C 60.78125 104.84375 60.652344 105.226562 60.554688 105.621094 C 60.457031 106.019531 60.398438 106.421875 60.375 106.828125 C 60.308594 109.878906 60.386719 112.925781 60.613281 115.972656 C 60.839844 119.015625 61.21875 122.042969 61.738281 125.050781 C 62.261719 128.058594 62.929688 131.03125 63.742188 133.976562 C 64.554688 136.917969 65.507812 139.8125 66.605469 142.664062 C 67.699219 145.511719 68.929688 148.300781 70.296875 151.03125 C 71.664062 153.761719 73.160156 156.417969 74.789062 159 C 76.414062 161.585938 78.160156 164.082031 80.03125 166.496094 C 81.902344 168.910156 83.882812 171.226562 85.980469 173.445312 C 89.304688 177.035156 93.097656 180.027344 97.363281 182.425781 C 101.628906 184.824219 106.15625 186.507812 110.949219 187.488281 C 112.597656 187.753906 114.253906 187.886719 115.921875 187.886719 C 117.515625 187.855469 119.09375 187.691406 120.660156 187.402344 C 117.511719 181.558594 113.824219 176.078125 109.597656 170.960938 C 105.367188 165.84375 100.683594 161.191406 95.539062 156.996094 Z M 95.539062 156.996094 "/><path style=" stroke:none;fill-rule:nonzero;fill:currentColor;fill-opacity:1;" d="M 180.800781 294.5625 C 180.046875 294.5625 179.316406 294.4375 178.605469 294.1875 C 177.894531 293.941406 177.242188 293.582031 176.652344 293.117188 C 176.0625 292.648438 175.566406 292.097656 175.160156 291.460938 C 174.757812 290.828125 174.46875 290.144531 174.292969 289.410156 C 174.03125 288.292969 147.5625 177.714844 103.316406 146.105469 C 102.96875 145.847656 102.652344 145.558594 102.359375 145.234375 C 102.070312 144.914062 101.8125 144.566406 101.589844 144.195312 C 101.367188 143.824219 101.183594 143.4375 101.035156 143.027344 C 100.890625 142.621094 100.78125 142.203125 100.71875 141.777344 C 100.652344 141.347656 100.625 140.917969 100.644531 140.488281 C 100.660156 140.054688 100.71875 139.628906 100.820312 139.207031 C 100.917969 138.785156 101.058594 138.378906 101.238281 137.984375 C 101.417969 137.589844 101.632812 137.214844 101.882812 136.863281 C 102.136719 136.511719 102.417969 136.1875 102.734375 135.890625 C 103.046875 135.59375 103.390625 135.328125 103.753906 135.097656 C 104.121094 134.867188 104.503906 134.671875 104.910156 134.515625 C 105.3125 134.359375 105.726562 134.242188 106.152344 134.167969 C 106.578125 134.089844 107.007812 134.054688 107.441406 134.0625 C 107.875 134.070312 108.300781 134.121094 108.726562 134.210938 C 109.148438 134.300781 109.558594 134.429688 109.957031 134.601562 C 110.355469 134.769531 110.734375 134.976562 111.089844 135.21875 C 139.882812 155.785156 161.023438 203.78125 173.65625 240.238281 C 175.796875 180.460938 189.195312 83.101562 251.609375 54.289062 C 252.011719 54.105469 252.421875 53.964844 252.851562 53.859375 C 253.277344 53.757812 253.710938 53.699219 254.148438 53.683594 C 254.585938 53.664062 255.023438 53.691406 255.457031 53.757812 C 255.890625 53.828125 256.3125 53.9375 256.726562 54.089844 C 257.136719 54.242188 257.53125 54.433594 257.90625 54.664062 C 258.28125 54.894531 258.628906 55.15625 258.953125 55.457031 C 259.273438 55.753906 259.5625 56.078125 259.820312 56.433594 C 260.082031 56.789062 260.300781 57.167969 260.484375 57.566406 C 260.667969 57.964844 260.8125 58.378906 260.914062 58.804688 C 261.019531 59.230469 261.078125 59.664062 261.09375 60.105469 C 261.113281 60.542969 261.085938 60.980469 261.019531 61.414062 C 260.949219 61.847656 260.839844 62.269531 260.6875 62.679688 C 260.535156 63.09375 260.347656 63.488281 260.117188 63.863281 C 259.886719 64.234375 259.625 64.585938 259.328125 64.90625 C 259.027344 65.230469 258.703125 65.519531 258.347656 65.78125 C 257.992188 66.039062 257.617188 66.257812 257.21875 66.445312 C 175.4375 104.1875 187.359375 285.574219 187.480469 287.398438 C 187.511719 287.855469 187.496094 288.3125 187.433594 288.765625 C 187.371094 289.222656 187.265625 289.664062 187.109375 290.097656 C 186.957031 290.53125 186.761719 290.945312 186.523438 291.335938 C 186.285156 291.730469 186.011719 292.09375 185.695312 292.429688 C 185.382812 292.765625 185.039062 293.066406 184.664062 293.332031 C 184.289062 293.597656 183.890625 293.820312 183.472656 294.003906 C 183.050781 294.1875 182.613281 294.328125 182.164062 294.421875 C 181.714844 294.515625 181.261719 294.5625 180.800781 294.5625 Z M 180.800781 294.5625 "/></g></svg>