<svg xmlns="http://www.w3.org/2000/svg" xmlns:xlink="http://www.w3.org/1999/xlink" width="500" zoomAndPan="magnify" viewBox="0 0 375 374.999991" height="500" preserveAspectRatio="xMidYMid meet" version="1.0"><defs><clipPath id="63cb91e345"><path d="M 37.5 309 L 216 309 L 216 374.804688 L 37.5 374.804688 Z M 37.5 309 " clip-rule="nonzero"/></clipPath><clipPath id="cd1e84496d"><path d="M 133 112.304688 L 225 112.304688 L 225 205 L 133 205 Z M 133 112.304688 " clip-rule="nonzero"/></clipPath><clipPath id="454ce84bfb"><path d="M 150 0 L 337.5 0 L 337.5 262.5 L 150 262.5 Z M 150 0 " clip-rule="nonzero"/></clipPath><clipPath id="967433ca61"><path d="M 9 196 L 187.5 196 L 187.5 262.5 L 9 262.5 Z M 9 196 " clip-rule="nonzero"/></clipPath><clipPath id="a60e74862a"><rect x="0" width="188" y="0" height="263"/></clipPath></defs><g clip-path="url(#63cb91e345)"><path fill="currentColor" d="M 126.5625 309.273438 C 77.453125 309.273438 37.5 336.609375 37.5 370.210938 C 37.5 370.515625 37.53125 370.820312 37.589844 371.125 C 37.648438 371.425781 37.738281 371.71875 37.855469 372.003906 C 37.972656 372.289062 38.117188 372.558594 38.289062 372.8125 C 38.460938 373.070312 38.65625 373.304688 38.871094 373.523438 C 39.089844 373.742188 39.328125 373.9375 39.582031 374.105469 C 39.839844 374.277344 40.109375 374.421875 40.394531 374.539062 C 40.679688 374.65625 40.972656 374.746094 41.273438 374.804688 C 41.574219 374.867188 41.878906 374.898438 42.1875 374.898438 L 210.9375 374.898438 C 211.246094 374.898438 211.550781 374.867188 211.851562 374.804688 C 212.152344 374.746094 212.445312 374.65625 212.730469 374.539062 C 213.015625 374.421875 213.285156 374.277344 213.542969 374.105469 C 213.796875 373.9375 214.035156 373.742188 214.253906 373.523438 C 214.46875 373.304688 214.664062 373.070312 214.835938 372.8125 C 215.007812 372.558594 215.148438 372.289062 215.269531 372.003906 C 215.386719 371.71875 215.476562 371.425781 215.535156 371.125 C 215.59375 370.820312 215.625 370.515625 215.625 370.210938 C 215.625 336.609375 175.671875 309.273438 126.5625 309.273438 Z M 126.5625 309.273438 " fill-opacity="1" fill-rule="nonzero"/></g><g clip-path="url(#cd1e84496d)"><path fill="currentColor" d="M 220.339844 112.398438 C 218.28125 112.3125 171.964844 112.390625 147.390625 136.972656 C 129.828125 154.539062 128.460938 177.707031 144.078125 193.320312 C 145.050781 194.289062 146.070312 195.203125 147.132812 196.066406 C 154.484375 179.550781 165.003906 165.804688 180.085938 158.839844 C 180.367188 158.710938 180.65625 158.613281 180.957031 158.539062 C 181.253906 158.46875 181.558594 158.425781 181.867188 158.414062 C 182.175781 158.402344 182.480469 158.417969 182.785156 158.46875 C 183.085938 158.515625 183.382812 158.59375 183.671875 158.699219 C 183.960938 158.804688 184.238281 158.941406 184.5 159.101562 C 184.761719 159.261719 185.007812 159.445312 185.234375 159.65625 C 185.460938 159.863281 185.664062 160.09375 185.84375 160.34375 C 186.023438 160.589844 186.179688 160.855469 186.308594 161.136719 C 186.4375 161.414062 186.539062 161.703125 186.609375 162.003906 C 186.683594 162.300781 186.722656 162.605469 186.734375 162.914062 C 186.75 163.222656 186.730469 163.527344 186.683594 163.832031 C 186.632812 164.136719 186.558594 164.429688 186.449219 164.71875 C 186.34375 165.007812 186.210938 165.285156 186.050781 165.546875 C 185.890625 165.808594 185.703125 166.054688 185.496094 166.28125 C 185.285156 166.507812 185.058594 166.710938 184.808594 166.890625 C 184.558594 167.070312 184.292969 167.226562 184.015625 167.355469 C 170.875 173.417969 161.628906 185.871094 155.121094 201.03125 C 159.660156 203.113281 164.425781 204.160156 169.421875 204.164062 C 172.34375 204.066406 175.230469 203.679688 178.078125 203.007812 C 180.921875 202.339844 183.675781 201.398438 186.335938 200.183594 C 188.996094 198.96875 191.511719 197.503906 193.882812 195.789062 C 196.253906 194.078125 198.433594 192.148438 200.421875 190.003906 C 225.011719 165.417969 225.011719 119.019531 225 117.054688 C 225 116.75 224.96875 116.449219 224.90625 116.148438 C 224.84375 115.851562 224.757812 115.558594 224.640625 115.277344 C 224.519531 114.996094 224.378906 114.726562 224.207031 114.472656 C 224.035156 114.21875 223.84375 113.984375 223.628906 113.769531 C 223.410156 113.550781 223.175781 113.359375 222.921875 113.191406 C 222.667969 113.019531 222.402344 112.875 222.121094 112.757812 C 221.835938 112.640625 221.546875 112.550781 221.246094 112.492188 C 220.949219 112.429688 220.644531 112.398438 220.339844 112.398438 Z M 220.339844 112.398438 " fill-opacity="1" fill-rule="nonzero"/></g><path fill="currentColor" d="M 66.828125 222.277344 C 66.585938 222.097656 66.367188 221.890625 66.164062 221.667969 C 65.960938 221.441406 65.78125 221.199219 65.628906 220.9375 C 65.472656 220.679688 65.34375 220.40625 65.242188 220.121094 C 65.136719 219.835938 65.0625 219.546875 65.019531 219.246094 C 64.972656 218.949219 64.957031 218.648438 64.96875 218.34375 C 64.980469 218.042969 65.023438 217.742188 65.09375 217.449219 C 65.164062 217.15625 65.261719 216.871094 65.386719 216.59375 C 65.511719 216.320312 65.660156 216.058594 65.835938 215.8125 C 66.011719 215.566406 66.210938 215.339844 66.429688 215.128906 C 66.652344 214.921875 66.890625 214.738281 67.144531 214.574219 C 67.402344 214.414062 67.667969 214.277344 67.953125 214.167969 C 68.234375 214.058594 68.523438 213.976562 68.820312 213.921875 C 69.117188 213.871094 69.417969 213.84375 69.722656 213.847656 C 70.023438 213.855469 70.324219 213.886719 70.621094 213.949219 C 70.914062 214.011719 71.203125 214.101562 71.480469 214.222656 C 71.761719 214.339844 72.023438 214.484375 72.277344 214.652344 C 76.601562 218.101562 80.53125 221.953125 84.066406 226.207031 C 87.605469 230.460938 90.675781 235.027344 93.28125 239.90625 C 94.464844 239.066406 95.566406 238.136719 96.59375 237.113281 C 97.875 235.921875 98.992188 234.59375 99.945312 233.128906 C 100.898438 231.660156 101.660156 230.101562 102.230469 228.445312 C 102.796875 226.792969 103.15625 225.09375 103.308594 223.351562 C 103.457031 221.609375 103.394531 219.875 103.117188 218.148438 C 102.429688 214.789062 101.25 211.617188 99.570312 208.628906 C 97.890625 205.644531 95.792969 202.984375 93.277344 200.65625 C 90.160156 197.710938 86.789062 195.097656 83.160156 192.816406 C 79.53125 190.53125 75.714844 188.621094 71.714844 187.082031 C 67.710938 185.546875 63.597656 184.410156 59.375 183.675781 C 55.152344 182.941406 50.894531 182.621094 46.609375 182.71875 C 46.035156 182.753906 45.484375 182.886719 44.960938 183.121094 C 44.433594 183.355469 43.96875 183.675781 43.558594 184.082031 C 43.152344 184.492188 42.832031 184.957031 42.597656 185.484375 C 42.363281 186.007812 42.230469 186.558594 42.195312 187.132812 C 42.097656 191.417969 42.417969 195.675781 43.152344 199.898438 C 43.886719 204.121094 45.023438 208.234375 46.558594 212.238281 C 48.097656 216.238281 50.007812 220.054688 52.292969 223.683594 C 54.574219 227.3125 57.1875 230.683594 60.132812 233.800781 C 62.460938 236.316406 65.121094 238.410156 68.105469 240.089844 C 71.09375 241.769531 74.265625 242.953125 77.625 243.636719 C 78.777344 243.824219 79.941406 243.917969 81.109375 243.917969 C 82.222656 243.894531 83.328125 243.78125 84.425781 243.578125 C 79.972656 235.3125 74.105469 228.210938 66.828125 222.277344 Z M 66.828125 222.277344 " fill-opacity="1" fill-rule="nonzero"/><path fill="currentColor" d="M 126.558594 318.648438 C 126.03125 318.644531 125.515625 318.558594 125.019531 318.386719 C 124.519531 318.210938 124.066406 317.960938 123.652344 317.632812 C 123.238281 317.304688 122.890625 316.917969 122.605469 316.476562 C 122.324219 316.03125 122.121094 315.550781 122 315.039062 C 121.816406 314.253906 103.273438 236.792969 72.277344 214.648438 C 72.035156 214.46875 71.8125 214.265625 71.609375 214.039062 C 71.40625 213.8125 71.226562 213.570312 71.070312 213.3125 C 70.914062 213.050781 70.785156 212.777344 70.679688 212.492188 C 70.578125 212.207031 70.503906 211.917969 70.457031 211.617188 C 70.410156 211.316406 70.394531 211.015625 70.40625 210.710938 C 70.417969 210.410156 70.457031 210.109375 70.527344 209.816406 C 70.597656 209.519531 70.695312 209.234375 70.820312 208.960938 C 70.945312 208.683594 71.097656 208.421875 71.273438 208.175781 C 71.449219 207.929688 71.648438 207.699219 71.871094 207.492188 C 72.089844 207.285156 72.328125 207.097656 72.585938 206.9375 C 72.839844 206.777344 73.109375 206.640625 73.394531 206.53125 C 73.675781 206.421875 73.964844 206.339844 74.265625 206.285156 C 74.5625 206.230469 74.863281 206.207031 75.167969 206.214844 C 75.46875 206.21875 75.769531 206.253906 76.066406 206.316406 C 76.363281 206.378906 76.652344 206.46875 76.929688 206.589844 C 77.207031 206.707031 77.472656 206.851562 77.722656 207.023438 C 97.894531 221.429688 112.703125 255.050781 121.550781 280.589844 C 123.050781 238.714844 132.4375 170.511719 176.160156 150.328125 C 176.441406 150.199219 176.730469 150.101562 177.03125 150.027344 C 177.328125 149.957031 177.632812 149.914062 177.9375 149.902344 C 178.246094 149.890625 178.550781 149.910156 178.855469 149.957031 C 179.160156 150.007812 179.457031 150.082031 179.746094 150.191406 C 180.035156 150.296875 180.308594 150.429688 180.570312 150.589844 C 180.832031 150.753906 181.078125 150.9375 181.304688 151.144531 C 181.527344 151.355469 181.734375 151.582031 181.914062 151.832031 C 182.09375 152.082031 182.25 152.34375 182.378906 152.625 C 182.507812 152.902344 182.605469 153.195312 182.679688 153.492188 C 182.75 153.792969 182.792969 154.09375 182.804688 154.402344 C 182.816406 154.710938 182.800781 155.015625 182.75 155.320312 C 182.703125 155.625 182.625 155.917969 182.519531 156.207031 C 182.414062 156.496094 182.28125 156.773438 182.121094 157.035156 C 181.960938 157.296875 181.773438 157.542969 181.566406 157.769531 C 181.359375 157.992188 181.128906 158.199219 180.878906 158.378906 C 180.632812 158.558594 180.367188 158.714844 180.089844 158.84375 C 122.800781 185.285156 131.152344 312.351562 131.238281 313.628906 C 131.257812 313.949219 131.246094 314.269531 131.203125 314.585938 C 131.160156 314.90625 131.085938 315.214844 130.976562 315.519531 C 130.871094 315.824219 130.734375 316.113281 130.566406 316.386719 C 130.398438 316.664062 130.207031 316.917969 129.988281 317.152344 C 129.765625 317.386719 129.527344 317.597656 129.265625 317.785156 C 129 317.96875 128.722656 318.128906 128.425781 318.253906 C 128.132812 318.382812 127.828125 318.480469 127.511719 318.546875 C 127.199219 318.613281 126.878906 318.644531 126.558594 318.648438 Z M 126.558594 318.648438 " fill-opacity="1" fill-rule="nonzero"/><g clip-path="url(#454ce84bfb)"><g transform="matrix(1, 0, 0, 1, 150, 0)"><g clip-path="url(#a60e74862a)"><g clip-path="url(#967433ca61)"><path fill="currentColor" d="M 98.4375 196.96875 C 147.546875 196.96875 187.5 224.304688 187.5 257.90625 C 187.5 258.214844 187.46875 258.519531 187.410156 258.820312 C 187.351562 259.121094 187.261719 259.414062 187.144531 259.699219 C 187.027344 259.984375 186.882812 260.253906 186.710938 260.511719 C 186.539062 260.765625 186.34375 261.003906 186.128906 261.222656 C 185.910156 261.4375 185.671875 261.632812 185.417969 261.804688 C 185.160156 261.976562 184.890625 262.117188 184.605469 262.238281 C 184.320312 262.355469 184.027344 262.445312 183.726562 262.503906 C 183.425781 262.5625 183.121094 262.59375 182.8125 262.59375 L 14.0625 262.59375 C 13.753906 262.59375 13.449219 262.5625 13.148438 262.503906 C 12.847656 262.445312 12.554688 262.355469 12.269531 262.238281 C 11.984375 262.117188 11.714844 261.976562 11.457031 261.804688 C 11.203125 261.632812 10.964844 261.4375 10.746094 261.222656 C 10.53125 261.003906 10.335938 260.765625 10.164062 260.511719 C 9.992188 260.253906 9.851562 259.984375 9.730469 259.699219 C 9.613281 259.414062 9.523438 259.121094 9.464844 258.820312 C 9.40625 258.519531 9.375 258.214844 9.375 257.90625 C 9.375 224.304688 49.328125 196.96875 98.4375 196.96875 Z M 98.4375 196.96875 " fill-opacity="1" fill-rule="nonzero"/></g><path fill="currentColor" d="M 4.660156 0.09375 C 6.71875 0.0117188 53.035156 0.0898438 77.609375 24.671875 C 95.171875 42.234375 96.539062 65.402344 80.921875 81.015625 C 79.949219 81.984375 78.929688 82.898438 77.867188 83.765625 C 70.515625 67.246094 59.996094 53.5 44.914062 46.539062 C 44.632812 46.410156 44.34375 46.308594 44.042969 46.238281 C 43.746094 46.164062 43.441406 46.125 43.132812 46.109375 C 42.824219 46.097656 42.519531 46.117188 42.214844 46.164062 C 41.914062 46.214844 41.617188 46.289062 41.328125 46.398438 C 41.039062 46.503906 40.761719 46.636719 40.5 46.796875 C 40.238281 46.957031 39.992188 47.144531 39.765625 47.351562 C 39.539062 47.5625 39.335938 47.789062 39.15625 48.039062 C 38.976562 48.289062 38.820312 48.550781 38.691406 48.832031 C 38.5625 49.113281 38.460938 49.402344 38.390625 49.699219 C 38.316406 50 38.277344 50.304688 38.265625 50.609375 C 38.25 50.917969 38.269531 51.222656 38.316406 51.527344 C 38.367188 51.832031 38.441406 52.128906 38.550781 52.417969 C 38.65625 52.707031 38.789062 52.980469 38.949219 53.246094 C 39.109375 53.507812 39.296875 53.75 39.503906 53.976562 C 39.714844 54.203125 39.941406 54.40625 40.191406 54.589844 C 40.441406 54.769531 40.707031 54.925781 40.984375 55.054688 C 54.125 61.117188 63.371094 73.570312 69.878906 88.726562 C 65.339844 90.8125 60.574219 91.855469 55.578125 91.863281 C 52.65625 91.761719 49.769531 91.375 46.921875 90.707031 C 44.078125 90.035156 41.324219 89.09375 38.664062 87.878906 C 36.003906 86.664062 33.488281 85.199219 31.117188 83.488281 C 28.746094 81.773438 26.566406 79.847656 24.578125 77.703125 C -0.0117188 53.117188 -0.0117188 6.71875 0 4.753906 C 0 4.449219 0.03125 4.144531 0.09375 3.847656 C 0.15625 3.546875 0.242188 3.257812 0.359375 2.972656 C 0.480469 2.691406 0.621094 2.425781 0.792969 2.171875 C 0.964844 1.917969 1.15625 1.683594 1.371094 1.464844 C 1.589844 1.25 1.824219 1.058594 2.078125 0.886719 C 2.332031 0.714844 2.597656 0.574219 2.878906 0.453125 C 3.164062 0.335938 3.453125 0.25 3.753906 0.1875 C 4.050781 0.125 4.355469 0.09375 4.660156 0.09375 Z M 4.660156 0.09375 " fill-opacity="1" fill-rule="nonzero"/><path fill="currentColor" d="M 158.171875 109.976562 C 158.414062 109.792969 158.632812 109.589844 158.835938 109.363281 C 159.039062 109.140625 159.21875 108.894531 159.371094 108.636719 C 159.527344 108.375 159.65625 108.105469 159.757812 107.820312 C 159.863281 107.535156 159.9375 107.242188 159.980469 106.945312 C 160.027344 106.644531 160.042969 106.34375 160.03125 106.042969 C 160.019531 105.738281 159.976562 105.441406 159.90625 105.144531 C 159.835938 104.851562 159.738281 104.566406 159.613281 104.292969 C 159.488281 104.015625 159.339844 103.753906 159.164062 103.507812 C 158.988281 103.261719 158.789062 103.035156 158.570312 102.828125 C 158.347656 102.621094 158.109375 102.433594 157.855469 102.273438 C 157.597656 102.109375 157.332031 101.976562 157.046875 101.863281 C 156.765625 101.753906 156.476562 101.671875 156.179688 101.621094 C 155.882812 101.566406 155.582031 101.542969 155.277344 101.546875 C 154.976562 101.550781 154.675781 101.585938 154.378906 101.648438 C 154.085938 101.710938 153.796875 101.800781 153.519531 101.917969 C 153.238281 102.035156 152.976562 102.179688 152.722656 102.347656 C 148.398438 105.800781 144.46875 109.652344 140.933594 113.902344 C 137.394531 118.15625 134.324219 122.722656 131.71875 127.601562 C 130.535156 126.765625 129.433594 125.835938 128.40625 124.8125 C 127.125 123.621094 126.007812 122.292969 125.054688 120.824219 C 124.101562 119.359375 123.339844 117.796875 122.769531 116.144531 C 122.203125 114.488281 121.84375 112.792969 121.691406 111.046875 C 121.542969 109.304688 121.605469 107.570312 121.882812 105.84375 C 122.570312 102.484375 123.75 99.3125 125.429688 96.328125 C 127.109375 93.339844 129.207031 90.679688 131.722656 88.351562 C 134.839844 85.410156 138.210938 82.796875 141.839844 80.511719 C 145.46875 78.230469 149.285156 76.316406 153.285156 74.78125 C 157.289062 73.242188 161.402344 72.105469 165.625 71.371094 C 169.847656 70.636719 174.105469 70.320312 178.390625 70.417969 C 178.964844 70.449219 179.515625 70.582031 180.039062 70.816406 C 180.566406 71.054688 181.03125 71.375 181.441406 71.78125 C 181.847656 72.1875 182.167969 72.652344 182.402344 73.179688 C 182.636719 73.707031 182.769531 74.253906 182.804688 74.832031 C 182.902344 79.117188 182.582031 83.371094 181.847656 87.59375 C 181.113281 91.820312 179.976562 95.933594 178.441406 99.933594 C 176.902344 103.9375 174.992188 107.75 172.707031 111.378906 C 170.425781 115.007812 167.8125 118.382812 164.867188 121.5 C 162.539062 124.011719 159.878906 126.109375 156.894531 127.789062 C 153.90625 129.46875 150.734375 130.648438 147.375 131.335938 C 146.222656 131.519531 145.058594 131.613281 143.890625 131.617188 C 142.777344 131.59375 141.671875 131.480469 140.574219 131.273438 C 145.027344 123.007812 150.894531 115.910156 158.171875 109.976562 Z M 158.171875 109.976562 " fill-opacity="1" fill-rule="nonzero"/><path fill="currentColor" d="M 98.441406 206.34375 C 98.96875 206.34375 99.484375 206.257812 99.980469 206.082031 C 100.480469 205.910156 100.933594 205.65625 101.347656 205.332031 C 101.761719 205.003906 102.109375 204.617188 102.394531 204.171875 C 102.675781 203.726562 102.878906 203.246094 103 202.734375 C 103.183594 201.953125 121.726562 124.488281 152.722656 102.347656 C 152.964844 102.164062 153.1875 101.960938 153.390625 101.734375 C 153.59375 101.511719 153.773438 101.269531 153.929688 101.007812 C 154.085938 100.75 154.214844 100.476562 154.320312 100.191406 C 154.421875 99.90625 154.496094 99.613281 154.542969 99.3125 C 154.589844 99.015625 154.605469 98.710938 154.59375 98.410156 C 154.582031 98.105469 154.542969 97.808594 154.472656 97.511719 C 154.402344 97.21875 154.304688 96.933594 154.179688 96.65625 C 154.054688 96.378906 153.902344 96.117188 153.726562 95.871094 C 153.550781 95.625 153.351562 95.398438 153.128906 95.191406 C 152.910156 94.980469 152.671875 94.796875 152.414062 94.632812 C 152.160156 94.472656 151.890625 94.335938 151.605469 94.226562 C 151.324219 94.117188 151.035156 94.035156 150.734375 93.984375 C 150.4375 93.929688 150.136719 93.90625 149.832031 93.910156 C 149.53125 93.914062 149.230469 93.949219 148.933594 94.011719 C 148.636719 94.074219 148.347656 94.167969 148.070312 94.285156 C 147.792969 94.40625 147.527344 94.550781 147.277344 94.71875 C 127.105469 109.125 112.296875 142.75 103.449219 168.289062 C 101.949219 126.410156 92.5625 58.210938 48.839844 38.027344 C 48.558594 37.898438 48.269531 37.796875 47.96875 37.726562 C 47.671875 37.65625 47.367188 37.613281 47.0625 37.601562 C 46.753906 37.589844 46.449219 37.605469 46.144531 37.65625 C 45.839844 37.703125 45.542969 37.78125 45.253906 37.886719 C 44.964844 37.992188 44.691406 38.128906 44.429688 38.289062 C 44.167969 38.449219 43.921875 38.632812 43.695312 38.84375 C 43.472656 39.050781 43.265625 39.28125 43.085938 39.53125 C 42.90625 39.777344 42.75 40.042969 42.621094 40.320312 C 42.492188 40.601562 42.394531 40.890625 42.320312 41.191406 C 42.25 41.488281 42.207031 41.792969 42.195312 42.097656 C 42.183594 42.40625 42.199219 42.710938 42.25 43.015625 C 42.296875 43.320312 42.375 43.617188 42.480469 43.90625 C 42.585938 44.195312 42.71875 44.46875 42.878906 44.730469 C 43.039062 44.996094 43.226562 45.238281 43.433594 45.464844 C 43.640625 45.691406 43.871094 45.894531 44.121094 46.074219 C 44.367188 46.257812 44.632812 46.410156 44.910156 46.539062 C 102.199219 72.980469 93.847656 200.046875 93.761719 201.324219 C 93.742188 201.644531 93.753906 201.964844 93.796875 202.285156 C 93.839844 202.601562 93.914062 202.914062 94.023438 203.21875 C 94.128906 203.519531 94.265625 203.808594 94.433594 204.085938 C 94.601562 204.359375 94.792969 204.613281 95.011719 204.851562 C 95.234375 205.085938 95.472656 205.296875 95.734375 205.480469 C 96 205.667969 96.277344 205.824219 96.574219 205.953125 C 96.867188 206.082031 97.171875 206.179688 97.488281 206.246094 C 97.800781 206.308594 98.121094 206.34375 98.441406 206.34375 Z M 98.441406 206.34375 " fill-opacity="1" fill-rule="nonzero"/></g></g></g></svg>