<svg xmlns="http://www.w3.org/2000/svg" xmlns:xlink="http://www.w3.org/1999/xlink" width="500" zoomAndPan="magnify" viewBox="0 0 375 374.999991" height="500" preserveAspectRatio="xMidYMid meet" version="1.2"><defs><clipPath id="965ad0e1c1"><path d="M 25.078125 0 L 349.828125 0 L 349.828125 375 L 25.078125 375 Z M 25.078125 0 "/></clipPath></defs><g id="390363d1da"><g clip-rule="nonzero" clip-path="url(#965ad0e1c1)"><path style=" stroke:none;fill-rule:evenodd;fill:currentColor;fill-opacity:1;" d="M 326.410156 125.019531 L 48.683594 125.019531 C 48.683594 125.019531 64.546875 267.757812 71.503906 330.359375 C 74.316406 355.652344 95.710938 374.800781 121.167969 374.800781 C 158.0625 374.800781 217.03125 374.800781 253.925781 374.800781 C 279.382812 374.800781 300.777344 355.652344 303.589844 330.359375 C 310.546875 267.757812 326.410156 125.019531 326.410156 125.019531 Z M 115.609375 188.632812 L 125.152344 288.554688 C 125.8125 295.425781 131.910156 300.457031 138.777344 299.796875 C 145.636719 299.148438 150.667969 293.039062 150.019531 286.183594 L 140.476562 186.257812 C 139.816406 179.390625 133.71875 174.355469 126.851562 175.019531 C 119.992188 175.667969 114.945312 181.773438 115.609375 188.632812 Z M 234.53125 186.257812 L 224.988281 286.183594 C 224.324219 293.039062 229.359375 299.148438 236.226562 299.796875 C 243.085938 300.457031 249.191406 295.425781 249.84375 288.554688 L 259.398438 188.632812 C 260.046875 181.773438 255.011719 175.667969 248.144531 175.019531 C 241.285156 174.355469 235.179688 179.390625 234.53125 186.257812 Z M 175.050781 187.445312 L 175.050781 287.367188 C 175.050781 294.261719 180.660156 299.859375 187.539062 299.859375 C 194.433594 299.859375 200.03125 294.261719 200.03125 287.367188 L 200.03125 187.445312 C 200.03125 180.550781 194.433594 174.957031 187.539062 174.957031 C 180.660156 174.957031 175.050781 180.550781 175.050781 187.445312 Z M 125 37.5625 L 50.058594 37.5625 C 36.257812 37.5625 25.078125 48.738281 25.078125 62.542969 L 25.078125 75.03125 C 25.078125 88.835938 36.257812 100.011719 50.058594 100.011719 L 324.921875 100.011719 C 338.710938 100.011719 349.890625 88.835938 349.902344 75.03125 L 349.902344 62.542969 C 349.890625 48.738281 338.710938 37.5625 324.921875 37.5625 L 249.90625 37.5625 L 249.90625 25.097656 C 249.90625 18.464844 247.269531 12.117188 242.585938 7.433594 C 237.902344 2.738281 231.542969 0.113281 224.925781 0.113281 L 149.980469 0.113281 C 143.363281 0.113281 137.003906 2.738281 132.320312 7.433594 C 127.636719 12.117188 125 18.464844 125 25.097656 Z M 149.980469 37.5625 L 224.925781 37.5625 L 224.925781 25.097656 C 224.925781 25.097656 149.980469 25.097656 149.980469 25.097656 Z M 149.980469 37.5625 "/></g></g></svg>