<svg xmlns="http://www.w3.org/2000/svg" xmlns:xlink="http://www.w3.org/1999/xlink" width="500" zoomAndPan="magnify" viewBox="0 0 375 374.999991" height="500" preserveAspectRatio="xMidYMid meet" version="1.0"><defs><clipPath id="6451ab2f22"><path d="M 129 0 L 374.996094 0 L 374.996094 375 L 129 375 Z M 129 0 " clip-rule="nonzero"/></clipPath></defs><path fill="currentColor" d="M 6.117188 173.800781 L 79.179688 100.738281 C 79.628906 100.292969 80.097656 99.867188 80.589844 99.464844 C 81.078125 99.0625 81.589844 98.683594 82.117188 98.332031 C 82.644531 97.976562 83.1875 97.652344 83.746094 97.351562 C 84.304688 97.054688 84.878906 96.78125 85.464844 96.539062 C 86.050781 96.296875 86.648438 96.082031 87.253906 95.898438 C 87.863281 95.714844 88.476562 95.5625 89.101562 95.4375 C 89.722656 95.3125 90.347656 95.222656 90.980469 95.160156 C 91.613281 95.097656 92.246094 95.066406 92.878906 95.066406 C 93.515625 95.066406 94.148438 95.097656 94.777344 95.160156 C 95.410156 95.222656 96.035156 95.3125 96.660156 95.4375 C 97.28125 95.5625 97.894531 95.714844 98.503906 95.898438 C 99.109375 96.082031 99.707031 96.296875 100.292969 96.539062 C 100.878906 96.78125 101.453125 97.054688 102.011719 97.351562 C 102.570312 97.652344 103.117188 97.976562 103.644531 98.332031 C 104.171875 98.683594 104.679688 99.0625 105.171875 99.464844 C 105.660156 99.867188 106.128906 100.292969 106.578125 100.738281 C 107.027344 101.1875 107.453125 101.660156 107.855469 102.148438 C 108.257812 102.640625 108.636719 103.148438 108.988281 103.675781 C 109.339844 104.203125 109.667969 104.746094 109.964844 105.304688 C 110.265625 105.867188 110.535156 106.4375 110.777344 107.023438 C 111.019531 107.613281 111.234375 108.207031 111.417969 108.816406 C 111.601562 109.421875 111.757812 110.039062 111.882812 110.660156 C 112.003906 111.28125 112.097656 111.910156 112.160156 112.539062 C 112.222656 113.171875 112.253906 113.804688 112.253906 114.4375 C 112.253906 115.074219 112.222656 115.707031 112.160156 116.339844 C 112.097656 116.96875 112.003906 117.597656 111.882812 118.21875 C 111.757812 118.839844 111.601562 119.457031 111.417969 120.0625 C 111.234375 120.667969 111.019531 121.265625 110.777344 121.851562 C 110.535156 122.4375 110.265625 123.011719 109.964844 123.570312 C 109.667969 124.132812 109.339844 124.675781 108.988281 125.203125 C 108.636719 125.730469 108.257812 126.238281 107.855469 126.730469 C 107.453125 127.21875 107.027344 127.6875 106.578125 128.136719 L 66.589844 168.125 L 278.128906 168.125 C 278.761719 168.125 279.394531 168.15625 280.027344 168.21875 C 280.660156 168.28125 281.285156 168.375 281.90625 168.5 C 282.53125 168.621094 283.144531 168.777344 283.753906 168.960938 C 284.359375 169.144531 284.957031 169.359375 285.542969 169.601562 C 286.128906 169.84375 286.703125 170.113281 287.261719 170.414062 C 287.820312 170.714844 288.363281 171.039062 288.890625 171.390625 C 289.417969 171.746094 289.929688 172.121094 290.417969 172.523438 C 290.910156 172.925781 291.378906 173.351562 291.828125 173.800781 C 292.277344 174.25 292.703125 174.71875 293.105469 175.210938 C 293.507812 175.699219 293.882812 176.210938 294.238281 176.738281 C 294.589844 177.265625 294.914062 177.808594 295.214844 178.367188 C 295.511719 178.925781 295.785156 179.5 296.027344 180.085938 C 296.269531 180.671875 296.484375 181.269531 296.667969 181.875 C 296.851562 182.484375 297.003906 183.097656 297.128906 183.71875 C 297.253906 184.34375 297.347656 184.96875 297.410156 185.601562 C 297.46875 186.234375 297.5 186.867188 297.5 187.5 C 297.5 188.132812 297.46875 188.765625 297.410156 189.398438 C 297.347656 190.03125 297.253906 190.65625 297.128906 191.28125 C 297.003906 191.902344 296.851562 192.515625 296.667969 193.125 C 296.484375 193.730469 296.269531 194.328125 296.027344 194.914062 C 295.785156 195.5 295.511719 196.074219 295.214844 196.632812 C 294.914062 197.191406 294.589844 197.734375 294.238281 198.261719 C 293.882812 198.789062 293.507812 199.300781 293.105469 199.789062 C 292.703125 200.28125 292.277344 200.75 291.828125 201.199219 C 291.378906 201.648438 290.910156 202.074219 290.417969 202.476562 C 289.929688 202.878906 289.417969 203.253906 288.890625 203.609375 C 288.363281 203.960938 287.820312 204.285156 287.261719 204.585938 C 286.703125 204.886719 286.128906 205.15625 285.542969 205.398438 C 284.957031 205.640625 284.359375 205.855469 283.753906 206.039062 C 283.144531 206.222656 282.53125 206.378906 281.90625 206.5 C 281.285156 206.625 280.660156 206.71875 280.027344 206.78125 C 279.394531 206.84375 278.761719 206.875 278.128906 206.875 L 66.589844 206.875 L 106.578125 246.863281 C 107.027344 247.3125 107.453125 247.78125 107.855469 248.269531 C 108.257812 248.761719 108.636719 249.269531 108.988281 249.796875 C 109.339844 250.324219 109.667969 250.867188 109.964844 251.429688 C 110.265625 251.988281 110.535156 252.5625 110.777344 253.148438 C 111.019531 253.734375 111.234375 254.332031 111.417969 254.9375 C 111.601562 255.542969 111.757812 256.160156 111.882812 256.78125 C 112.003906 257.402344 112.097656 258.03125 112.160156 258.664062 C 112.222656 259.292969 112.253906 259.925781 112.253906 260.5625 C 112.253906 261.195312 112.222656 261.828125 112.160156 262.460938 C 112.097656 263.089844 112.003906 263.71875 111.882812 264.339844 C 111.757812 264.964844 111.601562 265.578125 111.417969 266.183594 C 111.234375 266.792969 111.019531 267.390625 110.777344 267.976562 C 110.535156 268.5625 110.265625 269.132812 109.964844 269.695312 C 109.667969 270.253906 109.339844 270.796875 108.988281 271.324219 C 108.636719 271.851562 108.257812 272.359375 107.855469 272.851562 C 107.453125 273.34375 107.027344 273.8125 106.578125 274.261719 C 106.128906 274.707031 105.660156 275.132812 105.167969 275.535156 C 104.679688 275.941406 104.171875 276.316406 103.644531 276.667969 C 103.113281 277.023438 102.570312 277.347656 102.011719 277.648438 C 101.453125 277.945312 100.878906 278.21875 100.292969 278.460938 C 99.707031 278.703125 99.109375 278.917969 98.503906 279.101562 C 97.894531 279.285156 97.28125 279.4375 96.660156 279.5625 C 96.035156 279.6875 95.410156 279.777344 94.777344 279.839844 C 94.148438 279.902344 93.515625 279.933594 92.878906 279.933594 C 92.246094 279.933594 91.613281 279.902344 90.980469 279.839844 C 90.347656 279.777344 89.722656 279.6875 89.101562 279.5625 C 88.476562 279.4375 87.863281 279.285156 87.253906 279.101562 C 86.648438 278.914062 86.050781 278.703125 85.464844 278.460938 C 84.878906 278.214844 84.304688 277.945312 83.746094 277.648438 C 83.1875 277.347656 82.644531 277.023438 82.117188 276.667969 C 81.589844 276.316406 81.078125 275.9375 80.589844 275.535156 C 80.097656 275.132812 79.628906 274.707031 79.179688 274.261719 L 6.117188 201.199219 C 5.671875 200.75 5.246094 200.28125 4.84375 199.789062 C 4.441406 199.300781 4.0625 198.789062 3.710938 198.261719 C 3.355469 197.734375 3.03125 197.191406 2.730469 196.632812 C 2.433594 196.074219 2.164062 195.5 1.917969 194.914062 C 1.675781 194.328125 1.464844 193.730469 1.277344 193.125 C 1.09375 192.515625 0.941406 191.902344 0.816406 191.277344 C 0.691406 190.65625 0.601562 190.03125 0.539062 189.398438 C 0.476562 188.765625 0.445312 188.132812 0.445312 187.5 C 0.445312 186.863281 0.476562 186.230469 0.539062 185.601562 C 0.601562 184.96875 0.691406 184.34375 0.816406 183.71875 C 0.941406 183.097656 1.09375 182.484375 1.277344 181.875 C 1.464844 181.269531 1.675781 180.671875 1.917969 180.085938 C 2.164062 179.5 2.433594 178.925781 2.730469 178.367188 C 3.03125 177.808594 3.355469 177.265625 3.710938 176.738281 C 4.0625 176.207031 4.441406 175.699219 4.84375 175.210938 C 5.246094 174.71875 5.671875 174.25 6.117188 173.800781 Z M 6.117188 173.800781 " fill-opacity="1" fill-rule="nonzero"/><g clip-path="url(#6451ab2f22)"><path fill="currentColor" d="M 148.972656 297.28125 C 149.609375 297.28125 150.242188 297.3125 150.871094 297.375 C 151.503906 297.4375 152.128906 297.53125 152.753906 297.652344 C 153.375 297.777344 153.988281 297.933594 154.597656 298.117188 C 155.203125 298.300781 155.800781 298.515625 156.386719 298.757812 C 156.972656 299 157.546875 299.269531 158.105469 299.570312 C 158.664062 299.867188 159.207031 300.195312 159.738281 300.546875 C 160.265625 300.898438 160.773438 301.277344 161.261719 301.679688 C 161.753906 302.082031 162.222656 302.507812 162.671875 302.957031 C 163.121094 303.40625 163.546875 303.875 163.949219 304.363281 C 164.351562 304.855469 164.730469 305.363281 165.082031 305.890625 C 165.433594 306.417969 165.761719 306.964844 166.058594 307.523438 C 166.359375 308.082031 166.628906 308.65625 166.871094 309.242188 C 167.113281 309.828125 167.328125 310.425781 167.511719 311.03125 C 167.695312 311.636719 167.851562 312.253906 167.972656 312.875 C 168.097656 313.496094 168.191406 314.125 168.253906 314.757812 C 168.316406 315.386719 168.347656 316.019531 168.347656 316.65625 L 168.347656 336.027344 L 336.25 336.027344 L 336.25 38.972656 L 168.347656 38.972656 L 168.347656 58.34375 C 168.347656 58.980469 168.316406 59.613281 168.253906 60.242188 C 168.191406 60.875 168.097656 61.503906 167.972656 62.125 C 167.851562 62.746094 167.695312 63.363281 167.511719 63.96875 C 167.328125 64.574219 167.113281 65.171875 166.871094 65.757812 C 166.628906 66.34375 166.359375 66.917969 166.058594 67.476562 C 165.761719 68.035156 165.433594 68.582031 165.082031 69.109375 C 164.730469 69.636719 164.351562 70.144531 163.949219 70.636719 C 163.546875 71.125 163.121094 71.59375 162.671875 72.042969 C 162.222656 72.492188 161.753906 72.917969 161.261719 73.320312 C 160.773438 73.722656 160.265625 74.101562 159.738281 74.453125 C 159.207031 74.804688 158.664062 75.132812 158.105469 75.429688 C 157.546875 75.730469 156.972656 76 156.386719 76.242188 C 155.800781 76.484375 155.203125 76.699219 154.597656 76.882812 C 153.988281 77.066406 153.375 77.222656 152.753906 77.347656 C 152.128906 77.46875 151.503906 77.5625 150.871094 77.625 C 150.242188 77.6875 149.609375 77.71875 148.972656 77.71875 C 148.339844 77.71875 147.707031 77.6875 147.074219 77.625 C 146.441406 77.5625 145.816406 77.46875 145.195312 77.347656 C 144.570312 77.222656 143.957031 77.066406 143.347656 76.882812 C 142.742188 76.699219 142.144531 76.484375 141.558594 76.242188 C 140.972656 76 140.402344 75.730469 139.839844 75.429688 C 139.28125 75.132812 138.738281 74.804688 138.210938 74.453125 C 137.683594 74.101562 137.171875 73.722656 136.683594 73.320312 C 136.191406 72.917969 135.722656 72.492188 135.273438 72.042969 C 134.824219 71.59375 134.398438 71.125 133.996094 70.636719 C 133.59375 70.144531 133.21875 69.636719 132.863281 69.109375 C 132.511719 68.582031 132.1875 68.035156 131.886719 67.476562 C 131.589844 66.917969 131.316406 66.34375 131.074219 65.757812 C 130.832031 65.171875 130.617188 64.574219 130.433594 63.96875 C 130.25 63.363281 130.097656 62.746094 129.972656 62.125 C 129.847656 61.503906 129.753906 60.875 129.695312 60.242188 C 129.632812 59.613281 129.601562 58.980469 129.601562 58.34375 L 129.601562 32.515625 C 129.601562 31.457031 129.652344 30.402344 129.753906 29.347656 C 129.859375 28.296875 130.015625 27.25 130.21875 26.214844 C 130.425781 25.175781 130.683594 24.152344 130.992188 23.140625 C 131.296875 22.128906 131.652344 21.132812 132.058594 20.15625 C 132.460938 19.179688 132.914062 18.226562 133.414062 17.292969 C 133.910156 16.359375 134.453125 15.453125 135.042969 14.574219 C 135.628906 13.695312 136.257812 12.847656 136.929688 12.03125 C 137.601562 11.210938 138.308594 10.429688 139.058594 9.683594 C 139.804688 8.933594 140.585938 8.226562 141.40625 7.554688 C 142.222656 6.882812 143.070312 6.253906 143.949219 5.667969 C 144.828125 5.078125 145.734375 4.535156 146.667969 4.039062 C 147.601562 3.539062 148.554688 3.085938 149.53125 2.683594 C 150.507812 2.277344 151.503906 1.921875 152.515625 1.617188 C 153.527344 1.308594 154.550781 1.050781 155.589844 0.84375 C 156.625 0.640625 157.671875 0.484375 158.722656 0.378906 C 159.777344 0.277344 160.832031 0.226562 161.890625 0.226562 L 342.707031 0.226562 C 343.761719 0.226562 344.820312 0.277344 345.871094 0.378906 C 346.921875 0.484375 347.96875 0.640625 349.003906 0.84375 C 350.042969 1.050781 351.066406 1.308594 352.078125 1.617188 C 353.089844 1.921875 354.085938 2.277344 355.0625 2.683594 C 356.039062 3.085938 356.992188 3.539062 357.925781 4.039062 C 358.859375 4.535156 359.765625 5.078125 360.644531 5.667969 C 361.523438 6.253906 362.371094 6.882812 363.191406 7.554688 C 364.007812 8.226562 364.789062 8.933594 365.539062 9.683594 C 366.285156 10.429688 366.996094 11.210938 367.664062 12.03125 C 368.335938 12.847656 368.964844 13.695312 369.554688 14.574219 C 370.140625 15.453125 370.683594 16.359375 371.183594 17.292969 C 371.679688 18.226562 372.132812 19.179688 372.535156 20.15625 C 372.941406 21.132812 373.296875 22.128906 373.605469 23.140625 C 373.910156 24.152344 374.167969 25.175781 374.375 26.214844 C 374.582031 27.25 374.734375 28.296875 374.839844 29.347656 C 374.941406 30.402344 374.996094 31.457031 374.996094 32.515625 L 374.996094 342.484375 C 374.996094 343.542969 374.941406 344.597656 374.839844 345.652344 C 374.734375 346.703125 374.582031 347.75 374.375 348.785156 C 374.167969 349.824219 373.910156 350.847656 373.605469 351.859375 C 373.296875 352.871094 372.941406 353.867188 372.535156 354.84375 C 372.132812 355.820312 371.679688 356.773438 371.183594 357.707031 C 370.683594 358.640625 370.140625 359.546875 369.554688 360.425781 C 368.964844 361.304688 368.335938 362.152344 367.664062 362.96875 C 366.996094 363.789062 366.285156 364.570312 365.539062 365.316406 C 364.789062 366.066406 364.007812 366.773438 363.191406 367.445312 C 362.371094 368.117188 361.523438 368.746094 360.644531 369.332031 C 359.765625 369.921875 358.859375 370.464844 357.925781 370.960938 C 356.992188 371.460938 356.039062 371.914062 355.0625 372.316406 C 354.085938 372.722656 353.089844 373.078125 352.078125 373.382812 C 351.066406 373.691406 350.042969 373.949219 349.003906 374.15625 C 347.96875 374.359375 346.921875 374.515625 345.871094 374.621094 C 344.820312 374.722656 343.761719 374.773438 342.707031 374.773438 L 161.890625 374.773438 C 160.832031 374.773438 159.777344 374.722656 158.722656 374.621094 C 157.671875 374.515625 156.625 374.359375 155.589844 374.15625 C 154.550781 373.949219 153.527344 373.691406 152.515625 373.382812 C 151.503906 373.078125 150.507812 372.722656 149.53125 372.316406 C 148.554688 371.914062 147.601562 371.460938 146.667969 370.960938 C 145.734375 370.464844 144.828125 369.921875 143.949219 369.332031 C 143.070312 368.746094 142.222656 368.117188 141.40625 367.445312 C 140.585938 366.773438 139.804688 366.066406 139.058594 365.316406 C 138.308594 364.570312 137.601562 363.789062 136.929688 362.96875 C 136.257812 362.152344 135.628906 361.304688 135.042969 360.425781 C 134.453125 359.546875 133.910156 358.640625 133.414062 357.707031 C 132.914062 356.773438 132.460938 355.820312 132.058594 354.84375 C 131.652344 353.867188 131.296875 352.871094 130.992188 351.859375 C 130.683594 350.847656 130.425781 349.824219 130.21875 348.785156 C 130.015625 347.75 129.859375 346.703125 129.753906 345.652344 C 129.652344 344.597656 129.601562 343.542969 129.601562 342.484375 L 129.601562 316.65625 C 129.601562 316.019531 129.632812 315.386719 129.695312 314.757812 C 129.753906 314.125 129.847656 313.496094 129.972656 312.875 C 130.097656 312.253906 130.25 311.636719 130.433594 311.03125 C 130.617188 310.425781 130.832031 309.828125 131.074219 309.242188 C 131.316406 308.65625 131.589844 308.082031 131.886719 307.523438 C 132.1875 306.964844 132.511719 306.417969 132.863281 305.890625 C 133.21875 305.363281 133.59375 304.855469 133.996094 304.363281 C 134.398438 303.875 134.824219 303.40625 135.273438 302.957031 C 135.722656 302.507812 136.191406 302.082031 136.683594 301.679688 C 137.171875 301.277344 137.683594 300.898438 138.210938 300.546875 C 138.738281 300.195312 139.28125 299.867188 139.839844 299.570312 C 140.402344 299.269531 140.972656 299 141.558594 298.757812 C 142.144531 298.515625 142.742188 298.300781 143.347656 298.117188 C 143.957031 297.933594 144.570312 297.777344 145.195312 297.652344 C 145.816406 297.53125 146.441406 297.4375 147.074219 297.375 C 147.707031 297.3125 148.339844 297.28125 148.972656 297.28125 Z M 148.972656 297.28125 " fill-opacity="1" fill-rule="nonzero"/></g></svg>