<svg xmlns="http://www.w3.org/2000/svg" xmlns:xlink="http://www.w3.org/1999/xlink" width="500" zoomAndPan="magnify" viewBox="0 0 375 374.999991" height="500" preserveAspectRatio="xMidYMid meet" version="1.0"><path fill="currentColor" d="M 375 162.277344 L 375 212.722656 C 375 213.707031 374.953125 214.6875 374.855469 215.664062 C 374.757812 216.640625 374.613281 217.613281 374.421875 218.574219 C 374.230469 219.539062 373.992188 220.492188 373.707031 221.433594 C 373.421875 222.371094 373.09375 223.296875 372.714844 224.203125 C 372.339844 225.113281 371.921875 226 371.457031 226.863281 C 370.996094 227.730469 370.488281 228.574219 369.945312 229.390625 C 369.398438 230.207031 368.8125 230.996094 368.191406 231.753906 C 367.566406 232.515625 366.90625 233.242188 366.214844 233.9375 C 365.519531 234.632812 364.792969 235.289062 364.03125 235.914062 C 363.273438 236.535156 362.484375 237.121094 361.667969 237.667969 C 360.851562 238.214844 360.007812 238.71875 359.140625 239.179688 C 358.273438 239.644531 357.386719 240.0625 356.480469 240.441406 C 355.574219 240.816406 354.648438 241.144531 353.707031 241.429688 C 352.769531 241.714844 351.816406 241.953125 350.851562 242.148438 C 349.890625 242.339844 348.917969 242.484375 347.941406 242.578125 C 346.960938 242.675781 345.984375 242.722656 345 242.722656 L 242.722656 242.722656 L 242.722656 345 C 242.722656 345.984375 242.675781 346.960938 242.578125 347.941406 C 242.484375 348.917969 242.339844 349.890625 242.148438 350.851562 C 241.957031 351.816406 241.714844 352.769531 241.429688 353.707031 C 241.144531 354.648438 240.816406 355.574219 240.441406 356.480469 C 240.0625 357.386719 239.644531 358.273438 239.179688 359.140625 C 238.71875 360.007812 238.214844 360.851562 237.667969 361.667969 C 237.121094 362.484375 236.535156 363.273438 235.914062 364.03125 C 235.289062 364.792969 234.632812 365.519531 233.9375 366.214844 C 233.242188 366.90625 232.515625 367.566406 231.753906 368.191406 C 230.996094 368.8125 230.207031 369.398438 229.390625 369.945312 C 228.574219 370.488281 227.730469 370.996094 226.863281 371.457031 C 226 371.921875 225.113281 372.339844 224.203125 372.714844 C 223.296875 373.09375 222.371094 373.421875 221.433594 373.707031 C 220.492188 373.992188 219.539062 374.230469 218.574219 374.421875 C 217.613281 374.613281 216.640625 374.757812 215.664062 374.855469 C 214.6875 374.953125 213.707031 375 212.722656 375 L 162.277344 375 C 161.296875 375 160.316406 374.953125 159.335938 374.855469 C 158.359375 374.757812 157.386719 374.613281 156.425781 374.421875 C 155.460938 374.230469 154.507812 373.992188 153.570312 373.707031 C 152.628906 373.421875 151.703125 373.09375 150.796875 372.714844 C 149.890625 372.339844 149.003906 371.921875 148.136719 371.457031 C 147.269531 370.996094 146.425781 370.488281 145.609375 369.945312 C 144.792969 369.398438 144.003906 368.8125 143.246094 368.191406 C 142.484375 367.566406 141.757812 366.90625 141.0625 366.214844 C 140.371094 365.519531 139.710938 364.792969 139.085938 364.03125 C 138.464844 363.273438 137.878906 362.484375 137.332031 361.667969 C 136.789062 360.851562 136.28125 360.007812 135.820312 359.140625 C 135.355469 358.273438 134.9375 357.386719 134.5625 356.480469 C 134.183594 355.574219 133.855469 354.648438 133.570312 353.707031 C 133.285156 352.769531 133.046875 351.816406 132.855469 350.851562 C 132.664062 349.890625 132.519531 348.917969 132.421875 347.941406 C 132.324219 346.960938 132.277344 345.984375 132.277344 345 L 132.277344 242.722656 L 30 242.722656 C 29.015625 242.722656 28.039062 242.675781 27.058594 242.578125 C 26.082031 242.484375 25.109375 242.339844 24.148438 242.148438 C 23.183594 241.957031 22.230469 241.714844 21.292969 241.429688 C 20.351562 241.144531 19.425781 240.816406 18.519531 240.441406 C 17.613281 240.0625 16.726562 239.644531 15.859375 239.179688 C 14.992188 238.71875 14.148438 238.214844 13.332031 237.667969 C 12.515625 237.121094 11.726562 236.535156 10.96875 235.914062 C 10.207031 235.289062 9.480469 234.632812 8.785156 233.9375 C 8.09375 233.242188 7.433594 232.515625 6.808594 231.753906 C 6.1875 230.996094 5.601562 230.207031 5.054688 229.390625 C 4.511719 228.574219 4.003906 227.730469 3.542969 226.863281 C 3.078125 226 2.660156 225.113281 2.285156 224.203125 C 1.90625 223.296875 1.578125 222.371094 1.292969 221.433594 C 1.007812 220.492188 0.769531 219.539062 0.578125 218.574219 C 0.382812 217.613281 0.242188 216.640625 0.144531 215.664062 C 0.046875 214.6875 0 213.707031 0 212.722656 L 0 162.277344 C 0 161.296875 0.046875 160.316406 0.144531 159.335938 C 0.242188 158.359375 0.382812 157.386719 0.578125 156.425781 C 0.769531 155.460938 1.007812 154.507812 1.292969 153.570312 C 1.578125 152.628906 1.90625 151.703125 2.285156 150.796875 C 2.660156 149.890625 3.078125 149.003906 3.542969 148.136719 C 4.003906 147.269531 4.511719 146.425781 5.054688 145.609375 C 5.601562 144.792969 6.1875 144.003906 6.808594 143.246094 C 7.433594 142.484375 8.09375 141.757812 8.785156 141.0625 C 9.480469 140.371094 10.207031 139.710938 10.96875 139.085938 C 11.726562 138.464844 12.515625 137.878906 13.332031 137.332031 C 14.148438 136.789062 14.992188 136.28125 15.859375 135.820312 C 16.726562 135.355469 17.613281 134.9375 18.519531 134.5625 C 19.425781 134.183594 20.351562 133.855469 21.292969 133.570312 C 22.230469 133.285156 23.183594 133.046875 24.148438 132.855469 C 25.109375 132.664062 26.082031 132.519531 27.058594 132.421875 C 28.039062 132.324219 29.015625 132.277344 30 132.277344 L 132.277344 132.277344 L 132.277344 30 C 132.277344 29.015625 132.324219 28.039062 132.421875 27.058594 C 132.519531 26.082031 132.664062 25.109375 132.855469 24.148438 C 133.046875 23.183594 133.285156 22.230469 133.570312 21.292969 C 133.855469 20.351562 134.183594 19.425781 134.5625 18.519531 C 134.9375 17.613281 135.355469 16.726562 135.820312 15.859375 C 136.28125 14.992188 136.789062 14.148438 137.332031 13.332031 C 137.878906 12.515625 138.464844 11.726562 139.085938 10.96875 C 139.710938 10.207031 140.371094 9.480469 141.0625 8.785156 C 141.757812 8.09375 142.484375 7.433594 143.246094 6.808594 C 144.003906 6.1875 144.792969 5.601562 145.609375 5.054688 C 146.425781 4.511719 147.269531 4.003906 148.136719 3.542969 C 149.003906 3.078125 149.890625 2.660156 150.796875 2.285156 C 151.703125 1.90625 152.628906 1.578125 153.570312 1.292969 C 154.507812 1.007812 155.460938 0.769531 156.425781 0.578125 C 157.386719 0.382812 158.359375 0.242188 159.335938 0.144531 C 160.316406 0.046875 161.296875 0 162.277344 0 L 212.722656 0 C 213.703125 0 214.683594 0.046875 215.664062 0.144531 C 216.640625 0.242188 217.613281 0.382812 218.574219 0.578125 C 219.539062 0.769531 220.492188 1.007812 221.429688 1.292969 C 222.371094 1.578125 223.296875 1.90625 224.203125 2.285156 C 225.109375 2.660156 225.996094 3.078125 226.863281 3.542969 C 227.730469 4.003906 228.574219 4.511719 229.390625 5.054688 C 230.207031 5.601562 230.996094 6.1875 231.753906 6.808594 C 232.515625 7.433594 233.242188 8.09375 233.9375 8.785156 C 234.628906 9.480469 235.289062 10.207031 235.914062 10.96875 C 236.535156 11.726562 237.121094 12.515625 237.667969 13.332031 C 238.210938 14.148438 238.71875 14.992188 239.179688 15.859375 C 239.644531 16.726562 240.0625 17.613281 240.4375 18.519531 C 240.816406 19.425781 241.144531 20.351562 241.429688 21.292969 C 241.714844 22.230469 241.953125 23.183594 242.144531 24.148438 C 242.335938 25.109375 242.480469 26.082031 242.578125 27.058594 C 242.675781 28.039062 242.722656 29.015625 242.722656 30 L 242.722656 132.277344 L 345 132.277344 C 345.984375 132.277344 346.960938 132.328125 347.941406 132.421875 C 348.917969 132.519531 349.890625 132.664062 350.851562 132.855469 C 351.816406 133.046875 352.769531 133.285156 353.707031 133.570312 C 354.648438 133.855469 355.574219 134.1875 356.480469 134.5625 C 357.386719 134.9375 358.273438 135.355469 359.140625 135.820312 C 360.007812 136.285156 360.851562 136.789062 361.667969 137.335938 C 362.484375 137.878906 363.273438 138.464844 364.03125 139.085938 C 364.792969 139.710938 365.519531 140.371094 366.214844 141.066406 C 366.90625 141.757812 367.566406 142.488281 368.191406 143.246094 C 368.8125 144.003906 369.398438 144.792969 369.945312 145.609375 C 370.488281 146.425781 370.996094 147.269531 371.457031 148.136719 C 371.921875 149.003906 372.339844 149.890625 372.714844 150.796875 C 373.09375 151.703125 373.421875 152.628906 373.707031 153.570312 C 373.992188 154.507812 374.230469 155.460938 374.421875 156.425781 C 374.613281 157.386719 374.757812 158.359375 374.855469 159.335938 C 374.953125 160.316406 375 161.296875 375 162.277344 Z M 375 162.277344 " fill-opacity="1" fill-rule="nonzero"/></svg>