<svg xmlns="http://www.w3.org/2000/svg" xmlns:xlink="http://www.w3.org/1999/xlink" width="500" zoomAndPan="magnify" viewBox="0 0 375 374.999991" height="500" preserveAspectRatio="xMidYMid meet" version="1.2"><defs><clipPath id="7193241947"><path d="M 72 0 L 360.796875 0 L 360.796875 375 L 72 375 Z M 72 0 "/></clipPath><clipPath id="6343495341"><path d="M 14.296875 158 L 275 158 L 275 275 L 14.296875 275 Z M 14.296875 158 "/></clipPath><clipPath id="55b59f6e5f"><path d="M 11.496094 157.800781 L 275.398438 157.800781 L 275.398438 285.753906 L 11.496094 285.753906 Z M 11.496094 157.800781 "/></clipPath><clipPath id="eef017be8f"><path d="M 29.074219 157.800781 L 257.667969 157.800781 C 267.378906 157.800781 275.246094 165.667969 275.246094 175.378906 L 275.246094 268.175781 C 275.246094 277.882812 267.378906 285.753906 257.667969 285.753906 L 29.074219 285.753906 C 19.363281 285.753906 11.496094 277.882812 11.496094 268.175781 L 11.496094 175.378906 C 11.496094 165.667969 19.363281 157.800781 29.074219 157.800781 Z M 29.074219 157.800781 "/></clipPath></defs><g id="747804c2fb"><g clip-rule="nonzero" clip-path="url(#7193241947)"><path style=" stroke:none;fill-rule:nonzero;fill:currentColor;fill-opacity:1;" d="M 321.632812 60.578125 C 317.308594 57.691406 314.421875 53.367188 310.097656 50.480469 C 307.210938 46.152344 302.882812 43.269531 300 38.941406 C 275.480469 14.421875 261.058594 0 245.191406 0 L 129.808594 0 C 98.078125 0 72.117188 25.960938 72.117188 57.691406 L 72.117188 161.539062 L 100.960938 161.539062 L 100.960938 57.691406 C 100.960938 41.828125 113.941406 28.847656 129.808594 28.847656 L 235.097656 28.847656 C 245.191406 31.730469 245.191406 44.710938 245.191406 56.25 L 245.191406 99.519531 C 245.191406 108.171875 250.960938 113.941406 259.617188 113.941406 L 302.882812 113.941406 C 317.308594 113.941406 331.730469 113.941406 331.730469 128.367188 L 331.730469 315.867188 C 331.730469 331.730469 318.75 344.710938 302.882812 344.710938 L 129.808594 344.710938 C 113.941406 344.710938 100.960938 331.730469 100.960938 315.867188 L 100.960938 269.710938 L 72.117188 269.710938 L 72.117188 317.308594 C 72.117188 349.039062 98.078125 375 129.808594 375 L 302.882812 375 C 334.617188 375 360.578125 349.039062 360.578125 317.308594 L 360.578125 115.382812 C 360.578125 99.519531 346.152344 85.097656 321.632812 60.578125 Z M 321.632812 60.578125 "/></g><g clip-rule="nonzero" clip-path="url(#6343495341)"><path style=" stroke:none;fill-rule:nonzero;fill:currentColor;fill-opacity:1;" d="M 259.617188 158.652344 L 28.847656 158.652344 C 20.191406 158.652344 14.421875 165.867188 14.421875 173.078125 L 14.421875 259.617188 C 14.421875 266.828125 20.191406 274.039062 28.847656 274.039062 L 259.617188 274.039062 C 268.269531 274.039062 274.039062 266.828125 274.039062 259.617188 L 274.039062 173.078125 C 274.039062 165.867188 268.269531 158.652344 259.617188 158.652344 Z M 92.308594 222.117188 C 86.539062 227.882812 77.882812 230.769531 67.789062 230.769531 C 66.347656 230.769531 64.902344 230.769531 64.902344 230.769531 L 64.902344 258.171875 C 64.902344 259.617188 63.460938 261.058594 62.019531 261.058594 L 44.710938 261.058594 C 44.710938 259.617188 43.269531 258.171875 43.269531 258.171875 L 43.269531 177.402344 C 43.269531 175.960938 44.710938 175.960938 44.710938 174.519531 C 50.480469 173.078125 59.132812 173.078125 67.789062 173.078125 C 77.882812 173.078125 86.539062 175.960938 92.308594 180.289062 C 98.078125 184.617188 100.960938 191.828125 100.960938 200.480469 C 99.519531 209.132812 98.078125 216.347656 92.308594 222.117188 Z M 171.632812 249.519531 C 164.421875 256.730469 151.441406 261.058594 135.578125 261.058594 C 126.921875 261.058594 119.710938 261.058594 116.828125 259.617188 C 116.828125 259.617188 115.382812 258.171875 115.382812 256.730469 L 115.382812 175.960938 C 115.382812 174.519531 116.828125 174.519531 116.828125 173.078125 C 124.039062 173.078125 131.25 173.078125 139.902344 173.078125 C 154.328125 173.078125 164.421875 175.960938 171.632812 181.730469 C 180.289062 188.941406 184.617188 200.480469 184.617188 214.902344 C 184.617188 233.652344 177.402344 243.75 171.632812 249.519531 Z M 250.960938 190.382812 C 250.960938 191.828125 249.519531 193.269531 248.078125 193.269531 L 222.117188 193.269531 L 222.117188 207.691406 L 246.632812 207.691406 C 248.078125 207.691406 249.519531 209.132812 249.519531 210.578125 L 249.519531 225 C 249.519531 226.441406 248.078125 227.882812 246.632812 227.882812 L 222.117188 227.882812 L 222.117188 258.171875 C 222.117188 259.617188 220.671875 261.058594 219.230469 261.058594 L 203.367188 261.058594 C 201.921875 261.058594 200.480469 259.617188 200.480469 258.171875 L 200.480469 175.960938 C 200.480469 174.519531 201.921875 173.078125 203.367188 173.078125 L 248.078125 173.078125 C 249.519531 173.078125 250.960938 174.519531 250.960938 175.960938 Z M 250.960938 190.382812 "/></g><path style=" stroke:none;fill-rule:nonzero;fill:currentColor;fill-opacity:1;" d="M 141.347656 191.828125 C 138.460938 191.828125 137.019531 191.828125 135.578125 191.828125 L 135.578125 242.308594 C 137.019531 242.308594 138.460938 242.308594 138.460938 242.308594 C 145.671875 242.308594 151.441406 240.867188 154.328125 236.539062 C 158.652344 232.210938 160.097656 225 160.097656 216.347656 C 162.980469 200.480469 155.769531 191.828125 141.347656 191.828125 Z M 141.347656 191.828125 "/><path style=" stroke:none;fill-rule:nonzero;fill:currentColor;fill-opacity:1;" d="M 67.789062 191.828125 C 66.347656 191.828125 64.902344 191.828125 63.460938 191.828125 L 63.460938 212.019531 C 64.902344 212.019531 64.902344 212.019531 66.347656 212.019531 C 73.558594 212.019531 77.882812 207.691406 77.882812 200.480469 C 79.328125 193.269531 73.558594 191.828125 67.789062 191.828125 Z M 67.789062 191.828125 "/><g clip-rule="nonzero" clip-path="url(#55b59f6e5f)"><g clip-rule="nonzero" clip-path="url(#eef017be8f)"><path style=" stroke:none;fill-rule:nonzero;fill:currentColor;fill-opacity:1;" d="M 11.496094 157.800781 L 275.398438 157.800781 L 275.398438 285.753906 L 11.496094 285.753906 Z M 11.496094 157.800781 "/></g></g><g style="fill:#ffffff;fill-opacity:1;"><g transform="translate(30.363184, 265.25653)"><path style="stroke:none" d="M 72.265625 -71.5 L 45.984375 -71.5 L 45.984375 0 L 28.296875 0 L 28.296875 -71.5 L 2.359375 -71.5 L 2.359375 -85.828125 L 72.265625 -85.828125 Z M 72.265625 -71.5 "/></g></g><g style="fill:#ffffff;fill-opacity:1;"><g transform="translate(105.030716, 265.25653)"><path style="stroke:none" d="M 38.375 -56.234375 L 54.46875 -85.828125 L 74.796875 -85.828125 L 49.8125 -43.265625 L 75.453125 0 L 54.875 0 L 38.375 -30.0625 L 21.875 0 L 1.296875 0 L 26.9375 -43.265625 L 1.9375 -85.828125 L 22.28125 -85.828125 Z M 38.375 -56.234375 "/></g></g><g style="fill:#ffffff;fill-opacity:1;"><g transform="translate(181.701955, 265.25653)"><path style="stroke:none" d="M 72.265625 -71.5 L 45.984375 -71.5 L 45.984375 0 L 28.296875 0 L 28.296875 -71.5 L 2.359375 -71.5 L 2.359375 -85.828125 L 72.265625 -85.828125 Z M 72.265625 -71.5 "/></g></g><path style="fill:none;stroke-width:30;stroke-linecap:round;stroke-linejoin:miter;stroke:currentColor;stroke-opacity:1;stroke-miterlimit:4;" d="M 14.997557 15.002402 L 144.997565 15.002402 " transform="matrix(0.75,0,0,0.75,113.736208,56.181793)"/><path style="fill:none;stroke-width:30;stroke-linecap:round;stroke-linejoin:miter;stroke:currentColor;stroke-opacity:1;stroke-miterlimit:4;" d="M 14.997557 15.001675 L 144.997565 15.001675 " transform="matrix(0.75,0,0,0.75,113.736208,90.299526)"/><path style="fill:none;stroke-width:30;stroke-linecap:round;stroke-linejoin:miter;stroke:currentColor;stroke-opacity:1;stroke-miterlimit:4;" d="M 14.998444 15.002567 L 254.116478 15.002567 " transform="matrix(0.749695,0,0,0.749695,113.736208,124.049524)"/><path style="fill:none;stroke-width:30;stroke-linecap:round;stroke-linejoin:miter;stroke:currentColor;stroke-opacity:1;stroke-miterlimit:4;" d="M 14.998444 15.000605 L 254.116478 15.000605 " transform="matrix(0.749695,0,0,0.749695,113.736208,301.511932)"/><path style="fill:none;stroke-width:30;stroke-linecap:round;stroke-linejoin:miter;stroke:currentColor;stroke-opacity:1;stroke-miterlimit:4;" d="M 14.99907 15.000951 L 26.827196 15.000951 " transform="matrix(0.75,0,0,0.75,284.199917,159.901631)"/><path style="fill:none;stroke-width:30;stroke-linecap:round;stroke-linejoin:miter;stroke:currentColor;stroke-opacity:1;stroke-miterlimit:4;" d="M 14.99907 15.000954 L 26.827196 15.000954 " transform="matrix(0.75,0,0,0.75,284.199917,193.651629)"/><path style="fill:none;stroke-width:30;stroke-linecap:round;stroke-linejoin:miter;stroke:currentColor;stroke-opacity:1;stroke-miterlimit:4;" d="M 14.99907 15.000957 L 26.827196 15.000957 " transform="matrix(0.75,0,0,0.75,284.199917,227.401627)"/><path style="fill:none;stroke-width:30;stroke-linecap:round;stroke-linejoin:miter;stroke:currentColor;stroke-opacity:1;stroke-miterlimit:4;" d="M 14.99907 15.00096 L 26.827196 15.00096 " transform="matrix(0.75,0,0,0.75,284.199917,261.151624)"/></g></svg>