<svg xmlns="http://www.w3.org/2000/svg" xmlns:xlink="http://www.w3.org/1999/xlink" width="500" zoomAndPan="magnify" viewBox="0 0 375 374.999991" height="500" preserveAspectRatio="xMidYMid meet" version="1.0"><path fill="currentColor" d="M 187.5 0.0351562 C 83.972656 0.0351562 0.0351562 83.972656 0.0351562 187.5 C 0.0351562 291.027344 83.972656 374.964844 187.5 374.964844 C 291.027344 374.964844 374.964844 291.027344 374.964844 187.5 C 374.964844 83.972656 291.027344 0.0351562 187.5 0.0351562 Z M 292.710938 255.523438 C 302.984375 265.796875 302.984375 282.457031 292.710938 292.730469 C 282.441406 303.003906 265.777344 303.003906 255.503906 292.730469 L 187.5 224.726562 L 119.496094 292.730469 C 109.222656 303.003906 92.558594 303.003906 82.289062 292.730469 C 72.015625 282.457031 72.015625 265.796875 82.289062 255.523438 L 150.292969 187.519531 L 82.289062 119.511719 C 72.015625 109.242188 72.015625 92.578125 82.289062 82.304688 C 92.558594 72.035156 109.222656 72.035156 119.496094 82.304688 L 187.5 150.3125 L 255.503906 82.304688 C 265.777344 72.035156 282.441406 72.035156 292.710938 82.304688 C 302.984375 92.578125 302.984375 109.242188 292.710938 119.511719 L 224.707031 187.519531 Z M 292.710938 255.523438 " fill-opacity="1" fill-rule="nonzero"/></svg>