<svg xmlns="http://www.w3.org/2000/svg" xmlns:xlink="http://www.w3.org/1999/xlink" width="500" zoomAndPan="magnify" viewBox="0 0 375 374.999991" height="500" preserveAspectRatio="xMidYMid meet" version="1.0"><path fill="currentColor" d="M 119.992188 191.242188 L 93.921875 191.242188 C 88.132812 191.242188 83.441406 195.933594 83.441406 201.722656 L 83.441406 227.789062 C 83.441406 233.578125 88.132812 238.269531 93.921875 238.269531 L 119.992188 238.269531 C 125.777344 238.269531 130.472656 233.578125 130.472656 227.789062 L 130.472656 201.722656 C 130.472656 195.933594 125.777344 191.242188 119.992188 191.242188 Z M 119.992188 191.242188 " fill-opacity="1" fill-rule="nonzero"/><path fill="currentColor" d="M 119.992188 266.480469 L 93.921875 266.480469 C 88.132812 266.480469 83.441406 271.171875 83.441406 276.960938 L 83.441406 303.027344 C 83.441406 308.816406 88.132812 313.507812 93.921875 313.507812 L 119.992188 313.507812 C 125.777344 313.507812 130.472656 308.816406 130.472656 303.027344 L 130.472656 276.960938 C 130.472656 271.164062 125.777344 266.480469 119.992188 266.480469 Z M 119.992188 266.480469 " fill-opacity="1" fill-rule="nonzero"/><path fill="currentColor" d="M 201.203125 191.242188 L 175.132812 191.242188 C 169.347656 191.242188 164.652344 195.933594 164.652344 201.722656 L 164.652344 227.789062 C 164.652344 233.578125 169.347656 238.269531 175.132812 238.269531 L 201.203125 238.269531 C 206.992188 238.269531 211.683594 233.578125 211.683594 227.789062 L 211.683594 201.722656 C 211.683594 195.933594 206.992188 191.242188 201.203125 191.242188 Z M 201.203125 191.242188 " fill-opacity="1" fill-rule="nonzero"/><path fill="currentColor" d="M 201.203125 266.480469 L 175.132812 266.480469 C 169.347656 266.480469 164.652344 271.171875 164.652344 276.960938 L 164.652344 303.027344 C 164.652344 308.816406 169.347656 313.507812 175.132812 313.507812 L 201.203125 313.507812 C 206.992188 313.507812 211.683594 308.816406 211.683594 303.027344 L 211.683594 276.960938 C 211.683594 271.164062 206.992188 266.480469 201.203125 266.480469 Z M 201.203125 266.480469 " fill-opacity="1" fill-rule="nonzero"/><path fill="currentColor" d="M 282.414062 191.242188 L 256.347656 191.242188 C 250.558594 191.242188 245.867188 195.933594 245.867188 201.722656 L 245.867188 227.789062 C 245.867188 233.578125 250.558594 238.269531 256.347656 238.269531 L 282.414062 238.269531 C 288.203125 238.269531 292.894531 233.578125 292.894531 227.789062 L 292.894531 201.722656 C 292.894531 195.933594 288.203125 191.242188 282.414062 191.242188 Z M 282.414062 191.242188 " fill-opacity="1" fill-rule="nonzero"/><path fill="currentColor" d="M 282.414062 266.480469 L 256.347656 266.480469 C 250.558594 266.480469 245.867188 271.171875 245.867188 276.960938 L 245.867188 303.027344 C 245.867188 308.816406 250.558594 313.507812 256.347656 313.507812 L 282.414062 313.507812 C 288.203125 313.507812 292.894531 308.816406 292.894531 303.027344 L 292.894531 276.960938 C 292.894531 271.164062 288.203125 266.480469 282.414062 266.480469 Z M 282.414062 266.480469 " fill-opacity="1" fill-rule="nonzero"/><path fill="currentColor" d="M 103.480469 82.296875 C 113.742188 82.296875 122.046875 73.980469 122.046875 63.730469 L 122.046875 18.230469 C 122.046875 7.972656 113.730469 -0.335938 103.480469 -0.335938 C 93.230469 -0.335938 84.914062 7.980469 84.914062 18.230469 L 84.914062 63.730469 C 84.914062 73.980469 93.222656 82.296875 103.480469 82.296875 Z M 103.480469 82.296875 " fill-opacity="1" fill-rule="nonzero"/><path fill="currentColor" d="M 314.183594 47.808594 L 301.855469 47.808594 L 301.855469 63.730469 C 301.855469 79.722656 288.855469 92.722656 272.867188 92.722656 C 256.875 92.722656 243.875 79.710938 243.875 63.730469 L 243.875 47.808594 L 132.472656 47.808594 L 132.472656 63.730469 C 132.472656 79.722656 119.472656 92.722656 103.480469 92.722656 C 87.492188 92.722656 74.492188 79.710938 74.492188 63.730469 L 74.492188 47.808594 L 62.152344 47.808594 C 31.855469 47.808594 7.210938 72.453125 7.210938 102.757812 L 7.210938 320.007812 C 7.210938 350.308594 31.855469 374.960938 62.152344 374.960938 L 314.171875 374.960938 C 344.472656 374.960938 369.125 350.316406 369.125 320.007812 L 369.125 102.75 C 369.132812 72.453125 344.480469 47.808594 314.183594 47.808594 Z M 337.394531 320.007812 C 337.394531 332.828125 327 343.222656 314.183594 343.222656 L 62.164062 343.222656 C 49.347656 343.222656 38.953125 332.828125 38.953125 320.007812 L 38.953125 172.414062 C 38.953125 166.402344 43.828125 161.527344 49.835938 161.527344 L 326.519531 161.527344 C 332.527344 161.527344 337.402344 166.402344 337.402344 172.414062 L 337.402344 320.007812 Z M 337.394531 320.007812 " fill-opacity="1" fill-rule="nonzero"/><path fill="currentColor" d="M 272.855469 82.296875 C 283.117188 82.296875 291.421875 73.980469 291.421875 63.730469 L 291.421875 18.230469 C 291.421875 7.972656 283.105469 -0.335938 272.855469 -0.335938 C 262.605469 -0.335938 254.289062 7.980469 254.289062 18.230469 L 254.289062 63.730469 C 254.289062 73.980469 262.605469 82.296875 272.855469 82.296875 Z M 272.855469 82.296875 " fill-opacity="1" fill-rule="nonzero"/></svg>