<svg xmlns="http://www.w3.org/2000/svg" xmlns:xlink="http://www.w3.org/1999/xlink" width="500" zoomAndPan="magnify" viewBox="0 0 375 374.999991" height="500" preserveAspectRatio="xMidYMid meet" version="1.0"><defs><clipPath id="a150e473e3"><path d="M 0 75 L 375 75 L 375 300 L 0 300 Z M 0 75 " clip-rule="nonzero"/></clipPath></defs><g clip-path="url(#a150e473e3)"><path fill="currentColor" d="M 10.875 85.875 C 11.746094 85 12.65625 84.167969 13.605469 83.378906 C 14.558594 82.59375 15.546875 81.855469 16.570312 81.167969 C 17.59375 80.476562 18.652344 79.839844 19.738281 79.257812 C 20.824219 78.671875 21.9375 78.140625 23.078125 77.667969 C 24.21875 77.191406 25.378906 76.773438 26.558594 76.414062 C 27.738281 76.054688 28.9375 75.753906 30.148438 75.511719 C 31.355469 75.269531 32.578125 75.085938 33.804688 74.964844 C 35.035156 74.84375 36.265625 74.78125 37.5 74.78125 C 38.734375 74.78125 39.964844 74.84375 41.195312 74.964844 C 42.421875 75.085938 43.644531 75.269531 44.855469 75.511719 C 46.0625 75.753906 47.261719 76.054688 48.441406 76.414062 C 49.621094 76.773438 50.78125 77.191406 51.921875 77.667969 C 53.0625 78.140625 54.175781 78.671875 55.261719 79.257812 C 56.347656 79.839844 57.40625 80.476562 58.429688 81.167969 C 59.453125 81.855469 60.441406 82.59375 61.394531 83.378906 C 62.34375 84.167969 63.253906 85 64.125 85.875 L 187.5 209.625 L 310.875 85.875 C 311.746094 85 312.65625 84.167969 313.605469 83.378906 C 314.558594 82.59375 315.546875 81.855469 316.570312 81.167969 C 317.59375 80.476562 318.652344 79.839844 319.738281 79.257812 C 320.824219 78.671875 321.9375 78.140625 323.078125 77.667969 C 324.21875 77.191406 325.378906 76.773438 326.558594 76.414062 C 327.738281 76.054688 328.9375 75.753906 330.144531 75.511719 C 331.355469 75.269531 332.578125 75.085938 333.804688 74.964844 C 335.035156 74.84375 336.265625 74.78125 337.5 74.78125 C 338.734375 74.78125 339.964844 74.84375 341.195312 74.964844 C 342.421875 75.085938 343.644531 75.269531 344.855469 75.511719 C 346.0625 75.753906 347.261719 76.054688 348.441406 76.414062 C 349.621094 76.773438 350.78125 77.191406 351.921875 77.667969 C 353.0625 78.140625 354.175781 78.671875 355.261719 79.257812 C 356.347656 79.839844 357.40625 80.476562 358.429688 81.167969 C 359.453125 81.855469 360.441406 82.59375 361.394531 83.378906 C 362.34375 84.167969 363.253906 85 364.125 85.875 C 365 86.746094 365.832031 87.65625 366.621094 88.605469 C 367.40625 89.558594 368.144531 90.546875 368.832031 91.570312 C 369.523438 92.59375 370.160156 93.652344 370.742188 94.738281 C 371.328125 95.824219 371.859375 96.9375 372.332031 98.078125 C 372.808594 99.21875 373.226562 100.378906 373.585938 101.558594 C 373.945312 102.738281 374.246094 103.9375 374.488281 105.144531 C 374.730469 106.355469 374.914062 107.578125 375.035156 108.804688 C 375.15625 110.035156 375.21875 111.265625 375.21875 112.5 C 375.21875 113.734375 375.15625 114.964844 375.035156 116.195312 C 374.914062 117.421875 374.730469 118.644531 374.488281 119.851562 C 374.246094 121.0625 373.945312 122.261719 373.585938 123.441406 C 373.226562 124.621094 372.808594 125.78125 372.332031 126.921875 C 371.859375 128.0625 371.328125 129.175781 370.742188 130.261719 C 370.160156 131.347656 369.523438 132.40625 368.832031 133.429688 C 368.144531 134.453125 367.40625 135.441406 366.621094 136.394531 C 365.832031 137.34375 365 138.253906 364.125 139.125 L 214.125 289.125 C 213.253906 290 212.34375 290.832031 211.394531 291.621094 C 210.441406 292.40625 209.453125 293.144531 208.429688 293.832031 C 207.40625 294.523438 206.347656 295.160156 205.261719 295.742188 C 204.175781 296.328125 203.0625 296.859375 201.921875 297.332031 C 200.78125 297.808594 199.621094 298.226562 198.441406 298.585938 C 197.261719 298.945312 196.0625 299.246094 194.855469 299.488281 C 193.644531 299.730469 192.421875 299.914062 191.195312 300.035156 C 189.964844 300.15625 188.734375 300.21875 187.5 300.21875 C 186.265625 300.21875 185.035156 300.15625 183.804688 300.035156 C 182.578125 299.914062 181.355469 299.730469 180.144531 299.488281 C 178.9375 299.246094 177.738281 298.945312 176.558594 298.585938 C 175.378906 298.226562 174.21875 297.808594 173.078125 297.332031 C 171.9375 296.859375 170.824219 296.328125 169.738281 295.742188 C 168.652344 295.160156 167.59375 294.523438 166.570312 293.832031 C 165.546875 293.144531 164.558594 292.40625 163.605469 291.621094 C 162.65625 290.832031 161.746094 290 160.875 289.125 L 10.875 139.125 C 10 138.253906 9.167969 137.34375 8.378906 136.394531 C 7.59375 135.441406 6.855469 134.453125 6.167969 133.429688 C 5.476562 132.40625 4.839844 131.347656 4.257812 130.261719 C 3.671875 129.175781 3.140625 128.0625 2.667969 126.921875 C 2.191406 125.78125 1.773438 124.621094 1.414062 123.441406 C 1.054688 122.261719 0.753906 121.0625 0.511719 119.851562 C 0.269531 118.644531 0.0859375 117.421875 -0.0351562 116.195312 C -0.15625 114.964844 -0.21875 113.734375 -0.21875 112.5 C -0.21875 111.265625 -0.15625 110.035156 -0.0351562 108.804688 C 0.0859375 107.578125 0.269531 106.355469 0.511719 105.144531 C 0.753906 103.9375 1.054688 102.738281 1.414062 101.558594 C 1.773438 100.378906 2.191406 99.21875 2.667969 98.078125 C 3.140625 96.9375 3.671875 95.824219 4.257812 94.738281 C 4.839844 93.652344 5.476562 92.59375 6.167969 91.570312 C 6.855469 90.546875 7.59375 89.558594 8.378906 88.605469 C 9.167969 87.65625 10 86.746094 10.875 85.875 Z M 10.875 85.875 " fill-opacity="1" fill-rule="nonzero"/></g></svg>