<svg xmlns="http://www.w3.org/2000/svg" xmlns:xlink="http://www.w3.org/1999/xlink" width="500" zoomAndPan="magnify" viewBox="0 0 375 374.999991" height="500" preserveAspectRatio="xMidYMid meet" version="1.2"><defs><clipPath id="241d7dcfd0"><path d="M 129.824219 0 L 245.175781 0 L 245.175781 115.355469 L 129.824219 115.355469 Z M 129.824219 0 "/></clipPath><clipPath id="bf0884a61f"><path d="M 187.5 0 C 155.644531 0 129.824219 25.824219 129.824219 57.675781 C 129.824219 89.53125 155.644531 115.355469 187.5 115.355469 C 219.355469 115.355469 245.175781 89.53125 245.175781 57.675781 C 245.175781 25.824219 219.355469 0 187.5 0 Z M 187.5 0 "/></clipPath><clipPath id="27b4dcb126"><path d="M 129.824219 129.8125 L 245.175781 129.8125 L 245.175781 245.167969 L 129.824219 245.167969 Z M 129.824219 129.8125 "/></clipPath><clipPath id="c17308ab8b"><path d="M 187.5 129.8125 C 155.644531 129.8125 129.824219 155.636719 129.824219 187.492188 C 129.824219 219.347656 155.644531 245.167969 187.5 245.167969 C 219.355469 245.167969 245.175781 219.347656 245.175781 187.492188 C 245.175781 155.636719 219.355469 129.8125 187.5 129.8125 Z M 187.5 129.8125 "/></clipPath><clipPath id="7b9ff1fce2"><path d="M 129.824219 259.644531 L 245.175781 259.644531 L 245.175781 375 L 129.824219 375 Z M 129.824219 259.644531 "/></clipPath><clipPath id="d99dd2abe8"><path d="M 187.5 259.644531 C 155.644531 259.644531 129.824219 285.46875 129.824219 317.324219 C 129.824219 349.175781 155.644531 375 187.5 375 C 219.355469 375 245.175781 349.175781 245.175781 317.324219 C 245.175781 285.46875 219.355469 259.644531 187.5 259.644531 Z M 187.5 259.644531 "/></clipPath></defs><g id="7f54dffbe6"><g clip-rule="nonzero" clip-path="url(#241d7dcfd0)"><g clip-rule="nonzero" clip-path="url(#bf0884a61f)"><path style=" stroke:none;fill-rule:nonzero;fill:currentColor;fill-opacity:1;" d="M 129.824219 0 L 245.175781 0 L 245.175781 115.355469 L 129.824219 115.355469 Z M 129.824219 0 "/></g></g><g clip-rule="nonzero" clip-path="url(#27b4dcb126)"><g clip-rule="nonzero" clip-path="url(#c17308ab8b)"><path style=" stroke:none;fill-rule:nonzero;fill:currentColor;fill-opacity:1;" d="M 129.824219 129.8125 L 245.175781 129.8125 L 245.175781 245.167969 L 129.824219 245.167969 Z M 129.824219 129.8125 "/></g></g><g clip-rule="nonzero" clip-path="url(#7b9ff1fce2)"><g clip-rule="nonzero" clip-path="url(#d99dd2abe8)"><path style=" stroke:none;fill-rule:nonzero;fill:currentColor;fill-opacity:1;" d="M 129.824219 259.644531 L 245.175781 259.644531 L 245.175781 375 L 129.824219 375 Z M 129.824219 259.644531 "/></g></g></g></svg>