<svg xmlns="http://www.w3.org/2000/svg" xmlns:xlink="http://www.w3.org/1999/xlink" width="500" zoomAndPan="magnify" viewBox="0 0 375 374.999991" height="500" preserveAspectRatio="xMidYMid meet" version="1.0"><path fill="currentColor" d="M 296.851562 140.625 L 234.375 0 L 203.101562 0 L 265.574219 140.625 Z M 171.898438 0 L 140.625 0 L 78.148438 140.625 L 109.421875 140.625 Z M 31.273438 343.726562 C 31.273438 360.9375 45.261719 375 62.546875 375 L 312.523438 375 C 329.734375 375 343.796875 361.011719 343.796875 343.726562 L 359.398438 203.101562 L 15.601562 203.101562 Z M 265.648438 234.375 L 296.921875 234.375 L 281.25 343.726562 L 249.976562 343.726562 Z M 171.898438 234.375 L 203.175781 234.375 L 203.175781 343.726562 L 171.898438 343.726562 Z M 109.351562 234.375 L 124.953125 343.726562 L 93.75 343.726562 L 78.148438 234.375 Z M 359.398438 156.226562 L 15.601562 156.226562 C 6.957031 156.226562 0 163.257812 0 171.898438 L 0 187.5 L 375 187.5 L 375 171.898438 C 375 163.257812 368.042969 156.226562 359.398438 156.226562 " fill-opacity="1" fill-rule="nonzero"/></svg>