<svg xmlns="http://www.w3.org/2000/svg" xmlns:xlink="http://www.w3.org/1999/xlink" width="500" zoomAndPan="magnify" viewBox="0 0 375 374.999991" height="500" preserveAspectRatio="xMidYMid meet" version="1.2"><g id="329038f3f9"><path style=" stroke:none;fill-rule:evenodd;fill:currentColor;fill-opacity:1;" d="M 187.445312 -0.0351562 C 290.980469 -0.0351562 374.910156 83.894531 374.910156 187.429688 C 374.910156 290.964844 290.980469 374.894531 187.445312 374.894531 C 83.910156 374.894531 -0.0195312 290.964844 -0.0195312 187.429688 C -0.0195312 83.894531 83.910156 -0.0351562 187.445312 -0.0351562 Z M 138.128906 161.265625 C 137.84375 142.496094 180.796875 132.195312 200.277344 137.34375 C 249.648438 150.410156 178.179688 265.28125 190.546875 282.265625 C 197.425781 291.710938 228.636719 284.261719 228.636719 292.851562 C 228.636719 301.445312 207.445312 323.777344 171.351562 316.34375 C 135.261719 308.894531 145.007812 283.691406 149.875 263.355469 C 154.742188 243.019531 175.648438 186.875 175.648438 177.144531 C 175.648438 146.597656 137.648438 169.300781 138.113281 161.246094 Z M 208.53125 57 C 224.109375 57 236.746094 69.636719 236.746094 85.210938 C 236.746094 100.789062 224.109375 113.425781 208.53125 113.425781 C 192.953125 113.425781 180.316406 100.789062 180.316406 85.210938 C 180.316406 69.636719 192.953125 57 208.53125 57 Z M 208.53125 57 "/></g></svg>