<svg xmlns="http://www.w3.org/2000/svg" xmlns:xlink="http://www.w3.org/1999/xlink" width="500" zoomAndPan="magnify" viewBox="0 0 375 374.999991" height="500" preserveAspectRatio="xMidYMid meet" version="1.2"><defs><clipPath id="5b6c1236ad"><path d="M 31.171875 0 L 343.921875 0 L 343.921875 375 L 31.171875 375 Z M 31.171875 0 "/></clipPath></defs><g id="cb3a7dd23e"><g clip-rule="nonzero" clip-path="url(#5b6c1236ad)"><path style=" stroke:none;fill-rule:nonzero;fill:currentColor;fill-opacity:1;" d="M 335.765625 291.914062 L 234.339844 124.992188 L 234.339844 45.546875 C 243.4375 42.320312 249.960938 33.644531 249.960938 23.4375 C 249.960938 10.503906 239.464844 0 226.523438 0 L 148.40625 0 C 135.460938 0 124.96875 10.503906 124.96875 23.4375 C 124.96875 33.644531 131.488281 42.320312 140.589844 45.546875 L 140.589844 124.992188 L 39.160156 291.914062 C 34.113281 300.199219 31.21875 309.90625 31.21875 320.320312 C 31.21875 350.507812 55.695312 375 85.898438 375 L 289.03125 375 C 319.230469 375 343.710938 350.507812 343.710938 320.320312 C 343.710938 309.90625 340.8125 300.203125 335.765625 291.914062 Z M 148.40625 15.632812 L 226.523438 15.632812 C 230.835938 15.632812 234.339844 19.132812 234.339844 23.4375 C 234.339844 27.742188 230.835938 31.242188 226.523438 31.242188 L 148.40625 31.242188 C 144.089844 31.242188 140.589844 27.742188 140.589844 23.4375 C 140.589844 19.132812 144.089844 15.632812 148.40625 15.632812 Z M 153.941406 133.117188 L 156.210938 129.386719 L 156.210938 46.875 L 218.71875 46.875 L 218.71875 129.386719 L 220.984375 133.117188 L 287.769531 243.003906 C 282.632812 248.40625 276.796875 253.394531 270.296875 257.789062 C 256.953125 266.832031 243.941406 271.546875 231.101562 272.894531 C 202.695312 275.894531 175.148438 262.34375 146.632812 242.410156 C 132.601562 232.589844 117.632812 223.871094 102.136719 218.351562 Z M 153.941406 133.117188 "/></g></g></svg>