<svg xmlns="http://www.w3.org/2000/svg" xmlns:xlink="http://www.w3.org/1999/xlink" width="500" zoomAndPan="magnify" viewBox="0 0 375 374.999991" height="500" preserveAspectRatio="xMidYMid meet" version="1.0"><defs><clipPath id="e0240a1a69"><path d="M 0 0 L 375 0 L 375 375 L 0 375 Z M 0 0 " clip-rule="nonzero"/></clipPath><clipPath id="fcbdd84d7d"><rect x="0" width="375" y="0" height="375"/></clipPath><clipPath id="7cb6bcf38b"><path d="M 34 108 L 175 108 L 175 248 L 34 248 Z M 34 108 " clip-rule="nonzero"/></clipPath><clipPath id="16b1a5ff4e"><path d="M 6.804688 155.855469 L 253.511719 0.113281 L 398.042969 229.0625 L 151.335938 384.800781 Z M 6.804688 155.855469 " clip-rule="nonzero"/></clipPath><clipPath id="8741df31d0"><path d="M 6.804688 155.855469 L 253.511719 0.113281 L 398.042969 229.0625 L 151.335938 384.800781 Z M 6.804688 155.855469 " clip-rule="nonzero"/></clipPath><clipPath id="8784e24fd7"><path d="M 88 146 L 106 146 L 106 163 L 88 163 Z M 88 146 " clip-rule="nonzero"/></clipPath><clipPath id="0b572b60c3"><path d="M 6.804688 155.855469 L 253.511719 0.113281 L 398.042969 229.0625 L 151.335938 384.800781 Z M 6.804688 155.855469 " clip-rule="nonzero"/></clipPath><clipPath id="d27b796edd"><path d="M 6.804688 155.855469 L 253.511719 0.113281 L 398.042969 229.0625 L 151.335938 384.800781 Z M 6.804688 155.855469 " clip-rule="nonzero"/></clipPath><clipPath id="09cccf1280"><path d="M 77 174 L 88 174 L 88 185 L 77 185 Z M 77 174 " clip-rule="nonzero"/></clipPath><clipPath id="2e24800306"><path d="M 6.804688 155.855469 L 253.511719 0.113281 L 398.042969 229.0625 L 151.335938 384.800781 Z M 6.804688 155.855469 " clip-rule="nonzero"/></clipPath><clipPath id="95ad92d20b"><path d="M 6.804688 155.855469 L 253.511719 0.113281 L 398.042969 229.0625 L 151.335938 384.800781 Z M 6.804688 155.855469 " clip-rule="nonzero"/></clipPath><clipPath id="64293f2133"><path d="M 89 190 L 109 190 L 109 210 L 89 210 Z M 89 190 " clip-rule="nonzero"/></clipPath><clipPath id="51db86ff50"><path d="M 6.804688 155.855469 L 253.511719 0.113281 L 398.042969 229.0625 L 151.335938 384.800781 Z M 6.804688 155.855469 " clip-rule="nonzero"/></clipPath><clipPath id="5ab456ae2a"><path d="M 6.804688 155.855469 L 253.511719 0.113281 L 398.042969 229.0625 L 151.335938 384.800781 Z M 6.804688 155.855469 " clip-rule="nonzero"/></clipPath><clipPath id="611b29ce61"><path d="M 112 164 L 133 164 L 133 185 L 112 185 Z M 112 164 " clip-rule="nonzero"/></clipPath><clipPath id="1c865ad887"><path d="M 6.804688 155.855469 L 253.511719 0.113281 L 398.042969 229.0625 L 151.335938 384.800781 Z M 6.804688 155.855469 " clip-rule="nonzero"/></clipPath><clipPath id="bd5a1e9105"><path d="M 6.804688 155.855469 L 253.511719 0.113281 L 398.042969 229.0625 L 151.335938 384.800781 Z M 6.804688 155.855469 " clip-rule="nonzero"/></clipPath><clipPath id="a53cf4f5cd"><path d="M 211 68 L 320 68 L 320 177 L 211 177 Z M 211 68 " clip-rule="nonzero"/></clipPath><clipPath id="74885b205b"><path d="M 6.804688 155.855469 L 253.511719 0.113281 L 398.042969 229.0625 L 151.335938 384.800781 Z M 6.804688 155.855469 " clip-rule="nonzero"/></clipPath><clipPath id="eaf29c5291"><path d="M 6.804688 155.855469 L 253.511719 0.113281 L 398.042969 229.0625 L 151.335938 384.800781 Z M 6.804688 155.855469 " clip-rule="nonzero"/></clipPath><clipPath id="d0586c7f00"><path d="M 253 97 L 267 97 L 267 111 L 253 111 Z M 253 97 " clip-rule="nonzero"/></clipPath><clipPath id="ad1df8962e"><path d="M 6.804688 155.855469 L 253.511719 0.113281 L 398.042969 229.0625 L 151.335938 384.800781 Z M 6.804688 155.855469 " clip-rule="nonzero"/></clipPath><clipPath id="4327646b90"><path d="M 6.804688 155.855469 L 253.511719 0.113281 L 398.042969 229.0625 L 151.335938 384.800781 Z M 6.804688 155.855469 " clip-rule="nonzero"/></clipPath><clipPath id="cd0806d911"><path d="M 244 119 L 253 119 L 253 128 L 244 128 Z M 244 119 " clip-rule="nonzero"/></clipPath><clipPath id="f66d093c20"><path d="M 6.804688 155.855469 L 253.511719 0.113281 L 398.042969 229.0625 L 151.335938 384.800781 Z M 6.804688 155.855469 " clip-rule="nonzero"/></clipPath><clipPath id="434d6ec3a0"><path d="M 6.804688 155.855469 L 253.511719 0.113281 L 398.042969 229.0625 L 151.335938 384.800781 Z M 6.804688 155.855469 " clip-rule="nonzero"/></clipPath><clipPath id="94de1799d2"><path d="M 253 132 L 269 132 L 269 148 L 253 148 Z M 253 132 " clip-rule="nonzero"/></clipPath><clipPath id="c4a489376b"><path d="M 6.804688 155.855469 L 253.511719 0.113281 L 398.042969 229.0625 L 151.335938 384.800781 Z M 6.804688 155.855469 " clip-rule="nonzero"/></clipPath><clipPath id="2114e305ae"><path d="M 6.804688 155.855469 L 253.511719 0.113281 L 398.042969 229.0625 L 151.335938 384.800781 Z M 6.804688 155.855469 " clip-rule="nonzero"/></clipPath><clipPath id="8803df8b7c"><path d="M 271 112 L 288 112 L 288 128 L 271 128 Z M 271 112 " clip-rule="nonzero"/></clipPath><clipPath id="9c0e325079"><path d="M 6.804688 155.855469 L 253.511719 0.113281 L 398.042969 229.0625 L 151.335938 384.800781 Z M 6.804688 155.855469 " clip-rule="nonzero"/></clipPath><clipPath id="44e09526c7"><path d="M 6.804688 155.855469 L 253.511719 0.113281 L 398.042969 229.0625 L 151.335938 384.800781 Z M 6.804688 155.855469 " clip-rule="nonzero"/></clipPath><clipPath id="9a33e7f470"><path d="M 188 227 L 284 227 L 284 322 L 188 322 Z M 188 227 " clip-rule="nonzero"/></clipPath><clipPath id="2524808ebc"><path d="M 6.804688 155.855469 L 253.511719 0.113281 L 398.042969 229.0625 L 151.335938 384.800781 Z M 6.804688 155.855469 " clip-rule="nonzero"/></clipPath><clipPath id="1cf8519170"><path d="M 6.804688 155.855469 L 253.511719 0.113281 L 398.042969 229.0625 L 151.335938 384.800781 Z M 6.804688 155.855469 " clip-rule="nonzero"/></clipPath><clipPath id="f60458def6"><path d="M 225 253 L 237 253 L 237 265 L 225 265 Z M 225 253 " clip-rule="nonzero"/></clipPath><clipPath id="67cb643e51"><path d="M 6.804688 155.855469 L 253.511719 0.113281 L 398.042969 229.0625 L 151.335938 384.800781 Z M 6.804688 155.855469 " clip-rule="nonzero"/></clipPath><clipPath id="5764afa869"><path d="M 6.804688 155.855469 L 253.511719 0.113281 L 398.042969 229.0625 L 151.335938 384.800781 Z M 6.804688 155.855469 " clip-rule="nonzero"/></clipPath><clipPath id="5d4a4ec870"><path d="M 217 272 L 225 272 L 225 280 L 217 280 Z M 217 272 " clip-rule="nonzero"/></clipPath><clipPath id="158380de9f"><path d="M 6.804688 155.855469 L 253.511719 0.113281 L 398.042969 229.0625 L 151.335938 384.800781 Z M 6.804688 155.855469 " clip-rule="nonzero"/></clipPath><clipPath id="92ee2560bc"><path d="M 6.804688 155.855469 L 253.511719 0.113281 L 398.042969 229.0625 L 151.335938 384.800781 Z M 6.804688 155.855469 " clip-rule="nonzero"/></clipPath><clipPath id="216a84eeec"><path d="M 225 283 L 239 283 L 239 297 L 225 297 Z M 225 283 " clip-rule="nonzero"/></clipPath><clipPath id="9ae159bb52"><path d="M 6.804688 155.855469 L 253.511719 0.113281 L 398.042969 229.0625 L 151.335938 384.800781 Z M 6.804688 155.855469 " clip-rule="nonzero"/></clipPath><clipPath id="f08b05a1bb"><path d="M 6.804688 155.855469 L 253.511719 0.113281 L 398.042969 229.0625 L 151.335938 384.800781 Z M 6.804688 155.855469 " clip-rule="nonzero"/></clipPath><clipPath id="efc8b48b13"><path d="M 241 265 L 255 265 L 255 280 L 241 280 Z M 241 265 " clip-rule="nonzero"/></clipPath><clipPath id="6a9db63bff"><path d="M 6.804688 155.855469 L 253.511719 0.113281 L 398.042969 229.0625 L 151.335938 384.800781 Z M 6.804688 155.855469 " clip-rule="nonzero"/></clipPath><clipPath id="42e54e15b5"><path d="M 6.804688 155.855469 L 253.511719 0.113281 L 398.042969 229.0625 L 151.335938 384.800781 Z M 6.804688 155.855469 " clip-rule="nonzero"/></clipPath></defs><g transform="matrix(1, 0, 0, 1, 0, 0)"><g clip-path="url(#fcbdd84d7d)"><g clip-path="url(#e0240a1a69)"><path fill="currentColor" d="M 187.53125 374.976562 C 290.914062 374.976562 375.03125 290.863281 375.03125 187.476562 C 375.03125 84.09375 290.914062 -0.03125 187.53125 -0.03125 C 84.144531 -0.03125 0.03125 84.085938 0.03125 187.46875 C 0.03125 290.855469 84.144531 374.96875 187.53125 374.96875 Z M 187.53125 17.828125 C 281.070312 17.828125 357.179688 93.9375 357.179688 187.476562 C 357.179688 281.019531 281.070312 357.125 187.53125 357.125 C 93.988281 357.125 17.878906 281.019531 17.878906 187.476562 C 17.878906 93.9375 93.988281 17.828125 187.53125 17.828125 Z M 187.53125 17.828125 " fill-opacity="1" fill-rule="nonzero"/></g><path fill="currentColor" d="M 320.105469 67.519531 L 307.476562 54.894531 L 54.953125 307.414062 L 67.582031 320.042969 Z M 320.105469 67.519531 " fill-opacity="1" fill-rule="nonzero"/></g></g><g clip-path="url(#7cb6bcf38b)"><g clip-path="url(#16b1a5ff4e)"><g clip-path="url(#8741df31d0)"><path fill="currentColor" d="M 154.582031 133.03125 C 152.714844 134.210938 153.089844 138.273438 155.277344 142.695312 C 155.265625 142.714844 155.253906 142.726562 155.242188 142.742188 C 151.746094 147.121094 146.835938 150.21875 141.386719 151.492188 C 139.148438 152.011719 137.222656 152.101562 136.050781 151.417969 C 134.414062 149.472656 132.621094 147.710938 130.707031 146.136719 C 130.273438 145.511719 130.363281 144.421875 130.726562 143.152344 C 131.554688 140.285156 133.34375 137.757812 135.769531 136.015625 C 135.777344 136.011719 135.789062 136.003906 135.796875 136 C 138.09375 137.285156 140.242188 137.597656 140.921875 136.636719 C 141.722656 135.503906 140.171875 133.035156 137.457031 131.113281 C 134.742188 129.195312 131.894531 128.5625 131.09375 129.695312 C 130.414062 130.65625 131.425781 132.578125 133.40625 134.308594 C 133.40625 134.320312 133.402344 134.332031 133.398438 134.34375 C 132.570312 137.210938 130.785156 139.738281 128.355469 141.476562 C 127.261719 142.261719 126.242188 142.714844 125.507812 142.488281 L 125.707031 142.628906 C 123.597656 141.371094 121.390625 140.3125 119.113281 139.457031 C 118.074219 138.585938 117.511719 136.738281 117.257812 134.449219 C 116.632812 128.882812 117.914062 123.21875 120.871094 118.464844 C 120.882812 118.445312 120.890625 118.429688 120.90625 118.410156 C 125.804688 118.996094 129.757812 117.988281 130.246094 115.835938 C 130.820312 113.296875 126.355469 110.128906 120.277344 108.753906 C 114.195312 107.378906 108.804688 108.324219 108.230469 110.859375 C 107.746094 113.011719 110.882812 115.621094 115.558594 117.203125 C 115.558594 117.222656 115.5625 117.242188 115.566406 117.265625 C 116.191406 122.828125 114.910156 128.492188 111.953125 133.25 C 110.738281 135.203125 109.4375 136.632812 108.121094 136.972656 C 105.636719 136.761719 103.128906 136.773438 100.628906 137.019531 C 99.878906 136.886719 99.164062 136.050781 98.527344 134.890625 C 97.082031 132.277344 96.558594 129.226562 97.042969 126.28125 C 97.046875 126.269531 97.046875 126.257812 97.050781 126.25 C 99.582031 125.535156 101.324219 124.234375 101.125 123.078125 C 100.886719 121.710938 98.042969 121.058594 94.769531 121.621094 C 91.496094 122.1875 89.03125 123.75 89.265625 125.117188 C 89.464844 126.277344 91.539062 126.921875 94.164062 126.746094 C 94.167969 126.753906 94.175781 126.761719 94.183594 126.773438 C 95.625 129.390625 96.148438 132.4375 95.664062 135.382812 C 95.445312 136.710938 95.046875 137.75 94.363281 138.113281 L 94.570312 138.074219 C 92.238281 138.664062 89.9375 139.46875 87.691406 140.492188 C 86.339844 140.605469 84.640625 139.695312 82.84375 138.261719 C 78.46875 134.765625 75.367188 129.859375 74.097656 124.40625 C 74.09375 124.386719 74.085938 124.367188 74.085938 124.347656 C 77.960938 121.296875 80.046875 117.789062 78.867188 115.921875 C 77.480469 113.722656 72.082031 114.640625 66.8125 117.96875 C 61.539062 121.296875 58.390625 125.773438 59.78125 127.972656 C 60.957031 129.839844 65.023438 129.464844 69.441406 127.277344 C 69.460938 127.289062 69.476562 127.304688 69.492188 127.3125 C 73.867188 130.808594 76.964844 135.71875 78.238281 141.171875 C 78.757812 143.40625 78.851562 145.335938 78.167969 146.503906 C 76.222656 148.140625 74.457031 149.933594 72.886719 151.847656 C 72.257812 152.28125 71.171875 152.195312 69.898438 151.828125 C 67.03125 150.996094 64.503906 149.214844 62.765625 146.785156 C 62.757812 146.777344 62.753906 146.765625 62.746094 146.757812 C 64.035156 144.464844 64.34375 142.3125 63.386719 141.632812 C 62.253906 140.832031 59.78125 142.382812 57.863281 145.097656 C 55.945312 147.8125 55.308594 150.664062 56.441406 151.460938 C 57.402344 152.140625 59.328125 151.128906 61.058594 149.148438 C 61.066406 149.152344 61.078125 149.152344 61.089844 149.15625 C 63.960938 149.988281 66.488281 151.773438 68.226562 154.199219 C 69.007812 155.292969 69.460938 156.3125 69.234375 157.046875 L 69.375 156.847656 C 68.117188 158.957031 67.058594 161.164062 66.203125 163.441406 C 65.332031 164.480469 63.484375 165.042969 61.195312 165.296875 C 55.632812 165.921875 49.96875 164.640625 45.210938 161.683594 C 45.195312 161.671875 45.175781 161.664062 45.160156 161.648438 C 45.742188 156.75 44.738281 152.796875 42.585938 152.308594 C 40.046875 151.734375 36.875 156.199219 35.503906 162.277344 C 34.128906 168.359375 35.070312 173.753906 37.609375 174.324219 C 39.757812 174.808594 42.367188 171.671875 43.949219 167 C 43.96875 166.996094 43.988281 166.996094 44.007812 166.992188 C 49.574219 166.367188 55.238281 167.648438 59.996094 170.605469 C 61.949219 171.820312 63.378906 173.121094 63.71875 174.433594 C 63.507812 176.917969 63.519531 179.429688 63.761719 181.929688 C 63.632812 182.679688 62.796875 183.390625 61.636719 184.03125 C 59.019531 185.472656 55.972656 186 53.027344 185.515625 C 53.015625 185.511719 53.003906 185.507812 52.992188 185.507812 C 52.277344 182.976562 50.980469 181.234375 49.820312 181.433594 C 48.453125 181.671875 47.804688 184.515625 48.363281 187.789062 C 48.929688 191.0625 50.492188 193.527344 51.859375 193.292969 C 53.019531 193.09375 53.664062 191.019531 53.488281 188.394531 C 53.496094 188.386719 53.507812 188.382812 53.515625 188.375 C 56.132812 186.933594 59.179688 186.40625 62.128906 186.894531 C 63.453125 187.113281 64.496094 187.511719 64.855469 188.195312 L 64.820312 187.988281 C 65.410156 190.320312 66.214844 192.621094 67.234375 194.867188 C 67.351562 196.21875 66.4375 197.917969 65.003906 199.714844 C 61.511719 204.089844 56.601562 207.191406 51.148438 208.460938 C 51.128906 208.464844 51.109375 208.472656 51.089844 208.472656 C 48.039062 204.597656 44.53125 202.511719 42.667969 203.691406 C 40.46875 205.078125 41.382812 210.476562 44.710938 215.746094 C 48.039062 221.019531 52.515625 224.167969 54.71875 222.777344 C 56.582031 221.601562 56.207031 217.535156 54.019531 213.117188 C 54.035156 213.097656 54.046875 213.082031 54.058594 213.066406 C 57.550781 208.691406 62.460938 205.59375 67.914062 204.320312 C 70.152344 203.800781 72.078125 203.707031 73.246094 204.390625 C 74.882812 206.335938 76.675781 208.101562 78.589844 209.671875 C 79.023438 210.300781 78.9375 211.386719 78.570312 212.65625 C 77.742188 215.527344 75.957031 218.054688 73.527344 219.792969 C 73.519531 219.796875 73.511719 219.804688 73.5 219.8125 C 71.207031 218.523438 69.054688 218.214844 68.375 219.171875 C 67.578125 220.304688 69.128906 222.777344 71.84375 224.695312 C 74.554688 226.613281 77.40625 227.25 78.207031 226.117188 C 78.882812 225.15625 77.871094 223.230469 75.890625 221.5 C 75.894531 221.488281 75.894531 221.480469 75.898438 221.46875 C 76.726562 218.601562 78.511719 216.070312 80.941406 214.332031 C 82.035156 213.550781 83.054688 213.097656 83.789062 213.324219 L 83.589844 213.183594 C 85.699219 214.441406 87.90625 215.5 90.183594 216.355469 C 91.222656 217.226562 91.78125 219.074219 92.039062 221.363281 C 92.664062 226.929688 91.382812 232.59375 88.425781 237.347656 C 88.414062 237.363281 88.40625 237.382812 88.390625 237.402344 C 83.492188 236.816406 79.539062 237.824219 79.050781 239.976562 C 78.476562 242.511719 82.9375 245.683594 89.019531 247.058594 C 95.097656 248.429688 100.492188 247.488281 101.066406 244.949219 C 101.550781 242.800781 98.414062 240.191406 93.738281 238.609375 C 93.738281 238.589844 93.734375 238.570312 93.730469 238.546875 C 93.105469 232.984375 94.386719 227.320312 97.34375 222.5625 C 98.558594 220.609375 99.859375 219.179688 101.171875 218.839844 C 103.65625 219.050781 106.167969 219.039062 108.667969 218.792969 C 109.417969 218.925781 110.128906 219.761719 110.769531 220.921875 C 112.210938 223.535156 112.738281 226.585938 112.253906 229.53125 C 112.25 229.542969 112.25 229.550781 112.246094 229.5625 C 109.714844 230.277344 107.972656 231.574219 108.171875 232.734375 C 108.40625 234.101562 111.253906 234.75 114.527344 234.191406 C 117.800781 233.625 120.265625 232.0625 120.03125 230.695312 C 119.832031 229.535156 117.757812 228.890625 115.132812 229.066406 C 115.125 229.058594 115.121094 229.046875 115.113281 229.039062 C 113.671875 226.421875 113.144531 223.375 113.632812 220.429688 C 113.851562 219.101562 114.25 218.0625 114.933594 217.699219 L 114.726562 217.738281 C 117.058594 217.144531 119.359375 216.34375 121.605469 215.320312 C 122.957031 215.207031 124.65625 216.117188 126.453125 217.550781 C 130.828125 221.042969 133.925781 225.953125 135.199219 231.40625 C 135.203125 231.425781 135.210938 231.445312 135.210938 231.464844 C 131.335938 234.515625 129.25 238.023438 130.429688 239.886719 C 131.816406 242.089844 137.214844 241.171875 142.484375 237.84375 C 147.757812 234.515625 150.90625 230.039062 149.515625 227.839844 C 148.339844 225.972656 144.273438 226.347656 139.855469 228.535156 C 139.835938 228.519531 139.820312 228.507812 139.804688 228.496094 C 135.429688 225.003906 132.332031 220.09375 131.058594 214.640625 C 130.539062 212.40625 130.445312 210.476562 131.128906 209.308594 C 133.074219 207.671875 134.839844 205.878906 136.410156 203.964844 C 137.039062 203.53125 138.125 203.617188 139.394531 203.984375 C 142.261719 204.8125 144.792969 206.597656 146.53125 209.027344 C 146.535156 209.035156 146.542969 209.046875 146.550781 209.054688 C 145.261719 211.347656 144.953125 213.5 145.910156 214.179688 C 147.042969 214.980469 149.515625 213.425781 151.433594 210.714844 C 153.351562 208 153.988281 205.148438 152.855469 204.347656 C 151.894531 203.671875 149.96875 204.683594 148.238281 206.664062 C 148.226562 206.660156 148.21875 206.660156 148.207031 206.65625 C 145.339844 205.828125 142.808594 204.042969 141.070312 201.613281 C 140.289062 200.519531 139.835938 199.503906 140.0625 198.765625 L 139.921875 198.964844 C 141.179688 196.855469 142.238281 194.648438 143.09375 192.371094 C 143.964844 191.332031 145.8125 190.773438 148.101562 190.515625 C 153.667969 189.890625 159.332031 191.171875 164.085938 194.128906 C 164.101562 194.140625 164.121094 194.152344 164.136719 194.160156 C 163.554688 199.058594 164.558594 203.015625 166.710938 203.503906 C 169.25 204.078125 172.417969 199.613281 173.792969 193.535156 C 175.167969 187.453125 174.222656 182.058594 171.6875 181.488281 C 169.535156 181 166.929688 184.140625 165.347656 188.8125 C 165.328125 188.816406 165.304688 188.816406 165.285156 188.820312 C 159.71875 189.445312 154.058594 188.164062 149.300781 185.210938 C 147.34375 183.992188 145.914062 182.691406 145.574219 181.378906 C 145.785156 178.894531 145.777344 176.386719 145.53125 173.882812 C 145.664062 173.132812 146.5 172.421875 147.660156 171.78125 C 150.273438 170.339844 153.320312 169.8125 156.269531 170.300781 C 156.277344 170.300781 156.289062 170.304688 156.300781 170.304688 C 157.011719 172.835938 158.3125 174.582031 159.472656 174.378906 C 160.839844 174.144531 161.488281 171.300781 160.925781 168.023438 C 160.363281 164.75 158.796875 162.289062 157.429688 162.519531 C 156.273438 162.71875 155.628906 164.796875 155.804688 167.421875 C 155.792969 167.425781 155.785156 167.433594 155.773438 167.4375 C 153.160156 168.878906 150.109375 169.40625 147.164062 168.921875 C 145.835938 168.703125 144.796875 168.300781 144.4375 167.621094 L 144.472656 167.828125 C 143.882812 165.496094 143.078125 163.195312 142.058594 160.945312 C 141.941406 159.597656 142.855469 157.894531 144.285156 156.101562 C 147.78125 151.722656 152.691406 148.625 158.140625 147.355469 C 158.164062 147.347656 158.183594 147.34375 158.203125 147.339844 C 161.253906 151.214844 164.757812 153.304688 166.625 152.125 C 168.824219 150.738281 167.910156 145.339844 164.582031 140.066406 C 161.253906 134.796875 156.773438 131.648438 154.574219 133.039062 Z M 154.582031 133.03125 " fill-opacity="1" fill-rule="nonzero"/></g></g></g><g clip-path="url(#8784e24fd7)"><g clip-path="url(#0b572b60c3)"><g clip-path="url(#d27b796edd)"><path fill="#ffffff" d="M 103.882812 149.949219 C 104.171875 150.410156 104.414062 150.894531 104.609375 151.402344 C 104.804688 151.910156 104.949219 152.429688 105.042969 152.96875 C 105.132812 153.503906 105.171875 154.042969 105.160156 154.585938 C 105.144531 155.132812 105.078125 155.667969 104.957031 156.199219 C 104.839844 156.730469 104.667969 157.246094 104.445312 157.742188 C 104.226562 158.238281 103.957031 158.710938 103.644531 159.152344 C 103.328125 159.597656 102.976562 160.007812 102.582031 160.382812 C 102.1875 160.757812 101.757812 161.089844 101.296875 161.378906 C 100.839844 161.671875 100.355469 161.914062 99.847656 162.109375 C 99.339844 162.304688 98.816406 162.449219 98.28125 162.539062 C 97.742188 162.632812 97.203125 162.671875 96.660156 162.65625 C 96.117188 162.644531 95.578125 162.578125 95.046875 162.457031 C 94.515625 162.335938 94.003906 162.164062 93.503906 161.945312 C 93.007812 161.722656 92.539062 161.457031 92.09375 161.140625 C 91.648438 160.828125 91.238281 160.472656 90.863281 160.078125 C 90.488281 159.683594 90.15625 159.257812 89.867188 158.796875 C 89.574219 158.335938 89.332031 157.851562 89.136719 157.34375 C 88.941406 156.835938 88.800781 156.316406 88.707031 155.777344 C 88.613281 155.242188 88.574219 154.703125 88.589844 154.15625 C 88.605469 153.613281 88.671875 153.078125 88.789062 152.546875 C 88.910156 152.015625 89.082031 151.5 89.300781 151.003906 C 89.523438 150.507812 89.792969 150.035156 90.105469 149.589844 C 90.417969 149.148438 90.773438 148.738281 91.167969 148.363281 C 91.5625 147.988281 91.992188 147.65625 92.449219 147.363281 C 92.910156 147.074219 93.394531 146.832031 93.902344 146.636719 C 94.410156 146.441406 94.933594 146.296875 95.46875 146.207031 C 96.003906 146.113281 96.546875 146.074219 97.089844 146.089844 C 97.632812 146.101562 98.171875 146.167969 98.703125 146.289062 C 99.230469 146.410156 99.746094 146.578125 100.242188 146.800781 C 100.742188 147.023438 101.210938 147.289062 101.65625 147.605469 C 102.101562 147.917969 102.511719 148.273438 102.882812 148.667969 C 103.257812 149.0625 103.59375 149.488281 103.882812 149.949219 Z M 103.882812 149.949219 " fill-opacity="1" fill-rule="nonzero"/></g></g></g><g clip-path="url(#09cccf1280)"><g clip-path="url(#2e24800306)"><g clip-path="url(#95ad92d20b)"><path fill="#ffffff" d="M 80.886719 174.738281 C 81.210938 174.625 81.542969 174.546875 81.882812 174.5 C 82.222656 174.453125 82.566406 174.441406 82.910156 174.460938 C 83.25 174.484375 83.589844 174.539062 83.921875 174.625 C 84.253906 174.714844 84.574219 174.832031 84.882812 174.984375 C 85.191406 175.132812 85.480469 175.3125 85.753906 175.519531 C 86.027344 175.730469 86.277344 175.960938 86.507812 176.21875 C 86.734375 176.476562 86.933594 176.753906 87.105469 177.050781 C 87.28125 177.347656 87.421875 177.65625 87.535156 177.980469 C 87.644531 178.308594 87.726562 178.640625 87.769531 178.980469 C 87.816406 179.320312 87.828125 179.664062 87.808594 180.003906 C 87.789062 180.347656 87.734375 180.683594 87.644531 181.015625 C 87.558594 181.351562 87.4375 181.671875 87.289062 181.980469 C 87.136719 182.289062 86.957031 182.578125 86.75 182.851562 C 86.542969 183.125 86.308594 183.375 86.050781 183.601562 C 85.796875 183.832031 85.519531 184.03125 85.222656 184.203125 C 84.925781 184.375 84.613281 184.519531 84.289062 184.632812 C 83.964844 184.742188 83.632812 184.820312 83.292969 184.867188 C 82.949219 184.914062 82.609375 184.925781 82.265625 184.90625 C 81.921875 184.882812 81.585938 184.832031 81.253906 184.742188 C 80.921875 184.65625 80.601562 184.535156 80.292969 184.386719 C 79.984375 184.234375 79.691406 184.054688 79.417969 183.847656 C 79.144531 183.640625 78.894531 183.40625 78.667969 183.148438 C 78.441406 182.890625 78.242188 182.613281 78.066406 182.316406 C 77.894531 182.023438 77.753906 181.710938 77.640625 181.386719 C 77.527344 181.0625 77.449219 180.726562 77.402344 180.386719 C 77.355469 180.046875 77.34375 179.707031 77.367188 179.363281 C 77.386719 179.019531 77.441406 178.683594 77.527344 178.351562 C 77.617188 178.019531 77.734375 177.699219 77.886719 177.390625 C 78.035156 177.082031 78.214844 176.789062 78.425781 176.515625 C 78.632812 176.242188 78.863281 175.992188 79.121094 175.765625 C 79.378906 175.539062 79.65625 175.335938 79.953125 175.164062 C 80.25 174.992188 80.5625 174.847656 80.886719 174.738281 Z M 80.886719 174.738281 " fill-opacity="1" fill-rule="nonzero"/></g></g></g><g clip-path="url(#64293f2133)"><g clip-path="url(#51db86ff50)"><g clip-path="url(#5ab456ae2a)"><path fill="#ffffff" d="M 95.703125 190.78125 C 96.304688 190.574219 96.914062 190.429688 97.542969 190.34375 C 98.167969 190.257812 98.796875 190.234375 99.429688 190.273438 C 100.0625 190.3125 100.683594 190.414062 101.296875 190.574219 C 101.90625 190.734375 102.496094 190.957031 103.066406 191.234375 C 103.632812 191.511719 104.171875 191.839844 104.675781 192.222656 C 105.179688 192.605469 105.640625 193.035156 106.058594 193.507812 C 106.476562 193.984375 106.847656 194.492188 107.164062 195.039062 C 107.484375 195.585938 107.746094 196.160156 107.953125 196.757812 C 108.15625 197.355469 108.304688 197.96875 108.386719 198.597656 C 108.472656 199.222656 108.496094 199.851562 108.457031 200.484375 C 108.417969 201.117188 108.320312 201.738281 108.15625 202.347656 C 107.996094 202.960938 107.777344 203.550781 107.5 204.121094 C 107.222656 204.6875 106.890625 205.222656 106.507812 205.726562 C 106.125 206.230469 105.695312 206.691406 105.222656 207.113281 C 104.75 207.53125 104.238281 207.898438 103.691406 208.21875 C 103.144531 208.539062 102.570312 208.800781 101.972656 209.003906 C 101.375 209.210938 100.761719 209.355469 100.136719 209.441406 C 99.507812 209.527344 98.878906 209.550781 98.25 209.511719 C 97.617188 209.472656 96.996094 209.371094 96.382812 209.210938 C 95.769531 209.050781 95.179688 208.832031 94.613281 208.554688 C 94.042969 208.273438 93.507812 207.945312 93.003906 207.5625 C 92.5 207.179688 92.039062 206.75 91.621094 206.277344 C 91.199219 205.800781 90.832031 205.292969 90.511719 204.746094 C 90.195312 204.199219 89.933594 203.625 89.726562 203.027344 C 89.519531 202.429688 89.375 201.816406 89.289062 201.191406 C 89.207031 200.5625 89.183594 199.933594 89.222656 199.300781 C 89.257812 198.671875 89.359375 198.046875 89.519531 197.4375 C 89.683594 196.824219 89.902344 196.234375 90.179688 195.667969 C 90.457031 195.097656 90.785156 194.5625 91.171875 194.058594 C 91.554688 193.554688 91.980469 193.09375 92.457031 192.671875 C 92.929688 192.253906 93.441406 191.886719 93.988281 191.566406 C 94.535156 191.25 95.105469 190.988281 95.703125 190.78125 Z M 95.703125 190.78125 " fill-opacity="1" fill-rule="nonzero"/></g></g></g><g clip-path="url(#611b29ce61)"><g clip-path="url(#1c865ad887)"><g clip-path="url(#bd5a1e9105)"><path fill="#ffffff" d="M 119.445312 165.285156 C 120.058594 165.074219 120.683594 164.925781 121.324219 164.835938 C 121.96875 164.75 122.609375 164.726562 123.257812 164.765625 C 123.902344 164.804688 124.539062 164.90625 125.164062 165.074219 C 125.792969 165.238281 126.394531 165.460938 126.976562 165.746094 C 127.558594 166.03125 128.105469 166.367188 128.621094 166.761719 C 129.136719 167.152344 129.609375 167.589844 130.039062 168.074219 C 130.46875 168.5625 130.84375 169.082031 131.171875 169.640625 C 131.496094 170.203125 131.765625 170.789062 131.976562 171.398438 C 132.1875 172.011719 132.335938 172.640625 132.421875 173.28125 C 132.507812 173.921875 132.535156 174.566406 132.492188 175.210938 C 132.453125 175.859375 132.351562 176.496094 132.1875 177.121094 C 132.019531 177.746094 131.796875 178.351562 131.511719 178.933594 C 131.230469 179.515625 130.890625 180.0625 130.5 180.578125 C 130.105469 181.09375 129.667969 181.566406 129.183594 181.992188 C 128.699219 182.421875 128.175781 182.800781 127.617188 183.125 C 127.058594 183.453125 126.472656 183.71875 125.859375 183.929688 C 125.246094 184.140625 124.621094 184.289062 123.980469 184.378906 C 123.335938 184.464844 122.695312 184.488281 122.046875 184.449219 C 121.402344 184.410156 120.765625 184.304688 120.140625 184.140625 C 119.511719 183.976562 118.910156 183.75 118.328125 183.46875 C 117.746094 183.183594 117.195312 182.847656 116.683594 182.453125 C 116.167969 182.0625 115.695312 181.625 115.265625 181.136719 C 114.835938 180.652344 114.460938 180.132812 114.132812 179.570312 C 113.808594 179.011719 113.539062 178.425781 113.328125 177.816406 C 113.117188 177.203125 112.96875 176.574219 112.882812 175.933594 C 112.792969 175.292969 112.769531 174.648438 112.8125 174.003906 C 112.851562 173.355469 112.953125 172.71875 113.117188 172.09375 C 113.28125 171.46875 113.507812 170.863281 113.792969 170.28125 C 114.074219 169.699219 114.414062 169.152344 114.804688 168.636719 C 115.199219 168.121094 115.636719 167.648438 116.121094 167.21875 C 116.605469 166.792969 117.128906 166.414062 117.6875 166.089844 C 118.246094 165.761719 118.832031 165.492188 119.445312 165.285156 Z M 119.445312 165.285156 " fill-opacity="1" fill-rule="nonzero"/></g></g></g><g clip-path="url(#a53cf4f5cd)"><g clip-path="url(#74885b205b)"><g clip-path="url(#eaf29c5291)"><path fill="currentColor" d="M 304.535156 87.578125 C 303.082031 88.496094 303.375 91.660156 305.074219 95.105469 C 305.0625 95.117188 305.054688 95.128906 305.042969 95.140625 C 302.320312 98.550781 298.496094 100.964844 294.25 101.957031 C 292.507812 102.363281 291.003906 102.433594 290.09375 101.902344 C 288.820312 100.386719 287.425781 99.015625 285.933594 97.789062 C 285.59375 97.300781 285.664062 96.453125 285.949219 95.464844 C 286.59375 93.230469 287.984375 91.261719 289.875 89.90625 C 289.882812 89.902344 289.890625 89.898438 289.898438 89.894531 C 291.683594 90.894531 293.359375 91.136719 293.886719 90.386719 C 294.511719 89.507812 293.300781 87.582031 291.1875 86.085938 C 289.074219 84.59375 286.855469 84.097656 286.234375 84.980469 C 285.703125 85.730469 286.492188 87.230469 288.035156 88.574219 C 288.03125 88.585938 288.03125 88.589844 288.03125 88.601562 C 287.382812 90.835938 285.992188 92.804688 284.105469 94.160156 C 283.25 94.769531 282.457031 95.121094 281.882812 94.941406 L 282.039062 95.054688 C 280.398438 94.074219 278.679688 93.25 276.902344 92.582031 C 276.09375 91.90625 275.65625 90.460938 275.457031 88.679688 C 274.96875 84.347656 275.964844 79.933594 278.269531 76.230469 C 278.277344 76.214844 278.285156 76.203125 278.296875 76.1875 C 282.109375 76.644531 285.191406 75.859375 285.570312 74.183594 C 286.015625 72.207031 282.539062 69.738281 277.804688 68.667969 C 273.070312 67.597656 268.867188 68.332031 268.421875 70.308594 C 268.042969 71.984375 270.484375 74.015625 274.125 75.246094 C 274.128906 75.265625 274.128906 75.277344 274.132812 75.296875 C 274.617188 79.628906 273.621094 84.042969 271.316406 87.746094 C 270.371094 89.269531 269.359375 90.382812 268.332031 90.648438 C 266.398438 90.484375 264.441406 90.492188 262.496094 90.679688 C 261.910156 90.578125 261.355469 89.929688 260.855469 89.023438 C 259.734375 86.988281 259.324219 84.613281 259.703125 82.316406 C 259.703125 82.308594 259.703125 82.300781 259.707031 82.292969 C 261.679688 81.738281 263.035156 80.722656 262.878906 79.824219 C 262.699219 78.757812 260.480469 78.25 257.929688 78.691406 C 255.378906 79.128906 253.460938 80.347656 253.644531 81.414062 C 253.800781 82.316406 255.414062 82.816406 257.460938 82.683594 C 257.464844 82.6875 257.46875 82.699219 257.472656 82.703125 C 258.597656 84.738281 259.003906 87.117188 258.628906 89.410156 C 258.457031 90.445312 258.144531 91.253906 257.613281 91.535156 L 257.777344 91.507812 C 255.957031 91.96875 254.164062 92.59375 252.417969 93.386719 C 251.367188 93.476562 250.039062 92.765625 248.640625 91.648438 C 245.234375 88.925781 242.820312 85.101562 241.828125 80.855469 C 241.824219 80.835938 241.820312 80.820312 241.816406 80.804688 C 244.835938 78.429688 246.460938 75.699219 245.539062 74.242188 C 244.457031 72.53125 240.253906 73.242188 236.148438 75.835938 C 232.042969 78.425781 229.589844 81.917969 230.671875 83.628906 C 231.589844 85.082031 234.753906 84.789062 238.199219 83.089844 C 238.210938 83.101562 238.222656 83.109375 238.238281 83.121094 C 241.644531 85.84375 244.058594 89.667969 245.050781 93.914062 C 245.457031 95.65625 245.527344 97.15625 244.996094 98.070312 C 243.480469 99.34375 242.109375 100.738281 240.882812 102.230469 C 240.398438 102.570312 239.546875 102.5 238.558594 102.214844 C 236.324219 101.566406 234.355469 100.175781 233 98.289062 C 232.996094 98.28125 232.992188 98.273438 232.988281 98.265625 C 233.988281 96.480469 234.230469 94.804688 233.484375 94.273438 C 232.601562 93.652344 230.675781 94.863281 229.183594 96.976562 C 227.6875 99.089844 227.191406 101.308594 228.074219 101.929688 C 228.824219 102.460938 230.324219 101.667969 231.671875 100.128906 C 231.679688 100.132812 231.6875 100.132812 231.695312 100.132812 C 233.929688 100.78125 235.898438 102.171875 237.253906 104.058594 C 237.863281 104.910156 238.214844 105.703125 238.039062 106.277344 L 238.148438 106.121094 C 237.167969 107.761719 236.347656 109.480469 235.679688 111.257812 C 235 112.066406 233.558594 112.503906 231.777344 112.703125 C 227.441406 113.191406 223.03125 112.195312 219.324219 109.890625 C 219.3125 109.882812 219.300781 109.875 219.285156 109.863281 C 219.742188 106.046875 218.957031 102.96875 217.28125 102.589844 C 215.304688 102.144531 212.835938 105.621094 211.765625 110.355469 C 210.695312 115.089844 211.429688 119.292969 213.402344 119.738281 C 215.082031 120.117188 217.109375 117.675781 218.34375 114.035156 C 218.359375 114.03125 218.375 114.03125 218.390625 114.027344 C 222.726562 113.542969 227.136719 114.539062 230.839844 116.839844 C 232.363281 117.789062 233.476562 118.800781 233.742188 119.824219 C 233.578125 121.761719 233.585938 123.71875 233.777344 125.664062 C 233.671875 126.25 233.023438 126.804688 232.121094 127.304688 C 230.082031 128.425781 227.707031 128.835938 225.414062 128.457031 C 225.40625 128.457031 225.398438 128.457031 225.390625 128.453125 C 224.832031 126.480469 223.820312 125.125 222.917969 125.277344 C 221.855469 125.460938 221.347656 127.679688 221.785156 130.230469 C 222.226562 132.777344 223.445312 134.699219 224.507812 134.515625 C 225.410156 134.359375 225.914062 132.742188 225.777344 130.699219 C 225.785156 130.695312 225.792969 130.691406 225.800781 130.6875 C 227.835938 129.5625 230.210938 129.15625 232.503906 129.53125 C 233.542969 129.703125 234.351562 130.015625 234.632812 130.546875 L 234.601562 130.386719 C 235.066406 132.203125 235.691406 133.996094 236.484375 135.746094 C 236.570312 136.796875 235.863281 138.121094 234.746094 139.519531 C 232.023438 142.929688 228.199219 145.34375 223.949219 146.335938 C 223.933594 146.339844 223.917969 146.34375 223.902344 146.347656 C 221.527344 143.324219 218.796875 141.703125 217.339844 142.621094 C 215.625 143.703125 216.339844 147.910156 218.929688 152.015625 C 221.523438 156.121094 225.011719 158.570312 226.726562 157.488281 C 228.179688 156.574219 227.886719 153.40625 226.1875 149.964844 C 226.195312 149.949219 226.207031 149.9375 226.21875 149.925781 C 228.941406 146.515625 232.761719 144.101562 237.011719 143.109375 C 238.753906 142.707031 240.253906 142.632812 241.167969 143.164062 C 242.441406 144.679688 243.835938 146.054688 245.328125 147.277344 C 245.667969 147.765625 245.597656 148.613281 245.3125 149.601562 C 244.664062 151.835938 243.273438 153.804688 241.386719 155.160156 C 241.378906 155.164062 241.371094 155.171875 241.363281 155.175781 C 239.574219 154.171875 237.902344 153.929688 237.371094 154.679688 C 236.75 155.5625 237.957031 157.488281 240.070312 158.980469 C 242.183594 160.472656 244.402344 160.96875 245.027344 160.085938 C 245.554688 159.339844 244.765625 157.839844 243.226562 156.492188 C 243.230469 156.484375 243.230469 156.476562 243.230469 156.464844 C 243.875 154.234375 245.265625 152.265625 247.15625 150.910156 C 248.007812 150.296875 248.800781 149.945312 249.375 150.125 L 249.21875 150.015625 C 250.863281 150.996094 252.582031 151.816406 254.355469 152.484375 C 255.167969 153.164062 255.601562 154.605469 255.804688 156.386719 C 256.289062 160.722656 255.292969 165.136719 252.988281 168.839844 C 252.980469 168.851562 252.972656 168.863281 252.964844 168.878906 C 249.148438 168.425781 246.070312 169.210938 245.6875 170.882812 C 245.242188 172.859375 248.71875 175.328125 253.453125 176.398438 C 258.191406 177.472656 262.390625 176.734375 262.835938 174.761719 C 263.21875 173.082031 260.773438 171.054688 257.132812 169.820312 C 257.128906 169.804688 257.128906 169.789062 257.125 169.773438 C 256.640625 165.441406 257.636719 161.027344 259.941406 157.324219 C 260.886719 155.800781 261.898438 154.6875 262.925781 154.421875 C 264.859375 154.585938 266.816406 154.578125 268.761719 154.386719 C 269.347656 154.492188 269.902344 155.140625 270.402344 156.042969 C 271.523438 158.082031 271.933594 160.457031 271.558594 162.75 C 271.554688 162.761719 271.554688 162.765625 271.550781 162.777344 C 269.578125 163.332031 268.222656 164.34375 268.378906 165.246094 C 268.5625 166.308594 270.777344 166.816406 273.328125 166.378906 C 275.878906 165.9375 277.796875 164.71875 277.613281 163.65625 C 277.457031 162.753906 275.84375 162.25 273.796875 162.386719 C 273.792969 162.378906 273.789062 162.371094 273.785156 162.363281 C 272.660156 160.328125 272.253906 157.953125 272.628906 155.660156 C 272.800781 154.625 273.113281 153.8125 273.644531 153.53125 L 273.484375 153.5625 C 275.300781 153.097656 277.09375 152.472656 278.84375 151.679688 C 279.894531 151.59375 281.222656 152.300781 282.617188 153.417969 C 286.027344 156.140625 288.441406 159.964844 289.433594 164.214844 C 289.4375 164.230469 289.441406 164.246094 289.445312 164.261719 C 286.425781 166.636719 284.800781 169.367188 285.71875 170.824219 C 286.800781 172.539062 291.003906 171.828125 295.113281 169.234375 C 299.21875 166.640625 301.671875 163.152344 300.589844 161.4375 C 299.671875 159.984375 296.507812 160.277344 293.0625 161.976562 C 293.050781 161.96875 293.035156 161.957031 293.023438 161.945312 C 289.613281 159.222656 287.199219 155.402344 286.210938 151.152344 C 285.804688 149.410156 285.734375 147.910156 286.261719 146.996094 C 287.78125 145.722656 289.152344 144.328125 290.375 142.835938 C 290.863281 142.496094 291.710938 142.566406 292.699219 142.851562 C 294.933594 143.5 296.902344 144.890625 298.257812 146.777344 C 298.261719 146.785156 298.269531 146.792969 298.273438 146.800781 C 297.269531 148.589844 297.027344 150.261719 297.777344 150.792969 C 298.660156 151.414062 300.585938 150.207031 302.078125 148.09375 C 303.570312 145.980469 304.066406 143.761719 303.183594 143.136719 C 302.4375 142.609375 300.9375 143.398438 299.589844 144.941406 C 299.582031 144.9375 299.574219 144.933594 299.566406 144.933594 C 297.332031 144.289062 295.363281 142.898438 294.007812 141.007812 C 293.394531 140.15625 293.046875 139.363281 293.222656 138.789062 L 293.113281 138.945312 C 294.09375 137.300781 294.917969 135.585938 295.582031 133.808594 C 296.261719 133 297.703125 132.5625 299.488281 132.359375 C 303.820312 131.875 308.234375 132.871094 311.9375 135.175781 C 311.953125 135.183594 311.964844 135.191406 311.976562 135.203125 C 311.523438 139.015625 312.308594 142.097656 313.984375 142.476562 C 315.957031 142.921875 318.429688 139.445312 319.5 134.710938 C 320.570312 129.976562 319.835938 125.773438 317.859375 125.328125 C 316.179688 124.949219 314.152344 127.390625 312.921875 131.03125 C 312.902344 131.035156 312.890625 131.035156 312.871094 131.039062 C 308.539062 131.523438 304.125 130.527344 300.421875 128.222656 C 298.898438 127.277344 297.785156 126.265625 297.519531 125.238281 C 297.683594 123.304688 297.675781 121.347656 297.484375 119.402344 C 297.589844 118.816406 298.238281 118.261719 299.144531 117.761719 C 301.179688 116.640625 303.554688 116.230469 305.847656 116.609375 C 305.859375 116.609375 305.867188 116.609375 305.875 116.613281 C 306.429688 118.585938 307.441406 119.941406 308.34375 119.785156 C 309.410156 119.601562 309.914062 117.386719 309.476562 114.835938 C 309.039062 112.285156 307.820312 110.367188 306.753906 110.550781 C 305.851562 110.707031 305.351562 112.320312 305.484375 114.367188 C 305.476562 114.371094 305.46875 114.375 305.464844 114.378906 C 303.425781 115.503906 301.050781 115.910156 298.757812 115.535156 C 297.722656 115.363281 296.914062 115.050781 296.632812 114.519531 L 296.660156 114.679688 C 296.199219 112.863281 295.574219 111.070312 294.777344 109.320312 C 294.691406 108.269531 295.398438 106.945312 296.515625 105.546875 C 299.238281 102.136719 303.0625 99.722656 307.3125 98.730469 C 307.328125 98.726562 307.34375 98.722656 307.359375 98.71875 C 309.738281 101.738281 312.46875 103.363281 313.921875 102.445312 C 315.636719 101.363281 314.921875 97.15625 312.332031 93.050781 C 309.738281 88.945312 306.25 86.492188 304.535156 87.574219 Z M 304.535156 87.578125 " fill-opacity="1" fill-rule="nonzero"/></g></g></g><g clip-path="url(#d0586c7f00)"><g clip-path="url(#ad1df8962e)"><g clip-path="url(#4327646b90)"><path fill="#ffffff" d="M 265.042969 100.753906 C 265.269531 101.113281 265.457031 101.492188 265.609375 101.886719 C 265.761719 102.28125 265.875 102.6875 265.945312 103.105469 C 266.019531 103.523438 266.046875 103.945312 266.039062 104.367188 C 266.027344 104.792969 265.972656 105.210938 265.882812 105.625 C 265.789062 106.039062 265.65625 106.4375 265.480469 106.824219 C 265.308594 107.210938 265.101562 107.578125 264.855469 107.925781 C 264.613281 108.273438 264.335938 108.589844 264.027344 108.882812 C 263.722656 109.175781 263.390625 109.433594 263.03125 109.660156 C 262.671875 109.886719 262.292969 110.074219 261.898438 110.226562 C 261.503906 110.378906 261.097656 110.492188 260.679688 110.5625 C 260.261719 110.632812 259.839844 110.664062 259.417969 110.652344 C 258.992188 110.644531 258.574219 110.589844 258.160156 110.496094 C 257.746094 110.402344 257.347656 110.269531 256.960938 110.097656 C 256.574219 109.925781 256.207031 109.71875 255.859375 109.472656 C 255.511719 109.230469 255.195312 108.953125 254.902344 108.644531 C 254.609375 108.339844 254.351562 108.003906 254.125 107.648438 C 253.898438 107.289062 253.710938 106.910156 253.558594 106.515625 C 253.40625 106.121094 253.292969 105.714844 253.222656 105.296875 C 253.152344 104.878906 253.121094 104.457031 253.132812 104.035156 C 253.140625 103.609375 253.195312 103.191406 253.289062 102.777344 C 253.382812 102.363281 253.515625 101.964844 253.6875 101.578125 C 253.859375 101.1875 254.066406 100.824219 254.3125 100.476562 C 254.554688 100.128906 254.832031 99.8125 255.140625 99.519531 C 255.445312 99.226562 255.78125 98.96875 256.136719 98.742188 C 256.496094 98.515625 256.875 98.328125 257.269531 98.175781 C 257.664062 98.023438 258.070312 97.910156 258.488281 97.839844 C 258.90625 97.765625 259.328125 97.738281 259.75 97.746094 C 260.175781 97.757812 260.59375 97.8125 261.007812 97.902344 C 261.421875 97.996094 261.820312 98.128906 262.207031 98.304688 C 262.597656 98.476562 262.960938 98.683594 263.308594 98.929688 C 263.65625 99.171875 263.972656 99.449219 264.265625 99.757812 C 264.558594 100.0625 264.816406 100.394531 265.042969 100.753906 Z M 265.042969 100.753906 " fill-opacity="1" fill-rule="nonzero"/></g></g></g><g clip-path="url(#cd0806d911)"><g clip-path="url(#f66d093c20)"><g clip-path="url(#434d6ec3a0)"><path fill="#ffffff" d="M 247.125 120.0625 C 247.375 119.976562 247.636719 119.914062 247.898438 119.878906 C 248.164062 119.84375 248.429688 119.832031 248.699219 119.847656 C 248.964844 119.867188 249.230469 119.90625 249.488281 119.976562 C 249.746094 120.042969 249.996094 120.136719 250.234375 120.253906 C 250.476562 120.371094 250.703125 120.511719 250.917969 120.671875 C 251.128906 120.835938 251.324219 121.015625 251.5 121.21875 C 251.679688 121.417969 251.835938 121.632812 251.96875 121.863281 C 252.105469 122.09375 252.214844 122.335938 252.300781 122.589844 C 252.390625 122.84375 252.449219 123.101562 252.488281 123.367188 C 252.523438 123.632812 252.53125 123.898438 252.515625 124.167969 C 252.5 124.433594 252.457031 124.695312 252.390625 124.953125 C 252.320312 125.214844 252.226562 125.464844 252.109375 125.703125 C 251.992188 125.945312 251.855469 126.171875 251.691406 126.382812 C 251.53125 126.597656 251.347656 126.792969 251.148438 126.96875 C 250.949219 127.144531 250.730469 127.300781 250.5 127.4375 C 250.269531 127.570312 250.027344 127.683594 249.773438 127.769531 C 249.519531 127.855469 249.261719 127.917969 248.996094 127.953125 C 248.730469 127.988281 248.464844 128 248.199219 127.984375 C 247.933594 127.96875 247.667969 127.925781 247.410156 127.855469 C 247.152344 127.789062 246.902344 127.695312 246.660156 127.578125 C 246.421875 127.460938 246.195312 127.320312 245.980469 127.160156 C 245.769531 126.996094 245.574219 126.816406 245.394531 126.617188 C 245.21875 126.414062 245.0625 126.199219 244.929688 125.96875 C 244.792969 125.738281 244.683594 125.496094 244.59375 125.242188 C 244.507812 124.988281 244.445312 124.730469 244.410156 124.464844 C 244.375 124.199219 244.363281 123.933594 244.382812 123.667969 C 244.398438 123.398438 244.441406 123.136719 244.507812 122.878906 C 244.578125 122.617188 244.667969 122.371094 244.785156 122.128906 C 244.902344 121.886719 245.042969 121.660156 245.207031 121.449219 C 245.367188 121.234375 245.550781 121.039062 245.75 120.863281 C 245.949219 120.6875 246.164062 120.53125 246.398438 120.394531 C 246.628906 120.261719 246.871094 120.148438 247.125 120.0625 Z M 247.125 120.0625 " fill-opacity="1" fill-rule="nonzero"/></g></g></g><g clip-path="url(#94de1799d2)"><g clip-path="url(#c4a489376b)"><g clip-path="url(#2114e305ae)"><path fill="#ffffff" d="M 258.664062 132.558594 C 259.128906 132.398438 259.609375 132.285156 260.097656 132.21875 C 260.585938 132.152344 261.074219 132.136719 261.566406 132.164062 C 262.058594 132.195312 262.542969 132.273438 263.019531 132.398438 C 263.496094 132.523438 263.953125 132.695312 264.398438 132.914062 C 264.839844 133.128906 265.257812 133.386719 265.652344 133.683594 C 266.042969 133.984375 266.402344 134.316406 266.726562 134.683594 C 267.054688 135.054688 267.34375 135.453125 267.589844 135.878906 C 267.839844 136.304688 268.042969 136.75 268.203125 137.214844 C 268.363281 137.679688 268.476562 138.160156 268.542969 138.648438 C 268.609375 139.136719 268.628906 139.625 268.597656 140.117188 C 268.566406 140.609375 268.488281 141.09375 268.363281 141.570312 C 268.238281 142.046875 268.066406 142.507812 267.851562 142.949219 C 267.632812 143.390625 267.378906 143.808594 267.078125 144.203125 C 266.78125 144.59375 266.445312 144.953125 266.078125 145.28125 C 265.707031 145.605469 265.3125 145.894531 264.886719 146.140625 C 264.460938 146.390625 264.011719 146.59375 263.546875 146.753906 C 263.082031 146.914062 262.605469 147.027344 262.117188 147.09375 C 261.628906 147.160156 261.136719 147.179688 260.644531 147.148438 C 260.152344 147.117188 259.667969 147.039062 259.191406 146.914062 C 258.714844 146.789062 258.257812 146.617188 257.8125 146.402344 C 257.371094 146.1875 256.953125 145.929688 256.5625 145.628906 C 256.167969 145.332031 255.808594 144.996094 255.484375 144.628906 C 255.15625 144.257812 254.871094 143.863281 254.621094 143.4375 C 254.375 143.011719 254.167969 142.566406 254.007812 142.097656 C 253.847656 141.632812 253.734375 141.15625 253.667969 140.667969 C 253.601562 140.179688 253.585938 139.6875 253.613281 139.195312 C 253.644531 138.703125 253.722656 138.222656 253.847656 137.746094 C 253.972656 137.269531 254.144531 136.808594 254.359375 136.363281 C 254.578125 135.921875 254.835938 135.503906 255.132812 135.113281 C 255.429688 134.71875 255.765625 134.359375 256.132812 134.035156 C 256.503906 133.707031 256.902344 133.421875 257.328125 133.171875 C 257.753906 132.925781 258.199219 132.71875 258.664062 132.558594 Z M 258.664062 132.558594 " fill-opacity="1" fill-rule="nonzero"/></g></g></g><g clip-path="url(#8803df8b7c)"><g clip-path="url(#9c0e325079)"><g clip-path="url(#44e09526c7)"><path fill="#ffffff" d="M 277.15625 112.699219 C 277.632812 112.535156 278.121094 112.421875 278.621094 112.351562 C 279.121094 112.285156 279.621094 112.265625 280.125 112.296875 C 280.628906 112.328125 281.125 112.40625 281.613281 112.535156 C 282.101562 112.664062 282.570312 112.839844 283.023438 113.058594 C 283.476562 113.28125 283.902344 113.542969 284.304688 113.851562 C 284.707031 114.15625 285.074219 114.496094 285.410156 114.875 C 285.742188 115.253906 286.035156 115.660156 286.289062 116.09375 C 286.542969 116.53125 286.753906 116.988281 286.917969 117.464844 C 287.082031 117.941406 287.195312 118.429688 287.265625 118.929688 C 287.332031 119.429688 287.351562 119.929688 287.320312 120.433594 C 287.289062 120.9375 287.210938 121.429688 287.082031 121.917969 C 286.953125 122.40625 286.777344 122.878906 286.554688 123.332031 C 286.335938 123.785156 286.070312 124.210938 285.765625 124.613281 C 285.460938 125.011719 285.121094 125.378906 284.742188 125.714844 C 284.363281 126.050781 283.957031 126.34375 283.523438 126.597656 C 283.085938 126.851562 282.628906 127.058594 282.152344 127.222656 C 281.675781 127.386719 281.1875 127.503906 280.6875 127.570312 C 280.1875 127.640625 279.6875 127.65625 279.183594 127.625 C 278.679688 127.597656 278.183594 127.515625 277.699219 127.386719 C 277.210938 127.257812 276.738281 127.085938 276.285156 126.863281 C 275.832031 126.640625 275.40625 126.378906 275.003906 126.074219 C 274.605469 125.769531 274.234375 125.425781 273.902344 125.046875 C 273.566406 124.671875 273.273438 124.265625 273.019531 123.828125 C 272.765625 123.394531 272.558594 122.9375 272.394531 122.460938 C 272.230469 121.984375 272.113281 121.496094 272.046875 120.996094 C 271.976562 120.496094 271.960938 119.992188 271.988281 119.492188 C 272.019531 118.988281 272.101562 118.492188 272.230469 118.003906 C 272.359375 117.515625 272.53125 117.046875 272.753906 116.59375 C 272.976562 116.140625 273.238281 115.714844 273.542969 115.3125 C 273.847656 114.910156 274.191406 114.542969 274.566406 114.207031 C 274.945312 113.875 275.351562 113.582031 275.789062 113.328125 C 276.222656 113.074219 276.679688 112.863281 277.15625 112.699219 Z M 277.15625 112.699219 " fill-opacity="1" fill-rule="nonzero"/></g></g></g><g clip-path="url(#9a33e7f470)"><g clip-path="url(#2524808ebc)"><g clip-path="url(#1cf8519170)"><path fill="currentColor" d="M 269.6875 244.359375 C 268.425781 245.15625 268.679688 247.90625 270.160156 250.898438 C 270.152344 250.910156 270.144531 250.921875 270.132812 250.929688 C 267.769531 253.894531 264.445312 255.992188 260.753906 256.855469 C 259.238281 257.207031 257.933594 257.269531 257.140625 256.804688 C 256.035156 255.488281 254.824219 254.296875 253.523438 253.234375 C 253.230469 252.808594 253.292969 252.070312 253.539062 251.210938 C 254.097656 249.269531 255.308594 247.558594 256.949219 246.378906 C 256.957031 246.375 256.964844 246.371094 256.96875 246.367188 C 258.519531 247.238281 259.980469 247.449219 260.4375 246.800781 C 260.980469 246.03125 259.929688 244.359375 258.09375 243.0625 C 256.257812 241.761719 254.328125 241.332031 253.785156 242.097656 C 253.328125 242.75 254.011719 244.050781 255.351562 245.222656 C 255.351562 245.230469 255.351562 245.238281 255.347656 245.246094 C 254.789062 247.1875 253.578125 248.898438 251.9375 250.074219 C 251.199219 250.609375 250.507812 250.914062 250.007812 250.757812 L 250.144531 250.855469 C 248.714844 250.003906 247.222656 249.289062 245.675781 248.707031 C 244.972656 248.117188 244.59375 246.867188 244.421875 245.316406 C 244 241.550781 244.863281 237.714844 246.867188 234.496094 C 246.875 234.484375 246.882812 234.472656 246.890625 234.460938 C 250.207031 234.855469 252.882812 234.175781 253.210938 232.71875 C 253.601562 231 250.578125 228.855469 246.464844 227.925781 C 242.347656 226.996094 238.699219 227.632812 238.308594 229.351562 C 237.980469 230.804688 240.105469 232.574219 243.269531 233.640625 C 243.269531 233.65625 243.273438 233.671875 243.273438 233.683594 C 243.695312 237.449219 242.828125 241.285156 240.828125 244.503906 C 240.007812 245.828125 239.125 246.792969 238.234375 247.027344 C 236.554688 246.882812 234.855469 246.890625 233.160156 247.054688 C 232.652344 246.964844 232.167969 246.398438 231.738281 245.613281 C 230.761719 243.84375 230.40625 241.78125 230.734375 239.785156 C 230.738281 239.78125 230.738281 239.773438 230.742188 239.765625 C 232.457031 239.28125 233.632812 238.402344 233.5 237.617188 C 233.339844 236.691406 231.414062 236.25 229.199219 236.632812 C 226.980469 237.015625 225.3125 238.074219 225.472656 239 C 225.609375 239.785156 227.015625 240.222656 228.789062 240.101562 C 228.792969 240.109375 228.796875 240.117188 228.800781 240.121094 C 229.777344 241.890625 230.132812 243.957031 229.804688 245.949219 C 229.65625 246.847656 229.386719 247.550781 228.921875 247.796875 L 229.066406 247.773438 C 227.484375 248.171875 225.925781 248.71875 224.40625 249.40625 C 223.492188 249.484375 222.339844 248.867188 221.125 247.898438 C 218.164062 245.53125 216.066406 242.207031 215.203125 238.515625 C 215.199219 238.503906 215.199219 238.488281 215.195312 238.476562 C 217.816406 236.410156 219.226562 234.035156 218.433594 232.773438 C 217.492188 231.285156 213.839844 231.902344 210.269531 234.15625 C 206.699219 236.410156 204.570312 239.441406 205.511719 240.929688 C 206.308594 242.195312 209.058594 241.941406 212.050781 240.460938 C 212.0625 240.46875 212.074219 240.476562 212.082031 240.484375 C 215.042969 242.851562 217.144531 246.175781 218.003906 249.867188 C 218.359375 251.378906 218.417969 252.683594 217.957031 253.476562 C 216.640625 254.585938 215.449219 255.796875 214.382812 257.09375 C 213.960938 257.386719 213.222656 257.328125 212.363281 257.082031 C 210.417969 256.519531 208.710938 255.3125 207.53125 253.671875 C 207.527344 253.664062 207.523438 253.65625 207.519531 253.648438 C 208.390625 252.097656 208.601562 250.640625 207.949219 250.179688 C 207.183594 249.640625 205.507812 250.691406 204.210938 252.527344 C 202.914062 254.363281 202.484375 256.292969 203.25 256.832031 C 203.898438 257.292969 205.203125 256.605469 206.375 255.265625 C 206.382812 255.269531 206.390625 255.269531 206.398438 255.269531 C 208.339844 255.832031 210.050781 257.039062 211.226562 258.683594 C 211.757812 259.421875 212.066406 260.109375 211.910156 260.609375 L 212.007812 260.476562 C 211.15625 261.90625 210.441406 263.398438 209.859375 264.941406 C 209.269531 265.648438 208.015625 266.027344 206.46875 266.199219 C 202.703125 266.621094 198.867188 265.753906 195.648438 263.753906 C 195.636719 263.746094 195.621094 263.738281 195.613281 263.730469 C 196.007812 260.414062 195.324219 257.738281 193.871094 257.40625 C 192.152344 257.019531 190.007812 260.039062 189.074219 264.15625 C 188.144531 268.269531 188.785156 271.921875 190.5 272.308594 C 191.957031 272.640625 193.722656 270.515625 194.792969 267.351562 C 194.808594 267.347656 194.820312 267.347656 194.835938 267.347656 C 198.601562 266.921875 202.4375 267.789062 205.65625 269.792969 C 206.976562 270.613281 207.945312 271.496094 208.175781 272.382812 C 208.035156 274.066406 208.039062 275.765625 208.207031 277.460938 C 208.117188 277.96875 207.550781 278.449219 206.765625 278.882812 C 204.996094 279.855469 202.933594 280.214844 200.9375 279.882812 C 200.929688 279.882812 200.921875 279.878906 200.917969 279.878906 C 200.433594 278.164062 199.554688 276.984375 198.769531 277.121094 C 197.84375 277.28125 197.402344 279.207031 197.785156 281.421875 C 198.167969 283.640625 199.226562 285.308594 200.152344 285.148438 C 200.933594 285.011719 201.371094 283.605469 201.253906 281.828125 C 201.261719 281.824219 201.265625 281.820312 201.273438 281.816406 C 203.042969 280.839844 205.105469 280.484375 207.101562 280.816406 C 208 280.964844 208.703125 281.234375 208.949219 281.695312 L 208.921875 281.554688 C 209.324219 283.132812 209.867188 284.691406 210.558594 286.214844 C 210.632812 287.128906 210.019531 288.28125 209.046875 289.492188 C 206.683594 292.457031 203.359375 294.554688 199.667969 295.417969 C 199.652344 295.417969 199.640625 295.421875 199.628906 295.425781 C 197.5625 292.800781 195.1875 291.390625 193.925781 292.1875 C 192.433594 293.128906 193.054688 296.78125 195.308594 300.351562 C 197.558594 303.917969 200.59375 306.050781 202.082031 305.109375 C 203.347656 304.3125 203.089844 301.5625 201.609375 298.570312 C 201.621094 298.558594 201.628906 298.546875 201.636719 298.535156 C 204.003906 295.574219 207.328125 293.476562 211.019531 292.613281 C 212.53125 292.261719 213.835938 292.199219 214.628906 292.660156 C 215.738281 293.980469 216.949219 295.171875 218.246094 296.234375 C 218.539062 296.660156 218.480469 297.398438 218.230469 298.257812 C 217.671875 300.199219 216.460938 301.910156 214.820312 303.089844 C 214.816406 303.09375 214.808594 303.097656 214.800781 303.101562 C 213.25 302.230469 211.792969 302.019531 211.332031 302.667969 C 210.789062 303.4375 211.839844 305.109375 213.675781 306.40625 C 215.515625 307.707031 217.441406 308.136719 217.984375 307.371094 C 218.445312 306.71875 217.757812 305.417969 216.417969 304.242188 C 216.417969 304.238281 216.421875 304.230469 216.421875 304.222656 C 216.980469 302.28125 218.191406 300.570312 219.832031 299.390625 C 220.574219 298.859375 221.261719 298.554688 221.761719 298.710938 L 221.628906 298.613281 C 223.054688 299.464844 224.550781 300.179688 226.09375 300.761719 C 226.796875 301.351562 227.175781 302.601562 227.351562 304.152344 C 227.773438 307.917969 226.90625 311.753906 224.90625 314.972656 C 224.898438 314.984375 224.890625 314.996094 224.882812 315.007812 C 221.566406 314.613281 218.886719 315.292969 218.558594 316.75 C 218.171875 318.46875 221.191406 320.613281 225.308594 321.542969 C 229.421875 322.472656 233.074219 321.835938 233.460938 320.117188 C 233.789062 318.664062 231.667969 316.894531 228.503906 315.828125 C 228.5 315.8125 228.5 315.796875 228.496094 315.785156 C 228.074219 312.019531 228.941406 308.183594 230.941406 304.964844 C 231.761719 303.640625 232.648438 302.675781 233.535156 302.441406 C 235.21875 302.585938 236.917969 302.578125 238.609375 302.414062 C 239.121094 302.503906 239.601562 303.070312 240.03125 303.855469 C 241.007812 305.625 241.363281 307.6875 241.035156 309.683594 C 241.035156 309.6875 241.03125 309.695312 241.03125 309.703125 C 239.316406 310.1875 238.136719 311.066406 238.269531 311.851562 C 238.429688 312.777344 240.355469 313.21875 242.574219 312.835938 C 244.789062 312.453125 246.457031 311.394531 246.296875 310.46875 C 246.164062 309.683594 244.757812 309.246094 242.980469 309.367188 C 242.976562 309.359375 242.972656 309.351562 242.96875 309.347656 C 241.992188 307.578125 241.636719 305.511719 241.964844 303.519531 C 242.113281 302.621094 242.386719 301.917969 242.847656 301.671875 L 242.707031 301.695312 C 244.285156 301.296875 245.84375 300.75 247.367188 300.0625 C 248.28125 299.984375 249.429688 300.601562 250.644531 301.570312 C 253.609375 303.9375 255.707031 307.261719 256.566406 310.953125 C 256.570312 310.964844 256.574219 310.980469 256.578125 310.992188 C 253.953125 313.058594 252.542969 315.433594 253.339844 316.695312 C 254.28125 318.183594 257.933594 317.566406 261.5 315.3125 C 265.070312 313.058594 267.199219 310.027344 266.261719 308.535156 C 265.460938 307.273438 262.714844 307.527344 259.71875 309.007812 C 259.707031 309 259.699219 308.992188 259.6875 308.984375 C 256.726562 306.617188 254.628906 303.292969 253.765625 299.601562 C 253.414062 298.085938 253.351562 296.785156 253.8125 295.992188 C 255.128906 294.882812 256.324219 293.671875 257.386719 292.375 C 257.8125 292.082031 258.550781 292.140625 259.410156 292.386719 C 261.351562 292.945312 263.0625 294.15625 264.238281 295.796875 C 264.242188 295.804688 264.246094 295.8125 264.25 295.816406 C 263.382812 297.371094 263.171875 298.828125 263.820312 299.289062 C 264.585938 299.828125 266.261719 298.777344 267.558594 296.941406 C 268.859375 295.105469 269.289062 293.175781 268.519531 292.632812 C 267.871094 292.175781 266.570312 292.863281 265.394531 294.203125 C 265.386719 294.199219 265.382812 294.199219 265.375 294.199219 C 263.433594 293.636719 261.722656 292.429688 260.542969 290.785156 C 260.011719 290.046875 259.707031 289.355469 259.859375 288.855469 L 259.765625 288.992188 C 260.613281 287.5625 261.332031 286.070312 261.910156 284.527344 C 262.503906 283.820312 263.753906 283.441406 265.304688 283.269531 C 269.070312 282.847656 272.90625 283.714844 276.125 285.714844 C 276.132812 285.722656 276.148438 285.730469 276.160156 285.738281 C 275.765625 289.054688 276.445312 291.730469 277.902344 292.0625 C 279.617188 292.449219 281.765625 289.429688 282.695312 285.3125 C 283.625 281.195312 282.988281 277.546875 281.269531 277.160156 C 279.8125 276.828125 278.046875 278.953125 276.976562 282.117188 C 276.964844 282.121094 276.949219 282.121094 276.933594 282.121094 C 273.167969 282.546875 269.332031 281.679688 266.117188 279.675781 C 264.792969 278.855469 263.824219 277.972656 263.59375 277.082031 C 263.738281 275.402344 263.730469 273.703125 263.566406 272.007812 C 263.65625 271.5 264.21875 271.019531 265.003906 270.585938 C 266.773438 269.609375 268.839844 269.253906 270.832031 269.585938 C 270.839844 269.585938 270.847656 269.589844 270.855469 269.589844 C 271.335938 271.304688 272.214844 272.480469 273.003906 272.347656 C 273.929688 272.1875 274.367188 270.261719 273.984375 268.046875 C 273.605469 265.828125 272.546875 264.160156 271.621094 264.320312 C 270.835938 264.457031 270.398438 265.863281 270.515625 267.640625 C 270.511719 267.644531 270.503906 267.648438 270.496094 267.652344 C 268.730469 268.625 266.664062 268.984375 264.671875 268.652344 C 263.769531 268.503906 263.066406 268.234375 262.824219 267.773438 L 262.847656 267.914062 C 262.449219 266.335938 261.902344 264.777344 261.210938 263.253906 C 261.136719 262.339844 261.753906 261.1875 262.722656 259.972656 C 265.085938 257.011719 268.414062 254.914062 272.105469 254.050781 C 272.117188 254.050781 272.132812 254.046875 272.144531 254.042969 C 274.210938 256.667969 276.585938 258.078125 277.84375 257.28125 C 279.335938 256.339844 278.714844 252.6875 276.464844 249.117188 C 274.210938 245.550781 271.179688 243.417969 269.6875 244.359375 Z M 269.6875 244.359375 " fill-opacity="1" fill-rule="nonzero"/></g></g></g><g clip-path="url(#f60458def6)"><g clip-path="url(#67cb643e51)"><g clip-path="url(#5764afa869)"><path fill="#ffffff" d="M 235.367188 255.8125 C 235.5625 256.121094 235.726562 256.449219 235.859375 256.792969 C 235.992188 257.136719 236.089844 257.492188 236.152344 257.855469 C 236.214844 258.21875 236.238281 258.582031 236.230469 258.953125 C 236.222656 259.320312 236.175781 259.683594 236.09375 260.042969 C 236.011719 260.402344 235.898438 260.75 235.746094 261.085938 C 235.597656 261.421875 235.417969 261.742188 235.203125 262.042969 C 234.992188 262.34375 234.75 262.621094 234.484375 262.875 C 234.21875 263.128906 233.929688 263.355469 233.617188 263.550781 C 233.304688 263.746094 232.976562 263.910156 232.632812 264.042969 C 232.289062 264.175781 231.9375 264.273438 231.574219 264.335938 C 231.210938 264.398438 230.84375 264.425781 230.476562 264.414062 C 230.109375 264.40625 229.742188 264.359375 229.382812 264.277344 C 229.023438 264.199219 228.675781 264.082031 228.339844 263.933594 C 228.003906 263.78125 227.683594 263.601562 227.382812 263.390625 C 227.082031 263.175781 226.804688 262.9375 226.550781 262.667969 C 226.296875 262.402344 226.074219 262.113281 225.875 261.800781 C 225.679688 261.488281 225.515625 261.160156 225.382812 260.816406 C 225.25 260.472656 225.15625 260.121094 225.09375 259.757812 C 225.03125 259.394531 225.003906 259.027344 225.011719 258.660156 C 225.023438 258.292969 225.066406 257.929688 225.148438 257.570312 C 225.230469 257.210938 225.34375 256.863281 225.496094 256.523438 C 225.644531 256.1875 225.824219 255.871094 226.039062 255.570312 C 226.25 255.269531 226.492188 254.992188 226.757812 254.738281 C 227.023438 254.484375 227.316406 254.257812 227.625 254.0625 C 227.9375 253.863281 228.265625 253.699219 228.609375 253.566406 C 228.953125 253.4375 229.308594 253.339844 229.667969 253.277344 C 230.03125 253.214844 230.398438 253.1875 230.765625 253.195312 C 231.136719 253.207031 231.5 253.25 231.859375 253.332031 C 232.21875 253.414062 232.566406 253.53125 232.902344 253.679688 C 233.238281 253.828125 233.558594 254.011719 233.859375 254.222656 C 234.160156 254.4375 234.4375 254.675781 234.691406 254.941406 C 234.945312 255.210938 235.167969 255.5 235.367188 255.8125 Z M 235.367188 255.8125 " fill-opacity="1" fill-rule="nonzero"/></g></g></g><g clip-path="url(#5d4a4ec870)"><g clip-path="url(#158380de9f)"><g clip-path="url(#92ee2560bc)"><path fill="#ffffff" d="M 219.789062 272.585938 C 220.234375 272.433594 220.691406 272.371094 221.160156 272.398438 C 221.628906 272.429688 222.074219 272.546875 222.496094 272.75 C 222.917969 272.957031 223.285156 273.234375 223.597656 273.589844 C 223.90625 273.941406 224.140625 274.339844 224.292969 274.78125 C 224.445312 275.226562 224.507812 275.683594 224.476562 276.152344 C 224.449219 276.621094 224.332031 277.066406 224.125 277.488281 C 223.917969 277.910156 223.640625 278.277344 223.289062 278.589844 C 222.9375 278.898438 222.539062 279.132812 222.09375 279.285156 C 221.652344 279.4375 221.195312 279.5 220.726562 279.46875 C 220.257812 279.441406 219.8125 279.324219 219.390625 279.117188 C 218.964844 278.910156 218.601562 278.632812 218.289062 278.28125 C 217.976562 277.929688 217.746094 277.53125 217.59375 277.085938 C 217.441406 276.640625 217.378906 276.1875 217.40625 275.71875 C 217.4375 275.25 217.554688 274.804688 217.757812 274.378906 C 217.964844 273.957031 218.246094 273.59375 218.597656 273.28125 C 218.949219 272.96875 219.347656 272.738281 219.789062 272.585938 Z M 219.789062 272.585938 " fill-opacity="1" fill-rule="nonzero"/></g></g></g><g clip-path="url(#216a84eeec)"><g clip-path="url(#9ae159bb52)"><g clip-path="url(#f08b05a1bb)"><path fill="#ffffff" d="M 229.824219 283.449219 C 230.230469 283.308594 230.644531 283.210938 231.070312 283.152344 C 231.492188 283.09375 231.917969 283.078125 232.347656 283.105469 C 232.773438 283.132812 233.195312 283.199219 233.609375 283.308594 C 234.023438 283.417969 234.421875 283.566406 234.808594 283.753906 C 235.191406 283.941406 235.554688 284.167969 235.898438 284.425781 C 236.238281 284.683594 236.550781 284.976562 236.832031 285.296875 C 237.117188 285.617188 237.367188 285.960938 237.582031 286.332031 C 237.796875 286.703125 237.976562 287.089844 238.113281 287.496094 C 238.253906 287.898438 238.351562 288.316406 238.410156 288.738281 C 238.46875 289.164062 238.484375 289.589844 238.457031 290.015625 C 238.429688 290.445312 238.363281 290.867188 238.253906 291.28125 C 238.144531 291.695312 237.996094 292.09375 237.808594 292.476562 C 237.621094 292.863281 237.398438 293.226562 237.136719 293.566406 C 236.878906 293.90625 236.589844 294.21875 236.269531 294.503906 C 235.945312 294.789062 235.601562 295.035156 235.230469 295.253906 C 234.863281 295.46875 234.472656 295.644531 234.070312 295.785156 C 233.664062 295.925781 233.25 296.023438 232.824219 296.082031 C 232.398438 296.136719 231.972656 296.152344 231.546875 296.128906 C 231.121094 296.101562 230.699219 296.035156 230.285156 295.925781 C 229.871094 295.816406 229.46875 295.667969 229.085938 295.480469 C 228.699219 295.292969 228.339844 295.066406 227.996094 294.808594 C 227.65625 294.550781 227.34375 294.257812 227.058594 293.9375 C 226.777344 293.617188 226.527344 293.273438 226.3125 292.902344 C 226.09375 292.53125 225.917969 292.144531 225.777344 291.738281 C 225.640625 291.332031 225.539062 290.917969 225.484375 290.496094 C 225.425781 290.070312 225.410156 289.644531 225.4375 289.21875 C 225.460938 288.789062 225.53125 288.367188 225.640625 287.953125 C 225.75 287.539062 225.898438 287.140625 226.085938 286.753906 C 226.273438 286.371094 226.496094 286.007812 226.753906 285.667969 C 227.015625 285.328125 227.304688 285.015625 227.625 284.730469 C 227.945312 284.445312 228.292969 284.195312 228.664062 283.980469 C 229.03125 283.765625 229.417969 283.589844 229.824219 283.449219 Z M 229.824219 283.449219 " fill-opacity="1" fill-rule="nonzero"/></g></g></g><g clip-path="url(#efc8b48b13)"><g clip-path="url(#6a9db63bff)"><g clip-path="url(#42e54e15b5)"><path fill="#ffffff" d="M 245.894531 266.1875 C 246.308594 266.042969 246.734375 265.945312 247.167969 265.882812 C 247.601562 265.824219 248.039062 265.808594 248.476562 265.835938 C 248.914062 265.863281 249.34375 265.933594 249.765625 266.042969 C 250.191406 266.15625 250.597656 266.308594 250.992188 266.5 C 251.386719 266.691406 251.757812 266.921875 252.105469 267.1875 C 252.457031 267.453125 252.773438 267.75 253.066406 268.078125 C 253.355469 268.40625 253.609375 268.757812 253.832031 269.136719 C 254.050781 269.515625 254.234375 269.914062 254.375 270.328125 C 254.519531 270.742188 254.621094 271.164062 254.679688 271.601562 C 254.738281 272.035156 254.753906 272.46875 254.726562 272.90625 C 254.699219 273.34375 254.628906 273.773438 254.519531 274.199219 C 254.40625 274.621094 254.253906 275.03125 254.0625 275.425781 C 253.871094 275.820312 253.640625 276.191406 253.375 276.539062 C 253.113281 276.886719 252.816406 277.207031 252.484375 277.496094 C 252.15625 277.789062 251.804688 278.042969 251.425781 278.265625 C 251.046875 278.484375 250.652344 278.664062 250.238281 278.808594 C 249.820312 278.949219 249.398438 279.050781 248.964844 279.109375 C 248.53125 279.167969 248.09375 279.1875 247.65625 279.160156 C 247.21875 279.132812 246.789062 279.0625 246.363281 278.949219 C 245.941406 278.839844 245.53125 278.6875 245.136719 278.496094 C 244.746094 278.304688 244.375 278.074219 244.023438 277.808594 C 243.675781 277.542969 243.355469 277.246094 243.066406 276.917969 C 242.777344 276.589844 242.519531 276.238281 242.300781 275.859375 C 242.078125 275.480469 241.898438 275.082031 241.753906 274.667969 C 241.613281 274.253906 241.511719 273.828125 241.453125 273.394531 C 241.394531 272.960938 241.378906 272.527344 241.40625 272.089844 C 241.429688 271.652344 241.5 271.21875 241.613281 270.796875 C 241.722656 270.371094 241.875 269.964844 242.066406 269.570312 C 242.261719 269.175781 242.488281 268.804688 242.753906 268.457031 C 243.019531 268.109375 243.316406 267.789062 243.644531 267.5 C 243.972656 267.207031 244.328125 266.953125 244.703125 266.730469 C 245.082031 266.511719 245.480469 266.328125 245.894531 266.1875 Z M 245.894531 266.1875 " fill-opacity="1" fill-rule="nonzero"/></g></g></g></svg>