<svg xmlns="http://www.w3.org/2000/svg" xmlns:xlink="http://www.w3.org/1999/xlink" width="500" zoomAndPan="magnify" viewBox="0 0 375 374.999991" height="500" preserveAspectRatio="xMidYMid meet" version="1.2"><defs><clipPath id="dad0142c3a"><path d="M 6.328125 87 L 219 87 L 219 375 L 6.328125 375 Z M 6.328125 87 "/></clipPath><clipPath id="37f156174c"><path d="M 243 125 L 368.578125 125 L 368.578125 292 L 243 292 Z M 243 125 "/></clipPath></defs><g id="acab890605"><g clip-rule="nonzero" clip-path="url(#dad0142c3a)"><path style=" stroke:none;fill-rule:nonzero;fill:currentColor;fill-opacity:1;" d="M 112.503906 354.59375 C 65.203125 354.59375 26.722656 316.121094 26.722656 268.828125 C 26.722656 206.609375 90.859375 134.734375 112.476562 112.28125 C 134.074219 134.878906 198.273438 207.238281 198.273438 268.828125 C 198.273438 316.121094 159.800781 354.59375 112.503906 354.59375 Z M 119.523438 90.574219 C 115.613281 86.824219 109.449219 86.816406 105.523438 90.539062 C 101.484375 94.386719 6.464844 185.671875 6.464844 268.828125 C 6.464844 327.289062 54.035156 374.851562 112.503906 374.851562 C 170.964844 374.851562 218.527344 327.289062 218.527344 268.828125 C 218.527344 186.621094 123.5625 94.460938 119.523438 90.574219 "/></g><path style=" stroke:none;fill-rule:nonzero;fill:currentColor;fill-opacity:1;" d="M 228.027344 110.332031 C 211.917969 110.332031 198.8125 97.226562 198.8125 81.117188 C 198.8125 62.246094 216.136719 38.867188 228 25.660156 C 239.871094 38.949219 257.210938 62.410156 257.210938 81.117188 C 257.210938 97.226562 244.117188 110.332031 228.027344 110.332031 Z M 277.460938 81.117188 C 277.460938 44.902344 236.773438 5.402344 235.039062 3.738281 C 231.136719 -0.0078125 224.976562 -0.0273438 221.050781 3.699219 C 219.3125 5.347656 178.5625 44.480469 178.5625 81.117188 C 178.5625 108.394531 200.75 130.585938 228.027344 130.585938 C 255.285156 130.585938 277.460938 108.394531 277.460938 81.117188 "/><g clip-rule="nonzero" clip-path="url(#37f156174c)"><path style=" stroke:none;fill-rule:nonzero;fill:currentColor;fill-opacity:1;" d="M 305.992188 270.984375 C 282.703125 270.984375 263.761719 252.039062 263.761719 228.75 C 263.761719 199.113281 292.421875 164.660156 305.996094 150.003906 C 322.074219 167.457031 348.183594 201.53125 348.183594 228.75 C 348.183594 252.039062 329.253906 270.984375 305.992188 270.984375 Z M 313.003906 128.171875 C 309.101562 124.425781 302.941406 124.410156 299.015625 128.136719 C 296.746094 130.289062 243.503906 181.40625 243.503906 228.75 C 243.503906 263.207031 271.535156 291.238281 305.992188 291.238281 C 340.421875 291.238281 368.441406 263.207031 368.441406 228.75 C 368.441406 181.957031 315.269531 130.347656 313.003906 128.171875 "/></g><path style=" stroke:none;fill-rule:nonzero;fill:currentColor;fill-opacity:1;" d="M 65.117188 281.808594 C 57.960938 257.3125 75.890625 229.46875 76.125 229.105469 C 79.195312 224.445312 77.910156 218.175781 73.253906 215.089844 C 68.59375 212.011719 62.304688 213.289062 59.21875 217.953125 C 58.261719 219.402344 35.847656 253.851562 45.679688 287.503906 C 50.847656 305.082031 71.550781 338.324219 112.9375 338.324219 C 118.53125 338.324219 123.066406 333.789062 123.066406 328.199219 C 123.066406 322.605469 118.53125 318.070312 112.9375 318.070312 C 83.539062 318.070312 68.800781 294.339844 65.117188 281.808594 "/><path style=" stroke:none;fill-rule:nonzero;fill:currentColor;fill-opacity:1;" d="M 84.308594 206.261719 C 92.09375 206.261719 98.4375 199.980469 98.4375 192.148438 C 98.4375 184.332031 92.09375 178.035156 84.308594 178.035156 C 76.503906 178.035156 70.195312 184.332031 70.195312 192.148438 C 70.195312 199.980469 76.503906 206.261719 84.308594 206.261719 "/></g></svg>