<svg xmlns="http://www.w3.org/2000/svg" xmlns:xlink="http://www.w3.org/1999/xlink" width="500" zoomAndPan="magnify" viewBox="0 0 375 374.999991" height="500" preserveAspectRatio="xMidYMid meet" version="1.2"><defs><clipPath id="227478d756"><path d="M 103 59.765625 L 129 59.765625 L 129 105 L 103 105 Z M 103 59.765625 "/></clipPath><clipPath id="33859983b4"><path d="M 94.753906 147 L 372.988281 147 L 372.988281 315.515625 L 94.753906 315.515625 Z M 94.753906 147 "/></clipPath></defs><g id="62d1bf4fa8"><path style=" stroke:none;fill-rule:nonzero;fill:currentColor;fill-opacity:1;" d="M 164.082031 151.949219 C 155.851562 134 137.503906 121.484375 116.425781 121.484375 C 87.542969 121.484375 64.09375 144.933594 64.09375 173.820312 C 64.09375 192.953125 74.632812 210.144531 90.277344 219.136719 C 101.574219 205.074219 118.371094 195.6875 137.144531 193.347656 C 142.578125 177.34375 151.964844 163.28125 164.082031 151.949219 "/><g clip-rule="nonzero" clip-path="url(#227478d756)"><path style=" stroke:none;fill-rule:nonzero;fill:currentColor;fill-opacity:1;" d="M 116.425781 104.722656 C 123.476562 104.722656 128.910156 99.253906 128.910156 92.207031 L 128.910156 72.28125 C 128.910156 65.265625 123.476562 59.796875 116.425781 59.796875 C 109.410156 59.796875 103.945312 65.265625 103.945312 72.28125 L 103.945312 92.207031 C 103.945312 98.859375 109.410156 104.722656 116.425781 104.722656 "/></g><path style=" stroke:none;fill-rule:nonzero;fill:currentColor;fill-opacity:1;" d="M 49.636719 125.007812 C 52.007812 127.347656 55.136719 128.535156 58.625 128.535156 C 62.148438 128.535156 64.882812 127.347656 67.617188 125.007812 C 72.6875 119.9375 72.6875 112.132812 67.617188 107.457031 L 53.554688 93.390625 C 48.480469 88.320312 40.675781 88.320312 36 93.390625 C 30.894531 98.464844 30.894531 106.269531 36 110.945312 L 49.636719 125.007812 "/><path style=" stroke:none;fill-rule:nonzero;fill:currentColor;fill-opacity:1;" d="M 47.296875 173.820312 C 47.296875 166.804688 41.828125 161.335938 34.8125 161.335938 L 14.492188 161.335938 C 7.476562 161.335938 2.011719 166.804688 2.011719 173.820312 C 2.011719 180.867188 7.476562 186.335938 14.492188 186.335938 L 34.417969 186.335938 C 41.433594 186.335938 47.296875 180.867188 47.296875 173.820312 "/><path style=" stroke:none;fill-rule:nonzero;fill:currentColor;fill-opacity:1;" d="M 49.636719 223.023438 L 35.605469 237.085938 C 30.53125 242.160156 30.53125 249.964844 35.605469 254.675781 C 37.941406 257.011719 41.070312 258.164062 44.5625 258.164062 C 47.691406 258.164062 50.820312 257.011719 53.554688 254.675781 L 67.617188 240.609375 C 72.6875 235.539062 72.6875 227.734375 67.617188 223.023438 C 62.546875 217.953125 54.738281 217.953125 49.636719 223.023438 "/><path style=" stroke:none;fill-rule:nonzero;fill:currentColor;fill-opacity:1;" d="M 174.226562 128.535156 C 177.355469 128.535156 180.484375 127.347656 183.183594 125.007812 L 197.25 110.945312 C 202.355469 105.875 202.355469 98.070312 197.25 93.390625 C 192.175781 88.320312 184.371094 88.320312 179.695312 93.390625 L 165.632812 107.457031 C 160.558594 112.527344 160.558594 120.332031 165.632812 125.007812 C 167.96875 127.347656 171.097656 128.535156 174.226562 128.535156 "/><g clip-rule="nonzero" clip-path="url(#33859983b4)"><path style=" stroke:none;fill-rule:nonzero;fill:currentColor;fill-opacity:1;" d="M 314.398438 198.027344 C 310.511719 198.027344 306.625 198.421875 303.101562 199.210938 C 292.5625 169.140625 264.039062 147.273438 230.050781 147.273438 C 191.023438 147.273438 158.617188 176.15625 153.511719 214.066406 C 151.171875 213.671875 148.4375 213.273438 146.101562 213.273438 C 118.007812 213.273438 94.953125 236.296875 94.953125 264.421875 C 94.953125 292.550781 118.007812 315.570312 146.101562 315.570312 L 314.398438 315.570312 C 346.839844 315.570312 372.988281 289.421875 372.988281 257.011719 C 372.988281 224.605469 346.839844 198.027344 314.398438 198.027344 "/></g></g></svg>