<svg xmlns="http://www.w3.org/2000/svg" xmlns:xlink="http://www.w3.org/1999/xlink" width="500" zoomAndPan="magnify" viewBox="0 0 375 374.999991" height="500" preserveAspectRatio="xMidYMid meet" version="1.0"><defs><clipPath id="bd8a10437d"><path d="M 0 0 L 375 0 L 375 375 L 0 375 Z M 0 0 " clip-rule="nonzero"/></clipPath><clipPath id="9496e456b3"><rect x="0" width="375" y="0" height="375"/></clipPath><clipPath id="a3e3fb27e5"><path d="M 30.789062 162 L 138.980469 162 L 138.980469 279.359375 L 30.789062 279.359375 Z M 30.789062 162 " clip-rule="nonzero"/></clipPath><clipPath id="f4385aaf62"><path d="M 74 117 L 170 117 L 170 279.359375 L 74 279.359375 Z M 74 117 " clip-rule="nonzero"/></clipPath><clipPath id="50af9cd18d"><path d="M 207 124 L 270.839844 124 L 270.839844 279.359375 L 207 279.359375 Z M 207 124 " clip-rule="nonzero"/></clipPath><clipPath id="9e1fab9a97"><path d="M 161 91.324219 L 201 91.324219 L 201 279.359375 L 161 279.359375 Z M 161 91.324219 " clip-rule="nonzero"/></clipPath><clipPath id="a3d148cb79"><path d="M 191.386719 76.109375 L 275.910156 76.109375 L 275.910156 279.359375 L 191.386719 279.359375 Z M 191.386719 76.109375 " clip-rule="nonzero"/></clipPath><clipPath id="a8efa8ae16"><path d="M 234 111 L 296 111 L 296 279.359375 L 234 279.359375 Z M 234 111 " clip-rule="nonzero"/></clipPath><clipPath id="e21657ebb8"><path d="M 149.125 92 L 252.246094 92 L 252.246094 279.359375 L 149.125 279.359375 Z M 149.125 92 " clip-rule="nonzero"/></clipPath><clipPath id="f262150405"><path d="M 247.171875 139 L 344.277344 139 L 344.277344 279.359375 L 247.171875 279.359375 Z M 247.171875 139 " clip-rule="nonzero"/></clipPath><clipPath id="ad9c075200"><path d="M 131 130 L 194.765625 130 L 194.765625 279.359375 L 131 279.359375 Z M 131 130 " clip-rule="nonzero"/></clipPath></defs><g transform="matrix(1, 0, 0, 1, 0, 0)"><g clip-path="url(#9496e456b3)"><g clip-path="url(#bd8a10437d)"><path fill="currentColor" d="M 187.53125 374.976562 C 290.914062 374.976562 375.03125 290.863281 375.03125 187.476562 C 375.03125 84.09375 290.914062 -0.03125 187.53125 -0.03125 C 84.144531 -0.03125 0.03125 84.085938 0.03125 187.46875 C 0.03125 290.855469 84.144531 374.96875 187.53125 374.96875 Z M 187.53125 17.828125 C 281.070312 17.828125 357.179688 93.9375 357.179688 187.476562 C 357.179688 281.019531 281.070312 357.125 187.53125 357.125 C 93.988281 357.125 17.878906 281.019531 17.878906 187.476562 C 17.878906 93.9375 93.988281 17.828125 187.53125 17.828125 Z M 187.53125 17.828125 " fill-opacity="1" fill-rule="nonzero"/></g><path fill="currentColor" d="M 320.105469 67.519531 L 307.476562 54.894531 L 54.953125 307.414062 L 67.582031 320.042969 Z M 320.105469 67.519531 " fill-opacity="1" fill-rule="nonzero"/></g></g><g clip-path="url(#a3e3fb27e5)"><path fill="currentColor" d="M 30.789062 162.148438 C 81.578125 207.976562 98.277344 278.996094 103.253906 279.414062 L 138.011719 279.414062 C 79.445312 183.773438 30.789062 162.148438 30.789062 162.148438 " fill-opacity="1" fill-rule="nonzero"/></g><g clip-path="url(#f4385aaf62)"><path fill="currentColor" d="M 129.246094 279.414062 C 129.246094 279.414062 107.925781 159.9375 74.535156 117.308594 C 74.535156 117.308594 132.59375 154.660156 169.507812 279.414062 L 129.246094 279.414062 " fill-opacity="1" fill-rule="nonzero"/></g><g clip-path="url(#50af9cd18d)"><path fill="currentColor" d="M 229.757812 279.414062 C 229.757812 279.414062 233.640625 185.664062 207.253906 124.910156 C 207.253906 124.910156 233.105469 147.363281 270.019531 272.109375 L 229.757812 279.414062 " fill-opacity="1" fill-rule="nonzero"/></g><g clip-path="url(#9e1fab9a97)"><path fill="currentColor" d="M 161.511719 279.414062 C 161.511719 279.414062 159.339844 171.226562 198.207031 91.53125 C 198.207031 91.53125 191.074219 200.582031 200.652344 279.414062 L 161.511719 279.414062 " fill-opacity="1" fill-rule="nonzero"/></g><g clip-path="url(#a3d148cb79)"><path fill="currentColor" d="M 191.882812 279.414062 C 191.882812 279.414062 203.382812 156.265625 275.460938 76.105469 C 275.460938 76.105469 219.367188 212.679688 235.214844 279.414062 L 191.882812 279.414062 " fill-opacity="1" fill-rule="nonzero"/></g><g clip-path="url(#a8efa8ae16)"><path fill="currentColor" d="M 234.851562 279.414062 C 234.851562 279.414062 240.019531 184.664062 295.722656 111.433594 C 295.722656 111.433594 258.3125 238.28125 268.546875 279.414062 L 234.851562 279.414062 " fill-opacity="1" fill-rule="nonzero"/></g><g clip-path="url(#e21657ebb8)"><path fill="currentColor" d="M 252.160156 279.414062 L 221.367188 279.414062 C 221.367188 279.414062 192.113281 177.402344 149.917969 92.816406 C 149.917969 92.816406 227.402344 174.148438 252.160156 279.414062 " fill-opacity="1" fill-rule="nonzero"/></g><g clip-path="url(#f262150405)"><path fill="currentColor" d="M 247.589844 279.414062 L 278.664062 279.414062 C 278.664062 279.414062 272.023438 243.152344 344.277344 139.464844 C 344.277344 139.464844 256.621094 190.371094 247.589844 279.414062 " fill-opacity="1" fill-rule="nonzero"/></g><g clip-path="url(#ad9c075200)"><path fill="currentColor" d="M 154.15625 279.414062 C 154.15625 279.414062 158.039062 190.820312 131.644531 130.085938 C 131.644531 130.085938 157.511719 154.679688 194.417969 279.414062 L 154.15625 279.414062 " fill-opacity="1" fill-rule="nonzero"/></g></svg>